<svg width="410" height="342" viewBox="0 0 410 342" fill="none" xmlns="http://www.w3.org/2000/svg">
<g id="homework_2 1" clip-path="url(#clip0_272_17)">
<path id="Vector" d="M115.735 59.31C115.591 98.239 157.792 101.12 161.339 101.468C203.612 102.607 206.621 72.7927 209.738 50.8279C206.609 25.5644 196.25 2.83484 168.323 4.64361C114.657 6.19203 116.283 33.8352 115.735 59.31ZM353.665 33.101L346.096 33.6265C346.096 33.6265 303.517 38.6238 303.623 73.3514C303.732 108.079 332.173 120.951 341.51 124.72C358.468 127.067 380.926 119.813 391.685 105.116C402.444 90.4192 396.863 68.6109 388.251 53.8902C379.637 39.1694 353.665 33.101 353.665 33.101ZM88.2304 137.041C79.6843 153.169 76.6497 179.706 77.9141 203.026C77.9141 203.026 63.7548 212.498 55.0064 216.429C46.2584 220.36 9.89979 234.075 3.12391 241.133C-3.65232 248.192 1.25278 281.118 11.5187 290.946C21.7834 300.775 64.1592 344.109 149.619 341.92C235.078 339.731 278.818 309.129 295.81 280.537C312.801 251.945 351.08 237.604 391.029 209.236C430.977 180.867 385.567 142.894 359.019 135.299C332.471 127.704 305.366 134.048 295 137.086C284.634 140.124 177.633 170.101 177.633 170.101C177.633 170.101 183.253 140.616 177.752 129.487C172.251 118.358 168.213 113.248 147.09 108.211C123.379 102.557 97.353 121.089 88.2304 137.041Z" fill="white"/>
<g id="Group 32">
<path id="Vector_2" d="M182.806 5.00024C176.639 5.01742 170.277 5.9311 164.595 7.77588C148.805 12.903 136.91 22.4251 125.541 39.0399C125.326 39.3532 121.862 40.283 117.842 41.1054C111.798 42.3419 110.46 43.1072 110.117 45.5267C109.888 47.136 110.328 49.2303 111.095 50.1814C112.158 51.4994 111.727 52.4257 109.281 54.0745C105.367 56.713 105.04 61.8462 108.623 64.4278C110.824 66.0137 110.988 66.8211 109.81 70.2951C107.896 75.9465 110.925 81.6936 116.887 83.7177C120.111 84.8128 121.599 86.2252 122.18 88.7453C123.465 94.3176 126.374 96.8422 131.513 96.8422C134.069 96.8422 136.759 96.2263 137.49 95.4735C138.414 94.5236 143.842 96.9427 149.972 101.295C162.196 109.975 173.109 110.268 182.526 109.111C189.135 108.299 190.095 108.203 190.095 108.203C192.351 111.66 197.912 111.295 197.134 105.584L205.47 101.4C206.93 103.831 213.054 106.005 216.289 104.739C218.356 103.931 219.902 101.824 220.872 98.4941C221.812 95.2656 223.66 92.6869 226.04 91.2812C229.14 89.4512 229.745 88.2526 229.745 83.9468C229.745 80.9716 230.552 78.11 231.657 77.1662C234.648 74.6127 233.915 68.1216 229.892 61.5404C227.131 57.0227 226.06 53.3964 225.599 46.9957C224.327 29.3661 216.661 16.136 203.765 9.30965C198.342 6.43944 190.736 4.97848 182.806 5.00024ZM355.73 26.9326C351.948 26.9699 350.917 28.3861 353.309 31.1063C356.264 34.4647 354.682 35.4696 343.585 37.2833C331.565 39.248 323.732 44.2719 317.619 50.5604C304.745 63.8058 300.686 86.2911 310.564 106.947C314.454 115.08 323.721 123.287 332.82 127.584C339.734 130.849 342.357 131.47 341.624 134.468C341.182 136.278 340.503 139.383 340.115 141.366C339.474 144.649 338.902 144.975 333.766 144.975C330.62 144.975 325.889 146.147 323.074 147.624C318.729 149.904 318.025 150.879 318.025 154.61C318.025 162.317 322.983 164.95 342.886 167.807C344.99 168.109 350.973 168.15 356.181 167.899C370.172 167.222 376.111 161.441 371.022 153.451C368.316 149.202 363.155 146.619 355.199 145.533C346.45 144.339 346.105 141.175 354.818 142.037C368.279 143.367 385.813 136.959 395.96 127.001C402.211 120.866 403.595 118.555 406.623 109.18C413.759 87.0931 409.368 62.5455 395.516 47.0853C387.266 37.8772 378.533 31.9958 369.228 29.3807C363.277 27.7083 358.671 26.9035 355.73 26.9326ZM361.041 33.4772C369.082 33.4772 386.93 44.9201 394.15 54.7048C405.681 70.3319 407.124 95.4691 397.531 113.602C392.277 123.535 386.087 128.555 374.533 132.252C362.234 136.188 347.14 137.882 348.135 135.216C348.588 133.999 351.885 133.281 358.592 132.941C388.253 131.436 407.146 104.83 399.018 76.0096C393.817 57.5637 381.983 44.3569 365.528 38.6369C359.417 36.5127 356.776 33.4772 361.041 33.4772ZM349.377 41.3469H352.485L349.323 46.2661C347.584 48.9715 345.511 53.104 344.718 55.4486C343.924 57.7934 342.47 59.7118 341.487 59.7118C339.313 59.7118 339.501 60.2328 339.183 53.3831C338.959 48.5683 339.475 47.23 342.595 44.529C344.617 42.7788 347.668 41.3469 349.377 41.3469ZM354.931 42.4333C355.742 42.5204 356.233 44.381 356.906 48.0689C357.678 52.3048 357.455 52.8735 354.79 53.4656C353.152 53.8294 350.808 54.5612 349.58 55.0917C346.5 56.424 346.802 54.842 351.038 47.4395C352.988 44.0331 354.119 42.3462 354.931 42.4333ZM360.034 42.6588C361.402 42.6588 364.064 44.7411 365.951 47.2859C367.837 49.8309 369.159 52.0484 368.883 52.2168C368.61 52.3832 366.567 52.3328 364.342 52.1049C361.131 51.7755 360.015 50.8551 358.924 47.6348C357.168 42.4518 357.122 42.6588 360.034 42.6588ZM340.267 42.9614C340.883 42.9319 340.361 43.5761 338.603 45.1726C336.947 46.6758 334.078 47.887 332.226 47.8647C328.993 47.8247 328.958 47.7477 331.337 45.8968C332.698 44.8375 334.516 43.9706 335.376 43.9706C336.237 43.9706 337.992 43.6258 339.276 43.2046C339.731 43.0555 340.062 42.9712 340.267 42.9614ZM369.013 45.4228C369.846 45.4365 372.185 46.9282 376.387 49.9062C376.578 50.0423 376.368 51.1238 375.931 52.309C374.783 55.386 373.854 54.9465 370.676 49.8175C368.854 46.8767 368.181 45.4098 369.013 45.4228ZM327.898 48.6254C328.108 48.6013 328.225 48.6927 328.225 48.9147C328.225 49.8028 329.085 50.5294 330.137 50.5294C333.33 50.5294 332.326 52.8638 326.321 59.3879C320.305 65.9232 319.341 69.2519 322.443 72.7786C324.082 74.6447 324.076 75.3636 322.388 78.7106C320.846 81.7689 320.729 83.7741 321.795 88.8882C322.525 92.3912 323.123 95.8189 323.123 96.5049C323.123 97.9967 322.305 97.9566 317.745 96.2413C313.529 94.6553 312.213 89.2019 313.417 78.2899C314.669 66.9372 317.981 58.407 321.144 58.3795C323.293 58.3623 323.419 58.1361 321.848 57.1067C320.249 56.0592 320.615 55.1514 324.079 51.5767C325.788 49.8127 327.264 48.698 327.896 48.6254H327.898ZM182.65 60.7078C187.948 66.6215 206.248 77.1662 211.213 77.1662C213.031 77.1662 213.043 77.5483 211.337 80.9439C208.218 87.149 202.949 92.8652 197.909 95.5107C193.614 97.765 192.979 97.8065 191.178 95.9537C188.999 93.7116 185.625 94.7016 186.396 97.5754L187.047 100.006C187.047 100.006 177.246 105.515 162.091 99.9986C155.875 97.7362 147.611 89.7615 144.501 86.9174C143.334 85.8509 150.192 78.0686 155.562 74.3646C158.846 72.0991 165.052 66.724 169.352 62.4189C176.247 55.0503 176.075 53.3683 182.65 60.7078ZM363.024 54.6116C364.105 54.6116 365.698 55.4373 367.749 57.0881L370.937 59.6533L366.156 59.6834C362.216 59.7074 361.374 59.2512 361.374 57.0889C361.374 55.4381 361.943 54.6116 363.024 54.6116ZM380.465 54.6571C380.93 54.6326 381.482 54.981 382.316 55.692C383.421 56.6359 384.325 57.7965 384.325 58.2724C384.325 58.748 382.891 59.2591 381.138 59.4086C377.743 59.6975 377.287 58.8834 379.147 55.8581C379.627 55.0772 380.002 54.68 380.465 54.6554V54.6571ZM357.113 55.8536C358.168 55.8605 358.825 56.4918 358.825 57.7434C358.825 59.0972 357.532 59.6979 354.68 59.6687C350.761 59.6291 350.672 59.5225 353.012 57.7008C354.606 56.4604 356.058 55.8462 357.113 55.8536ZM385.261 60.2065C386.534 60.3542 388.151 62.7158 390.716 68.0762C400.34 88.1886 395.264 110.322 379.078 118.817C372.478 122.281 372.2 122.098 375.566 116.495C377.175 113.817 379.702 107.766 381.182 103.049C383.234 96.5108 384.686 94.0658 387.288 92.7612C389.523 91.64 390.699 90.0051 390.699 88.0195C390.699 84.3605 386.487 78.5429 383.016 77.4096C381.632 76.9578 380.499 75.5204 380.499 74.2169C380.499 72.9132 379.665 69.4112 378.643 66.4351C376.806 61.0765 376.819 61.0232 379.815 61.0232C381.48 61.0232 383.693 60.6869 384.734 60.2758C384.904 60.2088 385.079 60.1854 385.261 60.2065ZM339.501 61.0232C341.012 61.0232 342.235 61.1714 342.235 61.3516C342.219 61.532 341.367 64.5772 340.323 68.1189C339.279 71.6604 338.424 76.235 338.424 78.2849C338.424 81.6793 337.998 82.0308 333.643 82.2215C329.071 82.4223 329.354 83.6079 333.228 84.1068C335.227 84.3644 337.222 84.4335 337.222 84.4335C337.279 85.2248 337.372 87.9197 337.771 92.2535C338.215 97.0815 338.877 102.655 339.24 104.639C339.882 108.143 339.735 108.246 334.152 108.246C329.17 108.246 328.341 107.852 327.957 105.295C327.712 103.672 328.09 101.322 328.796 100.074C329.733 98.4199 329.483 96.7673 327.877 93.9693C324.407 87.9246 325.049 83.9481 330.138 79.9545C335.446 75.7888 335.689 73.9013 331.367 70.4036L328.134 67.7869L332.443 64.405C334.813 62.5449 337.989 61.0232 339.501 61.0232ZM370.909 61.6871C373.029 61.6768 373.577 62.5371 374.708 65.4142C375.602 67.6886 376.709 71.1731 377.166 73.157C377.867 76.1977 377.587 76.7644 375.383 76.7644C373.946 76.7644 372.438 77.6501 372.035 78.7322C371.628 79.8224 369.736 80.6992 367.79 80.6992C364.397 80.6992 364.247 80.403 363.41 72.0076C362.952 67.2274 362.714 63.1576 362.917 62.9627C363.121 62.7682 365.491 62.3104 368.185 61.9446C369.321 61.7903 370.202 61.6904 370.909 61.6871ZM346.031 62.5765C346.505 62.5415 347.024 62.7807 347.613 63.2591C348.52 63.9949 350.84 64.9848 352.768 65.4587C357.102 66.5242 357.167 68.0783 353.087 73.0683C351.333 75.2119 349.899 78.1012 349.899 79.4885C349.899 81.4973 348.989 82.0111 345.436 82.0111C340.381 82.0111 340.276 81.6407 342.384 71.254C343.602 65.2581 344.61 62.6822 346.031 62.5765ZM361.374 72.3715V77.1913C361.374 81.458 361.009 82.0111 358.187 82.0111C356.39 82.0111 355 81.2528 355 80.2723C355 79.3159 356.434 77.1469 358.187 75.4525L361.374 72.3715ZM328.3 74.1405C329.043 74.1405 329.295 74.7312 328.862 75.4525C328.428 76.1739 327.823 76.7644 327.512 76.7644C327.202 76.7644 326.95 76.1739 326.95 75.4525C326.95 74.7312 327.557 74.1405 328.3 74.1405ZM382.247 81.1608C382.603 81.0802 383.229 81.6463 384.325 82.6671C387.393 85.5234 387.599 88.0034 384.858 89.0855C381.815 90.287 381.773 90.2349 381.773 85.0868C381.773 82.4367 381.792 81.2644 382.247 81.1608ZM178.326 81.6836C175.557 81.6051 171.838 85.6528 172.791 88.2068C173.782 90.8588 176.721 90.865 179.289 88.2223C181.899 85.5398 181.84 82.909 179.149 81.8464C178.889 81.7437 178.613 81.6916 178.326 81.6836ZM199.485 82.4132C196.441 82.4132 194.045 84.8781 194.045 88.0098C194.045 89.9055 194.834 90.365 197.551 90.0433C200.305 89.7173 201.143 88.8538 201.461 86.0206C201.774 83.2256 201.33 82.4132 199.485 82.4132ZM377.879 82.6671L377.914 88.2423C377.946 93.5842 377.786 93.8166 374.078 93.8166C371.95 93.8166 368.795 94.7702 367.066 95.9353C364.069 97.9567 363.924 97.9267 363.924 95.2794C363.924 93.7278 364.74 92.5047 365.776 92.5047C369.216 92.5047 373.638 89.7029 375.765 86.175L377.879 82.6671ZM359.387 83.3231C360.48 83.3231 361.374 83.9135 361.374 84.635C361.374 85.3565 360.835 85.946 360.175 85.946C359.515 85.946 358.62 85.3565 358.187 84.635C357.754 83.9135 358.294 83.3231 359.387 83.3231ZM366.549 83.3231C367.993 83.3231 368.821 83.9135 368.387 84.635C367.954 85.3565 366.773 85.946 365.762 85.946C364.752 85.946 363.925 85.3565 363.925 84.635C363.925 83.9135 365.105 83.3231 366.549 83.3231ZM340.615 84.635H345.758C349.22 84.635 351.148 85.2971 351.657 86.6614C352.073 87.7762 354.43 89.5546 356.894 90.614C362.028 92.8209 362.629 95.8166 359.155 101.868C357.335 105.038 357.244 105.93 358.653 106.826C359.837 107.579 359.939 108.194 358.976 108.806C356.971 110.081 343.54 109.333 342.677 107.897C342.279 107.234 341.653 101.728 341.285 95.6629L340.615 84.635ZM377.176 98.0719C378.148 98.1765 377.995 99.1528 377.463 101.889C377.006 104.24 375.699 108.256 374.423 110.741L371.749 115.948C371.031 117.347 370.049 117 367.705 114.093C366.276 112.323 365.799 112.092 365.799 112.092C369.556 111.657 372.276 111.873 372.209 110.676C372.174 110.025 369.412 109.974 365.698 109.419C365.698 109.419 365.217 108.905 365.884 106.606C367.073 102.513 370.27 99.5427 374.615 98.4979C375.512 98.2822 376.189 98.1254 376.688 98.0772C376.875 98.059 377.037 98.0566 377.176 98.0719ZM350.995 99.2657C350.372 99.2571 349.899 99.979 349.899 101.031C349.899 102.234 350.516 103.006 351.27 102.748C352.023 102.489 352.641 101.717 352.641 101.031C352.641 100.346 352.023 99.5736 351.27 99.3154C351.176 99.2831 351.084 99.2673 350.995 99.2657ZM318.238 100.625C318.855 100.609 319.789 100.782 321.038 101.104C323.465 101.731 324.69 103.221 325.616 106.669C326.311 109.259 326.691 111.574 326.456 111.814C326.223 112.054 323.898 109.821 321.291 106.852C317.391 102.41 316.387 100.672 318.238 100.625ZM149.616 108.759C140.561 108.557 131.422 110.109 124.093 114.464C107.439 124.358 95.9853 143.441 91.0436 169.476C89.5076 177.567 89.8468 202.722 91.545 206.666C92.2168 208.228 89.7856 209.803 80.5858 213.765C63.8808 220.96 49 228.728 49 230.253C49 233.044 55.3473 231.137 81.3126 220.543C118.188 205.492 123.981 203.866 123.981 203.866C125.163 204.584 129.574 208.403 129.574 208.403C128.203 209.596 123.531 211.01 117.75 214.279C110.793 218.213 105.1 222.18 105.1 223.094C105.1 224.009 109.094 227.292 113.976 230.39C118.857 233.489 122.653 236.227 122.415 236.473C122.175 236.719 118.183 234.772 113.541 232.146C108.899 229.521 105.1 228.025 105.1 228.822C105.1 230.547 113.633 236.22 131.875 246.622C139.238 250.82 147.988 255.996 151.319 258.124C154.65 260.252 161.819 263.996 167.256 266.432C170.947 268.085 177.478 271.834 184.375 269.467C185.918 268.937 191.017 266.88 195.95 265.474C200.882 264.068 213.873 259.438 224.816 255.185C235.759 250.933 250.163 245.427 256.825 242.949C278.21 234.992 308.332 222.458 312.749 219.678C320.234 214.968 316.004 215.34 304.555 220.398C298.475 223.086 284.531 228.402 273.569 232.213C262.607 236.024 251.423 240.124 248.718 241.325C246.012 242.526 243.55 243.253 243.246 242.941C242.57 242.246 246.812 240.48 278.499 228.27C313.223 214.89 314.114 214.49 315.614 211.607C317.291 208.383 314.724 205.184 306.55 200.306C303.394 198.422 295.05 193.887 295.05 193.887C291.127 183.615 277.974 175.707 270.578 173.791C266.554 172.749 263.108 170.532 259.291 166.531C256.269 163.363 252.436 160.98 252.744 160.732C253.05 160.484 263.232 157.356 273.399 154.284C294.169 148.011 302.724 144.304 302.724 141.579C302.724 138.591 298.438 139.333 271.706 146.952C257.802 150.915 245.915 154.157 245.291 154.157C244.667 154.157 236.822 149.224 227.859 143.193C218.896 137.163 206.686 129.734 200.725 126.684C194.765 123.633 185.491 118.807 180.098 115.997C172.761 112.175 161.258 109.018 149.616 108.759ZM331.813 110.453C332.494 110.458 333.374 110.524 334.503 110.634C337.874 110.965 339.808 111.87 340.191 113.297C340.51 114.486 341.143 116.788 341.596 118.411C342.624 122.089 341.65 122.081 335.238 118.353C332.392 116.699 329.973 114.227 329.767 112.76C329.521 111.019 329.767 110.445 331.813 110.453ZM346.081 111.392C347.225 111.348 348.795 111.485 350.857 111.709C354.889 112.146 358.323 112.622 358.49 112.765C358.657 112.908 358.072 115.594 357.188 118.734C356.305 121.874 355.019 124.552 354.333 124.683C350.396 125.439 347.155 123.425 345.416 119.141C343.034 113.276 342.647 111.524 346.081 111.392ZM362.069 114.206C362.137 114.198 362.213 114.206 362.295 114.228C362.69 114.341 363.242 114.826 364.091 115.617C367.171 118.483 367.435 123.014 364.008 123.941L362.413 124.372C358.313 125.481 358.428 125.622 359.413 123.003C359.888 121.74 360.599 119.063 360.993 117.054C361.366 115.153 361.581 114.271 362.069 114.206ZM150.203 114.61C152.91 114.561 156.18 114.766 158.968 115.242C165.743 116.4 166.505 118.164 162.074 122.446C159.293 125.044 156.109 125.365 151.309 123.56C148.443 121.923 143.957 116.354 144.813 115.497C145.349 114.961 147.495 114.659 150.203 114.61ZM139.549 116.361C139.698 116.345 139.848 116.349 139.998 116.378C141.197 116.606 142.369 118.407 143.155 120.643C148.006 134.447 165.284 135.637 170.638 122.536C171.759 119.793 172.589 119.194 173.995 120.11C177.097 122.13 171.661 130.662 164.952 134.154C154.566 139.56 140.816 132.453 137.573 117.497C137.573 117.497 138.512 116.466 139.549 116.361ZM133.569 118.872C134.191 118.889 134.426 119.384 134.426 120.304C135.9 135.675 152.875 146.781 166.702 140.879C171.082 139.01 176.62 132.875 177.872 129.562C179.444 125.4 180.782 125.874 183.433 131.53C185.819 136.619 187.761 161.108 186.238 165.193C186.238 165.193 184.747 162.955 180.675 159.503C170.811 151.137 166.679 156.099 174.335 167.118C176.65 170.451 179.62 174.741 180.115 175.582C180.115 175.582 177.476 177.206 171.728 179.15C166.989 180.751 137.765 191.7 130.576 193.917C125.496 188.103 123.173 171.2 126.229 155.446C128.477 136.051 128.053 133.17 122.95 133.17C118.956 133.17 117.583 136.824 115.677 152.51C114.07 166.248 112.244 187.213 120.044 198.129C111.746 201.501 105.53 203.261 97.7681 206.322C96.8922 206.644 96.1687 206.402 96.2057 205.784C96.4951 195 99.0085 172.425 100.645 165.914C105.348 147.206 114.72 131.663 126.516 123.004C130.421 120.138 132.534 118.842 133.569 118.872ZM194.049 134.481C195.516 134.481 230.127 157.157 230.399 158.352C224.734 161.702 203.621 167.595 197.298 170.478C194.558 171.319 194.511 171.119 194.74 159.139C194.866 152.431 194.508 144.139 193.944 140.712C193.36 137.169 193.406 134.481 194.049 134.481ZM336.263 146.54C336.533 146.53 336.777 146.535 336.997 146.554C338.467 146.682 338.932 147.491 339.657 149.453C341.194 153.611 345.081 153.903 347.57 150.046L349.375 147.248L356.969 151.031C362.487 153.779 364.561 155.529 364.561 157.436C364.561 159.823 363.641 160.08 354.362 160.277C344.663 160.484 326.157 158.053 323.221 156.186C318.891 153.433 324.211 148.409 332.996 146.955C334.403 146.722 335.454 146.569 336.263 146.54ZM238.778 165.074C238.778 165.074 246.927 171.599 251.406 175.67C249.35 175.043 247.809 173.583 244.587 171.955C242.014 170.656 239.972 170.779 221.673 177.165C210.503 181.063 202.003 183.885 202.003 183.907C199.997 181.573 198.843 180.437 197.236 178.984C197.88 178.433 233.575 166.569 238.778 165.074ZM325.756 175.307C322.982 175.463 320.175 177.336 318.984 180.604C318.548 181.804 318.656 189.182 319.226 197.001C320.141 209.558 320.763 212.171 324.562 219.394C331.642 232.856 335.911 229.605 335.834 210.804C335.78 196.923 333.729 181.879 331.391 178.207C330.051 176.103 327.913 175.186 325.756 175.307ZM243.436 175.728L253.214 181.012C262.962 186.28 263.038 187.248 263.038 187.248C262.592 193.938 264.255 198.878 264.559 199.829C264.918 200.95 262.37 202.637 257.326 204.618C245.743 209.169 241.05 211.909 242.422 213.321C244.122 215.07 264.614 205.107 267.757 200.995C269.436 200.913 270.302 198.095 271.081 196.893L273.597 202.117C274.904 204.834 275.799 207.152 275.625 207.247C275.453 207.341 269.423 209.965 262.227 213.077C249.033 218.783 246.7 220.388 248.713 222.366C249.927 223.56 280.956 208.825 282.625 206.262C283.199 205.38 283.364 202.889 282.992 200.724L282.315 196.788L285.6 201.052C289.226 205.759 292.979 206.547 294.966 203.02C296.17 200.882 296.675 200.957 302.288 204.105C305.604 205.965 308.512 208.084 308.747 208.814C309.333 210.625 249.968 233.456 247.354 232.424C245.864 231.835 243.662 230.347 243.662 230.347C247.944 227.915 244.272 224.765 239.829 227.273C239.829 227.273 236.026 225.635 234.482 223.466C238.95 221.545 235.794 218.781 231.461 220.834C229.959 218.7 228.724 218.545 227.119 216.753C230.583 214.916 224.935 212.536 222.339 214.752C221.305 215.635 219.158 217.128 218.273 216.779C217.276 216.385 216.591 217.345 216.475 219.301C216.33 221.754 220.278 220.252 222.017 219.684L226.166 223.513C222.49 225.33 223.496 228.012 229.044 226.51C229.044 226.51 230.463 227.259 231.833 228.306C233.936 229.913 234.242 230.372 234.242 230.372C229.987 233.328 233.194 234.678 238.126 232.943C238.126 232.943 243.244 236.169 238.794 237.97C237.141 238.639 230.347 241.367 223.697 244.032C217.046 246.696 194.192 254.615 185.849 257.925C181.277 259.738 181.329 260.447 176.783 258.214C169.93 255.429 122.508 230.513 114.372 225.407C108.933 221.994 109.243 223.437 115.01 220.455C117.625 219.152 130.636 212.922 136.004 211.237C136.004 211.237 136.555 211.102 140.8 213.026C147.285 215.965 170.355 215.832 176.963 212.818C181.296 210.842 183.329 210.747 193.868 212.025C204.008 213.256 208.643 209.807 213.819 208.065C213.819 208.065 217.894 210.548 220.879 210.115C225.587 209.433 224.363 208.453 219.402 203.545C218.59 200.27 216.949 193.989 215.949 192.492C214.706 190.632 211.446 190.197 207.695 189.112L216.216 185.886C222.071 183.595 230.591 180.374 235.149 178.725L243.436 175.728ZM383.088 178.19C379.068 178.422 362.503 186.772 352.449 193.78C344.889 199.051 344.126 200.007 343.751 204.68C343.459 208.313 343.958 210.267 345.47 211.403C347.786 213.146 348.629 212.901 358.3 207.678C376.486 197.855 390.952 181.11 383.719 178.254C383.568 178.194 383.355 178.175 383.088 178.19ZM324.069 179.726C324.581 179.765 325.237 180.098 326.038 180.714C327.967 182.197 330.672 195.197 330.748 203.346C330.766 205.227 329.871 206.024 327.586 206.159C324.627 206.335 324.391 205.911 324.323 200.256C324.283 196.906 323.763 191.213 323.172 187.606C322.275 182.135 322.532 179.608 324.069 179.726ZM185.695 182.71C185.695 182.71 187.319 184.409 187.626 185.311C187.983 186.353 186.965 186.95 184.832 186.95C182.931 186.95 180.262 189.55 178.66 191.329C178.66 191.329 171.355 193.577 160.695 197.674C152.794 200.711 149.347 201.872 146.561 202.393C144.021 202.791 137.683 199.986 136.503 199.326C136.503 199.326 180.268 182.958 185.695 182.71ZM378.53 183.645C378.953 183.697 379.225 183.921 379.225 184.291C379.225 186.069 376.959 187.172 376.133 185.797C375.738 185.139 376.27 184.263 377.319 183.85C377.581 183.746 377.831 183.681 378.059 183.652C378.229 183.63 378.388 183.629 378.53 183.645ZM373.497 187.566C374.755 187.506 375.399 188.129 375.399 189.446C375.399 190.143 370.763 193.998 365.097 198.013C359.432 202.029 354.623 205.314 354.409 205.314C354.196 205.314 353.735 204.193 353.388 202.822C352.898 200.894 354.9 198.788 362.228 193.525C367.598 189.667 371.4 187.667 373.497 187.566ZM252.451 195.246C249.965 195.032 226.108 207.994 226.862 209.249C227.72 210.677 236.748 207.219 245.657 202.052C251.719 198.536 253.801 196.52 252.623 195.309C252.588 195.274 252.531 195.253 252.451 195.246ZM177.174 198.13C175.957 199.402 177.105 202.511 174.662 202.484C174.079 202.477 171.597 203.649 167.153 203.774L158.086 204.029L177.174 198.13ZM348.69 204.241C349.378 204.2 349.899 204.861 349.899 205.861C349.899 207.003 348.992 207.938 347.882 207.938C345.63 207.938 346.021 205.114 348.385 204.303C348.489 204.267 348.592 204.247 348.69 204.241ZM330.945 210.699C331.832 210.769 332.081 211.395 331.832 212.722C331.585 214.042 330.333 215.33 329.051 215.584C327.367 215.918 326.841 215.38 327.166 213.647C327.414 212.327 328.667 211.039 329.95 210.786C330.16 210.744 330.352 210.715 330.526 210.701C330.68 210.689 330.819 210.689 330.945 210.696V210.699ZM135.811 243.696C135.861 243.617 136.553 243.954 137.931 244.641C139.509 245.427 140.8 246.346 140.8 246.681C140.8 247.685 140.14 247.394 137.538 245.25C136.35 244.271 135.76 243.775 135.811 243.696ZM87.2798 244.993C83.669 245 83.7982 246.831 76.3696 254.617C54.4024 279.271 54.9832 277.484 54.5141 288.012C54.1214 296.814 51.6874 296.29 59.5264 298.985C62.5024 300.117 78.9946 305.436 96.1752 310.803C113.356 316.171 129.42 321.474 131.875 322.588C134.329 323.702 137.198 324.482 138.25 324.32C139.302 324.159 142.745 318.959 145.9 312.765C151.847 301.092 159.316 288.576 162.13 285.565C163.021 284.612 163.751 280.991 163.751 277.519C163.751 271.834 165.263 270.308 160.736 266.099C157.97 263.529 151.511 261.252 148.841 260.508C146.172 259.764 134.52 256.471 122.95 253.19C111.378 249.909 96.9271 245.887 92.557 245.441C90.1036 245.191 88.484 244.991 87.2798 244.993ZM88.8548 251.349C92.5189 251.403 98.9703 253.088 111.486 256.999C121.648 260.174 143.342 266.645 150.178 268.618C153.741 269.655 156.17 268.976 152.857 274.594C150.925 277.873 139.714 297.201 136.557 301.736C133.022 306.815 134.605 306.796 129.026 303.86C123.47 301.048 93.4369 291.991 63.3074 284.024C59.7598 283.086 57.8431 282.524 60.8287 279.054C67.8806 270.858 84.5422 252.76 85.2768 252.23C86.0984 251.637 87.1889 251.325 88.8548 251.349ZM243.513 258.874C242.135 258.868 240.821 259.062 239.612 259.46C234.198 261.246 224.95 270.745 224.95 274.52C224.95 281.751 231.277 288.774 241.151 292.502C249.653 295.712 253.316 295.056 259.833 289.154C265.117 284.369 265.75 283.203 265.75 278.252C265.75 272.352 264.098 269.777 256.544 263.912C252.358 260.662 247.647 258.886 243.513 258.874ZM197.971 259.393C198.165 259.372 198.301 259.373 198.369 259.398C198.911 259.593 194.827 261.568 189.295 263.786C180.281 267.399 178.927 267.627 176.274 265.99C174.598 264.956 174.299 264.475 175.583 264.883C176.831 265.279 182.246 264.127 187.617 262.324C192.317 260.745 196.608 259.539 197.971 259.393ZM244.202 263.031C248.762 263.031 259.279 269.58 259.334 272.452C259.356 273.665 257.709 275.879 255.672 277.371C253.635 278.863 251.197 280.019 250.253 279.939C247.258 279.686 232.138 272.764 231.774 271.479C231.173 269.36 240.484 263.031 244.202 263.031ZM230.949 276.834C231.851 276.827 233.669 277.554 236.522 278.975C245.068 283.23 251.979 283.634 256.729 280.154C262.148 276.183 261.951 279.581 256.442 285.074C254.129 287.38 251.117 289.235 249.748 289.198C244.868 289.064 233.761 283.753 231.748 280.592C230.139 278.067 229.787 276.843 230.946 276.834H230.949ZM156.476 278.495C156.847 278.414 157.031 278.947 157.169 279.956C157.453 282.017 155.855 285.657 152.548 290.482C149.767 294.538 145.12 302.712 142.22 308.646C139.32 314.581 136.522 319.376 136.004 319.299C132.994 318.859 102.247 307.818 103.825 307.745C104.878 307.695 111.42 309.143 118.365 310.963C125.31 312.783 131.622 314.025 132.39 313.723C134.811 312.769 121.903 307.513 110.406 304.77C89.8239 299.861 60.4758 291.362 60.4758 290.312C60.4758 288.719 61.6654 288.951 75.9277 293.321C83.2071 295.551 94.8994 298.822 101.912 300.59C117.474 304.513 132.031 309.002 133.899 310.455C136.184 312.231 140.878 305.695 152.416 284.675C154.72 280.476 155.857 278.632 156.476 278.495ZM187.662 287.469C182.897 287.433 182.043 287.967 180.82 290.439C178.011 296.124 180.303 298.751 192.049 303.304C198.009 305.613 207.132 308.687 212.324 310.135C219.376 312.101 225.534 312.745 236.681 312.685C253.67 312.592 257.331 311.306 253.418 306.801C247.342 299.806 208.666 288.052 189.956 287.516C189.103 287.491 188.342 287.475 187.662 287.469ZM184.933 290.895C185.287 290.89 185.768 291.003 186.382 291.27C189.779 292.752 211.825 298.279 220.806 299.902C225.189 300.693 228.756 301.723 228.756 302.19C228.674 305.731 225.853 305.623 208.375 301.414C198.207 298.965 188.596 296.102 187.019 295.052C184.245 293.204 183.399 290.921 184.933 290.895ZM61.1133 294.751C62.5153 294.73 65.6707 295.508 68.1249 296.481C73.8688 298.757 70.3518 298.786 63.663 296.518C60.8567 295.567 59.7103 294.773 61.1133 294.751ZM238.625 303.968C239.294 303.956 240.301 304.498 241.19 305.413C243.494 307.784 242.116 308.389 239.013 306.37C237.981 305.698 237.565 304.71 238.087 304.173C238.217 304.038 238.402 303.972 238.625 303.968Z" fill="#B23C30"/>
<g id="paper_diploma 1" clip-path="url(#clip1_272_17)">
<path id="Vector_3" d="M289.887 245.239C289.887 245.239 291.89 233.803 310.088 233.041C328.287 232.279 382.155 232.224 389.815 232.823C397.475 233.422 407.688 231.916 402.732 273.264C409.457 284.437 406.261 285.906 401.787 285.114C401.229 323.318 405.035 343.608 382.906 344.978C356.206 346.632 307.936 344.724 301.803 345.069C295.67 345.414 282.628 343.145 280.751 333.706C293.792 333.525 300.676 333.561 300.676 333.561C306.259 333.646 312.557 244.427 307.76 244.549C306.905 244.57 289.887 245.239 289.887 245.239Z" fill="white"/>
<path id="Vector_4" d="M301.797 346.865C301.259 346.704 300.415 346.634 299.92 346.709C298.395 346.942 290.882 345.8 289.866 345.181C289.537 344.981 288.331 344.476 287.185 344.059C285.715 343.524 284.602 342.787 283.401 341.554C282.466 340.593 281.479 339.617 281.208 339.386C280.937 339.155 280.612 338.271 280.485 337.421C280.358 336.571 280.11 335.8 279.932 335.709C279.217 335.339 279.038 333.433 279.649 332.682C280.235 331.962 280.47 331.932 285.958 331.869C289.093 331.834 293.271 331.76 295.243 331.705C298.827 331.605 298.827 331.605 299.484 330.525C299.845 329.931 300.066 329.346 299.975 329.226C299.885 329.106 299.971 328.927 300.17 328.829C300.495 328.667 300.799 327.745 301.292 325.433C305.43 299.575 308.383 276.975 307.248 251.639C306.978 245.958 306.789 245.35 305.399 245.682C305.071 245.761 301.901 245.858 298.355 245.898C294.096 245.946 291.934 246.085 291.982 246.309C292.086 246.785 290.602 246.53 289.766 245.928C288.692 245.154 288.687 245.168 291.651 240.052C292.775 238.098 297.755 233.558 299.555 233.009C299.674 233.009 300.276 232.843 300.892 232.639C303.659 231.3 305.515 231.744 307.813 231.397C309.005 231.212 315.536 230.993 322.327 230.909C346.952 231.023 371.414 228.577 393.593 231.268C395.362 231.519 396.85 231.725 396.899 231.725C403.147 232.311 407.892 251.029 407.184 260.127C406.883 263.645 406.35 265.743 405.756 265.743C405.546 265.743 405.373 266.447 405.373 267.308C405.373 268.743 405.274 268.907 404.186 269.27C402.21 269.93 401.796 269.567 401.726 267.117C401.691 265.92 401.698 264.724 401.74 264.459C401.861 257.38 402.977 244.814 397.606 238.602C397.037 238.032 396.22 237.729 394.746 237.544C392.953 237.318 392.551 237.372 391.687 237.954C391.14 238.323 390.037 239.039 389.235 239.544C386.475 243.384 385.273 244.451 378.886 243.702C357.759 242.594 329.852 244.656 313.626 245.361C310.565 245.493 310.24 245.613 310.985 246.337C312.847 269.302 311.908 293.19 307.598 315.806C307.507 316.247 307.077 318.485 306.641 320.78C305.69 325.785 304.82 328.874 304.011 330.125C303.682 330.633 303.411 331.169 303.41 331.314C303.41 331.46 306.051 331.499 309.283 331.401C345.555 331.095 366.484 333.15 375.944 332.802C377.133 332.354 381.554 332.29 383.311 332.695C383.913 332.834 384.406 333.16 384.406 333.42C384.406 334.002 386.411 338.753 386.75 338.975C386.885 339.064 387.197 339.425 387.444 339.778C388.138 340.771 391.532 340.665 392.918 339.605C393.486 339.171 393.955 338.657 393.958 338.463C393.962 338.27 394.297 337.87 394.703 337.574C395.109 337.278 396.273 335.703 397.29 334.074C401.6 322.042 394.841 310.687 399.773 287.82C401.001 285.854 401.03 285.933 398.694 284.892C397.392 284.312 397.392 284.312 397.441 287.388C397.491 290.568 396.917 292.058 395.639 292.058C395.334 292.058 395.024 292.202 394.951 292.378C394.874 292.564 394.237 292.464 393.425 292.137C391.708 291.446 390.545 289.733 389.634 286.553C387.957 280.7 386.193 274.96 385.842 274.217C385.524 273.542 385.24 273.421 384.164 273.505C382.975 273.597 382.869 273.697 382.861 274.728C382.856 275.473 382.353 276.476 381.368 277.703C380.551 278.721 379.882 279.685 379.882 279.843C379.882 280.002 379.625 280.541 379.311 281.041C378.2 282.81 376.695 286.011 376.695 286.606C376.695 286.938 376.068 288.072 375.301 289.126C374.535 290.18 373.907 291.184 373.907 291.356C373.907 291.746 372.937 292.058 371.725 292.058C370.694 292.058 368.348 290.126 368.303 289.239C368.24 288.011 367.889 285.454 367.731 285.082C367.482 284.492 366.02 285.032 363.225 286.744C358.265 289.784 356.524 287.882 359.525 282.699C360.206 281.524 360.763 280.467 360.763 280.351C360.763 280.236 361.211 279.668 361.759 279.089C362.307 278.511 362.755 277.934 362.755 277.807C362.755 277.68 363.92 275.995 365.344 274.063C366.768 272.13 367.933 270.463 367.933 270.358C367.933 270.253 367.421 269.641 366.795 268.998C364.716 266.861 363.857 264.617 363.768 261.089C363.735 259.795 363.976 259.175 365.011 257.88C367.45 254.831 372.366 251.511 375.7 250.661C376.576 250.438 377.512 250.115 377.779 249.945C378.544 249.456 385.447 249.806 387.051 250.415C392.756 252.58 395.022 254.749 396.19 259.164C397.706 262.521 395.978 263.024 396.453 264.457C399.831 268.18 406.086 275.486 406.337 276.861C406.374 277.065 406.61 277.431 406.862 277.675C407.308 278.108 408.991 280.987 409.173 281.628C409.223 281.805 409.457 282.527 409.692 283.233C410.154 284.616 410.121 285 409.425 286.367C408.708 287.775 405.644 288.382 403.968 287.448C403.536 287.207 402.736 286.897 402.19 286.76C401.286 286.532 401.248 286.559 401.764 287.06C402.605 287.877 403.536 293.282 402.358 299.915C402.186 320.578 405.287 327.271 399.377 339.355C398.468 341.28 395.757 342.221 392.764 343.16C391.103 343.681 390.04 344.235 389.639 344.79C388.515 346.345 387.373 346.454 371.273 346.543C350.973 346.873 326.409 346.621 304.186 346.909C303.409 347.046 302.334 347.026 301.797 346.865ZM371.76 342.769C378.277 342.765 383.61 342.708 383.61 342.642C383.61 342.575 383.249 342.048 382.807 341.47C382.366 340.892 381.65 339.468 381.217 338.305C380.428 336.191 380.428 336.191 376.542 336.266C361.138 337.308 332.906 334.886 311.772 335.201C280.218 335.702 283.891 335.539 283.891 336.441C283.891 336.847 284.091 337.34 284.335 337.537C284.58 337.734 284.986 338.232 285.237 338.644C285.489 339.056 286.287 339.632 287.011 339.925C287.735 340.218 288.629 340.665 288.997 340.918C289.575 341.317 293.59 342.436 296.039 342.881C318.785 342.9 352.013 342.794 371.76 342.769ZM373.682 284.916C375.33 281.457 377.801 277.153 379.071 275.531C379.485 275.001 379.837 274.495 379.853 274.405C379.869 274.316 379.077 274.294 378.094 274.357C376.215 274.477 372.02 273.355 371.398 272.565C370.73 271.717 370.333 272.138 367.391 276.814C366.947 277.52 366.484 278.17 366.362 278.258C366.24 278.347 365.9 278.764 365.605 279.185C365.311 279.606 364.728 280.441 364.311 281.04C363.325 282.454 363.299 283.189 364.249 282.771C368.284 280.997 370.77 280.431 371.328 281.159C371.468 281.342 371.568 283.003 371.55 284.849C371.532 286.696 371.651 288.206 371.816 288.205C371.98 288.205 372.82 286.724 373.682 284.916ZM393.964 285.793C393.841 285.536 394.043 284.232 394.412 282.895C395.083 280.465 395.083 280.465 396.345 280.679C397.039 280.797 397.777 281.023 397.985 281.181C398.193 281.338 398.761 281.468 399.247 281.468C400.294 281.468 402.336 282.304 403.753 283.313C404.639 283.943 405.374 284.229 405.374 283.944C405.374 283.893 404.999 282.991 404.542 281.938C403.341 279.173 399.721 273.46 397.181 270.32C394.988 267.61 394.988 267.61 393.777 268.842C393.111 269.52 391.944 270.335 391.183 270.653C390.422 270.97 389.693 271.453 389.564 271.725C389.339 272.196 390.339 276.553 391.063 278.258C391.25 278.7 391.51 279.711 391.64 280.505C391.77 281.299 392.034 282.382 392.227 282.912C392.419 283.441 392.776 284.492 393.02 285.248C393.264 286.003 393.626 286.54 393.825 286.441C394.024 286.342 394.086 286.05 393.964 285.793ZM382.015 270.692C384.775 270.121 386.015 269.492 383.847 269.763C377.458 270.964 374.691 269.249 372.054 263.788C371.352 262.374 371.475 259.808 372.315 258.326C372.577 257.864 373.553 257.099 374.485 256.624C375.881 255.913 376.146 255.623 375.993 254.976C375.771 254.042 375.589 254.017 374.295 254.74C372.016 256.014 370.668 257.041 368.571 259.103C367.103 260.547 367.038 260.704 367.263 262.3C367.77 265.901 369.23 267.792 372.967 269.685C376.029 271.235 378.213 271.478 382.015 270.692ZM390.985 266.435C391.658 265.751 392.093 265.098 391.953 264.985C391.365 264.511 390.783 264.856 390.134 266.064C389.754 266.77 389.283 267.347 389.087 267.347C388.891 267.347 388.625 267.567 388.497 267.836C388.096 268.679 389.626 267.818 390.985 266.435ZM383.666 266.455C385.431 265.952 385.778 265.691 386.719 264.169C388.109 261.919 387.907 259.581 386.139 257.47C384.992 256.101 384.901 256.062 383.314 256.245C382.412 256.349 381.224 256.435 380.674 256.436C380.123 256.436 379.142 256.834 378.493 257.319C377.843 257.804 377.188 258.201 377.036 258.201C376.884 258.201 376.274 258.541 375.681 258.956C374.698 259.645 374.624 259.854 374.84 261.327C374.971 262.215 375.352 263.187 375.688 263.485C376.023 263.784 376.297 264.171 376.297 264.346C376.297 264.86 378.364 266.159 379.877 266.595C381.651 267.106 381.346 267.117 383.666 266.455ZM378.202 264.555C377.97 264.176 377.73 262.254 377.709 260.608C377.691 259.164 377.691 259.164 379.683 259.109C381.998 259.045 382.555 258.951 383.739 258.426C385.235 257.763 385.797 257.966 386.313 259.355C386.714 260.432 386.699 260.909 386.23 262.002C385.751 263.118 385.463 263.353 384.463 263.443C383.805 263.502 382.999 263.737 382.67 263.965C381.962 264.457 378.429 264.923 378.202 264.555ZM392.585 258.697C392.205 257.424 391.648 256.609 390.553 255.727C389.041 254.509 387.51 253.964 388.782 255.097C390.098 256.522 391.026 258.229 391.035 259.666C391.035 261.351 391.119 261.536 391.931 261.629C393.096 261.762 393.268 260.993 392.585 258.697ZM383.225 252.208C383.014 251.933 380.342 252.107 379.952 252.422C379.855 252.5 380.603 252.55 381.614 252.534C382.625 252.517 383.35 252.371 383.225 252.208ZM298.827 243.268C300.799 243.092 303.936 242.878 305.798 242.793C307.66 242.708 311.424 242.499 314.162 242.328C328.885 241.177 342.32 240.763 356.382 240.384C357.47 240.294 380.007 240.455 380.99 240.561C382.175 240.688 382.417 240.561 383.579 239.197C385.098 237.415 387.777 235.255 388.468 235.255C388.737 235.255 389.061 235.039 389.187 234.774C364.251 233.875 346.694 234.525 320.923 234.598C315.331 234.612 309.685 234.777 308.376 234.964C307.068 235.152 305.602 235.353 305.12 235.411C300.718 236.319 296.251 239.207 294.233 242.337C293.287 243.831 293.052 243.784 298.827 243.268ZM336.766 322.283C335.455 322.161 334.781 321.279 334.95 319.904C335.044 319.135 335.309 318.851 336.069 318.704C336.616 318.598 340.873 318.517 345.528 318.523C350.183 318.529 353.992 318.425 353.992 318.293C353.992 318.16 354.485 318.053 355.088 318.055C355.886 318.057 356.318 318.291 356.681 318.921C357.34 320.064 357.313 321.414 356.622 321.876C356.103 322.223 339.736 322.558 336.766 322.283ZM323.921 313.952C322.505 313.82 321.73 313.113 321.73 311.955C321.73 310.235 322.299 310.035 327.704 309.854C330.443 309.762 343.21 309.637 356.075 309.577C381.616 309.456 380.519 309.376 380.138 311.322C379.701 313.558 379.961 313.515 366.399 313.579C359.685 313.61 353.027 313.599 351.603 313.554C343.488 313.296 326.631 313.579 325.329 313.995C325.212 314.033 324.578 314.013 323.921 313.952ZM321.41 307.472C320.562 306.897 320.528 306.753 320.965 305.579C321.671 303.678 321.177 303.717 347.819 303.448C369.817 303.226 378.206 303.212 378.596 303.4C378.756 303.477 379.661 303.547 380.608 303.556C381.555 303.564 382.574 303.735 382.873 303.934C383.707 304.492 383.983 306.031 383.392 306.821C382.877 307.506 382.731 307.516 373.908 307.434C351.759 307.229 333.485 307.416 324.916 307.937C322.753 308.068 322.177 307.992 321.41 307.472ZM323.764 301.75C323.18 300.87 323.205 299.683 323.821 299.05C324.757 298.089 330.544 297.779 349.88 297.657C360.138 297.592 371.584 297.464 375.315 297.372C381.223 297.227 382.276 297.277 383.469 297.76C385.211 298.467 385.609 299.591 384.553 300.821C383.886 301.597 383.607 301.69 382.528 301.497C381.313 301.279 370.988 301.286 365.344 301.509C362.343 301.628 344.579 301.634 340.649 301.518C339.335 301.479 336.467 301.571 334.276 301.723C323.346 302.48 324.248 302.477 323.764 301.75ZM331.687 286.724C328.958 285.953 328.508 284.758 330.379 283.251C331.461 282.379 331.461 282.379 339.212 282.484C347.635 282.598 348.018 282.68 348.018 284.382C348.018 286.178 345.871 286.956 342.043 286.548C339.839 286.313 336.263 286.384 333.679 286.715C332.912 286.813 332.016 286.817 331.687 286.724ZM342.387 279.933C335.545 279.928 335.054 279.887 334.24 279.256C333.702 278.839 333.395 278.235 333.431 277.664C333.533 276.024 334.056 275.829 338.134 275.908C340.175 275.948 344.306 275.998 347.314 276.019C352.719 276.057 352.794 276.068 353.607 276.9C354.827 278.15 354.538 279.609 352.997 279.975C349.243 280.961 345.46 279.938 342.387 279.933ZM352.241 266.53C351.033 265.818 336.937 265.843 328.236 266.572C327.104 266.667 325.447 266.586 324.552 266.392C322.964 266.047 322.925 266.005 322.925 264.641C322.925 263.003 323.118 262.906 326.875 262.664C328.317 262.571 330.214 262.422 331.09 262.333C340.982 262.895 360.718 259.862 355.537 266.269C354.987 266.806 352.979 266.964 352.241 266.53ZM357.121 259.171C357.012 259.083 351.11 258.927 344.006 258.825C331.581 258.647 331.056 258.615 330.194 257.964C329.285 257.277 328.97 255.674 329.674 255.324C329.97 255.176 356.828 254.987 358.609 255.12C359.701 255.201 360.394 258.007 359.469 258.604C358.814 259.026 357.373 259.374 357.121 259.171Z" fill="#B23C30"/>
</g>
</g>
</g>
<defs>
<clipPath id="clip0_272_17">
<rect width="410" height="342" fill="white"/>
</clipPath>
<clipPath id="clip1_272_17">
<rect width="130.722" height="117" fill="white" transform="translate(279.278 230)"/>
</clipPath>
</defs>
</svg>
