<svg  viewBox="0 0 361 337" fill="none" xmlns="http://www.w3.org/2000/svg">
<g id="Group 32">
<path id="Vector" d="M133.806 0.000239598C127.639 0.0174162 121.277 0.931104 115.595 2.77588C99.8046 7.90297 87.9099 17.4251 76.5406 34.0399C76.3259 34.3532 72.8617 35.283 68.8419 36.1054C62.7984 37.3419 61.4602 38.1072 61.1169 40.5267C60.8877 42.136 61.3275 44.2303 62.0952 45.1814C63.158 46.4994 62.7269 47.4257 60.2805 49.0745C56.3668 51.713 56.0404 56.8462 59.6233 59.4278C61.8241 61.0137 61.9876 61.8211 60.8104 65.2951C58.8958 70.9465 61.9252 76.6936 67.8869 78.7177C71.1115 79.8128 72.599 81.2252 73.1798 83.7453C74.4649 89.3176 77.3745 91.8422 82.5132 91.8422C85.0695 91.8422 87.7588 91.2263 88.4904 90.4735C89.414 89.5236 94.8417 91.9427 100.972 96.2953C113.196 104.975 124.109 105.268 133.526 104.111C140.135 103.299 141.095 103.203 141.095 103.203C143.351 106.66 148.912 106.295 148.134 100.584L156.47 96.3999C157.93 98.8311 164.054 101.005 167.289 99.7395C169.356 98.9311 170.902 96.8236 171.872 93.4941C172.812 90.2656 174.66 87.6869 177.04 86.2812C180.14 84.4512 180.745 83.2526 180.745 78.9468C180.745 75.9716 181.552 73.11 182.657 72.1662C185.648 69.6127 184.915 63.1216 180.892 56.5404C178.131 52.0227 177.06 48.3964 176.599 41.9957C175.327 24.3661 167.661 11.136 154.765 4.30965C149.342 1.43944 141.736 -0.0215232 133.806 0.000239598ZM306.73 21.9326C302.948 21.9699 301.917 23.3861 304.309 26.1063C307.264 29.4647 305.682 30.4696 294.585 32.2833C282.565 34.248 274.732 39.2719 268.619 45.5604C255.745 58.8058 251.686 81.2911 261.564 101.947C265.454 110.08 274.721 118.287 283.82 122.584C290.734 125.849 293.357 126.47 292.624 129.468C292.182 131.278 291.503 134.383 291.115 136.366C290.474 139.649 289.902 139.975 284.766 139.975C281.62 139.975 276.889 141.147 274.074 142.624C269.729 144.904 269.025 145.879 269.025 149.61C269.025 157.317 273.983 159.95 293.886 162.807C295.99 163.109 301.973 163.15 307.181 162.899C321.172 162.222 327.111 156.441 322.022 148.451C319.316 144.202 314.155 141.619 306.199 140.533C297.45 139.339 297.105 136.175 305.818 137.037C319.279 138.367 336.813 131.959 346.96 122.001C353.211 115.866 354.595 113.555 357.623 104.18C364.759 82.0931 360.368 57.5455 346.516 42.0853C338.266 32.8772 329.533 26.9958 320.228 24.3807C314.277 22.7083 309.671 21.9035 306.73 21.9326ZM312.041 28.4772C320.082 28.4772 337.93 39.9201 345.15 49.7048C356.681 65.3319 358.124 90.4691 348.531 108.602C343.277 118.535 337.087 123.555 325.533 127.252C313.234 131.188 298.14 132.882 299.135 130.216C299.588 128.999 302.885 128.281 309.592 127.941C339.253 126.436 358.146 99.8303 350.018 71.0096C344.817 52.5637 332.983 39.3569 316.528 33.6369C310.417 31.5127 307.776 28.4772 312.041 28.4772ZM300.377 36.3469H303.485L300.323 41.2661C298.584 43.9715 296.511 48.104 295.718 50.4486C294.924 52.7934 293.47 54.7118 292.487 54.7118C290.313 54.7118 290.501 55.2328 290.183 48.3831C289.959 43.5683 290.475 42.23 293.595 39.529C295.617 37.7788 298.668 36.3469 300.377 36.3469ZM305.931 37.4333C306.742 37.5204 307.233 39.381 307.906 43.0689C308.678 47.3048 308.455 47.8735 305.79 48.4656C304.152 48.8294 301.808 49.5612 300.58 50.0917C297.5 51.424 297.802 49.842 302.038 42.4395C303.988 39.0331 305.119 37.3462 305.931 37.4333ZM311.034 37.6588C312.402 37.6588 315.064 39.7411 316.951 42.2859C318.837 44.8309 320.159 47.0484 319.883 47.2168C319.61 47.3832 317.567 47.3328 315.342 47.1049C312.131 46.7755 311.015 45.8551 309.924 42.6348C308.168 37.4518 308.122 37.6588 311.034 37.6588ZM291.267 37.9614C291.883 37.9319 291.361 38.5761 289.603 40.1726C287.947 41.6758 285.078 42.887 283.226 42.8647C279.993 42.8247 279.958 42.7477 282.337 40.8968C283.698 39.8375 285.516 38.9706 286.376 38.9706C287.237 38.9706 288.992 38.6258 290.276 38.2046C290.731 38.0555 291.062 37.9712 291.267 37.9614ZM320.013 40.4228C320.846 40.4365 323.185 41.9282 327.387 44.9062C327.578 45.0423 327.368 46.1238 326.931 47.309C325.783 50.386 324.854 49.9465 321.676 44.8175C319.854 41.8767 319.181 40.4098 320.013 40.4228ZM278.898 43.6254C279.108 43.6013 279.225 43.6927 279.225 43.9147C279.225 44.8028 280.085 45.5294 281.137 45.5294C284.33 45.5294 283.326 47.8638 277.321 54.3879C271.305 60.9232 270.341 64.2519 273.443 67.7786C275.082 69.6447 275.076 70.3636 273.388 73.7106C271.846 76.7689 271.729 78.7741 272.795 83.8882C273.525 87.3912 274.123 90.8189 274.123 91.5049C274.123 92.9967 273.305 92.9566 268.745 91.2413C264.529 89.6553 263.213 84.2019 264.417 73.2899C265.669 61.9372 268.981 53.407 272.144 53.3795C274.293 53.3623 274.419 53.1361 272.848 52.1067C271.249 51.0592 271.615 50.1514 275.079 46.5767C276.788 44.8127 278.264 43.698 278.896 43.6254H278.898ZM133.65 55.7078C138.948 61.6215 157.248 72.1662 162.213 72.1662C164.031 72.1662 164.043 72.5483 162.337 75.9439C159.218 82.149 153.949 87.8652 148.909 90.5107C144.614 92.765 143.979 92.8065 142.178 90.9537C139.999 88.7116 136.625 89.7016 137.396 92.5754L138.047 95.0055C138.047 95.0055 128.246 100.515 113.091 94.9986C106.875 92.7362 98.6113 84.7615 95.5006 81.9174C94.3344 80.8509 101.192 73.0686 106.562 69.3646C109.846 67.0991 116.052 61.724 120.352 57.4189C127.247 50.0503 127.075 48.3683 133.65 55.7078ZM314.024 49.6116C315.105 49.6116 316.698 50.4373 318.749 52.0881L321.937 54.6533L317.156 54.6834C313.216 54.7074 312.374 54.2512 312.374 52.0889C312.374 50.4381 312.943 49.6116 314.024 49.6116ZM331.465 49.6571C331.93 49.6326 332.482 49.981 333.316 50.692C334.421 51.6359 335.325 52.7965 335.325 53.2724C335.325 53.748 333.891 54.2591 332.138 54.4086C328.743 54.6975 328.287 53.8834 330.147 50.8581C330.627 50.0772 331.002 49.68 331.465 49.6554V49.6571ZM308.113 50.8536C309.168 50.8605 309.825 51.4918 309.825 52.7434C309.825 54.0972 308.532 54.6979 305.68 54.6687C301.761 54.6291 301.672 54.5225 304.012 52.7008C305.606 51.4604 307.058 50.8462 308.113 50.8536ZM336.261 55.2065C337.534 55.3542 339.151 57.7158 341.716 63.0762C351.34 83.1886 346.264 105.322 330.078 113.817C323.478 117.281 323.2 117.098 326.566 111.495C328.175 108.817 330.702 102.766 332.182 98.0488C334.234 91.5108 335.686 89.0658 338.288 87.7612C340.523 86.64 341.699 85.0051 341.699 83.0195C341.699 79.3605 337.487 73.5429 334.016 72.4096C332.632 71.9578 331.499 70.5204 331.499 69.2169C331.499 67.9132 330.665 64.4112 329.643 61.4351C327.806 56.0765 327.819 56.0232 330.815 56.0232C332.48 56.0232 334.693 55.6869 335.734 55.2758C335.904 55.2088 336.079 55.1854 336.261 55.2065ZM290.501 56.0232C292.012 56.0232 293.235 56.1714 293.235 56.3516C293.219 56.532 292.367 59.5772 291.323 63.1189C290.279 66.6604 289.424 71.235 289.424 73.2849C289.424 76.6793 288.998 77.0308 284.643 77.2215C280.071 77.4223 280.354 78.6079 284.228 79.1068C286.227 79.3644 288.222 79.4335 288.222 79.4335C288.279 80.2248 288.372 82.9197 288.771 87.2535C289.215 92.0815 289.877 97.6546 290.24 99.6386C290.882 103.143 290.735 103.246 285.152 103.246C280.17 103.246 279.341 102.852 278.957 100.295C278.712 98.6715 279.09 96.3221 279.796 95.0743C280.733 93.4199 280.483 91.7673 278.877 88.9693C275.407 82.9246 276.049 78.9481 281.138 74.9545C286.446 70.7888 286.689 68.9013 282.367 65.4036L279.134 62.7869L283.443 59.405C285.813 57.5449 288.989 56.0232 290.501 56.0232ZM321.909 56.6871C324.029 56.6768 324.577 57.5371 325.708 60.4142C326.602 62.6886 327.709 66.1731 328.166 68.157C328.867 71.1977 328.587 71.7644 326.383 71.7644C324.946 71.7644 323.438 72.6501 323.035 73.7322C322.628 74.8224 320.736 75.6992 318.79 75.6992C315.397 75.6992 315.247 75.403 314.41 67.0076C313.952 62.2274 313.714 58.1576 313.917 57.9627C314.121 57.7682 316.491 57.3104 319.185 56.9446C320.321 56.7903 321.202 56.6904 321.909 56.6871ZM297.031 57.5765C297.505 57.5415 298.024 57.7807 298.613 58.2591C299.52 58.9949 301.84 59.9848 303.768 60.4587C308.102 61.5242 308.167 63.0783 304.087 68.0683C302.333 70.2119 300.899 73.1012 300.899 74.4885C300.899 76.4973 299.989 77.0111 296.436 77.0111C291.381 77.0111 291.276 76.6407 293.384 66.254C294.602 60.2581 295.61 57.6822 297.031 57.5765ZM312.374 67.3715V72.1913C312.374 76.458 312.009 77.0111 309.187 77.0111C307.39 77.0111 306 76.2528 306 75.2723C306 74.3159 307.434 72.1469 309.187 70.4525L312.374 67.3715ZM279.3 69.1405C280.043 69.1405 280.295 69.7312 279.862 70.4525C279.428 71.1739 278.823 71.7644 278.512 71.7644C278.202 71.7644 277.95 71.1739 277.95 70.4525C277.95 69.7312 278.557 69.1405 279.3 69.1405ZM333.247 76.1608C333.603 76.0802 334.229 76.6463 335.325 77.6671C338.393 80.5234 338.599 83.0034 335.858 84.0855C332.815 85.287 332.773 85.2349 332.773 80.0868C332.773 77.4367 332.792 76.2644 333.247 76.1608ZM129.326 76.6836C126.557 76.6051 122.838 80.6528 123.791 83.2068C124.782 85.8588 127.721 85.865 130.289 83.2223C132.899 80.5398 132.84 77.909 130.149 76.8464C129.889 76.7437 129.613 76.6916 129.326 76.6836ZM150.485 77.4132C147.441 77.4132 145.045 79.8781 145.045 83.0098C145.045 84.9055 145.834 85.365 148.551 85.0433C151.305 84.7173 152.143 83.8538 152.461 81.0206C152.774 78.2256 152.33 77.4132 150.485 77.4132ZM328.879 77.6671L328.914 83.2423C328.946 88.5842 328.786 88.8166 325.078 88.8166C322.95 88.8166 319.795 89.7702 318.066 90.9353C315.069 92.9567 314.924 92.9267 314.924 90.2794C314.924 88.7278 315.74 87.5047 316.776 87.5047C320.216 87.5047 324.638 84.7029 326.765 81.175L328.879 77.6671ZM310.387 78.3231C311.48 78.3231 312.374 78.9135 312.374 79.635C312.374 80.3565 311.835 80.946 311.175 80.946C310.515 80.946 309.62 80.3565 309.187 79.635C308.754 78.9135 309.294 78.3231 310.387 78.3231ZM317.549 78.3231C318.993 78.3231 319.821 78.9135 319.387 79.635C318.954 80.3565 317.773 80.946 316.762 80.946C315.752 80.946 314.925 80.3565 314.925 79.635C314.925 78.9135 316.105 78.3231 317.549 78.3231ZM291.615 79.635H296.758C300.22 79.635 302.148 80.2971 302.657 81.6614C303.073 82.7762 305.43 84.5546 307.894 85.614C313.028 87.8209 313.629 90.8166 310.155 96.8683C308.335 100.038 308.244 100.93 309.653 101.826C310.837 102.579 310.939 103.194 309.976 103.806C307.971 105.081 294.54 104.333 293.677 102.897C293.279 102.234 292.653 96.7281 292.285 90.6629L291.615 79.635ZM328.176 93.0719C329.148 93.1765 328.995 94.1528 328.463 96.8887C328.006 99.2403 326.699 103.256 325.423 105.741L322.749 110.948C322.031 112.347 321.049 112 318.705 109.093C317.276 107.323 316.799 107.092 316.799 107.092C320.556 106.657 323.276 106.873 323.209 105.676C323.174 105.025 320.412 104.974 316.698 104.419C316.698 104.419 316.217 103.905 316.884 101.606C318.073 97.5132 321.27 94.5427 325.615 93.4979C326.512 93.2822 327.189 93.1254 327.688 93.0772C327.875 93.059 328.037 93.0566 328.176 93.0719ZM301.995 94.2657C301.372 94.2571 300.899 94.979 300.899 96.0312C300.899 97.2336 301.516 98.0064 302.27 97.7479C303.023 97.4894 303.641 96.7166 303.641 96.0312C303.641 95.3457 303.023 94.5736 302.27 94.3154C302.176 94.2831 302.084 94.2673 301.995 94.2657ZM269.238 95.6247C269.855 95.6092 270.789 95.7815 272.038 96.104C274.465 96.7306 275.69 98.221 276.616 101.669C277.311 104.259 277.691 106.574 277.456 106.814C277.223 107.054 274.898 104.821 272.291 101.852C268.391 97.4102 267.387 95.6719 269.238 95.6247ZM100.616 103.759C91.5609 103.557 82.4222 105.109 75.0925 109.464C58.439 119.358 46.9853 138.441 42.0436 164.476C40.5076 172.567 40.8468 197.722 42.545 201.666C43.2168 203.228 40.7856 204.803 31.5858 208.765C14.8808 215.96 0 223.728 0 225.253C0 228.044 6.34733 226.137 32.3126 215.543C69.1883 200.492 74.9813 198.866 74.9813 198.866C76.1633 199.584 80.574 203.403 80.574 203.403C79.2028 204.596 74.5311 206.01 68.7496 209.279C61.7927 213.213 56.0995 217.18 56.0995 218.094C56.0995 219.009 60.0943 222.292 64.976 225.39C69.8571 228.489 73.6532 231.227 73.4148 231.473C73.1754 231.719 69.1831 229.772 64.5412 227.146C59.899 224.521 56.0995 223.025 56.0995 223.822C56.0995 225.547 64.6326 231.22 82.875 241.622C90.2379 245.82 98.9878 250.996 102.319 253.124C105.65 255.252 112.819 258.996 118.256 261.432C121.947 263.085 128.478 266.834 135.375 264.467C136.918 263.937 142.017 261.88 146.95 260.474C151.882 259.068 164.873 254.438 175.816 250.185C186.759 245.933 201.163 240.427 207.825 237.949C229.21 229.992 259.332 217.458 263.749 214.678C271.234 209.968 267.004 210.34 255.555 215.398C249.475 218.086 235.531 223.402 224.569 227.213C213.607 231.024 202.423 235.124 199.718 236.325C197.012 237.526 194.55 238.253 194.246 237.941C193.57 237.246 197.812 235.48 229.499 223.27C264.223 209.89 265.114 209.49 266.614 206.607C268.291 203.383 265.724 200.184 257.55 195.306C254.394 193.422 246.05 188.887 246.05 188.887C242.127 178.615 228.974 170.707 221.578 168.791C217.554 167.749 214.108 165.532 210.291 161.531C207.269 158.363 203.436 155.98 203.744 155.732C204.05 155.484 214.232 152.356 224.399 149.284C245.169 143.011 253.724 139.304 253.724 136.579C253.724 133.591 249.438 134.333 222.706 141.952C208.802 145.915 196.915 149.157 196.291 149.157C195.667 149.157 187.822 144.224 178.859 138.193C169.896 132.163 157.686 124.734 151.725 121.684C145.765 118.633 136.491 113.807 131.098 110.997C123.761 107.175 112.258 104.018 100.616 103.759ZM282.813 105.453C283.494 105.458 284.374 105.524 285.503 105.634C288.874 105.965 290.808 106.87 291.191 108.297C291.51 109.486 292.143 111.788 292.596 113.411C293.624 117.089 292.65 117.081 286.238 113.353C283.392 111.699 280.973 109.227 280.767 107.76C280.521 106.019 280.767 105.445 282.813 105.453ZM297.081 106.392C298.225 106.348 299.795 106.485 301.857 106.709C305.889 107.146 309.323 107.622 309.49 107.765C309.657 107.908 309.072 110.594 308.188 113.734C307.305 116.874 306.019 119.552 305.333 119.683C301.396 120.439 298.155 118.425 296.416 114.141C294.034 108.276 293.647 106.524 297.081 106.392ZM313.069 109.206C313.137 109.198 313.213 109.206 313.295 109.228C313.69 109.341 314.242 109.826 315.091 110.617C318.171 113.483 318.435 118.014 315.008 118.941L313.413 119.372C309.313 120.481 309.428 120.622 310.413 118.003C310.888 116.74 311.599 114.063 311.993 112.054C312.366 110.153 312.581 109.271 313.069 109.206ZM101.203 109.61C103.91 109.561 107.18 109.766 109.968 110.242C116.743 111.4 117.505 113.164 113.074 117.446C110.293 120.044 107.109 120.365 102.309 118.56C99.4432 116.923 94.9574 111.354 95.813 110.497C96.3488 109.961 98.4949 109.659 101.203 109.61ZM90.5494 111.361C90.698 111.345 90.848 111.349 90.9976 111.378C92.197 111.606 93.3688 113.407 94.1547 115.643C99.0059 129.447 116.284 130.637 121.638 117.536C122.759 114.793 123.589 114.194 124.995 115.11C128.097 117.13 122.661 125.662 115.952 129.154C105.566 134.56 91.8158 127.453 88.5725 112.497C88.5725 112.497 89.5118 111.466 90.5494 111.361ZM84.5694 113.872C85.191 113.889 85.4262 114.384 85.4262 115.304C86.8997 130.675 103.875 141.781 117.702 135.879C122.082 134.01 127.62 127.875 128.872 124.562C130.444 120.4 131.782 120.874 134.433 126.53C136.819 131.619 138.761 156.108 137.238 160.193C137.238 160.193 135.747 157.955 131.675 154.503C121.811 146.137 117.679 151.099 125.335 162.118C127.65 165.451 130.62 169.741 131.115 170.582C131.115 170.582 128.476 172.206 122.728 174.15C117.989 175.751 88.7651 186.7 81.5755 188.917C76.4964 183.103 74.1729 166.2 77.2288 150.446C79.4772 131.051 79.0528 128.17 73.9498 128.17C69.9561 128.17 68.5831 131.824 66.6773 147.51C65.0699 161.248 63.2437 182.213 71.0444 193.129C62.7464 196.501 56.5304 198.261 48.7681 201.322C47.8922 201.644 47.1687 201.402 47.2057 200.784C47.4951 190 50.0085 167.425 51.6452 160.914C56.3483 142.206 65.7198 126.663 77.5164 118.004C81.4213 115.138 83.5336 113.842 84.5694 113.872ZM145.049 129.481C146.516 129.481 181.127 152.157 181.399 153.352C175.734 156.702 154.621 162.595 148.298 165.478C145.558 166.319 145.511 166.119 145.74 154.139C145.866 147.431 145.508 139.139 144.944 135.712C144.36 132.169 144.406 129.481 145.049 129.481ZM287.263 141.54C287.533 141.53 287.777 141.535 287.997 141.554C289.467 141.682 289.932 142.491 290.657 144.453C292.194 148.611 296.081 148.903 298.57 145.046L300.375 142.248L307.969 146.031C313.487 148.779 315.561 150.529 315.561 152.436C315.561 154.823 314.641 155.08 305.362 155.277C295.663 155.484 277.157 153.053 274.221 151.186C269.891 148.433 275.211 143.409 283.996 141.955C285.403 141.722 286.454 141.569 287.263 141.54ZM189.778 160.074C189.778 160.074 197.927 166.599 202.406 170.67C200.35 170.043 198.809 168.583 195.587 166.955C193.014 165.656 190.972 165.779 172.673 172.165C161.503 176.063 153.003 178.885 153.003 178.907C150.997 176.573 149.843 175.437 148.236 173.984C148.88 173.433 184.575 161.569 189.778 160.074ZM276.756 170.307C273.982 170.463 271.175 172.336 269.984 175.604C269.548 176.804 269.656 184.182 270.226 192.001C271.141 204.558 271.763 207.171 275.562 214.394C282.642 227.856 286.911 224.605 286.834 205.804C286.78 191.923 284.729 176.879 282.391 173.207C281.051 171.103 278.913 170.186 276.756 170.307ZM194.436 170.728L204.214 176.012C213.962 181.28 214.038 182.248 214.038 182.248C213.592 188.938 215.255 193.878 215.559 194.829C215.918 195.95 213.37 197.637 208.326 199.618C196.743 204.169 192.05 206.909 193.422 208.321C195.122 210.07 215.614 200.107 218.757 195.995C220.436 195.913 221.302 193.095 222.081 191.893L224.597 197.117C225.904 199.834 226.799 202.152 226.625 202.247C226.453 202.341 220.423 204.965 213.227 208.077C200.033 213.783 197.7 215.388 199.713 217.366C200.927 218.56 231.956 203.825 233.625 201.262C234.199 200.38 234.364 197.889 233.992 195.724L233.315 191.788L236.6 196.052C240.226 200.759 243.979 201.547 245.966 198.02C247.17 195.882 247.675 195.957 253.288 199.105C256.604 200.965 259.512 203.084 259.747 203.814C260.333 205.625 200.968 228.456 198.354 227.424C196.864 226.835 194.662 225.347 194.662 225.347C198.944 222.915 195.272 219.765 190.829 222.273C190.829 222.273 187.026 220.635 185.482 218.466C189.95 216.545 186.794 213.781 182.461 215.834C180.959 213.7 179.724 213.545 178.119 211.753C181.583 209.916 175.935 207.536 173.339 209.752C172.305 210.635 170.158 212.128 169.273 211.779C168.276 211.385 167.591 212.345 167.475 214.301C167.33 216.754 171.278 215.252 173.017 214.684L177.166 218.513C173.49 220.33 174.496 223.012 180.044 221.51C180.044 221.51 181.463 222.259 182.833 223.306C184.936 224.913 185.242 225.372 185.242 225.372C180.987 228.328 184.194 229.678 189.126 227.943C189.126 227.943 194.244 231.169 189.794 232.97C188.141 233.639 181.347 236.367 174.697 239.032C168.046 241.696 145.192 249.615 136.849 252.925C132.277 254.738 132.329 255.447 127.783 253.214C120.93 250.429 73.5081 225.513 65.3721 220.407C59.9331 216.994 60.2428 218.437 66.0105 215.455C68.6246 214.152 81.6359 207.922 87.004 206.237C87.004 206.237 87.5548 206.102 91.8003 208.026C98.2851 210.965 121.355 210.832 127.963 207.818C132.296 205.842 134.329 205.747 144.868 207.025C155.008 208.256 159.643 204.807 164.819 203.065C164.819 203.065 168.894 205.548 171.879 205.115C176.587 204.433 175.363 203.453 170.402 198.545C169.59 195.27 167.949 188.989 166.949 187.492C165.706 185.632 162.446 185.197 158.695 184.112L167.216 180.886C173.071 178.595 181.591 175.374 186.149 173.725L194.436 170.728ZM334.088 173.19C330.068 173.422 313.503 181.772 303.449 188.78C295.889 194.051 295.126 195.007 294.751 199.68C294.459 203.313 294.958 205.267 296.47 206.403C298.786 208.146 299.629 207.901 309.3 202.678C327.486 192.855 341.952 176.11 334.719 173.254C334.568 173.194 334.355 173.175 334.088 173.19ZM275.069 174.726C275.581 174.765 276.237 175.098 277.038 175.714C278.967 177.197 281.672 190.197 281.748 198.346C281.766 200.227 280.871 201.024 278.586 201.159C275.627 201.335 275.391 200.911 275.323 195.256C275.283 191.906 274.763 186.213 274.172 182.606C273.275 177.135 273.532 174.608 275.069 174.726ZM136.695 177.71C136.695 177.71 138.319 179.409 138.626 180.311C138.983 181.353 137.965 181.95 135.832 181.95C133.931 181.95 131.262 184.55 129.66 186.329C129.66 186.329 122.355 188.577 111.695 192.674C103.794 195.711 100.347 196.872 97.561 197.393C95.0215 197.791 88.6826 194.986 87.5027 194.326C87.5027 194.326 131.268 177.958 136.695 177.71ZM329.53 178.645C329.953 178.697 330.225 178.921 330.225 179.291C330.225 181.069 327.959 182.172 327.133 180.797C326.738 180.139 327.27 179.263 328.319 178.85C328.581 178.746 328.831 178.681 329.059 178.652C329.229 178.63 329.388 178.629 329.53 178.645ZM324.497 182.566C325.755 182.506 326.399 183.129 326.399 184.446C326.399 185.143 321.763 188.998 316.097 193.013C310.432 197.029 305.623 200.314 305.409 200.314C305.196 200.314 304.735 199.193 304.388 197.822C303.898 195.894 305.9 193.788 313.228 188.525C318.598 184.667 322.4 182.667 324.497 182.566ZM203.451 190.246C200.965 190.032 177.108 202.994 177.862 204.249C178.72 205.677 187.748 202.219 196.657 197.052C202.719 193.536 204.801 191.52 203.623 190.309C203.588 190.274 203.531 190.253 203.451 190.246ZM128.174 193.13C126.957 194.402 128.105 197.511 125.662 197.484C125.079 197.477 122.597 198.649 118.153 198.774L109.086 199.029L128.174 193.13ZM299.69 199.241C300.378 199.2 300.899 199.861 300.899 200.861C300.899 202.003 299.992 202.938 298.882 202.938C296.63 202.938 297.021 200.114 299.385 199.303C299.489 199.267 299.592 199.247 299.69 199.241ZM281.945 205.699C282.832 205.769 283.081 206.395 282.832 207.722C282.585 209.042 281.333 210.33 280.051 210.584C278.367 210.918 277.841 210.38 278.166 208.647C278.414 207.327 279.667 206.039 280.95 205.786C281.16 205.744 281.352 205.715 281.526 205.701C281.68 205.689 281.819 205.689 281.945 205.696V205.699ZM86.8108 238.696C86.8609 238.617 87.5534 238.954 88.9308 239.641C90.5087 240.427 91.8003 241.346 91.8003 241.681C91.8003 242.685 91.1396 242.394 88.5381 240.25C87.3498 239.271 86.7596 238.775 86.8108 238.696ZM38.2798 239.993C34.669 240 34.7982 241.831 27.3696 249.617C5.40237 274.271 5.98325 272.484 5.5141 283.012C5.12142 291.814 2.68737 291.29 10.5264 293.985C13.5024 295.117 29.9946 300.436 47.1752 305.803C64.3556 311.171 80.4202 316.474 82.875 317.588C85.3292 318.702 88.1984 319.482 89.2497 319.32C90.3016 319.159 93.7448 313.959 96.9001 307.765C102.847 296.092 110.316 283.576 113.13 280.565C114.021 279.612 114.751 275.991 114.751 272.519C114.751 266.834 116.263 265.308 111.736 261.099C108.97 258.529 102.511 256.252 99.8412 255.508C97.1717 254.764 85.5198 251.471 73.9498 248.19C62.3785 244.909 47.9271 240.887 43.557 240.441C41.1036 240.191 39.484 239.991 38.2798 239.993ZM39.8548 246.349C43.5189 246.403 49.9703 248.088 62.4865 251.999C72.6482 255.174 94.3415 261.645 101.178 263.618C104.741 264.655 107.17 263.976 103.857 269.594C101.925 272.873 90.7141 292.201 87.5569 296.736C84.0217 301.815 85.6055 301.796 80.0258 298.86C74.4702 296.048 44.4369 286.991 14.3074 279.024C10.7598 278.086 8.84307 277.524 11.8287 274.054C18.8806 265.858 35.5422 247.76 36.2768 247.23C37.0984 246.637 38.1889 246.325 39.8548 246.349ZM194.513 253.874C193.135 253.868 191.821 254.062 190.612 254.46C185.198 256.246 175.95 265.745 175.95 269.52C175.95 276.751 182.277 283.774 192.151 287.502C200.653 290.712 204.316 290.056 210.833 284.154C216.117 279.369 216.75 278.203 216.75 273.252C216.75 267.352 215.098 264.777 207.544 258.912C203.358 255.662 198.647 253.886 194.513 253.874ZM148.971 254.393C149.165 254.372 149.301 254.373 149.369 254.398C149.911 254.593 145.827 256.568 140.295 258.786C131.281 262.399 129.927 262.627 127.274 260.99C125.598 259.956 125.299 259.475 126.583 259.883C127.831 260.279 133.246 259.127 138.617 257.324C143.317 255.745 147.608 254.539 148.971 254.393ZM195.202 258.031C199.762 258.031 210.279 264.58 210.334 267.452C210.356 268.665 208.709 270.879 206.672 272.371C204.635 273.863 202.197 275.019 201.253 274.939C198.258 274.686 183.138 267.764 182.774 266.479C182.173 264.36 191.484 258.031 195.202 258.031ZM181.949 271.834C182.851 271.827 184.669 272.554 187.522 273.975C196.068 278.23 202.979 278.634 207.729 275.154C213.148 271.183 212.951 274.581 207.442 280.074C205.129 282.38 202.117 284.235 200.748 284.198C195.868 284.064 184.761 278.753 182.748 275.592C181.139 273.067 180.787 271.843 181.946 271.834H181.949ZM107.476 273.495C107.847 273.414 108.031 273.947 108.169 274.956C108.453 277.017 106.855 280.657 103.548 285.482C100.767 289.538 96.1196 297.712 93.2196 303.646C90.3196 309.581 87.5221 314.376 87.004 314.299C83.9943 313.859 53.247 302.818 54.8247 302.745C55.8775 302.695 62.42 304.143 69.3651 305.963C76.3104 307.783 82.622 309.025 83.3902 308.723C85.8114 307.769 72.9033 302.513 61.4057 299.77C40.8239 294.861 11.4758 286.362 11.4758 285.312C11.4758 283.719 12.6654 283.951 26.9277 288.321C34.2071 290.551 45.8994 293.822 52.912 295.59C68.474 299.513 83.0311 304.002 84.8991 305.455C87.1843 307.231 91.8784 300.695 103.416 279.675C105.72 275.476 106.857 273.632 107.476 273.495ZM138.662 282.469C133.897 282.433 133.043 282.967 131.82 285.439C129.011 291.124 131.303 293.751 143.049 298.304C149.009 300.613 158.132 303.687 163.324 305.135C170.376 307.101 176.534 307.745 187.681 307.685C204.67 307.592 208.331 306.306 204.418 301.801C198.342 294.806 159.666 283.052 140.956 282.516C140.103 282.491 139.342 282.475 138.662 282.469ZM135.933 285.895C136.287 285.89 136.768 286.003 137.382 286.27C140.779 287.752 162.825 293.279 171.806 294.902C176.189 295.693 179.756 296.723 179.756 297.19C179.674 300.731 176.853 300.623 159.375 296.414C149.207 293.965 139.596 291.102 138.019 290.052C135.245 288.204 134.399 285.921 135.933 285.895ZM12.1133 289.751C13.5153 289.73 16.6707 290.508 19.1249 291.481C24.8688 293.757 21.3518 293.786 14.663 291.518C11.8567 290.567 10.7103 289.773 12.1133 289.751ZM189.625 298.968C190.294 298.956 191.301 299.498 192.19 300.413C194.494 302.784 193.116 303.389 190.013 301.37C188.981 300.698 188.565 299.71 189.087 299.173C189.217 299.038 189.402 298.972 189.625 298.968Z" fill="#E06A58"/>
<g id="paper_diploma 1" clip-path="url(#clip0_272_26)">
<path id="Vector_2" d="M240.887 240.239C240.887 240.239 242.89 228.803 261.088 228.041C279.287 227.279 333.155 227.224 340.815 227.823C348.475 228.422 358.688 226.916 353.732 268.264C360.457 279.437 357.261 280.906 352.787 280.114C352.229 318.318 356.035 338.608 333.906 339.978C307.206 341.632 258.936 339.724 252.803 340.069C246.67 340.414 233.628 338.145 231.751 328.706C244.792 328.525 251.676 328.561 251.676 328.561C257.259 328.646 263.557 239.427 258.76 239.549C257.905 239.57 240.887 240.239 240.887 240.239Z" fill="white"/>
<path id="Vector_3" d="M252.797 341.865C252.259 341.704 251.415 341.634 250.92 341.709C249.395 341.942 241.882 340.8 240.866 340.181C240.537 339.981 239.331 339.476 238.185 339.059C236.715 338.524 235.602 337.787 234.401 336.554C233.466 335.593 232.479 334.617 232.208 334.386C231.937 334.155 231.612 333.271 231.485 332.421C231.358 331.571 231.11 330.8 230.932 330.709C230.217 330.339 230.038 328.433 230.649 327.682C231.235 326.962 231.47 326.932 236.958 326.869C240.093 326.834 244.271 326.76 246.243 326.705C249.827 326.605 249.827 326.605 250.484 325.525C250.845 324.931 251.066 324.346 250.975 324.226C250.885 324.106 250.971 323.927 251.17 323.829C251.495 323.667 251.799 322.745 252.292 320.433C256.43 294.575 259.383 271.975 258.248 246.639C257.978 240.958 257.789 240.35 256.399 240.682C256.071 240.761 252.901 240.858 249.355 240.898C245.096 240.946 242.934 241.085 242.982 241.309C243.086 241.785 241.602 241.53 240.766 240.928C239.692 240.154 239.687 240.168 242.651 235.052C243.775 233.098 248.755 228.558 250.555 228.009C250.674 228.009 251.276 227.843 251.892 227.639C254.659 226.3 256.515 226.744 258.813 226.397C260.005 226.212 266.536 225.993 273.327 225.909C297.952 226.023 322.414 223.577 344.593 226.268C346.362 226.519 347.85 226.725 347.899 226.725C354.147 227.311 358.892 246.029 358.184 255.127C357.883 258.645 357.35 260.743 356.756 260.743C356.546 260.743 356.373 261.447 356.373 262.308C356.373 263.743 356.274 263.907 355.186 264.27C353.21 264.93 352.796 264.567 352.726 262.117C352.691 260.92 352.698 259.724 352.74 259.459C352.861 252.38 353.977 239.814 348.606 233.602C348.037 233.032 347.22 232.729 345.746 232.544C343.953 232.318 343.551 232.372 342.687 232.954C342.14 233.323 341.037 234.039 340.235 234.544C337.475 238.384 336.273 239.451 329.886 238.702C308.759 237.594 280.852 239.656 264.626 240.361C261.565 240.493 261.24 240.613 261.985 241.337C263.847 264.302 262.908 288.19 258.598 310.806C258.507 311.247 258.077 313.485 257.641 315.78C256.69 320.785 255.82 323.874 255.011 325.125C254.682 325.633 254.411 326.169 254.41 326.314C254.41 326.46 257.051 326.499 260.283 326.401C296.555 326.095 317.484 328.15 326.944 327.802C328.133 327.354 332.554 327.29 334.311 327.695C334.913 327.834 335.406 328.16 335.406 328.42C335.406 329.002 337.411 333.753 337.75 333.975C337.885 334.064 338.197 334.425 338.444 334.778C339.138 335.771 342.532 335.665 343.918 334.605C344.486 334.171 344.955 333.657 344.958 333.463C344.962 333.27 345.297 332.87 345.703 332.574C346.109 332.278 347.273 330.703 348.29 329.074C352.6 317.042 345.841 305.687 350.773 282.82C352.001 280.854 352.03 280.933 349.694 279.892C348.392 279.312 348.392 279.312 348.441 282.388C348.491 285.568 347.917 287.058 346.639 287.058C346.334 287.058 346.024 287.202 345.951 287.378C345.874 287.564 345.237 287.464 344.425 287.137C342.708 286.446 341.545 284.733 340.634 281.553C338.957 275.7 337.193 269.96 336.842 269.217C336.524 268.542 336.24 268.421 335.164 268.505C333.975 268.597 333.869 268.697 333.861 269.728C333.856 270.473 333.353 271.476 332.368 272.703C331.551 273.721 330.882 274.685 330.882 274.843C330.882 275.002 330.625 275.541 330.311 276.041C329.2 277.81 327.695 281.011 327.695 281.606C327.695 281.938 327.068 283.072 326.301 284.126C325.535 285.18 324.907 286.184 324.907 286.356C324.907 286.746 323.937 287.058 322.725 287.058C321.694 287.058 319.348 285.126 319.303 284.239C319.24 283.011 318.889 280.454 318.731 280.082C318.482 279.492 317.02 280.032 314.225 281.744C309.265 284.784 307.524 282.882 310.525 277.699C311.206 276.524 311.763 275.467 311.763 275.351C311.763 275.236 312.211 274.668 312.759 274.089C313.307 273.511 313.755 272.934 313.755 272.807C313.755 272.68 314.92 270.995 316.344 269.063C317.768 267.13 318.933 265.463 318.933 265.358C318.933 265.253 318.421 264.641 317.795 263.998C315.716 261.861 314.857 259.617 314.768 256.089C314.735 254.795 314.976 254.175 316.011 252.88C318.45 249.831 323.366 246.511 326.7 245.661C327.576 245.438 328.512 245.115 328.779 244.945C329.544 244.456 336.447 244.806 338.051 245.415C343.756 247.58 346.022 249.749 347.19 254.164C348.706 257.521 346.978 258.024 347.453 259.457C350.831 263.18 357.086 270.486 357.337 271.861C357.374 272.065 357.61 272.431 357.862 272.675C358.308 273.108 359.991 275.987 360.173 276.628C360.223 276.805 360.457 277.527 360.692 278.233C361.154 279.616 361.121 280 360.425 281.367C359.708 282.775 356.644 283.382 354.968 282.448C354.536 282.207 353.736 281.897 353.19 281.76C352.286 281.532 352.248 281.559 352.764 282.06C353.605 282.877 354.536 288.282 353.358 294.915C353.186 315.578 356.287 322.271 350.377 334.355C349.468 336.28 346.757 337.221 343.764 338.16C342.103 338.681 341.04 339.235 340.639 339.79C339.515 341.345 338.373 341.454 322.273 341.543C301.973 341.873 277.409 341.621 255.186 341.909C254.409 342.046 253.334 342.026 252.797 341.865ZM322.76 337.769C329.277 337.765 334.61 337.708 334.61 337.642C334.61 337.575 334.249 337.048 333.807 336.47C333.366 335.892 332.65 334.468 332.217 333.305C331.428 331.191 331.428 331.191 327.542 331.266C312.138 332.308 283.906 329.886 262.772 330.201C231.218 330.702 234.891 330.539 234.891 331.441C234.891 331.847 235.091 332.34 235.335 332.537C235.58 332.734 235.986 333.232 236.237 333.644C236.489 334.056 237.287 334.632 238.011 334.925C238.735 335.218 239.629 335.665 239.997 335.918C240.575 336.317 244.59 337.436 247.039 337.881C269.785 337.9 303.013 337.794 322.76 337.769ZM324.682 279.916C326.33 276.457 328.801 272.153 330.071 270.531C330.485 270.001 330.837 269.495 330.853 269.405C330.869 269.316 330.077 269.294 329.094 269.357C327.215 269.477 323.02 268.355 322.398 267.565C321.73 266.717 321.333 267.138 318.391 271.814C317.947 272.52 317.484 273.17 317.362 273.258C317.24 273.347 316.9 273.764 316.605 274.185C316.311 274.606 315.728 275.441 315.311 276.04C314.325 277.454 314.299 278.189 315.249 277.771C319.284 275.997 321.77 275.431 322.328 276.159C322.468 276.342 322.568 278.003 322.55 279.849C322.532 281.696 322.651 283.206 322.816 283.205C322.98 283.205 323.82 281.724 324.682 279.916ZM344.964 280.793C344.841 280.536 345.043 279.232 345.412 277.895C346.083 275.465 346.083 275.465 347.345 275.679C348.039 275.797 348.777 276.023 348.985 276.181C349.193 276.338 349.761 276.468 350.247 276.468C351.294 276.468 353.336 277.304 354.753 278.313C355.639 278.943 356.374 279.229 356.374 278.944C356.374 278.893 355.999 277.991 355.542 276.938C354.341 274.173 350.721 268.46 348.181 265.32C345.988 262.61 345.988 262.61 344.777 263.842C344.111 264.52 342.944 265.335 342.183 265.653C341.422 265.97 340.693 266.453 340.564 266.725C340.339 267.196 341.339 271.553 342.063 273.258C342.25 273.7 342.51 274.711 342.64 275.505C342.77 276.299 343.034 277.382 343.227 277.912C343.419 278.441 343.776 279.492 344.02 280.248C344.264 281.003 344.626 281.54 344.825 281.441C345.024 281.342 345.086 281.05 344.964 280.793ZM333.015 265.692C335.775 265.121 337.015 264.492 334.847 264.763C328.458 265.964 325.691 264.249 323.054 258.788C322.352 257.374 322.475 254.808 323.315 253.326C323.577 252.864 324.553 252.099 325.485 251.624C326.881 250.913 327.146 250.623 326.993 249.976C326.771 249.042 326.589 249.017 325.295 249.74C323.016 251.014 321.668 252.041 319.571 254.103C318.103 255.547 318.038 255.704 318.263 257.3C318.77 260.901 320.23 262.792 323.967 264.685C327.029 266.235 329.213 266.478 333.015 265.692ZM341.985 261.435C342.658 260.751 343.093 260.098 342.953 259.985C342.365 259.511 341.783 259.856 341.134 261.064C340.754 261.77 340.283 262.347 340.087 262.347C339.891 262.347 339.625 262.567 339.497 262.836C339.096 263.679 340.626 262.818 341.985 261.435ZM334.666 261.455C336.431 260.952 336.778 260.691 337.719 259.169C339.109 256.919 338.907 254.581 337.139 252.47C335.992 251.101 335.901 251.062 334.314 251.245C333.412 251.349 332.224 251.435 331.674 251.436C331.123 251.436 330.142 251.834 329.493 252.319C328.843 252.804 328.188 253.201 328.036 253.201C327.884 253.201 327.274 253.541 326.681 253.956C325.698 254.645 325.624 254.854 325.84 256.327C325.971 257.215 326.352 258.187 326.688 258.485C327.023 258.784 327.297 259.171 327.297 259.346C327.297 259.86 329.364 261.159 330.877 261.595C332.651 262.106 332.346 262.117 334.666 261.455ZM329.202 259.555C328.97 259.176 328.73 257.254 328.709 255.608C328.691 254.164 328.691 254.164 330.683 254.109C332.998 254.045 333.555 253.951 334.739 253.426C336.235 252.763 336.797 252.966 337.313 254.355C337.714 255.432 337.699 255.909 337.23 257.002C336.751 258.118 336.463 258.353 335.463 258.443C334.805 258.502 333.999 258.737 333.67 258.965C332.962 259.457 329.429 259.923 329.202 259.555ZM343.585 253.697C343.205 252.424 342.648 251.609 341.553 250.727C340.041 249.509 338.51 248.964 339.782 250.097C341.098 251.522 342.026 253.229 342.035 254.666C342.035 256.351 342.119 256.536 342.931 256.629C344.096 256.762 344.268 255.993 343.585 253.697ZM334.225 247.208C334.014 246.933 331.342 247.107 330.952 247.422C330.855 247.5 331.603 247.55 332.614 247.534C333.625 247.517 334.35 247.371 334.225 247.208ZM249.827 238.268C251.799 238.092 254.936 237.878 256.798 237.793C258.66 237.708 262.424 237.499 265.162 237.328C279.885 236.177 293.32 235.763 307.382 235.384C308.47 235.294 331.007 235.455 331.99 235.561C333.175 235.688 333.417 235.561 334.579 234.197C336.098 232.415 338.777 230.255 339.468 230.255C339.737 230.255 340.061 230.039 340.187 229.774C315.251 228.875 297.694 229.525 271.923 229.598C266.331 229.612 260.685 229.777 259.376 229.964C258.068 230.152 256.602 230.353 256.12 230.411C251.718 231.319 247.251 234.207 245.233 237.337C244.287 238.831 244.052 238.784 249.827 238.268ZM287.766 317.283C286.455 317.161 285.781 316.279 285.95 314.904C286.044 314.135 286.309 313.851 287.069 313.704C287.616 313.598 291.873 313.517 296.528 313.523C301.183 313.529 304.992 313.425 304.992 313.293C304.992 313.16 305.485 313.053 306.088 313.055C306.886 313.057 307.318 313.291 307.681 313.921C308.34 315.064 308.313 316.414 307.622 316.876C307.103 317.223 290.736 317.558 287.766 317.283ZM274.921 308.952C273.505 308.82 272.73 308.113 272.73 306.955C272.73 305.235 273.299 305.035 278.704 304.854C281.443 304.762 294.21 304.637 307.075 304.577C332.616 304.456 331.519 304.376 331.138 306.322C330.701 308.558 330.961 308.515 317.399 308.579C310.685 308.61 304.027 308.599 302.603 308.554C294.488 308.296 277.631 308.579 276.329 308.995C276.212 309.033 275.578 309.013 274.921 308.952ZM272.41 302.472C271.562 301.897 271.528 301.753 271.965 300.579C272.671 298.678 272.177 298.717 298.819 298.448C320.817 298.226 329.206 298.212 329.596 298.4C329.756 298.477 330.661 298.547 331.608 298.556C332.555 298.564 333.574 298.735 333.873 298.934C334.707 299.492 334.983 301.031 334.392 301.821C333.877 302.506 333.731 302.516 324.908 302.434C302.759 302.229 284.485 302.416 275.916 302.937C273.753 303.068 273.177 302.992 272.41 302.472ZM274.764 296.75C274.18 295.87 274.205 294.683 274.821 294.05C275.757 293.089 281.544 292.779 300.88 292.657C311.138 292.592 322.584 292.464 326.315 292.372C332.223 292.227 333.276 292.277 334.469 292.76C336.211 293.467 336.609 294.591 335.553 295.821C334.886 296.597 334.607 296.69 333.528 296.497C332.313 296.279 321.988 296.286 316.344 296.509C313.343 296.628 295.579 296.634 291.649 296.518C290.335 296.479 287.467 296.571 285.276 296.723C274.346 297.48 275.248 297.477 274.764 296.75ZM282.687 281.724C279.958 280.953 279.508 279.758 281.379 278.251C282.461 277.379 282.461 277.379 290.212 277.484C298.635 277.598 299.018 277.68 299.018 279.382C299.018 281.178 296.871 281.956 293.043 281.548C290.839 281.313 287.263 281.384 284.679 281.715C283.912 281.813 283.016 281.817 282.687 281.724ZM293.387 274.933C286.545 274.928 286.054 274.887 285.24 274.256C284.702 273.839 284.395 273.235 284.431 272.664C284.533 271.024 285.056 270.829 289.134 270.908C291.175 270.948 295.306 270.998 298.314 271.019C303.719 271.057 303.794 271.068 304.607 271.9C305.827 273.15 305.538 274.609 303.997 274.975C300.243 275.961 296.46 274.938 293.387 274.933ZM303.241 261.53C302.033 260.818 287.937 260.843 279.236 261.572C278.104 261.667 276.447 261.586 275.552 261.392C273.964 261.047 273.925 261.005 273.925 259.641C273.925 258.003 274.118 257.906 277.875 257.664C279.317 257.571 281.214 257.422 282.09 257.333C291.982 257.895 311.718 254.862 306.537 261.269C305.987 261.806 303.979 261.964 303.241 261.53ZM308.121 254.171C308.012 254.083 302.11 253.927 295.006 253.825C282.581 253.647 282.056 253.615 281.194 252.964C280.285 252.277 279.97 250.674 280.674 250.324C280.97 250.176 307.828 249.987 309.609 250.12C310.701 250.201 311.394 253.007 310.469 253.604C309.814 254.026 308.373 254.374 308.121 254.171Z" fill="#E74830"/>
</g>
</g>
<defs>
<clipPath id="clip0_272_26">
<rect width="130.722" height="117" fill="white" transform="translate(230.278 225)"/>
</clipPath>
</defs>
</svg>
