<svg  viewBox="0 0 283 275" fill="none" xmlns="http://www.w3.org/2000/svg">
<g id="homework_2 1" clip-path="url(#clip0_272_36)">
<path id="Vector" d="M55.4826 47.6908C55.3716 78.9934 88.0005 81.3097 90.7427 81.5897C123.427 82.5059 125.753 58.5321 128.163 40.8704C125.744 20.5562 117.734 2.27948 96.1424 3.7339C54.6491 4.97898 55.9063 27.2067 55.4826 47.6908ZM239.443 26.6163L233.591 27.0389C233.591 27.0389 200.67 31.0572 200.753 58.9814C200.837 86.9056 222.826 97.256 230.045 100.287C243.157 102.174 260.521 96.3409 268.839 84.5231C277.158 72.7055 272.843 55.1696 266.184 43.3327C259.524 31.4959 239.443 26.6163 239.443 26.6163ZM34.2171 110.194C27.6095 123.162 25.2633 144.5 26.2409 163.252C26.2409 163.252 15.2933 170.868 8.52934 174.029C1.76563 177.19 -26.3458 188.218 -31.5847 193.894C-36.8239 199.57 -33.0314 226.045 -25.0941 233.948C-17.1577 241.851 15.606 276.696 81.6807 274.936C147.755 273.175 181.574 248.569 194.711 225.578C207.848 202.588 237.445 191.056 268.332 168.245C299.219 145.434 264.109 114.9 243.583 108.793C223.057 102.686 202.1 107.787 194.085 110.23C186.071 112.672 103.34 136.777 103.34 136.777C103.34 136.777 107.686 113.068 103.432 104.119C99.1794 95.1711 96.0573 91.0623 79.7255 87.0119C61.3933 82.4654 41.2705 97.3672 34.2171 110.194Z" fill="white"/>
<g id="Group 32">
<path id="Vector_2" d="M107.341 4.02067C102.572 4.03448 97.6532 4.76917 93.2603 6.25254C81.0513 10.3752 71.8547 18.0319 63.0643 31.3917C62.8983 31.6437 60.2199 32.3913 57.1119 33.0526C52.4393 34.0469 51.4046 34.6622 51.1392 36.6077C50.962 37.9017 51.302 39.5858 51.8956 40.3505C52.7173 41.4103 52.384 42.1552 50.4925 43.481C47.4665 45.6026 47.2142 49.7301 49.9843 51.806C51.6859 53.0812 51.8124 53.7304 50.9022 56.5238C49.4219 61.0681 51.7641 65.6893 56.3735 67.3169C58.8667 68.1974 60.0168 69.3331 60.4659 71.3595C61.4595 75.8402 63.7091 77.8702 67.6822 77.8702C69.6586 77.8702 71.7379 77.375 72.3035 76.7696C73.0176 76.0058 77.2142 77.951 81.9537 81.4509C91.4055 88.4301 99.8428 88.6658 107.124 87.7354C112.234 87.0826 112.976 87.0051 112.976 87.0051C114.72 89.7848 119.02 89.4914 118.418 84.8993L124.863 81.535C125.992 83.4899 130.727 85.238 133.228 84.2203C134.826 83.5703 136.022 81.8757 136.772 79.1985C137.499 76.6025 138.927 74.529 140.768 73.3987C143.164 71.9272 143.632 70.9633 143.632 67.5011C143.632 65.1088 144.256 62.8078 145.111 62.0488C147.423 59.9956 146.856 54.7761 143.746 49.4842C141.611 45.8516 140.783 42.9357 140.426 37.789C139.443 23.6131 133.516 12.9749 123.545 7.48584C119.352 5.17792 113.472 4.00317 107.341 4.02067ZM241.04 21.6564C238.116 21.6863 237.318 22.8251 239.169 25.0124C241.453 27.7128 240.229 28.5209 231.65 29.9793C222.356 31.5591 216.3 35.5987 211.574 40.6553C201.62 51.3059 198.482 69.3861 206.119 85.9954C209.126 92.5349 216.291 99.1343 223.327 102.59C228.672 105.215 230.701 105.714 230.134 108.125C229.792 109.58 229.267 112.077 228.967 113.672C228.471 116.311 228.029 116.573 224.058 116.573C221.626 116.573 217.968 117.516 215.791 118.704C212.432 120.537 211.888 121.321 211.888 124.321C211.888 130.518 215.721 132.635 231.11 134.933C232.736 135.175 237.362 135.209 241.388 135.006C252.206 134.463 256.798 129.814 252.864 123.389C250.771 119.972 246.781 117.895 240.629 117.022C233.865 116.062 233.598 113.518 240.335 114.211C250.742 115.281 264.299 110.128 272.145 102.121C276.978 97.1879 278.048 95.3293 280.389 87.7911C285.906 70.031 282.511 50.2924 271.801 37.861C265.423 30.4568 258.671 25.7276 251.476 23.6248C246.875 22.2801 243.314 21.633 241.04 21.6564ZM245.147 26.9188C251.363 26.9188 265.163 36.12 270.745 43.9878C279.661 56.5534 280.777 76.7661 273.359 91.3469C269.297 99.3339 264.511 103.37 255.578 106.343C246.069 109.508 234.398 110.87 235.167 108.726C235.518 107.748 238.067 107.171 243.253 106.897C266.186 105.687 280.793 84.2934 274.509 61.1189C270.488 46.2866 261.338 35.6671 248.615 31.0677C243.891 29.3596 241.849 26.9188 245.147 26.9188ZM236.128 33.2468H238.531L236.086 37.2023C234.742 39.3777 233.139 42.7006 232.526 44.5858C231.912 46.4713 230.788 48.0139 230.028 48.0139C228.347 48.0139 228.492 48.4328 228.246 42.925C228.073 39.0534 228.472 37.9773 230.884 35.8055C232.447 34.3982 234.807 33.2468 236.128 33.2468ZM240.422 34.1204C241.049 34.1904 241.429 35.6865 241.949 38.6519C242.546 42.058 242.374 42.5153 240.313 42.9914C239.047 43.2839 237.235 43.8723 236.285 44.2989C233.904 45.3702 234.137 44.0981 237.413 38.1458C238.92 35.4068 239.794 34.0503 240.422 34.1204ZM244.368 34.3016C245.425 34.3016 247.483 35.976 248.942 38.0223C250.401 40.0687 251.423 41.8518 251.21 41.9872C250.999 42.121 249.419 42.0805 247.699 41.8972C245.216 41.6323 244.353 40.8922 243.51 38.3029C242.152 34.1352 242.116 34.3016 244.368 34.3016ZM229.085 34.545C229.561 34.5213 229.157 35.0393 227.798 36.323C226.518 37.5317 224.299 38.5056 222.868 38.4877C220.367 38.4555 220.341 38.3937 222.18 36.9054C223.232 36.0536 224.638 35.3565 225.303 35.3565C225.969 35.3565 227.325 35.0793 228.319 34.7406C228.67 34.6207 228.926 34.5529 229.085 34.545ZM251.31 36.5242C251.954 36.5352 253.763 37.7347 257.011 40.1293C257.159 40.2387 256.997 41.1083 256.659 42.0614C255.771 44.5355 255.053 44.1821 252.596 40.0579C251.187 37.6933 250.667 36.5137 251.31 36.5242ZM219.521 39.0994C219.684 39.08 219.774 39.1535 219.774 39.332C219.774 40.0461 220.439 40.6303 221.252 40.6303C223.721 40.6303 222.945 42.5075 218.302 47.7534C213.65 53.0085 212.905 55.685 215.304 58.5208C216.571 60.0213 216.566 60.5994 215.261 63.2907C214.069 65.7499 213.978 67.3623 214.802 71.4744C215.367 74.2911 215.829 77.0474 215.829 77.599C215.829 78.7985 215.197 78.7662 211.671 77.387C208.412 76.1118 207.394 71.7267 208.325 62.9524C209.293 53.8238 211.854 46.9647 214.299 46.9426C215.961 46.9288 216.058 46.7469 214.843 45.9191C213.607 45.0769 213.89 44.3469 216.569 41.4725C217.89 40.0541 219.031 39.1577 219.519 39.0994H219.521ZM107.219 48.8147C111.316 53.57 125.465 62.0488 129.304 62.0488C130.71 62.0488 130.719 62.3561 129.399 65.0865C126.988 70.0759 122.914 74.6723 119.017 76.7996C115.697 78.6123 115.206 78.6456 113.814 77.1558C112.129 75.3529 109.52 76.149 110.116 78.4597L110.62 80.4138C110.62 80.4138 103.041 84.8441 91.3238 80.4083C86.5179 78.589 80.1287 72.1767 77.7236 69.8897C76.822 69.0322 82.1237 62.7744 86.2762 59.7961C88.8151 57.9745 93.6137 53.6524 96.9381 50.1906C102.269 44.2656 102.136 42.9131 107.219 48.8147ZM246.68 43.9128C247.515 43.9128 248.747 44.5768 250.333 45.9042L252.798 47.9668L249.101 47.991C246.055 48.0104 245.404 47.6435 245.404 45.9048C245.404 44.5774 245.844 43.9128 246.68 43.9128ZM260.165 43.9495C260.524 43.9297 260.951 44.2099 261.595 44.7816C262.45 45.5406 263.149 46.4738 263.149 46.8565C263.149 47.2389 262.04 47.6499 260.685 47.7701C258.06 48.0024 257.707 47.3478 259.146 44.9152C259.516 44.2873 259.806 43.9678 260.165 43.948V43.9495ZM242.11 44.9116C242.925 44.9171 243.433 45.4247 243.433 46.4311C243.433 47.5197 242.433 48.0027 240.228 47.9792C237.198 47.9474 237.129 47.8617 238.939 46.3968C240.171 45.3994 241.294 44.9055 242.11 44.9116ZM263.872 48.4117C264.857 48.5305 266.107 50.4294 268.09 54.7397C275.532 70.9119 271.606 88.709 259.092 95.5404C253.989 98.3255 253.774 98.178 256.377 93.6725C257.621 91.5193 259.575 86.6538 260.718 82.8609C262.305 77.6037 263.428 75.6377 265.439 74.5887C267.168 73.6872 268.077 72.3725 268.077 70.7759C268.077 67.8338 264.82 63.1558 262.137 62.2446C261.067 61.8813 260.191 60.7255 260.191 59.6773C260.191 58.6291 259.546 55.8131 258.756 53.42C257.336 49.1112 257.345 49.0683 259.662 49.0683C260.949 49.0683 262.66 48.798 263.465 48.4674C263.596 48.4135 263.732 48.3947 263.872 48.4117ZM228.492 49.0683C229.661 49.0683 230.606 49.1876 230.606 49.3325C230.593 49.4775 229.935 51.9261 229.128 54.774C228.321 57.6217 227.66 61.3001 227.66 62.9484C227.66 65.6778 227.331 65.9605 223.963 66.1138C220.428 66.2752 220.647 67.2286 223.642 67.6298C225.188 67.8369 226.73 67.8924 226.73 67.8924C226.774 68.5287 226.846 70.6957 227.154 74.1804C227.498 78.0626 228.01 82.5439 228.291 84.1392C228.787 86.9569 228.673 87.0398 224.356 87.0398C220.505 87.0398 219.864 86.7228 219.567 84.6667C219.378 83.3616 219.67 81.4724 220.216 80.4691C220.94 79.1388 220.747 77.81 219.505 75.5601C216.822 70.6997 217.318 67.5021 221.253 64.2909C225.357 60.9413 225.545 59.4236 222.203 56.6111L219.704 54.507L223.035 51.7877C224.868 50.292 227.323 49.0683 228.492 49.0683ZM252.776 49.6022C254.415 49.5939 254.839 50.2857 255.714 52.5992C256.405 54.428 257.26 57.2299 257.614 58.8251C258.156 61.2701 257.939 61.7257 256.235 61.7257C255.124 61.7257 253.958 62.438 253.646 63.3081C253.332 64.1847 251.869 64.8897 250.364 64.8897C247.741 64.8897 247.625 64.6515 246.978 57.9008C246.624 54.0572 246.44 50.7846 246.597 50.6279C246.755 50.4715 248.587 50.1034 250.67 49.8092C251.548 49.6852 252.229 49.6049 252.776 49.6022ZM233.541 50.3174C233.907 50.2892 234.309 50.4816 234.764 50.8662C235.466 51.4579 237.259 52.2539 238.75 52.6349C242.101 53.4917 242.151 54.7413 238.996 58.7538C237.64 60.4774 236.531 62.8007 236.531 63.9162C236.531 65.5315 235.828 65.9446 233.081 65.9446C229.173 65.9446 229.091 65.6468 230.721 57.2949C231.663 52.4736 232.442 50.4024 233.541 50.3174ZM245.404 58.1935V62.069C245.404 65.4999 245.121 65.9446 242.94 65.9446C241.55 65.9446 240.476 65.3348 240.476 64.5464C240.476 63.7774 241.584 62.0334 242.94 60.6709L245.404 58.1935ZM219.832 59.6159C220.407 59.6159 220.601 60.0909 220.266 60.6709C219.931 61.2509 219.463 61.7257 219.222 61.7257C218.983 61.7257 218.788 61.2509 218.788 60.6709C218.788 60.0909 219.258 59.6159 219.832 59.6159ZM261.542 65.2609C261.818 65.1961 262.301 65.6513 263.149 66.4721C265.521 68.7688 265.68 70.763 263.561 71.6331C261.208 72.5992 261.176 72.5574 261.176 68.4177C261.176 66.2869 261.19 65.3442 261.542 65.2609ZM103.877 65.6812C101.735 65.6181 98.8602 68.8729 99.5969 70.9265C100.363 73.059 102.635 73.064 104.621 70.939C106.639 68.782 106.594 66.6666 104.513 65.8122C104.312 65.7296 104.098 65.6877 103.877 65.6812ZM120.236 66.268C117.882 66.268 116.03 68.2499 116.03 70.7681C116.03 72.2924 116.64 72.6619 118.741 72.4032C120.87 72.1411 121.518 71.4468 121.764 69.1686C122.006 66.9212 121.662 66.268 120.236 66.268ZM258.165 66.4721L258.192 70.9551C258.217 75.2505 258.093 75.4373 255.226 75.4373C253.581 75.4373 251.142 76.2041 249.805 77.141C247.487 78.7663 247.375 78.7422 247.375 76.6136C247.375 75.3659 248.006 74.3824 248.807 74.3824C251.467 74.3824 254.886 72.1296 256.531 69.2928L258.165 66.4721ZM243.867 66.9996C244.713 66.9996 245.404 67.4743 245.404 68.0544C245.404 68.6346 244.987 69.1086 244.477 69.1086C243.967 69.1086 243.275 68.6346 242.94 68.0544C242.605 67.4743 243.023 66.9996 243.867 66.9996ZM249.405 66.9996C250.521 66.9996 251.162 67.4743 250.826 68.0544C250.492 68.6346 249.578 69.1086 248.797 69.1086C248.015 69.1086 247.376 68.6346 247.376 68.0544C247.376 67.4743 248.289 66.9996 249.405 66.9996ZM229.353 68.0544H233.33C236.007 68.0544 237.497 68.5869 237.891 69.6839C238.212 70.5803 240.035 72.0103 241.94 72.8622C245.909 74.6367 246.374 77.0455 243.688 81.9116C242.281 84.4603 242.211 85.1776 243.3 85.8978C244.216 86.5033 244.294 86.9979 243.55 87.4902C241.999 88.5155 231.615 87.9136 230.948 86.7593C230.64 86.2258 230.156 81.7989 229.871 76.9219L229.353 68.0544ZM257.622 78.859C258.373 78.9431 258.255 79.7281 257.844 81.928C257.49 83.819 256.48 87.0478 255.493 89.0461L253.426 93.2329C252.87 94.3578 252.111 94.0788 250.298 91.7412C249.194 90.3185 248.825 90.1324 248.825 90.1324C251.73 89.783 253.833 89.9565 253.781 88.994C253.754 88.4701 251.619 88.4296 248.747 87.9833C248.747 87.9833 248.375 87.5695 248.891 85.7215C249.81 82.4302 252.282 80.0417 255.641 79.2016C256.335 79.0281 256.858 78.902 257.244 78.8632C257.388 78.8486 257.514 78.8467 257.622 78.859ZM237.379 79.8189C236.897 79.812 236.532 80.3925 236.532 81.2386C236.532 82.2054 237.009 82.8268 237.592 82.6189C238.174 82.4111 238.651 81.7897 238.651 81.2386C238.651 80.6874 238.174 80.0665 237.592 79.8589C237.519 79.8329 237.448 79.8202 237.379 79.8189ZM212.052 80.9117C212.529 80.8992 213.252 81.0378 214.218 81.2971C216.094 81.8009 217.041 82.9994 217.757 85.7715C218.294 87.8541 218.588 89.7162 218.407 89.909C218.226 90.1021 216.429 88.3066 214.413 85.9192C211.397 82.3474 210.622 80.9496 212.052 80.9117ZM81.6788 87.4523C74.6776 87.2903 67.6118 88.538 61.9447 92.0395C49.0687 99.9957 40.213 115.34 36.3923 136.275C35.2047 142.78 35.467 163.007 36.7799 166.179C37.2993 167.435 35.4196 168.701 28.3066 171.887C15.3907 177.673 3.88538 183.918 3.88538 185.145C3.88538 187.39 8.79294 185.856 28.8685 177.337C57.3797 165.235 61.8587 163.928 61.8587 163.928C62.7726 164.505 66.1829 167.576 66.1829 167.576C65.1227 168.535 61.5106 169.672 57.0405 172.301C51.6617 175.464 47.2599 178.653 47.2599 179.389C47.2599 180.124 50.3486 182.764 54.1229 185.256C57.8968 187.747 60.8319 189.948 60.6476 190.146C60.4625 190.344 57.3757 188.778 53.7868 186.667C50.1976 184.557 47.2599 183.354 47.2599 183.994C47.2599 185.382 53.8574 189.943 67.9619 198.307C73.6547 201.683 80.4198 205.845 82.9955 207.556C85.5706 209.267 91.1138 212.277 95.3175 214.236C98.1714 215.566 103.221 218.58 108.553 216.676C109.746 216.251 113.689 214.597 117.503 213.466C121.316 212.335 131.361 208.612 139.821 205.193C148.282 201.774 159.419 197.346 164.57 195.353C181.104 188.956 204.394 178.877 207.809 176.641C213.596 172.854 210.325 173.153 201.473 177.221C196.772 179.382 185.991 183.656 177.516 186.721C169.04 189.785 160.393 193.082 158.301 194.048C156.209 195.014 154.306 195.598 154.071 195.347C153.548 194.788 156.828 193.369 181.328 183.55C208.175 172.792 208.864 172.47 210.024 170.151C211.32 167.559 209.336 164.987 203.016 161.065C200.575 159.55 194.124 155.903 194.124 155.903C191.091 147.643 180.921 141.285 175.203 139.744C172.092 138.906 169.427 137.124 166.476 133.907C164.139 131.359 161.176 129.443 161.414 129.244C161.651 129.044 169.523 126.529 177.384 124.059C193.443 119.015 200.058 116.034 200.058 113.843C200.058 111.44 196.744 112.037 176.075 118.163C165.325 121.35 156.134 123.957 155.652 123.957C155.169 123.957 149.104 119.99 142.174 115.141C135.244 110.292 125.804 104.318 121.195 101.866C116.586 99.4129 109.416 95.5318 105.247 93.2728C99.5736 90.1991 90.68 87.6607 81.6788 87.4523ZM222.548 88.8148C223.075 88.819 223.755 88.8715 224.628 88.9605C227.234 89.2263 228.729 89.9541 229.026 91.1017C229.273 92.0578 229.762 93.9083 230.112 95.2135C230.907 98.1711 230.153 98.1646 225.196 95.1671C222.996 93.8366 221.125 91.849 220.966 90.6699C220.776 89.2698 220.966 88.8082 222.548 88.8148ZM233.58 89.57C234.464 89.5345 235.678 89.6442 237.272 89.8241C240.39 90.1762 243.045 90.5588 243.174 90.6734C243.303 90.7885 242.851 92.9484 242.168 95.4733C241.484 97.9982 240.49 100.152 239.96 100.257C236.916 100.865 234.41 99.2455 233.065 95.8009C231.224 91.0848 230.925 89.6759 233.58 89.57ZM245.941 91.8325C245.994 91.8256 246.052 91.8325 246.116 91.8497C246.421 91.9411 246.848 92.3309 247.505 92.9667C249.886 95.2714 250.09 98.9144 247.44 99.6601L246.207 100.007C243.037 100.899 243.126 101.012 243.888 98.9056C244.255 97.8905 244.805 95.738 245.109 94.1222C245.398 92.5935 245.564 91.8842 245.941 91.8325ZM82.1324 92.1573C84.2257 92.118 86.754 92.2824 88.9097 92.6655C94.148 93.5967 94.7364 95.015 91.3111 98.4581C89.1608 100.547 86.699 100.805 82.9876 99.3539C80.772 98.0377 77.3036 93.5598 77.9652 92.8703C78.3794 92.439 80.0388 92.1965 82.1324 92.1573ZM73.8955 93.5648C74.0104 93.5523 74.1264 93.5551 74.242 93.579C75.1694 93.7621 76.0754 95.2105 76.683 97.0085C80.4338 108.108 93.7928 109.065 97.9326 98.5302C98.7991 96.3246 99.4405 95.843 100.528 96.5796C102.926 98.204 98.7232 105.065 93.5363 107.872C85.506 112.219 74.8746 106.505 72.367 94.4783C72.367 94.4783 73.0932 93.6492 73.8955 93.5648ZM69.272 95.584C69.7525 95.5982 69.9344 95.9962 69.9344 96.7359C71.0737 109.095 84.1982 118.026 94.889 113.28C98.2757 111.777 102.558 106.844 103.525 104.18C104.741 100.834 105.775 101.214 107.825 105.763C109.669 109.855 111.172 129.546 109.994 132.831C109.994 132.831 108.841 131.031 105.693 128.255C98.0657 121.528 94.8716 125.518 100.791 134.378C102.581 137.058 104.877 140.508 105.26 141.184C105.26 141.184 103.219 142.49 98.7748 144.053C95.1111 145.341 72.516 154.145 66.9572 155.927C63.0302 151.253 61.2337 137.661 63.5964 124.993C65.3348 109.398 65.0067 107.081 61.0612 107.081C57.9734 107.081 56.9118 110.019 55.4383 122.632C54.1955 133.679 52.7836 150.537 58.8148 159.314C52.399 162.026 47.593 163.441 41.5914 165.902C40.9143 166.161 40.3548 165.966 40.3835 165.469C40.6072 156.798 42.5505 138.645 43.8159 133.41C47.4522 118.368 54.698 105.869 63.8188 98.9071C66.8379 96.6023 68.4711 95.56 69.272 95.584ZM116.033 108.135C117.167 108.135 143.928 126.369 144.138 127.33C139.758 130.024 123.434 134.762 118.545 137.081C116.426 137.757 116.391 137.595 116.567 127.963C116.665 122.569 116.388 115.901 115.952 113.145C115.501 110.296 115.536 108.135 116.033 108.135ZM225.989 117.832C226.198 117.823 226.386 117.828 226.556 117.843C227.692 117.946 228.052 118.597 228.613 120.174C229.801 123.518 232.806 123.752 234.731 120.651L236.127 118.401L241.998 121.443C246.264 123.653 247.868 125.06 247.868 126.593C247.868 128.512 247.157 128.72 239.982 128.878C232.483 129.044 218.175 127.089 215.905 125.588C212.557 123.375 216.67 119.335 223.462 118.165C224.551 117.978 225.363 117.855 225.989 117.832ZM150.616 132.735C150.616 132.735 156.916 137.981 160.38 141.255C158.79 140.751 157.599 139.577 155.107 138.268C153.118 137.223 151.539 137.323 137.391 142.457C128.754 145.591 122.183 147.861 122.183 147.879C120.632 146.002 119.739 145.088 118.497 143.92C118.995 143.477 146.594 133.937 150.616 132.735ZM217.865 140.963C215.721 141.089 213.55 142.594 212.629 145.223C212.292 146.187 212.376 152.12 212.816 158.407C213.523 168.504 214.005 170.605 216.942 176.413C222.416 187.238 225.717 184.624 225.657 169.506C225.616 158.345 224.03 146.248 222.222 143.295C221.186 141.603 219.533 140.866 217.865 140.963ZM154.218 141.302L161.778 145.55C169.315 149.787 169.373 150.565 169.373 150.565C169.029 155.944 170.314 159.917 170.549 160.682C170.827 161.582 168.857 162.939 164.957 164.532C156.001 168.191 152.373 170.395 153.433 171.53C154.748 172.936 170.592 164.925 173.022 161.619C174.32 161.553 174.99 159.287 175.592 158.321L177.537 162.521C178.548 164.706 179.24 166.57 179.105 166.646C178.972 166.722 174.31 168.831 168.746 171.334C158.545 175.922 156.741 177.213 158.297 178.803C159.236 179.763 183.227 167.915 184.518 165.854C184.961 165.145 185.089 163.141 184.801 161.401L184.278 158.236L186.817 161.664C189.621 165.449 192.523 166.083 194.059 163.247C194.99 161.528 195.38 161.588 199.72 164.12C202.284 165.615 204.532 167.319 204.714 167.906C205.167 169.362 159.268 187.72 157.247 186.891C156.095 186.417 154.392 185.221 154.392 185.221C157.703 183.265 154.864 180.732 151.428 182.749C151.428 182.749 148.488 181.431 147.295 179.688C150.749 178.143 148.309 175.92 144.959 177.571C143.798 175.856 142.843 175.731 141.602 174.29C144.28 172.812 139.913 170.899 137.906 172.681C137.106 173.391 135.446 174.591 134.762 174.31C133.992 173.994 133.461 174.766 133.372 176.338C133.26 178.311 136.313 177.103 137.657 176.646L140.865 179.726C138.023 181.187 138.8 183.343 143.09 182.135C143.09 182.135 144.187 182.738 145.247 183.58C146.873 184.872 147.109 185.241 147.109 185.241C143.819 187.618 146.298 188.703 150.112 187.308C150.112 187.308 154.07 189.902 150.629 191.35C149.351 191.888 144.098 194.082 138.956 196.224C133.814 198.367 116.144 204.735 109.693 207.396C106.158 208.854 106.199 209.424 102.683 207.628C97.3852 205.389 60.7197 185.354 54.4292 181.249C50.2239 178.504 50.4633 179.664 54.9227 177.267C56.9439 176.219 67.0039 171.209 71.1543 169.855C71.1543 169.855 71.5802 169.746 74.8627 171.293C79.8765 173.656 97.7133 173.549 102.823 171.126C106.173 169.537 107.745 169.46 115.893 170.488C123.733 171.478 127.316 168.704 131.319 167.304C131.319 167.304 134.469 169.3 136.777 168.952C140.417 168.404 139.471 167.616 135.635 163.669C135.007 161.036 133.739 155.985 132.966 154.781C132.005 153.286 129.484 152.936 126.583 152.064L133.172 149.47C137.699 147.628 144.286 145.037 147.811 143.712L154.218 141.302ZM262.192 143.281C259.084 143.468 246.276 150.182 238.503 155.818C232.658 160.056 232.068 160.825 231.778 164.581C231.552 167.503 231.938 169.074 233.107 169.988C234.898 171.389 235.55 171.192 243.027 166.992C257.088 159.094 268.272 145.629 262.68 143.333C262.564 143.285 262.399 143.269 262.192 143.281ZM216.561 144.516C216.957 144.548 217.464 144.816 218.083 145.311C219.575 146.504 221.666 156.957 221.725 163.509C221.739 165.022 221.047 165.662 219.28 165.771C216.992 165.912 216.81 165.572 216.757 161.025C216.726 158.331 216.324 153.754 215.867 150.853C215.173 146.454 215.372 144.421 216.561 144.516ZM109.574 146.916C109.574 146.916 110.83 148.282 111.067 149.007C111.343 149.845 110.556 150.325 108.907 150.325C107.437 150.325 105.373 152.416 104.135 153.846C104.135 153.846 98.4866 155.654 90.2445 158.949C84.1362 161.39 81.4705 162.324 79.3167 162.743C77.3532 163.063 72.4522 160.808 71.5399 160.277C71.5399 160.277 105.378 147.115 109.574 146.916ZM258.668 147.668C258.996 147.71 259.206 147.89 259.206 148.187C259.206 149.617 257.454 150.504 256.815 149.398C256.51 148.869 256.921 148.165 257.732 147.832C257.935 147.749 258.128 147.697 258.304 147.673C258.436 147.656 258.559 147.655 258.668 147.668ZM254.777 150.821C255.75 150.772 256.247 151.273 256.247 152.332C256.247 152.892 252.663 155.992 248.282 159.221C243.902 162.45 240.184 165.092 240.019 165.092C239.854 165.092 239.498 164.19 239.229 163.088C238.851 161.538 240.399 159.844 246.064 155.612C250.216 152.51 253.156 150.902 254.777 150.821ZM161.188 156.996C159.266 156.824 140.82 167.247 141.403 168.256C142.066 169.404 149.047 166.624 155.934 162.469C160.621 159.641 162.232 158.021 161.321 157.047C161.294 157.018 161.25 157.001 161.188 156.996ZM102.985 159.315C102.045 160.338 102.932 162.838 101.044 162.816C100.593 162.81 98.6738 163.753 95.2376 163.853L88.2277 164.058L102.985 159.315ZM235.597 164.229C236.129 164.196 236.532 164.728 236.532 165.531C236.532 166.45 235.83 167.202 234.972 167.202C233.231 167.202 233.534 164.931 235.361 164.279C235.441 164.25 235.521 164.234 235.597 164.229ZM221.877 169.421C222.562 169.478 222.755 169.982 222.563 171.049C222.372 172.11 221.404 173.146 220.412 173.35C219.11 173.618 218.704 173.186 218.956 171.792C219.147 170.731 220.115 169.695 221.108 169.491C221.27 169.458 221.418 169.435 221.553 169.423C221.672 169.414 221.779 169.414 221.877 169.419V169.421ZM71.005 195.954C71.0437 195.891 71.5791 196.162 72.6441 196.714C73.864 197.347 74.8627 198.085 74.8627 198.355C74.8627 199.162 74.3518 198.928 72.3404 197.204C71.4217 196.417 70.9653 196.018 71.005 195.954ZM33.4822 196.997C30.6904 197.003 30.7904 198.475 25.0467 204.736C8.06233 224.56 8.51145 223.123 8.14872 231.588C7.84511 238.667 5.96317 238.245 12.0241 240.412C14.3251 241.322 27.0763 245.599 40.3598 249.915C53.6432 254.231 66.0639 258.495 67.9619 259.391C69.8594 260.286 72.0778 260.914 72.8907 260.784C73.7039 260.654 76.3661 256.473 78.8057 251.492C83.4038 242.106 89.1782 232.042 91.3545 229.621C92.0434 228.855 92.6072 225.943 92.6072 223.151C92.6072 218.58 93.7768 217.353 90.276 213.968C88.138 211.902 83.1436 210.071 81.0797 209.473C79.0157 208.875 70.0068 206.227 61.0612 203.589C52.1146 200.95 40.9412 197.716 37.5624 197.358C35.6655 197.156 34.4133 196.995 33.4822 196.997ZM34.6999 202.108C37.5329 202.152 42.521 203.506 52.1981 206.651C60.0549 209.205 76.8275 214.407 82.1135 215.994C84.8677 216.828 86.7462 216.282 84.1844 220.8C82.6905 223.436 74.0228 238.977 71.5818 242.624C68.8485 246.708 70.073 246.693 65.759 244.332C61.4635 242.071 38.2427 234.788 14.9474 228.382C12.2045 227.627 10.7226 227.175 13.031 224.385C18.4833 217.795 31.3655 203.243 31.9335 202.816C32.5687 202.339 33.4119 202.088 34.6999 202.108ZM154.277 208.159C153.212 208.154 152.196 208.31 151.261 208.63C147.075 210.067 139.925 217.704 139.925 220.74C139.925 226.554 144.817 232.201 152.451 235.199C159.024 237.78 161.857 237.252 166.895 232.507C170.981 228.659 171.47 227.722 171.47 223.741C171.47 218.996 170.193 216.926 164.352 212.21C161.116 209.597 157.473 208.168 154.277 208.159ZM119.065 208.576C119.216 208.559 119.321 208.56 119.373 208.58C119.792 208.737 116.634 210.325 112.357 212.108C105.388 215.014 104.341 215.197 102.29 213.88C100.994 213.05 100.763 212.663 101.755 212.99C102.721 213.309 106.907 212.383 111.06 210.933C114.694 209.664 118.012 208.694 119.065 208.576ZM154.81 211.502C158.335 211.502 166.467 216.768 166.51 219.077C166.526 220.052 165.253 221.832 163.678 223.032C162.103 224.232 160.218 225.162 159.489 225.097C157.173 224.894 145.482 219.328 145.201 218.294C144.737 216.591 151.935 211.502 154.81 211.502ZM144.563 222.6C145.26 222.595 146.666 223.179 148.872 224.322C155.48 227.744 160.823 228.068 164.495 225.27C168.685 222.077 168.533 224.809 164.274 229.226C162.485 231.08 160.156 232.572 159.098 232.542C155.325 232.434 146.737 228.164 145.181 225.622C143.937 223.592 143.665 222.608 144.561 222.6H144.563ZM86.9826 223.936C87.2695 223.871 87.4115 224.3 87.5188 225.111C87.7381 226.768 86.5024 229.695 83.9453 233.575C81.7953 236.836 78.2023 243.409 75.9601 248.181C73.7178 252.952 71.5549 256.808 71.1543 256.746C68.8273 256.393 45.0544 247.515 46.2742 247.455C47.0882 247.415 52.1467 248.58 57.5164 250.043C62.8864 251.507 67.7663 252.506 68.3602 252.262C70.2322 251.496 60.2521 247.269 51.3625 245.064C35.4492 241.116 12.7581 234.282 12.7581 233.438C12.7581 232.157 13.6779 232.343 24.7051 235.857C30.3333 237.65 39.3734 240.281 44.7954 241.703C56.8274 244.857 68.0826 248.466 69.5269 249.635C71.2937 251.063 74.9231 245.808 83.8434 228.905C85.6249 225.529 86.5044 224.046 86.9826 223.936ZM111.094 231.152C107.411 231.123 106.75 231.552 105.805 233.54C103.633 238.112 105.405 240.223 114.487 243.885C119.095 245.742 126.148 248.214 130.162 249.378C135.615 250.959 140.376 251.476 148.995 251.428C162.13 251.353 164.961 250.319 161.936 246.697C157.238 241.072 127.334 231.621 112.869 231.189C112.209 231.17 111.621 231.157 111.094 231.152ZM108.985 233.907C109.259 233.902 109.631 233.993 110.105 234.209C112.732 235.4 129.777 239.844 136.721 241.149C140.11 241.786 142.867 242.614 142.867 242.989C142.804 245.836 140.623 245.75 127.109 242.365C119.248 240.396 111.817 238.094 110.598 237.249C108.453 235.764 107.798 233.928 108.985 233.907ZM13.251 237.007C14.335 236.99 16.7746 237.616 18.6722 238.398C23.1132 240.229 20.3939 240.252 15.2224 238.428C13.0526 237.663 12.1663 237.025 13.251 237.007ZM150.498 244.419C151.015 244.409 151.794 244.845 152.481 245.581C154.263 247.487 153.197 247.974 150.798 246.35C150 245.81 149.678 245.015 150.082 244.583C150.182 244.475 150.326 244.422 150.498 244.419Z" fill="#145A7E"/>
<g id="paper_diploma 1" clip-path="url(#clip1_272_36)">
<path id="Vector_3" d="M190.133 197.195C190.133 197.195 191.681 188 205.751 187.387C219.822 186.774 261.471 186.73 267.394 187.212C273.316 187.693 281.213 186.482 277.38 219.73C282.58 228.714 280.109 229.895 276.65 229.258C276.219 259.978 279.161 276.293 262.052 277.395C241.408 278.724 204.087 277.19 199.345 277.468C194.603 277.745 184.52 275.921 183.068 268.331C193.152 268.185 198.474 268.214 198.474 268.214C202.791 268.282 207.66 196.542 203.951 196.64C203.29 196.658 190.133 197.195 190.133 197.195Z" fill="white"/>
<path id="Vector_4" d="M199.34 278.912C198.925 278.782 198.272 278.726 197.89 278.787C196.71 278.974 190.902 278.056 190.116 277.558C189.862 277.397 188.929 276.991 188.043 276.656C186.907 276.226 186.046 275.633 185.118 274.641C184.394 273.868 183.631 273.084 183.422 272.898C183.212 272.713 182.961 272.001 182.863 271.318C182.765 270.634 182.573 270.015 182.435 269.941C181.882 269.644 181.744 268.112 182.217 267.508C182.669 266.929 182.851 266.904 187.094 266.854C189.518 266.825 192.749 266.766 194.273 266.722C197.045 266.642 197.045 266.642 197.552 265.773C197.831 265.295 198.002 264.825 197.932 264.729C197.862 264.632 197.929 264.488 198.082 264.409C198.334 264.279 198.569 263.538 198.95 261.679C202.15 240.886 204.433 222.714 203.555 202.341C203.346 197.773 203.2 197.285 202.126 197.552C201.872 197.615 199.421 197.693 196.68 197.725C193.387 197.763 191.715 197.876 191.752 198.056C191.832 198.439 190.685 198.233 190.039 197.749C189.208 197.126 189.204 197.138 191.496 193.024C192.365 191.453 196.216 187.802 197.607 187.361C197.699 187.361 198.164 187.227 198.641 187.063C200.781 185.987 202.215 186.344 203.992 186.065C204.913 185.916 209.963 185.74 215.214 185.672C234.253 185.764 253.167 183.797 270.314 185.961C271.682 186.163 272.833 186.328 272.871 186.329C277.701 186.8 281.37 201.85 280.823 209.166C280.59 211.996 280.178 213.682 279.719 213.682C279.556 213.682 279.423 214.249 279.423 214.941C279.423 216.095 279.346 216.226 278.504 216.519C276.977 217.049 276.657 216.757 276.603 214.787C276.576 213.824 276.581 212.863 276.614 212.65C276.708 206.958 277.57 196.854 273.418 191.859C272.978 191.4 272.346 191.156 271.206 191.007C269.82 190.826 269.509 190.869 268.841 191.338C268.418 191.634 267.565 192.209 266.945 192.616C264.811 195.704 263.882 196.561 258.944 195.959C242.609 195.068 221.032 196.727 208.487 197.293C206.12 197.4 205.869 197.496 206.445 198.078C207.884 216.544 207.158 235.752 203.826 253.937C203.756 254.292 203.423 256.092 203.086 257.937C202.35 261.962 201.678 264.446 201.052 265.451C200.798 265.86 200.589 266.291 200.588 266.408C200.588 266.525 202.63 266.556 205.128 266.477C233.173 266.231 249.355 267.884 256.669 267.604C257.588 267.244 261.006 267.192 262.365 267.518C262.83 267.63 263.211 267.892 263.211 268.101C263.211 268.569 264.761 272.389 265.024 272.568C265.128 272.639 265.369 272.929 265.56 273.213C266.097 274.012 268.721 273.926 269.792 273.075C270.232 272.725 270.594 272.312 270.597 272.156C270.6 272.001 270.859 271.679 271.173 271.441C271.487 271.203 272.387 269.937 273.173 268.627C276.505 258.952 271.28 249.822 275.093 231.434C276.042 229.853 276.065 229.917 274.259 229.08C273.252 228.614 273.252 228.614 273.29 231.087C273.329 233.644 272.884 234.842 271.896 234.842C271.66 234.842 271.421 234.958 271.365 235.099C271.305 235.249 270.813 235.168 270.185 234.906C268.857 234.35 267.958 232.972 267.253 230.415C265.957 225.709 264.593 221.094 264.322 220.496C264.076 219.953 263.856 219.856 263.024 219.923C262.105 219.998 262.023 220.078 262.017 220.907C262.013 221.506 261.624 222.312 260.862 223.299C260.231 224.118 259.714 224.893 259.714 225.02C259.714 225.148 259.515 225.581 259.272 225.983C258.413 227.406 257.25 229.98 257.25 230.458C257.25 230.725 256.765 231.637 256.172 232.485C255.579 233.332 255.094 234.139 255.094 234.277C255.094 234.591 254.344 234.842 253.407 234.842C252.61 234.842 250.796 233.288 250.761 232.575C250.713 231.588 250.441 229.532 250.319 229.232C250.126 228.759 248.996 229.192 246.835 230.569C243 233.013 241.654 231.484 243.975 227.317C244.501 226.371 244.932 225.522 244.932 225.429C244.932 225.336 245.278 224.879 245.702 224.414C246.125 223.949 246.471 223.485 246.471 223.383C246.471 223.281 247.372 221.926 248.473 220.372C249.574 218.818 250.475 217.477 250.475 217.393C250.475 217.309 250.079 216.817 249.595 216.3C247.987 214.581 247.323 212.777 247.255 209.94C247.23 208.899 247.415 208.401 248.216 207.36C250.102 204.908 253.902 202.238 256.48 201.555C257.158 201.375 257.881 201.116 258.088 200.979C258.679 200.586 264.017 200.867 265.257 201.357C269.668 203.098 271.419 204.842 272.322 208.392C273.494 211.091 272.158 211.496 272.526 212.648C275.137 215.642 279.974 221.517 280.168 222.622C280.196 222.786 280.379 223.08 280.573 223.277C280.918 223.625 282.22 225.94 282.361 226.455C282.399 226.597 282.58 227.178 282.762 227.746C283.119 228.858 283.094 229.167 282.555 230.266C282.001 231.398 279.632 231.886 278.336 231.135C278.002 230.941 277.384 230.692 276.962 230.582C276.262 230.399 276.233 230.42 276.632 230.823C277.283 231.48 278.002 235.826 277.092 241.16C276.958 257.775 279.356 263.156 274.786 272.873C274.084 274.421 271.987 275.178 269.674 275.933C268.389 276.352 267.568 276.797 267.258 277.243C266.388 278.494 265.505 278.582 253.057 278.653C237.362 278.918 218.37 278.716 201.188 278.947C200.587 279.057 199.756 279.041 199.34 278.912ZM253.434 275.619C258.473 275.615 262.596 275.569 262.596 275.516C262.596 275.463 262.317 275.039 261.975 274.574C261.634 274.109 261.081 272.964 260.746 272.029C260.136 270.329 260.136 270.329 257.131 270.389C245.221 271.227 223.393 269.279 207.053 269.533C182.656 269.936 185.496 269.805 185.496 270.53C185.496 270.856 185.651 271.253 185.84 271.411C186.029 271.57 186.343 271.97 186.537 272.302C186.732 272.633 187.349 273.096 187.908 273.332C188.468 273.567 189.159 273.926 189.444 274.13C189.891 274.451 192.995 275.351 194.889 275.709C212.475 275.723 238.166 275.638 253.434 275.619ZM254.92 229.099C256.194 226.317 258.105 222.857 259.086 221.552C259.407 221.127 259.679 220.719 259.691 220.647C259.703 220.575 259.092 220.558 258.331 220.609C256.879 220.705 253.635 219.803 253.154 219.168C252.638 218.486 252.331 218.825 250.056 222.585C249.713 223.152 249.355 223.675 249.26 223.746C249.166 223.817 248.903 224.152 248.675 224.491C248.448 224.83 247.997 225.501 247.674 225.982C246.912 227.12 246.892 227.71 247.626 227.375C250.747 225.948 252.668 225.493 253.1 226.078C253.208 226.225 253.286 227.561 253.271 229.045C253.257 230.53 253.35 231.745 253.477 231.744C253.604 231.744 254.254 230.553 254.92 229.099ZM270.601 229.804C270.506 229.598 270.662 228.549 270.948 227.474C271.467 225.52 271.467 225.52 272.442 225.693C272.979 225.787 273.549 225.968 273.71 226.095C273.871 226.222 274.31 226.326 274.686 226.326C275.495 226.326 277.074 226.999 278.17 227.81C278.855 228.317 279.423 228.547 279.423 228.317C279.423 228.277 279.134 227.551 278.78 226.704C277.852 224.481 275.053 219.887 273.088 217.362C271.393 215.183 271.393 215.183 270.457 216.174C269.942 216.72 269.039 217.375 268.451 217.63C267.863 217.886 267.3 218.274 267.199 218.493C267.026 218.871 267.799 222.374 268.358 223.746C268.503 224.101 268.704 224.914 268.805 225.552C268.905 226.191 269.109 227.062 269.258 227.488C269.407 227.913 269.683 228.759 269.871 229.366C270.06 229.973 270.34 230.405 270.494 230.325C270.648 230.246 270.696 230.011 270.601 229.804ZM261.363 217.662C263.497 217.203 264.456 216.697 262.779 216.915C257.84 217.881 255.7 216.502 253.661 212.11C253.119 210.973 253.213 208.91 253.863 207.718C254.065 207.347 254.82 206.732 255.541 206.35C256.62 205.778 256.825 205.545 256.707 205.024C256.535 204.274 256.394 204.253 255.394 204.835C253.632 205.859 252.59 206.685 250.968 208.343C249.833 209.504 249.783 209.631 249.957 210.913C250.349 213.81 251.478 215.33 254.367 216.852C256.735 218.099 258.424 218.294 261.363 217.662ZM268.298 214.239C268.818 213.688 269.155 213.164 269.047 213.073C268.592 212.692 268.142 212.969 267.64 213.94C267.347 214.508 266.982 214.972 266.831 214.972C266.679 214.972 266.474 215.149 266.375 215.365C266.064 216.043 267.247 215.35 268.298 214.239ZM262.639 214.255C264.004 213.85 264.273 213.641 265 212.417C266.075 210.607 265.918 208.727 264.551 207.03C263.665 205.929 263.594 205.898 262.367 206.045C261.67 206.129 260.751 206.198 260.326 206.198C259.9 206.198 259.141 206.519 258.639 206.909C258.137 207.299 257.631 207.618 257.513 207.618C257.396 207.618 256.924 207.891 256.466 208.225C255.705 208.779 255.648 208.947 255.816 210.131C255.917 210.846 256.211 211.627 256.471 211.867C256.73 212.107 256.942 212.418 256.942 212.559C256.942 212.973 258.54 214.016 259.71 214.367C261.082 214.778 260.845 214.787 262.639 214.255ZM258.415 212.727C258.235 212.423 258.05 210.877 258.034 209.553C258.02 208.392 258.02 208.392 259.56 208.348C261.349 208.296 261.781 208.221 262.696 207.799C263.852 207.266 264.287 207.429 264.686 208.545C264.996 209.411 264.984 209.795 264.622 210.674C264.251 211.572 264.028 211.761 263.255 211.833C262.747 211.88 262.124 212.069 261.869 212.253C261.322 212.648 258.59 213.023 258.415 212.727ZM269.535 208.017C269.242 206.993 268.811 206.338 267.964 205.628C266.795 204.649 265.611 204.211 266.595 205.122C267.613 206.268 268.33 207.64 268.337 208.796C268.337 210.15 268.402 210.299 269.029 210.374C269.931 210.481 270.063 209.863 269.535 208.017ZM262.298 202.799C262.135 202.578 260.07 202.718 259.768 202.971C259.693 203.033 260.271 203.074 261.053 203.061C261.834 203.047 262.395 202.93 262.298 202.799ZM197.045 195.61C198.569 195.468 200.994 195.297 202.434 195.228C203.874 195.16 206.784 194.992 208.901 194.854C220.284 193.929 230.672 193.596 241.544 193.291C242.385 193.219 259.81 193.349 260.57 193.433C261.486 193.536 261.674 193.433 262.572 192.337C263.747 190.904 265.817 189.167 266.352 189.167C266.56 189.167 266.811 188.993 266.908 188.78C247.628 188.058 234.053 188.58 214.128 188.639C209.805 188.65 205.439 188.783 204.428 188.933C203.416 189.084 202.283 189.246 201.91 189.292C198.507 190.022 195.053 192.345 193.493 194.862C192.761 196.063 192.579 196.025 197.045 195.61ZM226.377 259.146C225.364 259.048 224.843 258.338 224.973 257.233C225.046 256.614 225.251 256.386 225.839 256.268C226.262 256.183 229.553 256.117 233.152 256.122C236.751 256.127 239.696 256.044 239.696 255.937C239.696 255.831 240.078 255.745 240.543 255.746C241.161 255.748 241.495 255.936 241.775 256.442C242.285 257.361 242.264 258.447 241.73 258.818C241.329 259.097 228.674 259.367 226.377 259.146ZM216.446 252.447C215.351 252.34 214.752 251.772 214.752 250.841C214.752 249.458 215.192 249.297 219.371 249.151C221.489 249.078 231.36 248.977 241.307 248.929C261.055 248.832 260.206 248.768 259.912 250.332C259.574 252.13 259.775 252.095 249.289 252.147C244.098 252.172 238.95 252.163 237.849 252.127C231.575 251.919 218.541 252.147 217.535 252.482C217.444 252.512 216.954 252.496 216.446 252.447ZM214.505 247.236C213.849 246.774 213.823 246.658 214.16 245.714C214.707 244.186 214.325 244.217 234.923 244.001C251.931 243.822 258.418 243.811 258.719 243.962C258.843 244.024 259.543 244.08 260.275 244.087C261.007 244.094 261.795 244.231 262.026 244.391C262.671 244.84 262.885 246.078 262.427 246.712C262.03 247.264 261.916 247.271 255.094 247.206C237.97 247.041 223.841 247.192 217.216 247.61C215.543 247.716 215.097 247.654 214.505 247.236ZM216.325 242.635C215.873 241.928 215.893 240.973 216.369 240.464C217.093 239.691 221.567 239.442 236.517 239.344C244.448 239.292 253.298 239.189 256.183 239.115C260.751 238.998 261.565 239.039 262.487 239.427C263.834 239.995 264.142 240.899 263.325 241.888C262.809 242.512 262.594 242.587 261.759 242.432C260.82 242.256 252.837 242.262 248.473 242.442C246.153 242.537 232.419 242.542 229.38 242.449C228.364 242.418 226.147 242.492 224.453 242.614C216.002 243.222 216.699 243.22 216.325 242.635ZM222.451 230.553C220.341 229.933 219.993 228.972 221.44 227.76C222.276 227.059 222.276 227.059 228.269 227.144C234.781 227.235 235.077 227.301 235.077 228.67C235.077 230.114 233.418 230.74 230.458 230.411C228.753 230.222 225.989 230.279 223.991 230.545C223.398 230.624 222.705 230.628 222.451 230.553ZM230.724 225.093C225.433 225.088 225.054 225.055 224.424 224.548C224.009 224.213 223.772 223.727 223.799 223.268C223.878 221.949 224.282 221.792 227.435 221.856C229.013 221.888 232.207 221.928 234.533 221.945C238.712 221.976 238.77 221.984 239.398 222.654C240.342 223.659 240.118 224.831 238.927 225.126C236.024 225.919 233.1 225.097 230.724 225.093ZM238.343 214.315C237.409 213.742 226.51 213.763 219.783 214.349C218.908 214.425 217.626 214.36 216.934 214.204C215.706 213.927 215.676 213.893 215.676 212.796C215.676 211.479 215.825 211.401 218.73 211.206C219.845 211.132 221.312 211.012 221.989 210.941C229.637 211.392 244.897 208.953 240.891 214.105C240.466 214.537 238.913 214.664 238.343 214.315ZM242.116 208.398C242.031 208.327 237.468 208.202 231.976 208.12C222.369 207.977 221.963 207.95 221.296 207.427C220.594 206.875 220.35 205.586 220.894 205.304C221.123 205.186 241.889 205.034 243.266 205.14C244.111 205.206 244.646 207.462 243.931 207.942C243.425 208.281 242.311 208.561 242.116 208.398Z" fill="#145A7E"/>
</g>
</g>
</g>
<defs>
<clipPath id="clip0_272_36">
<rect width="317" height="275" fill="white" transform="translate(-34)"/>
</clipPath>
<clipPath id="clip1_272_36">
<rect width="101.07" height="94.0789" fill="white" transform="translate(181.93 184.942)"/>
</clipPath>
</defs>
</svg>
