<svg width="48" height="48" viewBox="0 0 48 48" fill="none" xmlns="http://www.w3.org/2000/svg">
<g clip-path="url(#clip0_12_240)">
<path d="M16.0004 34L24.0004 42M24.0004 42L32.0004 34M24.0004 42V24M41.7604 36.18C43.4991 34.9573 44.8031 33.2123 45.4829 31.1983C46.1628 29.1843 46.1832 27.006 45.5411 24.9796C44.8991 22.9533 43.6281 21.1842 41.9125 19.9291C40.1969 18.6741 38.126 17.9983 36.0004 18H33.4804C32.8788 15.6557 31.7533 13.4785 30.1886 11.6321C28.6239 9.78581 26.6606 8.31851 24.4468 7.3407C22.2329 6.36288 19.826 5.90004 17.4074 5.98702C14.9888 6.074 12.6214 6.70853 10.4835 7.84284C8.34554 8.97715 6.4928 10.5817 5.06473 12.5356C3.63665 14.4896 2.67046 16.7421 2.23888 19.1235C1.80729 21.5049 1.92157 23.9532 2.57311 26.284C3.22465 28.6149 4.39647 30.7676 6.00035 32.58" stroke="white" stroke-width="4" stroke-linecap="round" stroke-linejoin="round"/>
</g>
<defs>
<clipPath id="clip0_12_240">
<rect width="48" height="48" fill="white"/>
</clipPath>
</defs>
</svg>
