<svg width="332" height="235" viewBox="0 0 332 235" fill="none" xmlns="http://www.w3.org/2000/svg">
<g clip-path="url(#clip0_272_52)">
<path d="M262.961 3.25208C262.731 3.24566 262.512 3.2461 262.3 3.25414C255.547 3.51134 233.476 4.76902 225.752 5.74075C218.029 6.71244 208.913 10.9133 204.649 16.2577C200.386 21.602 191.355 49.1819 190.806 54.069C190.257 58.9561 200.176 101.597 203.255 106.055L205.176 107.459C203.409 108.988 202.041 110.81 201.619 112.79C201.619 112.79 123.162 113.465 114.652 115.105C106.14 116.745 104.411 120.821 104.941 127.896C105.472 134.971 113.66 137.672 112.645 141.842C111.629 146.012 116.697 153.437 116.697 153.437C116.697 153.437 109.339 158.2 108.163 160.621C106.987 163.042 117.229 166.135 117.229 166.135C117.229 166.135 112.777 195.168 111.462 201.993C110.148 208.818 121.195 209.771 122.878 209.959C124.562 210.146 161.327 219.501 161.327 219.501C161.327 219.501 177.286 228.31 188.496 230.996C199.704 233.682 273.764 237.024 276.946 233.432C280.13 229.84 281.305 221.953 281.305 221.953C281.305 221.953 286.688 194.394 289.769 169.306L295.939 173.817C295.939 173.817 314.972 163.843 319.278 157.127C323.583 150.41 329.575 125.718 329.153 114.315C328.731 102.911 315.817 77.4756 311.428 71.5597C307.038 65.6437 293.195 21.8884 289.312 16.0867C285.552 10.4664 270.064 3.45117 262.961 3.25208Z" fill="white"/>
<path d="M262.853 0C254.512 4.51677e-06 243.917 1.05785 242.16 2.37803C241.216 3.09012 237.335 3.35951 233.541 2.97666C228.542 2.47229 223.907 3.2226 216.714 5.70069C207.732 8.7933 206.244 9.9528 201.177 17.7872C187.903 38.3082 185.807 58.9837 193.233 87.7827C195.281 95.7252 194.982 102.398 197.968 108.696C197.336 109.739 197.155 110.64 197.632 111.218C198.225 111.947 182.099 112.392 158.388 112.3C114.062 112.129 108.261 112.92 103.558 119.765C99.7208 125.344 100.316 129.791 105.516 134.441C108.931 137.507 109.811 139.439 108.932 142.068C108.286 144.004 108.737 147.364 109.932 149.534C111.834 152.987 111.632 153.833 108.325 156.321C103.371 160.046 103.552 162.7 108.927 165.35C112.922 167.33 113.255 168.243 112.663 176.275C112.31 181.095 111.479 185.698 110.82 186.503C110.158 187.307 109.62 190.072 109.62 192.646C109.62 195.219 108.931 197.325 108.094 197.325C105.702 197.325 103.68 194.166 104.285 191.382C105.143 187.472 100.304 189.435 98.2417 193.837C96.6756 197.172 97.0864 197.999 101.723 200.779C108.039 204.568 119.237 206.865 131.39 206.865C136.311 206.865 143.257 207.785 146.836 208.909C156.021 211.798 170.51 211.389 184.245 207.852C192.142 205.82 198.478 205.045 203.491 205.502C210.32 206.125 210.827 206.443 209.451 209.209C207.716 212.712 205.139 213.234 184.245 214.318C171.681 214.969 165.053 214.483 148.194 211.672C127.832 208.276 119.038 207.475 119.038 209.014C119.038 210.447 130.051 218.117 137.737 222.037C146.464 226.489 158.527 227.234 168.928 223.964C172.394 222.874 182.13 221.653 190.561 221.251C198.991 220.85 209.785 219.873 214.54 219.083C240.93 214.696 265.182 191.312 280.197 155.772C283.359 148.284 286.398 141.844 286.949 141.462C290.45 139.028 282.121 208.928 276.879 225.946C276.065 228.569 275.759 231.482 276.171 232.419C279.419 239.713 287.333 225.274 292.185 203.186C293.137 198.86 294.051 194.572 294.646 190.323C295.276 185.817 296.328 173.972 301.963 173.216C308.104 172.537 323.364 158.91 327.815 150.13C331.171 143.51 331.833 139.344 331.974 123.217C332.191 101.469 331.336 98.5062 318.597 76.7459C313.724 68.4267 305.957 51.2554 301.326 38.5875C296.7 25.9196 291.207 13.7138 289.114 11.4639C283.256 5.14184 276.68 1.32332 270.031 0.38238C268.164 0.117948 265.632 -1.59413e-06 262.853 0ZM257.135 5.792C267.093 5.72615 277.175 9.34532 283.4 15.4874C289.073 21.0858 292.011 27.9376 297.741 48.9406C300.333 58.4672 304.888 69.5281 309.35 77.1454C322.516 99.6191 327.475 112.083 322.463 133.924C320.205 143.766 310.036 165.078 297.637 171.6C298.289 164.995 301.231 153.169 303.333 149.026C312.563 131.29 311.954 109.004 301.622 86.42C294.651 71.186 293.288 72.8506 298.639 90.0598C303.927 107.053 304.913 117.066 302.346 127.575C299.539 139.032 297.106 142.9 296.899 136.164C296.829 133.541 295.655 129.06 294.301 126.207C292.675 122.688 292.154 117.583 292.816 110.34C293.357 104.467 293.263 98.0621 292.61 96.1072C290.494 89.776 287.868 92.3388 287.868 100.73C287.868 105.228 287.58 109.638 287.118 109.638C277.458 100.935 254.782 98.5254 237.682 98.5216C218.601 98.5175 213.02 98.9831 208.265 100.935C207.841 101.108 207.421 101.297 207.005 101.496C205.243 101.166 203.516 97.733 200.159 88.3257C191.621 64.4198 194.15 35.6167 206.372 17.5902C210.947 10.8445 222.423 6.28357 233.137 6.95218C238.801 7.30559 239.947 7.91851 240.41 10.7801C241.005 14.661 229.673 27.5154 228.506 24.2767C228.128 23.2251 227.449 21.4863 226.987 20.4124C226.417 19.0776 222.336 21.1298 214.469 27.1744C208.09 32.0753 201.235 35.2121 198.98 47.0326C197.727 70.676 205.04 86.9706 223.19 91.7129C230.074 93.5116 237.537 93.6155 244.036 93.6564C260.257 93.6922 270.475 90.7235 276.672 84.1711C282.781 77.7174 289 66.8451 289.708 60.4555C289.999 57.8273 290.529 53.4289 291.763 51.8479C293.474 49.787 292.895 48.2733 288.504 43.3483C285.568 40.0527 280.402 33.8503 277.024 29.5655C270.98 21.9091 267.422 19.56 264.161 21.0776C263.252 21.4991 262.513 22.7792 262.513 23.9218C262.513 27.4773 258.231 25.1995 252.097 18.379C244.635 10.0987 244.53 7.28343 251.631 6.21488C253.441 5.94255 255.281 5.80419 257.125 5.792H257.135ZM244.065 21.3955L247.216 25.0167C248.951 27.0081 252.84 29.5975 255.854 30.7717C260.943 32.7498 261.518 32.727 263.72 30.4607C266.545 27.5557 266.734 27.6677 270.472 34.4561C274.164 41.1544 274.147 41.233 269.47 40.3126C265.503 39.5685 262.163 40.3304 259.573 41.1392C255.97 42.2711 252.545 44.1446 251.955 45.3028C250.142 48.849 242.763 47.9009 241.45 43.9531C240.242 40.338 234.281 37.8687 226.754 37.8687C224.155 37.8687 219.565 39.0477 215.566 42.0589C213.978 43.3265 212.029 44.6355 211.46 47.5201L209.015 47.9431L209.879 43.2035L210.003 43.163C210.307 37.2604 221.331 27.6871 224.587 30.6364C227.765 33.5215 229.079 33.133 236.925 26.9911L244.065 21.3955ZM227.966 41.9575C237.667 41.9575 243.129 49.4439 236.872 54.1532C229.776 59.4918 216.852 56.3051 216.852 49.2165C216.852 45.5709 222.385 41.9575 227.966 41.9575ZM261.616 43.855C272.215 43.3435 272.806 48.5706 272.977 52.117C272.977 54.2325 271.636 55.538 268.9 56.0898C261.145 57.6533 256.085 55.7406 254.783 51.9612C254.458 51.0141 254.73 49.7272 254.871 48.8273C255.055 47.4942 255.805 46.3521 256.952 45.4181C258.34 44.5003 260.091 43.9161 261.616 43.855ZM258.337 46.8447C255.816 46.8622 255.388 49.779 256.078 51.1566C257.187 53.2253 261.908 53.5668 263.075 51.4374C264.281 49.2352 262.061 46.8187 258.337 46.8447ZM228.48 46.1722C226.868 46.2788 225.258 47.1158 224.804 48.8921C224.387 50.5276 226.197 51.8633 228.79 51.8633C231.382 51.8633 232.544 50.9881 232.544 49.0377C232.544 47.2914 230.094 46.0657 228.48 46.1722ZM247.764 51.4792C248.73 51.5268 249.454 51.9765 249.454 52.9223C249.454 53.7059 251.457 55.8522 253.9 57.6921C259.821 62.145 269.022 62.1795 275.343 57.7731C280.499 54.1785 282.059 54.4866 282.059 59.0987C282.059 65.8406 274.512 77.1188 266.932 81.7017C260.221 85.7587 258.115 86.2629 246.748 86.5326C227.86 86.9809 219.835 84.3232 213.872 75.6468C210.756 71.1173 207.788 54.3875 209.917 53.396C210.738 53.0128 211.419 53.3767 211.419 54.2047C211.419 57.0945 220.313 62.4001 225.157 62.4001C231.295 62.4001 241.67 57.6426 243.145 54.1552C243.869 52.4373 246.154 51.4 247.764 51.4792ZM252.268 61.4603C252.031 61.455 251.8 61.4572 251.581 61.4678C247.764 61.6364 246.63 63.9228 250.43 66.0145C256.59 69.4032 267.241 67.5168 261.649 64.0271C260.413 63.2529 257.25 62.2135 254.625 61.7177C253.77 61.5564 252.981 61.4747 252.268 61.4603ZM221.423 69.434C220.487 69.5575 220.459 70.6956 220.804 72.9186C221.178 75.3292 223.531 77.7085 227.535 79.7328C237.687 84.8628 254.758 83.3966 262.07 76.7672C265.622 73.5492 263.806 73.1921 254.547 75.2877C244.818 77.4912 235.236 76.3389 227.499 72.0344C224.204 70.2012 222.359 69.3104 221.423 69.434ZM231.891 104.755C232.969 104.748 234.288 104.799 235.858 104.9L242.543 105.331L238.153 108.418L233.765 111.506L230.453 108.751C227.033 105.907 227.213 104.786 231.891 104.755ZM257.558 106.118C259.807 106.099 261.904 106.553 264.115 107.443C267.39 108.762 266.866 109.424 257.413 115.961C251.77 119.859 246.614 123.211 245.957 123.411C244.716 123.784 234.965 116.647 234.965 115.367C234.965 114.972 238.949 112.706 243.822 110.331C249.636 107.496 253.807 106.15 257.558 106.118ZM217.823 106.337C219.134 106.317 221.315 107.484 223.052 109.484C226.025 112.864 226.022 113.198 223.052 115.668C218.488 119.464 216.85 118.895 216.85 113.508C216.85 110.884 216.762 108.294 216.709 107.75C216.585 106.801 217.044 106.356 217.823 106.337ZM211.684 108.903C212.052 108.912 212.322 108.967 212.464 109.074C213.032 109.502 213.233 111.342 212.926 113.164C212.996 116.346 213.4 118.868 215.393 121.526C216.878 123.505 217.702 123.458 224.161 120.978L231.303 118.238L237.872 123.709C241.486 126.719 245.429 129.181 246.629 129.181C247.835 129.181 250.801 127.586 253.212 125.637C255.633 123.688 261.583 119.579 266.444 116.505L275.283 110.917L278.671 114.067C282.43 117.559 282.974 121.185 280.288 124.771C279.308 126.072 275.974 133.883 272.877 142.129C263.59 166.858 252.228 185.65 239.513 197.305C235.032 201.418 228.131 206.218 224.187 207.972L217.01 211.16L217.898 199.132C218.386 192.517 219.093 184.821 219.454 182.031C219.817 179.241 219.453 174.795 218.673 172.15C217.58 168.506 217.821 167.342 219.654 167.342C220.983 167.342 222.471 166.841 222.987 166.228C224.433 164.466 223.307 152.023 214.565 151.318C210.377 150.981 211.435 146.182 212.431 142.175C213.125 139.406 214.693 138.406 216.098 138.115C219.582 137.393 216.169 133.259 210.205 133.106C205.263 132.979 203.916 123.294 209.763 120.941C214.882 118.642 208.382 113.332 207.9 113.113C206.07 111.97 205.387 112.016 204.217 111.613C204.993 109.82 208.386 108.802 211.684 108.903ZM111.923 117.917C112.898 117.945 113.091 119.683 112.937 124.377C112.831 128.515 112.63 131.904 112.63 131.905C112.577 131.906 111.562 131.171 110.363 130.272C107.381 128.043 107.591 120.334 110.673 118.413C111.187 118.088 111.599 117.908 111.923 117.917ZM148.236 120.205C154.559 120.191 165.104 120.352 175.187 120.634L199.644 121.318C199.171 125.765 199.454 129.447 197.197 133.054C192.986 132.281 160.339 130.809 144.729 130.688C123.914 130.527 119.038 129.328 119.038 124.364C119.038 121.292 119.776 120.987 127.643 120.806C132.372 120.697 139.504 120.461 143.494 120.28C144.49 120.234 146.128 120.21 148.236 120.205ZM133.823 136.81C139.337 136.754 146.461 137.008 155.631 137.521C169.505 138.297 186.918 138.73 194.332 138.486C201.74 138.241 207.741 138.347 207.741 138.722C207.706 139.096 206.484 140.593 205.02 142.048C203.556 143.503 202.361 146.417 202.361 148.522C202.361 150.628 201.75 152.21 201.001 152.038C200.254 151.866 182.029 151.547 160.493 151.33C124.424 150.966 121.094 150.727 118.163 148.29C116.015 146.517 115.361 144.525 116.12 142.245C117.349 138.558 121.693 136.933 133.823 136.81ZM128.997 156.004C134.979 156.028 155.066 156.708 173.642 157.515C192.22 158.323 209.215 158.629 211.414 158.197C214.639 157.567 215.274 157.922 214.745 159.992C214.125 162.431 211.779 162.578 171.544 162.696C126.03 162.83 113.605 162.392 111.146 160.567C108.286 158.448 118.02 155.961 128.997 156.004ZM173.611 166.379C196.019 166.365 213.2 167.471 213.2 169.232C213.2 170.066 212.509 171.54 211.691 172.508C210.531 173.886 200.501 174.18 165.539 173.87C121.532 173.48 120.865 173.433 120.865 170.61C120.865 167.856 121.983 167.706 149.907 166.783C158.094 166.512 166.143 166.383 173.611 166.379ZM123.75 176.982C125.417 176.932 128.04 177.124 132.173 177.446C155.643 179.273 197.076 180.781 203.217 180.03C208.323 179.407 209.605 179.694 209.605 181.457C209.605 183.439 205.09 183.631 165.24 183.339L120.874 183.015V179.789C120.874 177.826 120.98 177.066 123.75 176.982ZM120.798 185.431C121.411 185.413 122.107 185.465 122.888 185.57C125.999 186.039 134.719 186.422 142.261 186.422C151.497 186.452 158.031 186.903 165.33 187.535C174.156 187.917 179.002 188.143 183.905 188.724C188.718 189.293 195.225 189.152 199.425 189.148C209.464 189.148 209.605 189.199 209.605 193.139C209.605 197.002 205.671 201.414 202.232 201.414C201.309 201.414 200.547 200.494 200.547 199.369C200.547 196.577 196.328 196.805 187.871 200.051C179.007 203.452 176.261 203.576 182.915 200.273C190.181 196.668 193.102 193.124 191.121 190.855C189.889 189.443 187.034 190.243 185.897 191.043C184.496 192.028 181.945 193.666 177.593 195.835C172.939 198.154 167.912 200.051 166.418 200.051C164.924 200.051 167.507 198.153 172.163 195.834C174.469 194.684 176.567 193.502 178.098 192.519C181.698 188.464 171.887 187.25 168.644 189.675C164.113 191.462 160.066 193.602 156.169 195.13L147.113 198.885L153.017 195.039C156.181 193.054 158.279 191.179 159.118 189.757C160.401 187.581 155.159 186.81 153.459 187.622L147.594 190.419C142.99 192.618 138.316 195.684 137.218 197.233C135.569 199.548 133.467 200.051 125.419 200.051C120.032 200.051 115.126 199.438 114.508 198.688C113.892 197.939 114.251 197.325 115.308 197.325C116.382 197.325 117.224 194.55 117.224 191.022C117.045 186.908 118.144 185.51 120.798 185.431Z" fill="#145A7E"/>
</g>
<g clip-path="url(#clip1_272_52)">
<path d="M5.11017 40.2852C4.73529 35.2157 13.5917 33.6746 18.2308 32.3768C22.8699 31.079 149.484 6.86731 149.484 6.86731C154.052 10.0915 166.612 65.6882 170.252 85.0265C171.27 90.4367 172.137 96.662 163.401 97.3064C163.401 97.3064 41.5406 123.615 32.7103 122.816C23.88 122.017 23.2447 118.233 19.2617 110.69C15.2786 103.146 5.11017 40.2852 5.11017 40.2852Z" fill="white"/>
<path d="M23.88 122.017C17.1248 117.115 15.8361 113.917 10.6256 89.092C8.86484 80.7075 5.52446 66.6526 3.2026 57.8585C-0.532649 43.7123 -0.755876 41.261 1.27388 36.5905C4.63326 27.4584 15.028 28.2938 22.2847 27.4694C44.2299 25.0149 68.74 20.2855 108.871 10.7611C141.026 3.12994 144.84 2.54627 149.754 4.50427C157.64 7.64535 160.32 12.8087 161.904 27.9014C163.417 42.3391 165.624 52.4603 170.622 67.8949C176.602 86.354 173.92 100.624 164.308 101.503C161.498 101.76 150.707 103.878 140.326 106.21C88.6831 117.808 72.894 121.047 57.9663 123.104C30.6591 126.867 30.5596 126.864 23.88 122.017ZM52.8189 117.533C81.2746 114.76 162.299 95.6728 164.03 91.3346C164.496 90.1641 164.221 86.2991 163.415 82.7457C160.591 70.1106 158.42 58.9895 155.65 46.1716C154.684 41.7191 152.553 41.5968 132.605 44.8494C99.4466 48.9401 65.7771 59.8109 35.6609 65.534C18.3362 68.7904 13.8666 70.7485 14.9921 74.5891C15.5305 76.4295 17.5243 84.6182 19.4208 92.786C25.0809 117.168 27.485 120.716 37.3767 119.282C40.208 118.872 47.1566 118.085 52.8189 117.533ZM36.042 112.371C32.6236 112.906 32.3184 106.449 31.2717 103.818C30.5407 101.976 31.9393 101.244 33.0874 101.054C35.5321 100.647 48.7956 95.855 51.8823 97.6892C52.8687 98.2759 53.6769 101.218 53.6769 104.228C53.6769 108.875 52.9648 109.837 48.9585 110.615C44.5026 111.589 40.9332 111.463 36.042 112.371ZM47.5621 104.471C47.1825 103.446 44.739 102.759 42.1313 102.945C36.7421 103.329 35.3329 104.212 36.7038 106.347C38.0805 108.488 48.3905 106.707 47.5621 104.471ZM31.2479 94.4692C27.8831 95.0212 27.3095 91.5691 27.0649 89.0733C26.8194 86.5776 26.0575 82.8739 25.3693 80.843C23.9229 76.5719 26.7575 75.759 41.5924 72.8865C48.6219 71.5252 62.5687 69.0046 72.4773 67.3035C97.5385 63.0015 99.0778 63.0939 101.646 69.0574C104.825 78.5408 103.315 80.3564 96.4675 81.336C91.3341 82.4203 77.0978 85.5665 64.8298 88.3277C39.3003 94.0735 32.7062 94.2301 31.2479 94.4692ZM81.1301 81.4483C96.3119 77.6971 97.3892 77.1557 96.8331 73.553C96.5055 71.4255 95.9666 68.0325 95.7265 67.7883C95.3181 67.3746 67.4396 73.2842 49.9123 76.1355C37.7404 78.1157 31.018 80.4442 32.1228 83.2171C32.653 84.5446 33.0874 86.5689 33.0874 87.7158C33.0874 90.4308 57.8466 87.2007 81.1301 81.4483ZM115.618 71.3449C111.567 67.1976 110.893 61.6568 114.141 59.2179C117.392 56.7774 142.301 54.5084 144.521 53.5685C148.275 51.9803 151.122 67.7094 149.075 68.2174C148.56 68.3452 143.869 69.5046 138.344 70.2732C132.817 71.0419 126.259 72.4319 123.768 73.362C119.959 74.7849 118.667 74.465 115.618 71.3449ZM133.157 66.7962C142.776 64.9387 145.155 64.1109 143.237 60.2435C142.021 58.543 140.678 59.0702 129.694 60.3986C119 62.7203 117.123 63.4031 118.217 66.1463C119.426 69.1721 120.594 69.2228 133.157 66.7962ZM70.8353 39.4545C87.9467 35.0839 108.105 31.1887 140 26.0891C144.538 25.3634 147.464 24.191 148.807 23.8954C153.005 22.9713 148.282 10.1456 142.344 11.0799C139.803 11.4801 122.368 14.0701 100.301 19.0085C49.5693 30.3622 39.1522 32.5349 26.3231 34.4399C11.3356 36.6656 9.06533 38.0535 9.06533 44.992C9.06533 50.6248 9.16843 50.7086 16.358 50.6669C35.0102 49.0759 53.2961 43.9224 70.8353 39.4545Z" fill="#145A7E"/>
</g>
<defs>
<clipPath id="clip0_272_52">
<rect width="234.582" height="235" fill="white" transform="translate(97.4178)"/>
</clipPath>
<clipPath id="clip1_272_52">
<rect width="173.793" height="122.252" fill="white" transform="translate(0 3.54984)"/>
</clipPath>
</defs>
</svg>
