<svg width="426" height="331" viewBox="0 0 426 331" fill="none" xmlns="http://www.w3.org/2000/svg">
<g id="Group 23">
<g id="librarian_3 1" clip-path="url(#clip0_189_655)">
<path id="Vector" d="M337.413 4.58058C337.119 4.57154 336.838 4.57216 336.566 4.58348C327.9 4.94574 299.581 6.71721 289.669 8.0859C279.76 9.45454 268.062 15.3715 262.591 22.8991C257.122 30.4267 245.534 69.2732 244.83 76.1567C244.125 83.0402 256.852 143.1 260.804 149.38L263.268 151.357C261 153.51 259.245 156.077 258.704 158.866C258.704 158.866 158.033 159.817 147.113 162.126C136.191 164.436 133.973 170.177 134.653 180.142C135.335 190.107 145.841 193.913 144.538 199.787C143.235 205.66 149.737 216.118 149.737 216.118C149.737 216.118 140.297 222.827 138.788 226.236C137.279 229.646 150.421 234.002 150.421 234.002C150.421 234.002 144.708 274.897 143.02 284.51C141.335 294.123 155.51 295.465 157.669 295.729C159.83 295.993 207.004 309.17 207.004 309.17C207.004 309.17 227.481 321.576 241.865 325.36C256.247 329.144 351.276 333.851 355.358 328.792C359.443 323.732 360.952 312.623 360.952 312.623C360.952 312.623 367.859 273.807 371.812 238.47L379.728 244.823C379.728 244.823 404.15 230.774 409.676 221.315C415.199 211.855 422.888 177.075 422.347 161.013C421.805 144.952 405.235 109.125 399.603 100.793C393.971 92.4599 376.208 30.83 371.226 22.6583C366.4 14.742 346.528 4.861 337.413 4.58058Z" fill="white"/>
<path id="Vector_2" d="M337.275 0C326.572 6.36192e-06 312.978 1.48999 310.724 3.34949C309.511 4.35247 304.532 4.73191 299.664 4.19266C293.25 3.48224 287.302 4.53906 278.073 8.02949C266.548 12.3855 264.639 14.0186 258.136 25.0535C241.104 53.9574 238.415 83.0792 247.944 123.643C250.572 134.83 250.188 144.229 254.019 153.1C253.208 154.569 252.976 155.837 253.588 156.652C254.349 157.679 233.657 158.305 203.233 158.176C146.357 157.936 138.913 159.048 132.878 168.691C127.955 176.548 128.719 182.812 135.391 189.362C139.773 193.68 140.902 196.401 139.774 200.104C138.945 202.831 139.524 207.564 141.057 210.62C143.497 215.484 143.239 216.676 138.995 220.18C132.638 225.427 132.871 229.164 139.767 232.898C144.894 235.686 145.321 236.971 144.562 248.285C144.109 255.074 143.042 261.558 142.197 262.691C141.347 263.825 140.657 267.718 140.657 271.343C140.657 274.969 139.773 277.934 138.699 277.934C135.629 277.934 133.035 273.485 133.812 269.564C134.913 264.057 128.703 266.822 126.057 273.022C124.048 277.719 124.575 278.884 130.524 282.799C138.628 288.136 152.997 291.372 168.591 291.372C174.905 291.372 183.818 292.667 188.41 294.251C200.195 298.32 218.787 297.744 236.41 292.762C246.544 289.899 254.674 288.809 261.106 289.452C269.869 290.33 270.519 290.777 268.754 294.674C266.527 299.607 263.221 300.343 236.41 301.869C220.289 302.786 211.784 302.101 190.153 298.142C164.025 293.359 152.741 292.23 152.741 294.399C152.741 296.416 166.873 307.22 176.735 312.741C187.933 319.012 203.411 320.062 216.758 315.455C221.205 313.92 233.697 312.201 244.515 311.635C255.332 311.069 269.182 309.694 275.283 308.58C309.145 302.401 340.264 269.466 359.53 219.406C363.587 208.859 367.487 199.789 368.193 199.25C372.686 195.823 361.999 294.277 355.273 318.247C354.228 321.942 353.836 326.045 354.364 327.365C358.532 337.639 368.687 317.301 374.913 286.19C376.134 280.096 377.306 274.057 378.07 268.072C378.878 261.725 380.228 245.041 387.459 243.976C395.339 243.02 414.919 223.826 420.63 211.46C424.937 202.135 425.785 196.268 425.966 173.553C426.245 142.921 425.148 138.747 408.802 108.097C402.55 96.3798 392.583 72.1937 386.641 54.3509C380.705 36.508 373.657 19.3161 370.972 16.147C363.455 7.24233 355.017 1.8639 346.485 0.538586C344.09 0.166131 340.841 -2.24535e-06 337.275 0ZM329.938 8.15809C342.716 8.06535 355.652 13.163 363.64 21.8142C370.919 29.6996 374.689 39.3504 382.041 68.9333C385.367 82.3517 391.212 97.9311 396.937 108.66C413.831 140.315 420.194 157.871 413.763 188.634C410.865 202.496 397.817 232.513 381.908 241.7C382.744 232.397 386.52 215.74 389.216 209.905C401.06 184.923 400.279 153.533 387.021 121.724C378.077 100.266 376.327 102.611 383.194 126.85C389.979 150.785 391.244 164.889 387.95 179.691C384.348 195.828 381.226 201.276 380.961 191.789C380.871 188.094 379.365 181.782 377.627 177.764C375.541 172.808 374.873 165.617 375.722 155.416C376.416 147.143 376.295 138.121 375.457 135.368C372.743 126.451 369.373 130.06 369.373 141.879C369.373 148.214 369.004 154.427 368.41 154.427C356.016 142.168 326.919 138.774 304.978 138.769C280.494 138.763 273.333 139.419 267.232 142.168C266.688 142.412 266.149 142.678 265.614 142.958C263.353 142.493 261.138 137.658 256.831 124.408C245.875 90.736 249.121 50.1665 264.803 24.776C270.672 15.2746 285.399 8.85047 299.146 9.79222C306.414 10.29 307.884 11.1533 308.478 15.1839C309.241 20.6502 294.701 38.7558 293.203 34.194C292.719 32.7128 291.848 30.2637 291.254 28.7511C290.522 26.871 285.287 29.7616 275.192 38.2754C267.007 45.1784 258.211 49.5966 255.318 66.2459C253.709 99.5479 263.093 122.499 286.382 129.179C295.216 131.712 304.791 131.858 313.131 131.916C333.944 131.966 347.055 127.785 355.007 118.556C362.846 109.466 370.825 94.1521 371.733 85.1522C372.107 81.4504 372.787 75.2552 374.37 73.0283C376.566 70.1256 375.823 67.9935 370.189 61.0566C366.421 56.4146 359.793 47.6785 355.459 41.6433C347.704 30.8591 343.138 27.5505 338.954 29.688C337.787 30.2817 336.839 32.0847 336.839 33.6941C336.839 38.7021 331.344 35.4938 323.474 25.887C313.9 14.2241 313.764 10.2588 322.876 8.75373C325.199 8.37014 327.56 8.17527 329.925 8.15809H329.938ZM313.168 30.1357L317.21 35.2363C319.437 38.0412 324.427 41.6884 328.295 43.3422C334.824 46.1284 335.563 46.0963 338.388 42.9042C342.012 38.8126 342.255 38.9702 347.051 48.5318C351.789 57.9665 351.767 58.0772 345.766 56.7808C340.675 55.7326 336.39 56.8058 333.067 57.945C328.443 59.5392 324.049 62.1781 323.292 63.8095C320.966 68.8044 311.498 67.4689 309.812 61.9085C308.262 56.8165 300.613 53.3385 290.956 53.3385C287.621 53.3385 281.731 54.9991 276.599 59.2404C274.562 61.0258 272.061 62.8696 271.331 66.9326L268.194 67.5283L269.303 60.8526L269.462 60.7955C269.852 52.4817 283.997 38.9975 288.175 43.1517C292.252 47.2154 293.939 46.6681 304.007 38.0173L313.168 30.1357ZM292.511 59.0976C304.958 59.0976 311.967 69.6422 303.938 76.2753C294.833 83.7948 278.25 79.3063 278.25 69.322C278.25 64.187 285.35 59.0976 292.511 59.0976ZM335.688 61.7702C349.288 61.0498 350.046 68.4122 350.266 73.4074C350.266 76.387 348.545 78.2259 345.034 79.0031C335.084 81.2053 328.59 78.5112 326.921 73.1879C326.504 71.8539 326.852 70.0413 327.033 68.7738C327.269 66.896 328.231 65.2875 329.704 63.9719C331.485 62.6791 333.731 61.8562 335.688 61.7702ZM331.48 65.9812C328.245 66.0059 327.696 70.1143 328.582 72.0546C330.005 74.9684 336.063 75.4494 337.56 72.4501C339.108 69.3483 336.258 65.9447 331.48 65.9812ZM293.17 65.0341C291.102 65.1841 289.036 66.3632 288.453 68.8651C287.919 71.1687 290.24 73.05 293.568 73.05C296.894 73.05 298.385 71.8173 298.385 69.0701C298.385 66.6105 295.241 64.884 293.17 65.0341ZM317.914 72.5091C319.153 72.5761 320.082 73.2094 320.082 74.5416C320.082 75.6453 322.652 78.6684 325.788 81.2599C333.384 87.5319 345.191 87.5804 353.302 81.374C359.917 76.3111 361.919 76.745 361.919 83.2412C361.919 92.7371 352.235 108.623 342.509 115.078C333.898 120.792 331.196 121.502 316.611 121.882C292.374 122.514 282.077 118.77 274.427 106.549C270.428 100.169 266.619 76.6054 269.351 75.2088C270.405 74.6692 271.278 75.1816 271.278 76.3478C271.278 80.4181 282.69 87.8912 288.907 87.8912C296.782 87.8912 310.095 81.1902 311.987 76.2782C312.916 73.8585 315.848 72.3975 317.914 72.5091ZM323.693 86.5674C323.389 86.56 323.093 86.5631 322.812 86.5781C317.914 86.8155 316.459 90.0359 321.334 92.9822C329.239 97.7552 342.905 95.0981 335.731 90.1829C334.145 89.0924 330.086 87.6284 326.717 86.9301C325.621 86.7029 324.608 86.5877 323.693 86.5674ZM284.115 97.7985C282.914 97.9725 282.879 99.5754 283.32 102.707C283.801 106.102 286.82 109.453 291.958 112.305C304.984 119.53 326.889 117.465 336.27 108.127C340.829 103.595 338.498 103.092 326.618 106.044C314.135 109.147 301.839 107.524 291.911 101.461C287.684 98.8791 285.315 97.6244 284.115 97.7985ZM297.546 147.549C298.931 147.539 300.623 147.61 302.637 147.753L311.215 148.36L305.582 152.708L299.951 157.058L295.701 153.177C291.313 149.17 291.545 147.592 297.546 147.549ZM330.48 149.468C333.367 149.441 336.058 150.081 338.894 151.334C343.097 153.192 342.424 154.125 330.295 163.332C323.054 168.823 316.438 173.544 315.595 173.825C314.003 174.352 301.491 164.299 301.491 162.496C301.491 161.939 306.603 158.747 312.856 155.402C320.317 151.41 325.668 149.513 330.48 149.468ZM279.495 149.777C281.178 149.748 283.976 151.393 286.205 154.21C290.021 158.97 290.016 159.441 286.205 162.919C280.349 168.266 278.247 167.464 278.247 159.877C278.247 156.182 278.134 152.533 278.066 151.767C277.907 150.431 278.496 149.803 279.495 149.777ZM271.619 153.391C272.09 153.404 272.438 153.482 272.619 153.632C273.348 154.234 273.606 156.827 273.212 159.393C273.303 163.875 273.82 167.427 276.378 171.17C278.283 173.959 279.341 173.892 287.628 170.399L296.792 166.539L305.221 174.246C309.859 178.485 314.918 181.953 316.458 181.953C318.005 181.953 321.81 179.707 324.905 176.961C328.011 174.216 335.646 168.428 341.883 164.099L353.224 156.228L357.572 160.665C362.395 165.582 363.093 170.69 359.647 175.741C358.389 177.574 354.112 188.576 350.138 200.19C338.221 235.021 323.641 261.491 307.327 277.907C301.578 283.699 292.722 290.46 287.661 292.93L278.453 297.422L279.593 280.48C280.218 271.162 281.126 260.322 281.588 256.392C282.055 252.463 281.587 246.2 280.586 242.475C279.184 237.343 279.493 235.703 281.845 235.703C283.551 235.703 285.46 234.997 286.121 234.134C287.977 231.652 286.533 214.127 275.316 213.133C269.942 212.658 271.299 205.9 272.577 200.256C273.467 196.355 275.479 194.946 277.283 194.536C281.753 193.52 277.374 187.697 269.721 187.481C263.38 187.303 261.651 173.662 269.154 170.346C275.722 167.108 267.381 159.629 266.763 159.321C264.416 157.711 263.539 157.776 262.037 157.207C263.034 154.682 267.387 153.249 271.619 153.391ZM143.613 166.088C144.863 166.127 145.111 168.575 144.914 175.186C144.778 181.015 144.52 185.788 144.52 185.789C144.452 185.791 143.149 184.756 141.61 183.489C137.784 180.351 138.053 169.491 142.009 166.786C142.668 166.329 143.196 166.075 143.613 166.088ZM190.206 169.311C198.319 169.291 211.85 169.517 224.789 169.914L256.17 170.877C255.562 177.141 255.926 182.328 253.03 187.408C247.627 186.319 205.736 184.246 185.706 184.076C158.998 183.849 152.741 182.16 152.741 175.167C152.741 170.842 153.688 170.411 163.783 170.157C169.85 170.003 179.002 169.67 184.122 169.415C185.4 169.351 187.501 169.317 190.206 169.311ZM171.713 192.698C178.788 192.619 187.928 192.978 199.695 193.7C217.498 194.792 239.84 195.403 249.353 195.058C258.859 194.713 266.559 194.863 266.559 195.391C266.514 195.919 264.946 198.027 263.068 200.077C261.19 202.126 259.656 206.229 259.656 209.195C259.656 212.161 258.871 214.389 257.911 214.147C256.952 213.905 233.567 213.456 205.934 213.15C159.652 212.637 155.38 212.301 151.619 208.868C148.862 206.371 148.024 203.565 148.998 200.353C150.575 195.161 156.149 192.871 171.713 192.698ZM165.52 219.734C173.196 219.767 198.971 220.725 222.806 221.862C246.644 222.999 268.451 223.431 271.272 222.822C275.411 221.935 276.226 222.435 275.546 225.35C274.751 228.786 271.74 228.994 220.114 229.16C161.713 229.347 145.771 228.73 142.615 226.161C138.945 223.176 151.435 219.672 165.52 219.734ZM222.766 234.346C251.518 234.327 273.564 235.884 273.564 238.365C273.564 239.54 272.677 241.617 271.628 242.979C270.139 244.92 257.27 245.335 212.408 244.898C155.942 244.349 155.086 244.282 155.086 240.305C155.086 236.427 156.521 236.216 192.35 234.916C202.855 234.534 213.183 234.353 222.766 234.346ZM158.788 249.281C160.926 249.211 164.292 249.481 169.595 249.934C199.711 252.509 252.874 254.632 260.754 253.575C267.306 252.697 268.951 253.1 268.951 255.584C268.951 258.376 263.158 258.646 212.025 258.235L155.097 257.778V253.235C155.097 250.469 155.233 249.399 158.788 249.281ZM155 261.182C155.786 261.156 156.68 261.23 157.681 261.378C161.673 262.038 172.862 262.577 182.54 262.577C194.391 262.619 202.775 263.255 212.14 264.145C223.466 264.683 229.683 265.002 235.975 265.819C242.15 266.621 250.499 266.423 255.889 266.417C268.77 266.417 268.951 266.489 268.951 272.039C268.951 277.479 263.904 283.693 259.49 283.693C258.306 283.693 257.329 282.397 257.329 280.814C257.329 276.881 251.915 277.201 241.063 281.774C229.69 286.565 226.166 286.738 234.705 282.087C244.027 277.01 247.776 272.018 245.234 268.822C243.652 266.833 239.989 267.96 238.53 269.086C236.733 270.474 233.459 272.781 227.875 275.836C221.903 279.102 215.453 281.774 213.536 281.774C211.62 281.774 214.934 279.101 220.908 275.834C223.867 274.214 226.559 272.549 228.523 271.164C233.143 265.453 220.554 263.744 216.393 267.159C210.579 269.677 205.386 272.691 200.386 274.843L188.766 280.132L196.341 274.714C200.401 271.919 203.093 269.278 204.169 267.274C205.816 264.21 199.089 263.124 196.908 264.267L189.383 268.208C183.475 271.304 177.478 275.623 176.069 277.805C173.953 281.065 171.256 281.774 160.929 281.774C154.017 281.774 147.722 280.91 146.929 279.854C146.138 278.799 146.599 277.934 147.956 277.934C149.333 277.934 150.414 274.025 150.414 269.056C150.185 263.261 151.595 261.292 155 261.182Z" fill="#145A7E"/>
</g>
<g id="credit_card_money 1" clip-path="url(#clip1_189_655)">
<path id="Vector_3" d="M6.55703 56.7421C6.07602 49.6016 17.44 47.431 23.3926 45.6031C29.3451 43.7751 191.807 9.67267 191.807 9.67267C197.67 14.2139 213.785 92.5225 218.456 119.761C219.763 127.381 220.875 136.149 209.665 137.057C209.665 137.057 53.3022 174.113 41.9716 172.987C30.6412 171.862 29.826 166.532 24.7153 155.908C19.6045 145.283 6.55703 56.7421 6.55703 56.7421Z" fill="white"/>
<path id="Vector_4" d="M30.6411 171.862C21.9734 164.958 20.3198 160.453 13.634 125.487C11.3747 113.677 7.08859 93.8809 4.10933 81.4944C-0.68349 61.5693 -0.969919 58.1166 1.63452 51.5381C5.94506 38.6754 19.2828 39.8521 28.5942 38.691C56.7528 35.2338 88.2025 28.5723 139.696 15.1572C180.955 4.40857 185.849 3.58647 192.155 6.34433C202.273 10.7686 205.712 18.0413 207.745 39.2994C209.686 59.6351 212.517 73.8909 218.931 95.6307C226.603 121.631 223.162 141.73 210.829 142.969C207.223 143.331 193.377 146.313 180.057 149.597C113.792 165.934 93.5327 170.496 74.3784 173.394C39.3397 178.694 39.2119 178.689 30.6411 171.862ZM67.7736 165.547C104.286 161.641 208.251 134.756 210.472 128.646C211.071 126.997 210.717 121.553 209.684 116.548C206.06 98.7516 203.273 83.0873 199.72 65.0332C198.48 58.7618 195.745 58.5896 170.149 63.1709C127.603 68.9326 84.4007 84.2443 45.7576 92.3054C23.5277 96.892 17.7927 99.6501 19.2368 105.06C19.9276 107.652 22.4859 119.186 24.9194 130.69C32.1821 165.032 35.2668 170.03 47.9592 168.011C51.5922 167.433 60.5082 166.324 67.7736 165.547ZM46.2466 158.276C41.8604 159.03 41.4687 149.935 40.1257 146.229C39.1877 143.635 40.9823 142.603 42.4554 142.335C45.5924 141.763 62.6112 135.013 66.5718 137.596C67.8375 138.423 68.8746 142.567 68.8746 146.806C68.8746 153.351 67.9608 154.707 62.8203 155.802C57.1027 157.174 52.5227 156.997 46.2466 158.276ZM61.0285 147.149C60.5414 145.704 57.4061 144.737 54.06 144.999C47.145 145.54 45.3367 146.784 47.0958 149.791C48.8623 152.806 62.0914 150.298 61.0285 147.149ZM40.0951 133.061C35.7777 133.838 35.0417 128.976 34.7278 125.461C34.4128 121.946 33.4351 116.729 32.5522 113.868C30.6962 107.852 34.3334 106.707 53.3686 102.661C62.3884 100.744 80.2839 97.1937 92.998 94.7977C125.155 88.7382 127.13 88.8684 130.425 97.268C134.505 110.626 132.567 113.183 123.781 114.563C117.194 116.09 98.9267 120.521 83.1852 124.41C50.4275 132.504 41.9663 132.724 40.0951 133.061ZM104.101 114.721C123.581 109.437 124.963 108.675 124.25 103.6C123.829 100.604 123.138 95.8246 122.83 95.4806C122.306 94.8979 86.5339 103.222 64.0441 107.238C48.426 110.027 39.8002 113.307 41.2178 117.212C41.898 119.082 42.4554 121.933 42.4554 123.549C42.4554 127.373 74.2248 122.823 104.101 114.721ZM148.353 100.49C143.155 94.6485 142.29 86.8443 146.458 83.409C150.63 79.9716 182.591 76.7757 185.44 75.4518C190.257 73.2148 193.91 95.3694 191.283 96.085C190.622 96.265 184.603 97.8979 177.514 98.9805C170.422 100.063 162.008 102.021 158.811 103.331C153.923 105.335 152.266 104.885 148.353 100.49ZM170.858 94.0832C183.201 91.4668 186.253 90.3009 183.793 84.8537C182.231 82.4584 180.508 83.201 166.415 85.0721C152.692 88.3422 150.284 89.304 151.688 93.1678C153.239 97.4296 154.738 97.5011 170.858 94.0832ZM90.8911 55.5721C112.847 49.4161 138.713 43.9296 179.638 36.7468C185.462 35.7247 189.215 34.0734 190.939 33.6569C196.326 32.3553 190.266 14.2903 182.646 15.6062C179.385 16.1699 157.015 19.8178 128.699 26.7737C63.6039 42.7654 50.2374 45.8258 33.7761 48.509C14.545 51.6439 11.632 53.5987 11.632 63.3717C11.632 71.3056 11.7643 71.4237 20.9894 71.3649C44.9227 69.124 68.386 61.8652 90.8911 55.5721Z" fill="#145A7E"/>
</g>
</g>
<defs>
<clipPath id="clip0_189_655">
<rect width="301" height="331" fill="white" transform="translate(125)"/>
</clipPath>
<clipPath id="clip1_189_655">
<rect width="223" height="172.194" fill="white" transform="translate(0 5)"/>
</clipPath>
</defs>
</svg>
