<svg width="27" height="23" viewBox="0 0 27 23" fill="none" xmlns="http://www.w3.org/2000/svg">
<path id="Symbol" d="M22.9688 3.04688C26.4844 6 25.9688 10.8281 23.4844 13.4062L15.2344 21.7969C14.7656 22.2656 14.1562 22.5469 13.5 22.5469C12.7969 22.5469 12.1875 22.2656 11.7188 21.7969L3.51562 13.4062C0.984375 10.8281 0.46875 6 3.98438 3.04688C6.70312 0.75 10.875 1.07812 13.5 3.75C16.0781 1.07812 20.25 0.75 22.9688 3.04688ZM21.8438 11.8125C23.5781 10.0781 23.9062 6.79688 21.5156 4.73438C19.6875 3.23438 16.875 3.46875 15.1406 5.25L13.5 6.9375L11.8594 5.25C10.0781 3.46875 7.26562 3.23438 5.4375 4.78125C3.04688 6.79688 3.375 10.0781 5.10938 11.8125L13.3125 20.2031C13.4531 20.2969 13.5469 20.2969 13.6406 20.2031L21.8438 11.8125Z" fill="#145A7E"/>
</svg>
