<svg width="307" height="275" viewBox="0 0 307 275" fill="none" xmlns="http://www.w3.org/2000/svg">
<g clip-path="url(#clip0_272_61)">
<path d="M224.172 3.79813C221.332 3.79806 218.519 4.57055 215.894 6.07147C213.27 7.57239 210.885 9.77234 208.877 12.5457C206.868 15.3191 205.276 18.6116 204.189 22.2353C203.101 25.8589 202.542 29.7427 202.542 33.6649C202.542 37.5872 203.102 41.4712 204.189 45.0949C205.276 48.7187 206.868 52.0113 208.877 54.7848C210.885 57.5584 213.27 59.7584 215.894 61.2594C218.519 62.7604 221.332 63.5329 224.172 63.5329C227.013 63.5328 229.826 62.7603 232.45 61.2592C235.075 59.7582 237.459 57.5581 239.468 54.7846C241.477 52.0111 243.069 48.7185 244.156 45.0948C245.243 41.4711 245.803 37.5872 245.803 33.6649C245.803 25.7438 243.525 18.1471 239.468 12.5459C235.412 6.94484 229.909 3.79816 224.172 3.79813ZM116.39 19.1688C114.593 19.2085 112.795 19.5991 111.038 20.3724C99.3771 23.3802 92.3059 45.687 99.5852 58.6871C103.966 75.1351 118.461 85.3226 129.167 80.6093C139.874 75.8964 142.738 58.0685 138.357 41.6203C134.797 28.2562 126.055 19.47 117.16 19.1731C116.903 19.1645 116.647 19.1632 116.39 19.1688ZM45.9069 32.4408L35.7413 36.2875L27.0261 57.7963L15.1722 61.6982L15.1544 72.7276L22.0373 80.2023L24.1416 88.4467L30.196 96.4898L28.1079 75.1098C28.1079 75.1098 34.0507 70.3281 35.4686 69.1189C36.8864 67.9097 42.0818 58.6758 43.1969 57.5766C44.312 56.4774 60.4207 51.4385 60.4207 51.4385L71.3199 66.3524L73.2141 82.3822L74.4254 87.4207L81.2923 79.9643L76.9753 70.0898L81.4532 58.291L77.47 41.8206C77.47 41.8206 66.4113 35.7939 63.8939 35.7939C61.3766 35.7939 57.4897 39.5855 57.4897 39.5855L45.9069 32.4408ZM175.939 45.8091C174.7 45.8175 173.445 45.9422 172.182 46.19C154.717 48.9483 152.287 62.3822 151.426 81.2296C152.283 88.337 157.717 101.078 162.059 105.797C160.869 108.496 159.063 111.662 157.302 114.535C154.964 111.478 147.933 102.969 139.471 99.4771C129.095 95.1953 90.955 101.972 87.7016 103.136C84.4478 104.3 79.8538 122.05 79.8538 122.05C79.8538 122.05 55.0182 123.049 47.4622 124.919C39.9062 126.79 32.8924 140.923 31.7717 148.739C30.6514 156.554 33.0729 223.069 33.6515 226.27C33.7959 239.905 43.2684 260.026 54.0418 263.393C64.8157 266.76 98.2927 272.913 126.456 271.084C154.619 269.255 167.02 253.499 162.645 244.727C158.271 235.956 144.531 229.596 140.952 223.609C140.952 223.609 146.339 221.963 153.1 218.496C162.926 235.702 179.076 237.768 196.805 235.941C196.779 236.259 196.745 236.615 196.722 236.897C193.888 259.297 248.102 256.878 248.81 248.977C249.201 244.617 249.924 237.208 250.362 230.06C250.622 230.113 273.594 234.708 281.191 217.997C287.554 204.001 286.251 165.243 285.637 151.358C285.022 137.473 277.54 128.286 270.888 126.166C267.438 125.067 262.59 123.699 258.662 122.619C258.396 121.251 258.062 120.013 257.659 119.014C256.238 115.486 252.625 113.778 249.091 113.353C247.982 110.785 246.634 107.813 245.154 104.851C247.127 105.988 249.42 106.801 252.021 107.335C271.248 105.233 275.2 89.3315 276.998 78.0777C278.795 66.8239 274.357 46.2953 259.309 46.1186C244.261 45.9419 238.107 65.2877 236.779 81.5943C236.455 85.5725 236.543 89.0035 237.018 91.9558C235.306 90.1444 233.646 89.1266 232.166 89.4165C224.772 90.8655 211.319 88.7228 201.84 92.5738C201.091 86.008 200.652 79.0416 200.212 71.6236C198.387 56.4957 187.912 45.7274 175.939 45.8091ZM60.0548 53.4365C60.0548 53.4365 44.775 57.7234 43.6594 59.1157C42.5443 60.5081 36.7604 71.5369 36.7604 71.5369C36.7604 71.5369 31.1999 74.0831 30.9449 76.9412C30.6903 79.7992 32.9518 96.3614 40.5039 103.177C48.0564 109.992 50.8278 110.615 55.9259 108.837C61.0243 107.06 66.189 106.823 70.0289 87.3114C70.0289 87.3114 72.626 74.1383 71.0962 69.4848C69.5665 64.8313 60.0548 53.4365 60.0548 53.4365Z" fill="white"/>
<path d="M223.597 2.02184e-05C221.249 -0.0055215 211.425 5.89337 207.471 9.68074C203.777 13.2186 200.086 21.225 199.035 27.9825C198.299 32.7143 197.816 34 196.531 34.6239C194.207 35.7527 194.444 38.8583 196.939 39.9697C198.404 40.622 199.06 41.6177 199.382 43.679C199.625 45.2288 200.708 48.6958 201.788 51.3822C202.869 54.0684 203.957 57.6281 204.206 59.2932C205.146 65.5721 210.685 71.6069 217.668 73.9571C218.027 74.0794 218.345 74.1764 218.683 74.2861C217.686 77.5099 218.538 79.264 221.682 80.5519C224.358 81.6482 224.665 81.6036 228.352 79.5984C232.039 77.5932 234.093 77.4377 234.093 79.1622C234.093 79.5987 233.213 80.5063 232.139 81.1797C231.065 81.8532 230.186 82.736 230.186 83.142C230.186 83.5481 228.707 84.7382 226.9 85.7863C226.56 85.984 226.241 86.1879 225.935 86.3967C220.193 85.4504 209.183 84.2641 203.494 87.8081C202.061 68.6791 201.11 63.8212 198.183 58.4717C192.464 48.0182 185.183 42.6272 177.006 42.7113H176.998C175.829 42.7235 174.642 42.8469 173.44 43.0837C164.48 44.8477 161.603 47.0243 156.452 55.9303C151.046 65.276 148.568 74.2971 149.043 82.8985C149.222 86.1407 149.753 89.5583 149.753 89.5583C146.627 90.4597 145.867 95.88 151.667 95.1953C151.667 95.1953 153.699 98.2884 155.388 101.01L158.458 105.958L156.897 109.057C156.747 109.354 156.551 109.783 156.338 110.263C155.108 107.805 151.024 101.118 141.793 98.0116C135.89 96.025 130.735 95.8868 127.116 96.2138C127.124 96.0194 127.141 95.8087 127.171 95.5687C127.518 92.8324 125.617 91.7622 119.458 91.2273C114.852 90.8276 114.802 90.7998 115.061 88.753C115.402 86.0613 114.457 84.2157 112.777 83.2449C112.848 82.6269 112.839 81.9179 112.726 81.0975C114.995 82.5456 117.404 83.5741 119.913 84.062C124.49 84.825 127.833 84.5544 132.21 82.1604C132.418 84.1183 132.986 84.8124 134.535 86.1088C135.599 87.871 138.347 88.0456 139.531 87.5419C140.554 87.1066 141.225 87.3248 141.225 88.0939C141.225 90.4322 144.792 88.6906 146.569 85.4854C148.225 82.4964 146.706 79.7477 145.325 78.3926C144.522 77.6032 143.865 76.1496 143.865 75.1617C143.865 73.3724 144.314 68.5331 143.059 69.094C144.521 66.5677 143.626 65.192 142.528 64.2396C142.585 63.8931 142.632 63.5424 142.676 63.1875C142.84 61.7036 143.098 60.5203 143.296 60.3355C143.983 59.768 146.503 60.0624 147.53 59.4664C149.5 57.8163 147.659 55.5414 146.273 55.4605C141.82 55.7473 143.704 54.3409 142.618 49.6428C142.583 49.5105 142.553 49.3837 142.527 49.2618V49.1968C144.406 40.3477 145.174 37.0532 142.259 29.4816C144.277 24.4264 138.169 18.7585 134.435 18.7585C133.39 18.7585 131.875 17.7794 131.067 16.583C130.259 15.3866 128.557 14.1013 127.285 13.7266C126.012 13.352 124.107 11.8124 123.051 10.3052C121.805 8.52723 120.356 7.64349 118.905 7.65347H118.902C117.451 7.664 115.997 8.56824 114.739 10.3637C113.338 12.363 111.902 13.1616 109.712 13.1616C107.761 13.1616 106.124 13.9349 105.209 15.2896C104.419 16.46 102.543 17.7267 101.039 18.1048C94.6816 22.6804 95.3485 24.8797 95.8057 31.6344C95.745 33.5571 96.3066 34.4538 96.7833 34.8707C96.7442 35.0231 96.7054 35.1765 96.6664 35.3328C94.3134 36.0394 91.8976 40.1719 94.2419 44.5437C93.9543 44.6388 93.6309 44.7027 93.3711 44.6985C90.5431 46.6707 93.9717 47.2497 94.7282 48.0258C94.7412 48.0762 94.7507 48.1272 94.7637 48.1783C94.4588 49.2678 93.9262 50.2297 93.6625 50.5834C92.9741 51.5056 93.1944 52.2242 94.4977 53.3153C96.9839 55.3963 96.8958 60.709 94.3537 62.0045C91.8459 63.2826 90.2524 65.9394 90.484 68.4619C90.586 69.5761 90.4495 72.0171 87.6241 74.4431C86.8664 76.7321 87.9156 79.6031 87.9156 80.5714C87.9156 81.5395 87.1245 83.7652 86.1586 85.5167C84.0962 89.256 84.6026 93.0637 87.3615 94.5567C87.5836 94.6769 87.8519 94.7788 88.1477 94.8663C87.7729 95.3567 87.4933 95.6327 87.3666 95.6066C85.3606 95.1916 81.578 97.703 79.5984 100.764C77.7226 103.664 77.2478 105.198 76.647 110.291C76.2528 113.63 76.1885 119.069 76.5047 122.378C77.0395 127.981 76.9587 128.794 75.3357 134.247C73.6745 139.827 73.6432 140.219 74.6343 142.602C75.3872 144.411 76.2344 145.186 77.7009 145.402C79.0333 145.598 79.7977 146.205 79.9339 147.173C80.048 147.982 80.3589 150.39 80.6252 152.524C81.5191 159.68 84.4042 162.438 87.6394 159.228L89.2032 157.677L91.2617 160.454C96.3021 167.248 101.467 169.633 106.983 167.716C108.681 167.126 111.088 166.001 112.333 165.217C115.575 163.173 120.494 155.856 122.753 149.716C124.056 146.175 125.1 144.391 125.926 144.29C127.88 144.052 128.596 141.588 127.265 139.685C126.32 138.335 126.204 136.657 126.658 130.752C127.261 122.904 126.68 118.167 124.552 113.625C123.809 112.037 123.24 110.434 123.287 110.062C123.334 109.689 124.903 109.512 126.773 109.667C130.885 110.007 133.806 107.893 134.269 104.241C134.389 103.292 134.369 102.62 134.13 102.024C141.087 103.354 150.644 106.262 153.382 111.473C153.975 112.603 154.462 113.345 154.866 113.807C154.095 115.75 153.271 117.938 152.602 119.882C151.042 124.415 150.135 125.721 151.211 131.815C151.727 134.734 152.361 137.543 153.105 140.23C152.958 140.893 152.811 141.601 152.667 142.402C151.453 149.135 150.76 195.341 151.847 197.015C152.813 198.503 153.983 197.69 154.806 194.956C155.426 192.897 156.036 165.372 156.055 148.841C160.179 158.744 166.195 166.323 173.952 170.676C179.204 173.624 189.276 172.279 193.898 168.014C194.809 167.173 195.935 165.8 197.002 164.288C197.648 164.808 198.548 165.009 199.371 164.625C199.371 164.625 199.993 165.679 201.436 169.253C203.869 175.279 206.651 179.25 210.529 181.939C210.468 182.865 210.401 183.777 210.327 184.663C210.035 188.173 209.872 190.61 209.829 192.46C207.687 193.329 206.169 194.355 204.841 195.715C201.776 198.854 199.722 203.432 197.744 211.537C195.747 219.719 195.819 222.696 198.027 223.007C199.884 223.268 200.31 222.276 201.834 214.125C203.938 202.868 206.269 199.559 213.209 197.974C225.135 195.249 233.375 196.311 239.795 201.397C241.967 203.117 244.339 205.537 245.068 206.776C246.73 209.603 247.472 217.038 246.837 224.541C246.551 227.918 246.634 230.758 247.033 231.396C248.093 233.084 249.83 232.967 251.1 231.122C253.627 227.444 253.523 211.287 250.928 205.013C248.026 197.995 239.991 191.683 231.7 189.91C227.275 188.964 225.085 188.973 219.62 189.961C217.761 190.297 216.173 190.628 214.742 190.967C215.083 189.237 215.404 187.166 215.745 184.601C216.198 184.767 216.664 184.924 217.142 185.073C228.969 188.766 240.322 183.275 246.162 171.037C249.285 164.493 250.336 154.198 248.883 144.381C248.628 142.66 248.804 142.578 251.613 143.111C254.4 143.639 254.81 143.456 257.319 140.557C260.611 136.752 261.376 133.974 260.611 128.572C260.461 127.51 260.247 126.466 259.986 125.444C264.775 125.979 269.849 127.871 274.702 131.152C278.627 133.805 281.011 137.531 282.281 142.994C283.521 148.329 283.504 189.169 282.255 201.326C281.594 207.767 281.53 210.366 282.004 211.5C282.855 213.532 284.956 213.102 285.837 210.716C287.848 205.269 288.443 197.789 288.756 174.048C289.099 148.011 288.757 143.013 286.186 136.297C284.501 131.901 280.43 126.636 277.008 124.429C273.331 122.057 266.389 119.282 261.623 118.277C259.715 117.875 258.413 117.682 257.028 117.717C256.946 117.717 256.859 117.728 256.775 117.732C255.182 115.11 253.251 112.996 251.21 111.666C256.354 111.928 261.498 110.022 266.058 106.336C266.959 105.378 267.377 105.568 269.314 107.815C270.536 109.232 272.341 110.824 273.327 111.355C274.311 111.886 275.117 112.758 275.117 113.293C275.117 113.829 275.923 115.077 276.908 116.065C278.298 117.404 280.915 118.338 282.523 114.895C282.915 113.226 282.896 111.685 282.47 110.555C282.107 109.591 281.331 107.46 280.744 105.819C280.158 104.177 279.238 102.63 278.701 102.38C278.163 102.13 277.723 101.547 277.723 101.085C277.723 100.624 277.238 99.5955 276.646 98.8017C274.63 96.1024 277.666 97.586 281.195 101.024C282.15 101.954 282.933 103.274 282.933 103.956C282.933 104.638 283.591 105.616 284.397 106.13C286.235 107.304 286.817 108.347 286.83 110.497C286.838 112.032 290.748 117.089 291.926 117.089C292.192 117.089 293.062 116.537 293.857 115.861C295.34 114.603 295.84 111.002 294.733 109.553C294.419 109.14 293.833 107.557 293.432 106.034C293.031 104.512 291.97 102.308 291.074 101.136C290.177 99.9649 289.444 98.2726 289.444 97.3762C289.444 96.3693 288.769 95.3765 287.68 94.7774C286.71 94.2442 285.033 92.8312 283.955 91.6375C282.874 90.4437 281.762 89.4662 281.484 89.4662C280.58 89.4662 280.952 86.2733 281.908 85.8284C283.344 85.161 288.586 88.3079 289.488 90.3787C290.398 92.4679 292.119 94.4996 295.364 97.3101C296.585 98.3683 297.967 99.8777 298.435 100.664C299.622 102.66 300.945 102.448 302.239 100.055C303.161 98.3497 303.217 97.596 302.58 95.4604C302.161 94.0555 301.817 92.1866 301.817 91.3073C301.817 90.4281 300.851 88.5006 299.669 87.0233C298.486 85.5461 297.321 83.7068 297.078 82.9374C296.836 82.168 296.141 81.3074 295.533 81.0249C294.926 80.7423 293.935 79.9514 293.331 79.2671C292.727 78.5829 291.165 77.0309 289.861 75.8187C288.456 74.5129 287.49 72.9359 287.49 71.9481C287.49 70.4169 287.584 70.3817 288.631 71.5141C289.384 72.3282 291.455 72.8512 294.732 73.0554C298.277 73.2763 300.011 73.748 300.802 74.7071C302.085 76.2614 305.109 76.4817 306.246 75.1033C307.338 73.7803 307.222 70.1245 306.051 68.9468C305.514 68.4063 305.073 67.3533 305.073 66.6056C305.073 63.9994 302.928 62.6939 298.015 62.3108C291.864 61.8311 286.411 60.3382 283.639 58.3753C280.836 56.3898 282.127 55.7574 285.573 57.4282C289.024 59.1019 290.556 59.0157 291.402 57.0981C292.346 54.9616 291.574 50.4425 289.962 48.6762C288.917 47.5302 287.555 47.2431 283.158 47.2431H277.66L276.441 43.9419C275.704 41.9474 274.44 40.1503 273.249 39.4036C270.59 37.7375 262.934 37.773 259.44 39.4674C256.79 40.7526 256.745 40.7452 255.357 38.8115C253.258 35.886 251.096 35.0413 248.404 36.0958C248.243 36.1588 248.101 36.2252 247.957 36.2917C247.965 35.6003 247.969 34.9085 247.969 34.1118C247.99 25.2144 247.828 23.9711 246.127 19.8517C241.842 9.47519 231.107 0.0167609 223.595 -3.05176e-05L223.597 2.02184e-05ZM228.53 6.1663C229.567 6.09558 230.178 7.0103 232.815 9.33112C237.487 13.4427 241.034 18.8071 242.437 23.889C243.702 28.4654 243.773 36.3287 242.66 42.1117C242.626 42.1119 242.602 42.1117 242.567 42.1117C241.016 42.1117 239.991 42.6066 238.521 44.1758C238.375 43.9009 238.233 43.6472 238.084 43.3575C236.829 40.9051 234.379 37.7478 232.637 36.3362C229.011 33.3975 222.54 31.911 220.491 33.5459C219.797 34.0995 218.343 34.5535 217.258 34.5535C214.784 34.5535 208.942 39.4219 207.483 42.7005C206.202 45.5774 205.207 45.4954 204.602 42.4624C204.282 40.856 204.593 39.8636 205.841 38.5356C207.822 36.4234 207.421 34.0817 204.943 33.2872C203.045 32.6785 202.959 31.999 203.996 25.822C204.951 20.1328 208.016 14.03 211.569 10.7415C214.103 8.39678 214.655 8.2164 216.894 9.00643C218.912 9.71815 220.318 9.50906 224.186 7.91975C226.662 6.87042 227.724 6.21911 228.53 6.16413V6.1663ZM119.337 11.4828C120.18 11.4828 121.025 12.1116 121.216 12.8813C121.436 13.7674 120.748 14.2808 119.337 14.2808C117.927 14.2808 117.237 13.7674 117.457 12.8813C117.648 12.1116 118.495 11.4828 119.337 11.4828ZM109.782 15.4011C110.214 15.4011 110.569 15.9045 110.569 16.5202C110.569 17.1357 109.982 17.6394 109.267 17.6394C108.55 17.6394 108.197 17.1357 108.48 16.5202C108.765 15.9045 109.35 15.4011 109.782 15.4011ZM102.269 20.8854C102.554 20.8732 102.744 21.0009 102.744 21.327C102.993 21.6609 102.412 22.4959 101.454 23.1833C100.247 24.0494 99.711 24.0664 99.711 23.2387C99.711 22.221 101.417 20.9208 102.269 20.8845V20.8854ZM226.921 20.907C226.763 20.9142 226.598 20.9386 226.424 20.9774C224.546 21.3953 224.384 24.0447 224.994 26.0785C225.279 27.027 226.03 27.4851 227.011 27.307C228.219 27.0878 228.625 26.3527 228.796 24.0729C228.739 21.6338 228.028 20.8563 226.921 20.907ZM215.761 22.2437C215.618 22.2382 215.47 22.2548 215.315 22.2925C213.775 22.6678 213.2 26.1273 214.377 27.9392C214.981 28.8689 215.542 28.9651 216.511 28.3028C218.655 26.8368 217.905 22.3067 215.761 22.2437ZM121.569 23.9907C123.204 24.0239 124.79 24.325 126.101 24.8966C128.7 26.0303 130.412 29.2739 132.114 31.3215C133.044 32.4386 133.853 33.95 134.997 36.7182C136.438 40.2034 136.793 41.3681 136.412 41.3681C133.476 34.5279 129.179 33.7632 125.403 36.624C125.154 36.8399 124.79 37.1214 124.596 37.2496C123.435 38.6783 122.397 41.8468 122.073 43.8488C122.03 44.1301 121.902 44.4299 121.789 44.5145C121.516 44.7178 121.495 44.7145 121.198 44.4485C120.772 42.4942 120.308 39.7528 119.403 38.5377C115.877 32.6347 109.77 31.9075 105.893 39.304C105.167 40.0965 104.745 42.635 104.745 43.4213C104.745 44.5021 104.02 44.8205 102.198 44.5405C101.988 44.4989 101.752 44.4731 101.51 44.4506C102.814 35.7936 103.355 33.5681 108.77 27.8655C109.762 26.8211 113.01 26.8115 114.034 26.0352C115.98 24.6229 118.843 23.9355 121.569 23.9907ZM44.7383 29.9307C43.7797 29.9196 42.817 30.0663 41.8225 30.3604C38.3071 31.3992 33.982 34.7315 31.9695 37.9499C31.2113 39.1623 29.7813 42.8628 28.7911 46.1727C26.1358 55.0515 25.5368 55.8736 21.3643 56.3783C15.4517 57.0935 11.7459 62.0678 12.4186 68.385C12.9998 73.8442 13.7851 75.4159 17.3981 78.3536C20.9737 81.2607 21.0777 81.445 21.7235 86.0351C22.4777 91.3951 25.3131 96.832 28.3158 98.675C30.4298 99.9723 30.5603 100.376 29.5289 102.447C27.4462 106.629 32.0015 112.149 35.5529 109.747C37.1689 108.653 37.8132 108.834 41.598 111.446C48.6994 116.347 55.9083 117.037 61.6478 113.365C64.752 111.379 66.7947 109.091 68.2147 106.013C68.8675 104.599 70.0172 103.267 70.768 103.054C72.5458 102.549 73.413 100.731 73.0027 98.372C72.7503 96.9206 73.033 96.3822 74.2344 96.0416C76.659 95.3531 77.6058 92.7578 76.5657 89.6503C75.6996 87.0628 75.7231 87.007 77.9906 86.3631C79.6145 85.902 80.678 84.9412 81.5875 83.1149C82.7633 80.7541 82.7738 80.1145 81.6959 75.98C81.0445 73.482 80.1814 70.6734 79.7763 69.7391C79.2077 68.4273 79.4495 67.2704 80.8353 64.6595C85.8483 55.2161 82.5134 41.241 74.0565 36.2473C68.4918 32.9614 61.3558 32.9499 59.0115 36.2235C57.8955 37.7815 57.6459 37.6969 54.0355 34.5404C50.4572 31.4119 47.6143 29.9633 44.7383 29.9307ZM45.3948 35.0687C45.8268 35.0875 46.2802 35.1613 46.7976 35.2798C50.5121 36.129 56.8904 41.5994 57.917 44.8164C59.6619 50.2818 59.615 50.3444 51.8855 52.7957C43.7782 55.3668 40.7732 57.5374 37.27 63.352C34.1055 68.6042 33.8426 68.8805 30.8208 70.1373C29.1679 70.8249 27.777 72.0868 27.0401 73.5663C25.9861 75.6826 26.0016 76.6774 27.2078 83.9603L28.5429 92.0142L26.7656 89.2779C25.4215 87.2089 24.9381 85.6433 24.7859 82.8573C24.5933 79.3366 24.4186 79.0279 20.8594 75.9161C17.7413 73.19 17.0276 72.114 16.4798 69.3136C15.529 64.4546 16.7111 63.0466 22.5452 62.0889C26.6587 61.4136 27.326 61.0738 29.0071 58.7942C30.0385 57.3959 31.7107 53.4983 32.7243 50.1319C35.2759 41.6536 36.9235 38.9405 40.9169 36.6414C42.9923 35.4464 44.0984 35.0115 45.3948 35.0687ZM112.699 37.3362C114.588 37.3706 116.68 38.9273 117.828 42.156C118.201 42.9319 118.247 43.1662 118.29 44.3933C118.359 46.4042 117.791 48.4044 116.872 49.3852C115.862 50.5889 114.058 51.7925 112.765 51.7241C112.255 51.6776 111.616 51.5182 111.345 51.3713C110.507 50.9178 108.906 49.4789 108.342 48.674C106.38 45.452 107.707 42.352 109.326 39.6319C110.046 38.0958 111.32 37.311 112.699 37.3362ZM220.201 37.5149C220.998 37.6005 221.878 38.4265 224.137 39.5821C227.604 41.585 231.229 42.6063 233.04 46.1067C234.116 48.7765 234.188 50.7574 233.115 52.353C232.985 52.3657 232.853 52.3735 232.717 52.3735C231.554 52.3735 230.539 52.9689 230.033 53.9515C229.586 54.8196 228.723 55.5296 228.114 55.5296C227.666 55.5296 227.152 55.7708 226.797 56.113C223.42 57.195 220.678 57.1886 217.545 56.1424C214.176 55.0174 210.197 51.1915 210.197 49.0789C210.197 47.3865 213.507 42.7528 216.76 39.8929C218.691 38.0839 219.405 37.4291 220.201 37.5149ZM63.4234 38.3233C66.3446 38.2452 71.2411 39.4671 73.3568 41.0022C76.4666 43.2587 78.4553 47.4276 79.1562 53.1561C79.8025 58.4386 79.7606 58.6518 77.2536 62.9764C74.9232 66.9967 74.7486 67.7155 75.3086 70.9296C75.7302 73.3532 76.5655 75.2011 77.9652 76.8112C80.0952 79.3767 80.521 78.3312 78.8021 81.0952C77.3904 82.446 74.3936 85.005 74.5801 82.3811C74.9886 78.9688 74.4633 71.2503 73.6245 68.3319C73.1366 66.6336 71.3911 63.6424 69.7447 61.6841C64.5559 55.5127 61.5729 49.8685 60.5957 44.3705L59.7197 39.4512L61.7766 38.5972C62.1817 38.4286 62.7494 38.3414 63.4234 38.3233ZM129.088 38.5679C129.527 38.5679 129.974 38.6951 130.431 38.976C131.438 39.5907 133.2 41.3893 133.972 42.511C135.314 44.4598 135.453 48.1225 135.041 49.7206C134.546 51.451 134.451 51.6208 133.559 52.3649C130.03 55.0579 126.698 53.6247 124.808 48.818C123.952 45.6274 124.21 43.0296 125.879 40.553C126.898 39.386 127.965 38.5652 129.088 38.5679ZM114.497 41.9612C113.792 41.9667 112.613 42.4162 112.435 43.4711C112.199 45.1687 112.273 47.5321 112.78 48.2573C113.536 48.8947 114.578 49.7224 115.144 48.7649C115.828 47.5932 116.014 46.5808 115.896 44.6606C115.849 43.8959 115.707 42.0356 114.497 41.9612ZM127.47 42.7989C126.55 42.8661 125.595 43.7798 125.472 45.7787C125.502 47.6466 125.894 48.8501 126.87 49.0366C127.239 49.1072 128.14 48.7461 128.617 48.0884C129.257 47.2038 129.235 46.2127 129.257 44.9009C129.274 43.5115 128.39 42.7318 127.47 42.7989ZM229.223 45.1737C228.149 45.1476 226.769 45.4578 225.279 45.993C222.171 47.1231 218.113 46.9692 214.531 45.585C212.594 44.8365 212.394 46.8225 214.207 48.8061C218.137 53.1058 223.78 53.8702 228.551 50.7489C230.522 49.4591 231.404 48.4075 231.451 47.1793C231.482 45.7967 230.604 45.2071 229.223 45.1737ZM121.101 47.4737C121.178 47.4737 121.263 47.4809 121.362 47.502C122.171 47.7799 122.37 52.1146 123.71 53.3424C127.137 57.8915 131.407 59.2839 135.965 54.5893C136.58 53.8759 137.359 50.7631 137.744 49.2587C137.886 48.7006 138.069 48.2154 138.15 48.1806C138.333 48.1029 138.63 48.9718 138.918 50.4309C139.187 51.7942 139.485 54.4014 139.377 54.9562L139.296 55.3675L138.037 55.3221C135.495 54.6815 135.067 59.1356 137.432 59.3258C138.03 59.3485 138.636 59.5573 139.221 59.7555L139.199 61.0034C139.177 62.221 139.094 62.7276 138.467 65.4823C138.121 67.0037 135.539 70.9295 134.855 71.9105C128.265 81.2398 118.703 81.2113 110.207 73.7948C103.357 67.6561 100.548 57.5468 100.644 48.1179C101.959 48.1583 103.378 47.882 104.314 48.5259C104.483 48.6672 104.621 48.85 104.621 48.9318C106.088 52.2088 110.046 56.3709 113.368 55.6533C114.871 55.3787 116.199 54.6939 117.421 53.6466C118.453 52.7506 119.923 49.6956 120.318 48.5681C120.606 47.7487 120.767 47.4841 121.101 47.4737ZM178.062 48.2465C179.996 48.2543 181.813 48.6707 183.382 49.5237C192.095 54.2576 198.532 66.8997 197.631 77.505C197.424 79.9337 196.102 81.1798 195.86 79.174C195.523 76.3783 190.861 69.2828 186.901 65.5395C180.418 59.4116 172.397 56.6295 163.717 57.4964L160.43 57.8244L164.933 53.7969C168.975 50.1843 173.805 48.2288 178.062 48.2465ZM258.217 50.7944C258.835 50.7944 259.863 51.772 260.503 52.9656C261.997 55.7563 263.74 57.292 266.622 58.3601C268.796 59.1657 268.945 59.4375 269.133 62.932C269.318 66.3617 269.517 66.7487 271.737 67.9705C274.596 69.5445 275.047 68.6067 272.872 72.5164C271.083 75.7121 270.748 79.1168 271.988 81.5217C272.652 82.8111 272.465 83.3638 270.685 85.3792C269.433 86.797 269.736 90.2272 269.736 91.4026C269.736 93.5176 265.44 98.3917 260.704 102.189C251.895 109.229 239.195 105.527 239.79 87.9228C239.638 85.3824 239.09 84.273 242.959 84.9798C245.631 85.468 247.304 83.7629 247.304 82.2122C247.304 79.6298 246.458 79.5376 243.653 79.1242C241.817 78.8536 239.805 77.646 240.233 74.6833C240.838 70.4901 244.014 62.8311 246.764 58.9381C249.047 55.7057 255.955 50.7944 258.217 50.7944ZM59.901 55.0167C60.1383 55.0023 60.3422 55.0588 60.4584 55.2115C60.7425 55.5838 60.3793 56.057 59.652 56.2636C58.9246 56.4701 58.3036 56.494 58.2728 56.3168C58.1713 55.7329 59.1897 55.0592 59.901 55.0167ZM60.7803 57.2388C61.188 57.3122 61.8424 57.8554 62.4509 58.6707C63.2619 59.7579 65.0651 62.0332 66.4561 63.7265C68.6629 66.4141 68.8692 66.9352 68.0877 67.8265C66.842 69.248 67.2104 70.4792 68.7501 70.0421C70.4833 69.5499 70.6083 70.8875 68.945 72.1311C67.8086 72.9809 67.7841 73.1438 68.7925 73.1983C69.4474 73.2338 70.0984 73.9248 70.2394 74.7342C70.6015 76.8176 69.3379 85.3765 68.6383 85.5752C68.3182 85.666 66.7934 85.3236 65.2515 84.8142C61.9209 83.7137 59.2072 84.3022 58.9895 86.1726C58.7679 88.078 60.3595 89.3943 63.298 89.7347C64.6864 89.8955 66.1379 90.2601 66.5222 90.5454C67.5011 91.2715 64.2069 101.379 62.1696 103.902C60.0383 106.54 53.9291 108.374 50.5513 107.389C46.6282 106.245 40.7761 101.556 38.1984 97.492C36.8864 95.4232 35.9085 93.5386 36.0247 93.3043C36.1423 93.0702 37.3899 93.5592 38.7982 94.391C40.2074 95.2229 41.6939 95.809 42.102 95.6931C43.6903 95.2421 42.4057 93.8502 38.5187 91.8106C34.9369 89.9312 34.3404 89.2821 33.4283 86.2679C32.2394 82.3389 31.8692 77.2152 32.6599 75.6282C32.9588 75.0288 35.128 74.021 37.4801 73.3888C41.3047 73.6059 41.5289 70.9284 38.0612 71.3161C37.9142 71.2405 38.8917 68.935 40.2341 66.1921C43.2216 60.0883 45.0034 58.8098 49.5025 59.541C52.687 60.0585 59.3548 58.7129 60.4669 57.3287C60.5372 57.2413 60.6441 57.2143 60.7803 57.2388ZM107.865 59.3797C106.13 59.4246 105.29 63.2691 106.615 65.5665C107.515 67.5015 109.562 70.0605 110.409 70.3127C113.915 72.8398 116.612 75.1762 120.101 74.7753C121.874 74.5663 122.722 74.3101 124.235 73.5251C125.822 72.7014 126.666 71.995 127.722 70.6049C128.681 69.3439 129.163 68.0718 129.306 66.4335C129.582 63.3426 128.155 63.452 126.455 62.9137C120.439 61.0238 110.408 59.3142 107.865 59.3797ZM60.7753 61.2814C59.7035 61.2643 58.2411 61.3363 56.648 61.5022C53.4623 61.8338 50.1694 62.0865 49.3314 62.064C47.1719 62.0059 47.7256 64.2657 50.0235 64.8879C52.0868 65.4465 62.7457 62.6486 62.5627 61.5964C62.528 61.4049 61.847 61.2983 60.7753 61.2814ZM165.333 62.1733C172.838 62.2276 181.723 65.894 186.945 71.4189C188.414 72.9728 191.079 77.0389 192.866 80.4545C195.712 85.891 196.041 87.0578 195.514 89.8234C194.683 94.1887 191.487 98.8927 188.06 101.616C176.302 108.264 169.047 108.102 161.328 98.2875C160.198 96.8517 159.252 95.2432 158.59 93.4321C159.631 92.3971 162.648 93.457 162.214 89.1935C161.964 87.1232 160.377 87.2379 157.817 87.742C154.465 88.402 153.347 79.1705 155.674 70.0085C156.748 64.1738 157.014 63.3775 161.338 62.5262C162.601 62.2774 163.943 62.1632 165.333 62.1733ZM110.4 62.748C110.655 62.748 111.415 62.9385 112.094 63.1691C116.799 64.5961 121.221 64.5051 125.225 66.1932C125.648 66.3713 126.121 66.2165 126.331 66.7496C126.226 69.1212 123.154 70.8166 121.46 71.2013C117.183 71.6029 115.118 69.9828 112.145 67.1295C111.152 66.1741 110.376 65.3037 109.938 63.1063C109.938 62.7953 110 62.748 110.4 62.748ZM95.3788 64.9799C96.5112 64.9372 97.9405 66.451 97.9405 67.9131C97.9405 68.4055 97.0033 68.8082 95.8548 68.8082C93.6203 68.8082 92.9405 66.1151 94.9179 65.0979C95.0623 65.0237 95.217 64.9854 95.3788 64.9799ZM263.11 67.1792C262.801 67.1997 262.465 67.291 262.105 67.4639C260.742 68.119 259.951 71.0033 260.662 73.2513C261.187 74.9091 263.805 74.536 264.752 72.8173C266.126 70.323 265.274 67.0356 263.11 67.1792ZM254.339 67.2745C251.685 67.2745 250.318 70.5137 252.074 72.6408C254.036 75.0193 256.94 72.6586 256.237 69.2574C255.948 67.8643 255.383 67.2745 254.339 67.2745ZM58.2356 68.5517C56.1311 68.5711 55.7502 70.2615 56.3414 73.0294C56.838 75.354 58.7976 76.5619 59.9569 74.2991C60.1165 73.9877 60.4313 73.3271 60.4703 72.4309C60.5401 70.813 60.1362 68.5339 58.2356 68.5517ZM46.4478 70.4004C46.3072 70.4109 46.1628 70.4375 46.0149 70.4794C44.038 71.0408 43.4972 74.3178 45.0534 76.3025C46.5216 78.1744 47.4276 78.1583 48.3818 76.243C49.7415 73.5122 48.5514 70.2436 46.4478 70.4004ZM170.953 73.7903C169.044 73.7355 167.519 77.1734 168.81 79.0777C170.016 80.8587 172.049 81.3243 172.81 79.9944C173.708 78.4234 172.704 74.2291 171.339 73.8488C171.209 73.8128 171.08 73.7939 170.953 73.7903ZM181.433 74.1843C180.959 74.1932 180.549 74.6267 180.017 75.5579C178.698 77.8658 178.732 78.6639 180.22 80.0627C181.466 81.233 182.945 81.1871 183.648 79.9566C184.429 78.591 183.736 75.6409 182.396 74.6108C182.026 74.3265 181.718 74.1788 181.433 74.1843ZM39.2658 74.5913C38.2314 74.5564 37.0487 74.7718 36.6397 75.2808C36.3227 75.6755 36.2897 76.295 36.566 76.6575C37.2149 77.5088 40.2621 77.414 40.6585 76.3415L41.0041 75.4074C41.1867 74.9126 40.3003 74.6266 39.2658 74.5913ZM139.018 75.9356C139.08 75.9284 139.14 75.9295 139.197 75.9411C139.612 76.0109 139.871 76.5451 139.79 77.9089C139.526 78.8323 138.598 79.5876 137.728 79.5876C136.995 79.5876 136.375 79.0502 136.198 78.3277C136.598 77.9091 138.083 76.043 139.018 75.9378V75.9356ZM62.539 76.1391C62.3139 76.1208 61.9887 76.2809 61.5411 76.7181C60.3218 77.9089 57.696 76.8277 56.9157 77.0494C55.9346 77.3279 56.2097 78.6155 57.7968 79.0452C59.9398 79.6255 62.4345 78.9194 62.8067 77.8027C63.0465 77.0838 63.0352 76.1795 62.539 76.1391ZM91.8123 76.7127C92.2517 76.6834 92.9083 77.4596 93.6218 78.9911C94.2234 80.2825 94.594 81.504 94.4435 81.7057C93.8233 82.537 91.2617 79.7685 91.2617 78.267C91.2617 77.2457 91.4706 76.7355 91.8123 76.7127ZM48.813 79.0377C48.5597 79.0288 48.1702 79.2257 47.6202 79.738C46.6851 80.6082 44.5619 79.6455 43.7759 79.318C43.1171 79.0434 42.7533 80.0821 42.8331 80.54C43.1749 82.5047 46.3104 83.1429 48.1251 81.7187C49.1131 80.9434 49.5728 79.0644 48.813 79.0377ZM35.5605 85.9724C35.3827 85.9519 35.2636 85.9779 35.2242 86.0557C34.8555 86.7962 39.4035 90.4315 40.3595 90.1601C40.8231 90.0284 41.1488 89.6106 41.0829 89.2314C40.9467 88.4519 36.8062 86.1179 35.5605 85.9724ZM89.6606 86.7181C90.0814 86.7181 90.4247 87.9771 90.4247 89.5161C90.4247 92.435 89.2154 93.3381 88.5509 90.9156C88.0525 89.0999 88.6821 86.7181 89.6606 86.7181ZM186.989 88.0137C186.492 88.001 185.872 88.4454 185.198 89.5626C183.04 93.1375 178.838 95.5434 172.29 96.4324C166.283 97.2478 171.893 100.444 174.658 100.543C180.28 100.745 186.541 95.5302 187.748 92.4178C188.578 90.2781 188.081 88.0412 186.989 88.0137ZM259.256 88.649C258.986 88.6696 258.729 88.8704 258.509 89.3266C256.221 94.0452 249.379 93.7255 249.053 95.035C248.871 95.7652 248.66 97.2858 249.632 98.3785C251.785 100.796 253.582 100.846 257.228 98.7075C260.936 96.532 262.411 93.9142 261.416 91.2673C260.993 90.1438 260.065 88.5872 259.256 88.649ZM222.399 90.1341C222.163 90.5134 221.932 90.9092 221.706 91.342C220.655 93.3492 219.365 94.9907 218.841 94.9907C217.436 94.9907 215.859 98.1414 215.859 100.948C215.859 103.779 218.474 107.296 220.039 106.569C220.583 106.315 221.216 105.205 221.445 104.101C221.784 102.462 222.252 102.094 223.997 102.094C225.704 102.094 226.877 101.221 229.838 97.7453C233.36 93.6116 234.745 92.9468 234.745 95.3911C234.745 96.8629 231.896 100.515 230.748 100.515C230.244 100.515 228.739 101.607 227.404 102.941C225.278 105.064 224.976 105.793 224.976 108.808C224.976 115.788 227.185 118.803 229.826 115.426C232.675 111.784 238.168 106.83 239.358 106.83C241.227 108.361 243.164 109.515 245.139 110.313C242.232 111.079 239.071 114.244 238.45 117.204C238.149 118.639 238.192 121.107 238.548 122.688C239.18 125.497 239.164 125.546 237.808 124.786C231.636 121.326 228.284 120.306 224.122 120.619C221.771 120.796 219.273 120.965 218.573 120.994C217.559 121.038 217.273 120.413 217.16 117.929C216.825 110.519 210.872 106.11 204.873 108.661C204.5 104.806 204.333 99.8482 203.974 94.4603C208.875 91.701 217.093 90.3508 222.399 90.1341ZM57.9052 94.6757C57.1778 94.6241 56.1435 94.8041 54.72 95.3056C49.1583 97.2656 46.8431 95.7147 46.4749 97.0667C45.9522 98.9859 47.0325 100.275 49.9693 101.247C53.4491 102.397 56.7652 101.47 58.3609 98.9012C59.5034 97.0618 60.0868 94.8301 57.9052 94.6757ZM100.436 103.915C101.318 103.946 102.138 104.17 102.854 104.607C105.295 106.2 109.501 106.626 112.042 107.435C116.576 108.878 116.708 108.996 119.098 113.743C121.901 119.307 122.84 125.883 121.726 132.119L121.004 136.157L116.96 135.757C113.515 135.416 112.85 135.611 112.492 137.074C111.985 139.153 114.193 141.292 117.567 141.99C119.514 142.393 119.828 142.76 119.62 144.402C119.485 145.467 118.012 148.843 116.347 151.904C110.699 162.286 103.208 164.696 97.3729 158.008C91.2538 150.996 85.2966 137.438 84.6287 129.004C84.3598 125.607 84.6721 123.868 86.7787 116.977C89.0658 109.204 95.6746 103.747 100.436 103.915ZM200.434 107.503C200.735 107.503 201.008 107.967 201.109 108.743C201.177 109.269 201.329 110 201.537 110.848C200.651 111.658 199.847 112.589 199.145 113.611C199.459 111.847 199.637 110.488 199.582 110.036C199.478 109.174 199.724 108.108 200.13 107.666C200.231 107.556 200.334 107.503 200.434 107.503ZM194.25 108.793C194.276 108.793 194.294 108.802 194.303 108.811C194.476 108.974 193.782 112.538 192.763 116.731C190.792 124.834 184.296 137.526 180.124 141.425C175.442 145.8 180.835 146.561 185.871 142.236C189.055 139.501 192.976 132.918 195.64 126.317C196.004 129.769 197.718 132.29 201.034 132.19C202.031 132.161 202.867 132.205 203.301 132.29C203.288 132.344 203.28 132.375 203.267 132.43C202.875 133.988 202.456 135.504 202.02 136.98C201.783 137.629 201.602 138.137 201.338 138.85C200.772 140.391 200.262 141.984 199.838 143.641C198.053 148.582 196.186 152.693 194.64 155.511C191.003 162.14 183.955 165.344 178.014 163.067C171.125 160.427 162.211 149.655 158.534 137.226C156.263 129.55 155.163 128.202 158.556 121.641C160.848 117.209 161.673 112.615 162.253 114.201C162.624 115.222 164.263 118.432 165.89 121.336C170.177 128.981 178.646 134.407 179.243 129.891C179.324 129.283 178.526 128.479 177.472 128.107C175.689 127.477 167.011 114.086 167.656 112.96C167.815 112.681 169.961 113.004 172.422 113.679C177.695 115.124 183.806 114.131 189.725 110.868C191.921 109.657 193.869 108.767 194.249 108.793L194.25 108.793ZM99.2891 115.522C97.8769 115.426 96.6593 117.803 97.3034 121.285C97.7732 123.821 99.8999 125.321 101.254 124.073C102.161 123.238 102.249 120.075 101.427 117.904C100.82 116.301 100.029 115.572 99.2891 115.522ZM110.227 115.954C110.162 115.948 110.096 115.948 110.029 115.954C107.329 116.185 107.772 121.235 108.685 123.19C109.611 125.169 111.648 125.362 112.357 123.5C113.238 121.187 112.234 116.102 110.227 115.953V115.954ZM203.706 116.843C204.054 116.849 204.361 117.671 204.596 119.24C205.122 122.772 204.868 122.955 203.659 119.914C203.082 118.464 203.012 117.428 203.46 116.969C203.544 116.883 203.626 116.841 203.706 116.843ZM243.836 116.878C243.931 116.889 244.009 116.942 244.065 117.046C244.17 117.239 243.625 118.426 242.855 119.682C241.632 121.679 241.473 121.748 241.6 120.228C241.717 118.84 243.172 116.806 243.836 116.878ZM66.0783 119.29C60.7759 119.301 53.6911 119.67 50.0421 120.906C42.9381 123.31 38.7731 125.756 35.7248 129.962C19.8586 144.023 8.91675 158.94 3.76014 164.055C-1.47758 169.25 -1.19823 175.733 4.31924 183.089C9.83672 190.444 24.9503 202.352 26.7893 205.248C28.6288 208.144 25.1101 207.592 25.1899 211.086C25.2697 214.58 26.9894 216.879 26.3497 219.499C25.7099 222.12 22.5908 223.959 19.0728 224.648C15.5544 225.338 13.6749 230.165 16.3137 230.533C18.9525 230.901 28.6284 225.384 28.6284 225.384C28.6284 225.384 23.5905 230.441 21.1915 231.498C18.793 232.556 22.9909 235.222 25.3899 233.843C26.4781 233.217 27.4143 232.284 28.1261 231.445C27.5228 232.497 27.0607 233.811 27.589 234.9C28.9969 237.803 32.4088 233.697 34.1585 229.491C37.2241 222.121 36.6267 213.641 36.1154 206.824C36.0373 205.782 35.6356 204.684 34.998 203.547C34.9763 201.699 34.9432 199.871 34.8955 198.152C35.0764 195.474 34.8444 188.031 34.078 163.746C33.7991 154.905 33.9181 151.631 34.6668 147.57C36.4307 137.999 40.8443 133.828 44.9365 130.199C50.6825 125.103 70.7008 125.082 71.9235 125.486C77.0293 127.173 77.3192 120.425 72.569 119.547C71.7995 119.405 69.2593 119.283 66.0783 119.29ZM252.157 120.859C252.391 120.835 252.538 121.021 252.509 121.358C252.47 121.808 252.131 122.362 251.755 122.591C251.379 122.819 251.103 122.638 251.142 122.188C251.181 121.738 251.52 121.184 251.896 120.955C251.99 120.898 252.079 120.867 252.157 120.859ZM221.78 125.001C223.253 124.859 220.61 127.126 217.597 128.296C215.934 128.942 213.558 130.251 212.318 131.205C209.565 133.322 209.435 132.784 212.079 130.22C214.02 128.339 217.592 126.31 220.886 125.22C221.275 125.091 221.57 125.022 221.78 125.001ZM254.864 125.924C255.221 125.975 255.105 126.508 254.602 127.129C254.105 127.742 253.412 128.203 253.06 128.153C252.703 128.103 252.819 127.57 253.322 126.948C253.819 126.336 254.512 125.875 254.864 125.924ZM227.687 126.047C228.195 126.059 228.829 126.133 229.581 126.284C233.372 127.043 238.383 130.867 240.746 134.804C242.758 138.156 242.136 137.928 236.256 133.158C233.584 130.99 230.18 128.771 228.691 128.227C225.643 127.111 225.485 125.995 227.687 126.047ZM223.136 133.471C225.161 133.507 226.305 134.072 229.333 135.915C233.615 138.52 244.18 148.206 245.473 150.712C245.889 151.517 245.838 154.231 245.331 158.285C243.848 169.071 233.822 182.114 223.28 180.036C215.601 178.867 210.723 175.321 207.513 169.016C205.24 164.554 205.64 163.169 207.496 162.695C209.146 162.273 210.632 159.74 209.748 158.858C209.407 158.518 207.982 158.324 206.583 158.427C204.063 158.613 204.037 158.586 203.857 155.547C203.757 153.859 204.027 150.262 204.457 147.553C205.165 143.093 205.493 142.406 207.923 140.269C213.265 135.571 216.405 133.93 220.713 133.584C221.686 133.506 222.459 133.459 223.134 133.471H223.136ZM95.1585 137.057C94.4641 136.987 94.0215 137.713 93.8285 139.238C93.5448 141.476 96.2072 146.409 99.1925 149.174C101.048 150.892 104.743 152.012 107.483 151.685C108.955 151.509 109.126 148.809 107.699 148.263C102.844 146.407 101.75 145.52 99.0756 141.277C97.3589 138.553 96.0515 137.146 95.1585 137.057ZM248.687 138.426C249.054 138.397 249.397 138.513 249.539 138.74C249.728 139.041 249.333 139.181 248.662 139.05C247.919 138.906 247.785 138.691 248.318 138.501C248.438 138.459 248.565 138.434 248.687 138.425V138.426ZM29.9932 143.262C27.7139 151.64 27.5952 160.427 28.9393 181.25C29.5669 190.979 29.9197 195.475 30.3447 197.821C23.9507 191.479 13.9873 184.614 9.67563 179.02C6.72714 175.191 3.32052 174.399 8.19824 167.273C11.4495 162.524 22.749 150.696 29.9932 143.262ZM222.328 144.512C222.069 144.533 221.799 144.652 221.526 144.882C220.477 145.766 219.693 150.482 220.406 151.619C221.602 153.525 223.858 151.63 224.129 148.494C224.332 146.141 223.446 144.418 222.328 144.512ZM231.636 144.924C231.304 144.93 230.929 145.148 230.523 145.686C229.384 147.194 228.743 150.996 229.459 152.101C229.801 152.629 230.75 153.667 232.322 152.269C233.55 151.177 233.99 148.853 232.93 146.238C232.637 145.514 232.192 144.918 231.636 144.924ZM232.973 161.334C232.147 161.244 230.622 162.179 227.883 164.211C225.35 166.09 222.512 167.762 221.577 167.926C219.62 168.269 219.618 169.779 221.577 171.403H221.572C225.218 174.427 234.022 168.677 233.871 163.37C233.836 162.094 233.615 161.404 232.973 161.334ZM107.276 170.881C104.509 170.944 102.909 171.447 99.1485 172.988C83.7619 179.293 77.6234 191.797 77.6755 216.73C77.6928 224.532 77.9099 227.352 78.6412 229.226C79.1608 230.556 79.5203 231.712 79.4392 231.793C79.3585 231.874 77.4957 232.673 75.3001 233.567C73.105 234.461 69.7593 236.191 67.8674 237.411C65.9751 238.632 64.3536 239.526 64.262 239.398C64.1705 239.269 63.6533 236.504 63.1133 233.253C59.1117 209.169 58.1026 202.134 57.7934 196.176C57.75 190.81 56.0411 190.499 59.4029 187.849C62.321 185.55 71.3008 182.144 78.0058 180.793C85.9756 179.187 86.5195 179.023 86.5195 178.224C86.5195 175.801 73.4555 176.463 65.9902 179.265C58.2624 182.164 54.7606 184.53 53.7864 187.509C52.1495 192.514 52.9626 203.609 56.8124 228.82C57.9297 236.135 59.1942 242.813 59.6215 243.66C60.3215 245.047 60.1462 245.664 57.8527 249.875C55.4737 254.243 52.9783 261.214 52.9783 263.496C52.9783 264.047 53.3448 264.677 53.7915 264.896C54.3263 265.158 55.4562 263.606 57.0987 260.357C58.4719 257.641 61.5557 252.926 63.9503 249.878C68.3839 244.235 70.334 242.871 77.8449 240.166C81.3629 238.899 94.6168 238.916 98.6639 240.194C108.276 243.228 115.088 251.59 119.815 266.162C121.013 269.854 122.526 273.352 123.18 273.937C123.833 274.522 124.7 275 125.106 275C126.242 275 128.158 272.22 128.158 270.572C128.158 267.046 123.971 255.92 120.276 249.629C112.135 235.77 104.772 231.446 89.2676 231.418L81.8942 231.407L81.801 229.006C81.2861 215.618 82.9002 200.667 85.5893 193.887C91.1029 179.984 107.619 173.192 118.272 180.446C125.736 185.529 128.857 191.625 133.388 209.979C134.742 215.466 136.487 221.587 137.266 223.582C140.187 231.069 147.364 237.621 153.695 238.579C156.49 239.002 155.831 237.246 155.301 236.45C154.576 235.035 152.353 232.407 150.359 230.61C148.366 228.813 145.823 225.908 144.709 224.153C142.54 220.738 142.217 219.739 138.696 205.546C137.436 200.466 135.555 194.023 134.518 191.228C131.879 184.12 126.891 177.807 120.964 174.077C116.695 171.391 115.961 171.169 110.554 170.943C109.25 170.888 108.198 170.861 107.276 170.882V170.881ZM87.248 244.663C86.8832 244.605 86.4397 245.757 85.9926 248.421C84.8514 255.22 84.5544 262.302 85.3589 263.54C86.736 265.66 87.5244 263.417 87.9494 256.174C88.3528 249.304 87.9459 244.775 87.248 244.663ZM75.3713 247.21C75.3231 247.203 75.2758 247.203 75.2307 247.21C75.1101 247.231 75.0009 247.304 74.902 247.43C74.2535 248.258 78.4479 262.617 79.9729 264.788C81.1049 266.399 82.4719 265.707 82.4719 263.522C82.4719 261.635 78.4598 251.273 76.6403 248.464C76.1302 247.676 75.7109 247.26 75.3713 247.209V247.21ZM99.2637 247.661C98.957 247.661 98.3924 248.41 98.0116 249.324C97.6304 250.238 95.9306 253.712 94.2334 257.043C91.3391 262.723 90.6194 265.213 91.5328 266.38C92.8856 268.108 94.899 265.017 98.1624 256.203C99.8075 251.761 100.336 247.661 99.2637 247.661ZM65.204 252.794C64.7664 252.81 64.545 253.277 64.545 254.199C64.545 255.614 71.4187 266.425 72.752 267.107C73.9647 267.728 74.1965 267.67 74.9121 266.568C75.4586 265.727 74.7316 264.299 71.1577 259.18C68.1714 254.904 66.1661 252.759 65.204 252.794ZM109.095 254.932C108.49 254.859 107.02 256.172 104.441 259.072C99.816 264.272 98.9782 265.659 99.467 267.287C100.039 269.19 101.569 268.419 104.679 264.661C108.209 260.395 110.219 256.217 109.304 255.048C109.252 254.981 109.182 254.942 109.095 254.932ZM114.134 263.933C112.922 263.96 108.834 266.564 108.013 267.831C107.588 268.488 107.408 269.372 107.613 269.796C108.267 271.147 109.987 270.632 112.457 268.345C114.764 266.21 115.643 263.899 114.134 263.933Z" fill="#48792D"/>
<g clip-path="url(#clip1_272_61)">
<path d="M135.12 253.209C141.502 260 139.127 272.004 129.825 268.367C120.523 264.73 87.645 228.158 87.645 228.158C87.645 228.158 65.4774 256.033 40.9127 235.89C19.8844 218.646 25.3517 185.686 33.293 174.292C41.2343 162.899 68.3979 151.785 85.1711 168.723C101.944 185.661 93.9783 215.849 93.9783 215.849L135.12 253.209Z" fill="white"/>
<path d="M62.593 157.496C42.6646 157.752 21.8622 173.964 24.3679 206.644C31.3346 250.936 66.2182 252.509 88.9169 231.659C91.7074 235.108 96.0717 239.385 98.3684 241.609C106.414 249.548 122.255 267.461 127.708 269.702C132.021 273.672 136.696 271.466 139.19 266.225C146.835 257.393 137.663 250.706 133.191 247.473C123.221 239.948 108.837 224.437 97.4356 215.275C96.1125 213.95 96.112 213.95 96.7345 210.681C97.6938 205.642 97.3367 190.895 96.1276 185.617C93.0636 166.75 78.0928 157.297 62.593 157.496ZM61.1476 162.616C74.7307 162.376 88.5002 171.564 92.6175 192.133C94.0822 203.599 94.2997 218.646 82.857 228.428C63.1302 248.54 30.5464 239.61 29.2783 203.072C29.1741 194.723 29.729 190.647 31.5158 186.63C35.7924 171.387 48.3877 162.842 61.1476 162.616ZM60.4393 168.193C54.6634 168.233 48.7447 170.549 43.3757 176.017C39.5888 179.882 38.1733 182.519 35.6531 190.406C33.4554 197.293 32.1768 206.669 35.0063 215.902C38.6306 226.335 46.9873 232.294 58.1291 232.393C78.2168 231.351 88.2243 219.82 90.0069 200.165C90.0069 197.068 88.8146 189.8 88.185 189.059C83.4952 177.569 72.266 168.11 60.4393 168.193ZM60.9034 173.785C70.2471 173.693 79.713 179.965 83.0593 191.863C87.2057 205.901 80.7104 221.652 64.534 225.463C54.1976 227.532 42.2261 223.829 38.866 209.551C37.7931 200.713 39.1842 192.629 43.0693 184.44C47.3318 177.309 54.085 173.852 60.9034 173.785ZM43.3554 200.245C43.0372 200.256 42.7438 200.93 42.42 202.546C41.8594 205.344 41.6805 207.434 43.2408 211.294C45.1764 216.083 51.1549 223.239 60.0517 220.479C62.4526 219.734 62.6652 214.313 55.9452 214.826C47.0043 215.509 44.8887 200.189 43.3554 200.245ZM94.207 221.333C94.5174 221.298 94.9266 221.64 95.7447 222.323C100.923 226.772 123.675 245.497 133.204 254.393C137.238 258.158 139.702 261.409 133.095 265.195C121.138 261.094 109.421 245.049 95.0501 229.791C91.5598 225.875 91.5672 225.906 93.261 222.607C93.6847 221.782 93.8966 221.369 94.207 221.333Z" fill="#48792D"/>
</g>
</g>
<defs>
<clipPath id="clip0_272_61">
<rect width="307" height="275" fill="white"/>
</clipPath>
<clipPath id="clip1_272_61">
<rect width="117.968" height="114.243" fill="white" transform="translate(24.162 157.493)"/>
</clipPath>
</defs>
</svg>
