<svg width="432" height="337" viewBox="0 0 432 337" fill="none" xmlns="http://www.w3.org/2000/svg">
<g clip-path="url(#clip0_189_649)">
<path d="M315.448 4.65442C311.45 4.65434 307.492 5.60099 303.799 7.4403C300.106 9.2796 296.75 11.9755 293.924 15.3742C291.097 18.7729 288.857 22.8077 287.327 27.2483C285.797 31.6889 285.01 36.4483 285.01 41.2548C285.01 46.0614 285.798 50.821 287.327 55.2618C288.857 59.7025 291.097 63.7375 293.924 67.1363C296.75 70.5351 300.106 73.2312 303.799 75.0706C307.492 76.91 311.45 77.8567 315.448 77.8566C319.445 77.8566 323.403 76.9098 327.096 75.0704C330.789 73.231 334.145 70.5349 336.971 67.1361C339.798 63.7373 342.038 59.7023 343.568 55.2616C345.098 50.8209 345.886 46.0614 345.885 41.2548C345.885 31.5478 342.679 22.2384 336.971 15.3745C331.263 8.51058 323.52 4.65446 315.448 4.65442ZM163.781 23.4905C161.251 23.5391 158.721 24.0178 156.249 24.9654C139.84 28.6514 129.89 55.9873 140.133 71.9183C146.298 92.0746 166.694 104.559 181.759 98.7831C196.826 93.0075 200.855 71.1603 194.691 51.0038C189.682 34.6267 177.381 23.8596 164.863 23.4958C164.502 23.4853 164.142 23.4836 163.781 23.4905ZM64.5985 39.7547L50.2939 44.4687L38.0301 70.8267L21.3497 75.6083L21.3247 89.1243L31.0101 98.2843L33.9712 108.387L42.4908 118.244L39.5523 92.0437C39.5523 92.0437 47.9149 86.1839 49.9101 84.702C51.9052 83.2203 59.216 71.9045 60.7851 70.5574C62.3543 69.2104 85.0219 63.0355 85.0219 63.0355L100.359 81.3119L103.024 100.956L104.729 107.13L114.392 97.9926L108.317 85.8919L114.618 71.4329L109.013 51.2492C109.013 51.2492 93.4517 43.8638 89.9093 43.8638C86.367 43.8638 80.8974 48.5102 80.8974 48.5102L64.5985 39.7547ZM247.575 56.137C245.832 56.1472 244.066 56.3001 242.289 56.6038C217.713 59.9839 214.292 76.4466 213.081 99.5431C214.288 108.253 221.934 123.866 228.044 129.649C226.369 132.957 223.827 136.837 221.35 140.357C218.06 136.612 208.166 126.184 196.259 121.905C181.658 116.657 127.989 124.961 123.411 126.388C118.832 127.814 112.368 149.567 112.368 149.567C112.368 149.567 77.4197 150.79 66.7871 153.083C56.1546 155.375 46.2851 172.695 44.708 182.273C43.1315 191.85 46.5389 273.361 47.3531 277.284C47.5564 293.993 60.8858 318.65 76.0458 322.776C91.2064 326.902 138.314 334.443 177.945 332.201C217.575 329.96 235.024 310.652 228.869 299.902C222.713 289.153 203.379 281.359 198.343 274.023C198.343 274.023 205.924 272.006 215.437 267.757C229.263 288.842 251.99 291.374 276.937 289.135C276.901 289.525 276.852 289.961 276.82 290.306C272.833 317.757 349.121 314.793 350.117 305.11C350.667 299.767 351.684 290.688 352.301 281.928C352.667 281.993 384.992 287.624 395.682 267.146C404.636 249.994 402.803 202.498 401.938 185.483C401.073 168.467 390.545 157.209 381.184 154.611C376.329 153.263 369.508 151.588 363.981 150.264C363.607 148.588 363.136 147.07 362.569 145.846C360.569 141.523 355.485 139.43 350.513 138.909C348.952 135.762 347.055 132.12 344.972 128.49C347.749 129.884 350.975 130.88 354.635 131.534C381.691 128.958 387.252 109.472 389.781 95.6807C392.311 81.8896 386.066 56.7327 364.891 56.5162C343.716 56.2997 335.057 80.0071 333.188 99.9901C332.732 104.865 332.856 109.07 333.524 112.688C331.115 110.468 328.778 109.221 326.696 109.576C316.292 111.352 297.361 108.726 284.023 113.445C282.968 105.399 282.351 96.8619 281.732 87.7714C279.164 69.2328 264.423 56.0369 247.575 56.137ZM84.507 65.484C84.507 65.484 63.0058 70.7374 61.436 72.4436C59.8668 74.1499 51.7279 87.6652 51.7279 87.6652C51.7279 87.6652 43.9034 90.7855 43.5445 94.2879C43.1863 97.7903 46.3686 118.086 56.9956 126.438C67.6233 134.79 71.5231 135.553 78.6969 133.375C85.8713 131.198 93.1389 130.907 98.5422 106.996C98.5422 106.996 102.197 90.853 100.044 85.1504C97.8915 79.4478 84.507 65.484 84.507 65.484Z" fill="#9AC9E4"/>
<path d="M314.638 3.1657e-05C311.334 -0.00675947 297.509 7.22206 291.946 11.8633C286.748 16.1988 281.555 26.0102 280.075 34.2913C279.04 40.0899 278.359 41.6654 276.552 42.43C273.282 43.8133 273.615 47.619 277.126 48.981C279.187 49.7805 280.11 51.0006 280.564 53.5266C280.906 55.4258 282.429 59.6745 283.949 62.9665C285.47 66.2584 287.001 70.6206 287.352 72.6611C288.674 80.3557 296.469 87.7511 306.296 90.631C306.8 90.781 307.248 90.8998 307.724 91.0343C306.32 94.9849 307.52 97.1345 311.944 98.7127C315.709 100.056 316.141 100.002 321.33 97.5442C326.517 95.087 329.407 94.8964 329.407 97.0096C329.407 97.5446 328.17 98.6569 326.658 99.482C325.146 100.307 323.909 101.389 323.909 101.887C323.909 102.384 321.829 103.843 319.287 105.127C318.807 105.369 318.358 105.619 317.928 105.875C309.849 104.716 294.355 103.262 286.35 107.605C284.334 84.1631 282.995 78.2099 278.876 71.6544C270.829 58.8442 260.583 52.2377 249.077 52.3408H249.065C247.421 52.3557 245.75 52.507 244.059 52.7971C231.45 54.9588 227.402 57.6261 220.153 68.54C212.547 79.9927 209.06 91.0477 209.728 101.588C209.98 105.562 210.727 109.75 210.727 109.75C206.329 110.854 205.259 117.497 213.421 116.657C213.421 116.657 216.279 120.448 218.656 123.783L222.976 129.847L220.78 133.645C220.569 134.009 220.293 134.534 219.994 135.122C218.263 132.11 212.516 123.916 199.526 120.109C191.22 117.674 183.965 117.505 178.873 117.906C178.885 117.667 178.908 117.409 178.951 117.115C179.439 113.762 176.764 112.45 168.096 111.795C161.616 111.305 161.545 111.271 161.91 108.763C162.39 105.464 161.06 103.203 158.696 102.013C158.795 101.255 158.784 100.387 158.624 99.3813C161.816 101.156 165.207 102.416 168.738 103.014C175.178 103.949 179.883 103.618 186.042 100.684C186.334 103.083 187.134 103.934 189.313 105.522C190.81 107.682 194.677 107.896 196.343 107.279C197.783 106.745 198.727 107.013 198.727 107.955C198.727 110.821 203.746 108.686 206.247 104.758C208.576 101.096 206.439 97.7272 204.497 96.0666C203.366 95.0993 202.442 93.3178 202.442 92.1073C202.442 89.9145 203.074 83.9842 201.307 84.6716C203.365 81.5758 202.105 79.8898 200.561 78.7227C200.64 78.2981 200.707 77.8683 200.768 77.4334C200.999 75.615 201.362 74.1649 201.641 73.9384C202.607 73.2429 206.153 73.6037 207.599 72.8734C210.371 70.8512 207.781 68.0635 205.83 67.9644C199.565 68.3158 202.215 66.5923 200.687 60.835C200.638 60.6729 200.595 60.5175 200.558 60.3681V60.2885C203.204 49.4443 204.284 45.407 200.182 36.1283C203.022 29.9335 194.426 22.9877 189.172 22.9877C187.702 22.9877 185.569 21.7879 184.432 20.3217C183.296 18.8555 180.901 17.2805 179.111 16.8214C177.32 16.3623 174.639 14.4755 173.153 12.6286C171.4 10.4497 169.361 9.36676 167.319 9.37898H167.314C165.273 9.39189 163.227 10.5 161.457 12.7002C159.485 15.1503 157.465 16.1289 154.383 16.1289C151.637 16.1289 149.333 17.0766 148.046 18.7367C146.934 20.171 144.295 21.7233 142.179 22.1866C133.233 27.7938 134.171 30.489 134.814 38.7665C134.729 41.1227 135.519 42.2216 136.19 42.7324C136.135 42.9193 136.08 43.1072 136.026 43.2988C132.714 44.1647 129.315 49.2289 132.614 54.5863C132.209 54.7029 131.754 54.7811 131.388 54.776C127.409 57.1928 132.234 57.9024 133.298 58.8534C133.316 58.9152 133.33 58.9777 133.348 59.0404C132.919 60.3754 132.17 61.5542 131.799 61.9876C130.83 63.1178 131.14 63.9984 132.974 65.3355C136.472 67.8857 136.348 74.3961 132.771 75.9837C129.242 77.5499 127 80.8057 127.326 83.8969C127.469 85.2623 127.277 88.2537 123.302 91.2266C122.235 94.0318 123.712 97.55 123.712 98.7366C123.712 99.923 122.599 102.65 121.239 104.797C118.337 109.379 119.05 114.045 122.932 115.875C123.245 116.022 123.622 116.147 124.038 116.254C123.511 116.855 123.117 117.194 122.939 117.162C120.116 116.653 114.794 119.731 112.008 123.482C109.368 127.036 108.7 128.916 107.855 135.157C107.3 139.248 107.21 145.914 107.655 149.968C108.407 156.835 108.294 157.831 106.01 164.514C103.672 171.351 103.628 171.832 105.023 174.752C106.082 176.969 107.274 177.918 109.338 178.183C111.213 178.424 112.289 179.167 112.48 180.353C112.641 181.346 113.078 184.296 113.453 186.911C114.711 195.681 118.771 199.06 123.323 195.127L125.524 193.226L128.42 196.63C135.513 204.954 142.78 207.877 150.542 205.528C152.932 204.805 156.32 203.427 158.071 202.466C162.634 199.961 169.555 190.995 172.734 183.47C174.567 179.131 176.036 176.945 177.199 176.821C179.948 176.529 180.956 173.509 179.082 171.178C177.752 169.523 177.59 167.467 178.229 160.231C179.077 150.613 178.259 144.809 175.265 139.242C174.22 137.297 173.419 135.331 173.485 134.875C173.551 134.419 175.759 134.202 178.391 134.391C184.177 134.809 188.287 132.218 188.938 127.742C189.108 126.58 189.08 125.756 188.743 125.026C198.532 126.656 211.981 130.22 215.833 136.605C216.668 137.989 217.354 138.899 217.922 139.465C216.837 141.846 215.678 144.527 214.737 146.91C212.541 152.465 211.264 154.066 212.779 161.533C213.505 165.11 214.397 168.552 215.445 171.846C215.237 172.658 215.03 173.526 214.827 174.507C213.12 182.758 212.144 239.382 213.673 241.432C215.034 243.257 216.679 242.26 217.838 238.91C218.71 236.387 219.569 202.656 219.595 182.397C225.398 194.534 233.864 203.821 244.779 209.156C252.169 212.768 266.342 211.12 272.847 205.893C274.128 204.863 275.713 203.18 277.214 201.328C278.124 201.965 279.39 202.211 280.547 201.74C280.547 201.74 281.423 203.032 283.454 207.412C286.877 214.796 290.793 219.663 296.249 222.958C296.163 224.093 296.069 225.21 295.965 226.296C295.553 230.598 295.324 233.584 295.264 235.851C292.25 236.916 290.114 238.174 288.246 239.839C283.932 243.686 281.042 249.297 278.259 259.229C275.448 269.255 275.55 272.903 278.657 273.284C281.27 273.605 281.869 272.389 284.014 262.4C286.975 248.606 290.254 244.551 300.021 242.608C316.802 239.269 328.398 240.57 337.432 246.803C340.487 248.911 343.826 251.877 344.851 253.395C347.191 256.858 348.234 265.97 347.34 275.165C346.939 279.303 347.055 282.783 347.617 283.565C349.108 285.634 351.552 285.49 353.339 283.23C356.896 278.722 356.748 258.922 353.098 251.234C349.014 242.634 337.707 234.899 326.041 232.726C319.814 231.566 316.732 231.577 309.042 232.788C306.426 233.2 304.191 233.606 302.178 234.022C302.657 231.902 303.109 229.363 303.59 226.22C304.227 226.423 304.882 226.616 305.554 226.798C322.197 231.324 338.173 224.596 346.391 209.598C350.786 201.578 352.265 188.963 350.22 176.933C349.861 174.823 350.108 174.723 354.061 175.376C357.983 176.023 358.561 175.799 362.091 172.247C366.723 167.583 367.799 164.179 366.723 157.56C366.512 156.258 366.211 154.978 365.843 153.726C372.583 154.382 379.722 156.7 386.552 160.72C392.074 163.972 395.429 168.538 397.216 175.232C398.961 181.77 398.937 231.818 397.18 246.716C396.25 254.609 396.159 257.794 396.827 259.184C398.025 261.674 400.98 261.147 402.22 258.223C405.049 251.548 405.888 242.381 406.328 213.288C406.81 181.381 406.329 175.255 402.711 167.026C400.34 161.639 394.611 155.187 389.796 152.482C384.622 149.576 374.854 146.174 368.146 144.943C365.461 144.45 363.629 144.214 361.681 144.257C361.565 144.257 361.443 144.271 361.325 144.276C359.084 141.062 356.366 138.471 353.494 136.841C360.733 137.163 367.971 134.827 374.388 130.31C375.656 129.136 376.243 129.368 378.97 132.122C380.689 133.858 383.23 135.81 384.616 136.46C386.002 137.111 387.136 138.18 387.136 138.836C387.136 139.492 388.27 141.021 389.656 142.233C391.611 143.873 395.294 145.018 397.557 140.799C398.109 138.753 398.082 136.865 397.483 135.48C396.971 134.299 395.879 131.687 395.053 129.676C394.229 127.665 392.935 125.769 392.178 125.462C391.421 125.156 390.802 124.442 390.802 123.876C390.802 123.31 390.12 122.05 389.286 121.077C386.45 117.769 390.722 119.587 395.687 123.8C397.031 124.941 398.134 126.558 398.134 127.393C398.134 128.229 399.059 129.428 400.193 130.058C402.78 131.496 403.599 132.775 403.617 135.409C403.629 137.29 409.131 143.488 410.788 143.488C411.162 143.488 412.386 142.81 413.506 141.982C415.592 140.44 416.296 136.028 414.739 134.252C414.296 133.747 413.472 131.806 412.908 129.94C412.344 128.074 410.85 125.374 409.589 123.938C408.328 122.502 407.296 120.429 407.296 119.33C407.296 118.096 406.346 116.88 404.814 116.145C403.449 115.492 401.089 113.76 399.571 112.298C398.05 110.835 396.486 109.637 396.095 109.637C394.822 109.637 395.345 105.724 396.691 105.179C398.711 104.361 406.088 108.217 407.358 110.755C408.638 113.315 411.06 115.805 415.626 119.249C417.344 120.546 419.29 122.396 419.948 123.36C421.619 125.805 423.479 125.545 425.3 122.613C426.597 120.523 426.677 119.599 425.78 116.982C425.19 115.261 424.707 112.97 424.707 111.893C424.707 110.816 423.347 108.454 421.684 106.643C420.02 104.833 418.38 102.579 418.038 101.636C417.697 100.693 416.719 99.6386 415.864 99.2923C415.01 98.9461 413.615 97.9768 412.765 97.1383C411.915 96.2998 409.717 94.3979 407.882 92.9124C405.905 91.3121 404.547 89.3797 404.547 88.1692C404.547 86.2927 404.679 86.2496 406.151 87.6373C407.211 88.635 410.125 89.2759 414.736 89.5261C419.726 89.7968 422.165 90.3748 423.279 91.5501C425.083 93.4548 429.338 93.7248 430.939 92.0356C432.475 90.4144 432.312 85.9344 430.665 84.4911C429.908 83.8289 429.289 82.5385 429.289 81.6221C429.289 78.4283 426.271 76.8285 419.357 76.359C410.701 75.7713 403.028 73.9418 399.128 71.5362C395.183 69.1031 396.999 68.3281 401.848 70.3756C406.705 72.4268 408.86 72.321 410.052 69.9711C411.379 67.3529 410.293 61.815 408.025 59.6505C406.554 58.2461 404.638 57.8943 398.451 57.8943H390.714L388.998 53.8488C387.961 51.4046 386.182 49.2023 384.506 48.2873C380.765 46.2455 369.992 46.2892 365.076 48.3655C361.346 49.9405 361.282 49.9314 359.33 47.5617C356.376 43.9766 353.333 42.9415 349.546 44.2338C349.319 44.311 349.119 44.3923 348.916 44.4739C348.928 43.6266 348.933 42.7787 348.933 41.8025C348.963 30.8991 348.736 29.3755 346.341 24.3273C340.311 11.6114 325.206 0.0205466 314.635 -3.05176e-05L314.638 3.1657e-05ZM321.58 7.55652C323.039 7.46987 323.899 8.59082 327.609 11.4349C334.184 16.4734 339.174 23.0473 341.149 29.2749C342.929 34.8831 343.03 44.5192 341.463 51.606C341.415 51.6062 341.381 51.606 341.332 51.606C339.149 51.606 337.707 52.2125 335.639 54.1354C335.433 53.7986 335.233 53.4877 335.024 53.1326C333.258 50.1274 329.81 46.2583 327.359 44.5284C322.256 40.9272 313.151 39.1055 310.268 41.1089C309.291 41.7874 307.244 42.3438 305.719 42.3438C302.237 42.3438 294.016 48.3097 291.962 52.3275C290.16 55.8531 288.761 55.7526 287.909 52.0357C287.458 50.0672 287.897 48.851 289.652 47.2236C292.44 44.6352 291.875 41.7656 288.389 40.7919C285.718 40.0461 285.597 39.2133 287.056 31.6437C288.4 24.6718 292.713 17.1932 297.713 13.1632C301.278 10.2899 302.055 10.0688 305.206 11.037C308.045 11.9092 310.024 11.6529 315.467 9.7053C318.951 8.4194 320.445 7.62124 321.58 7.55387V7.55652ZM167.927 14.0717C169.112 14.0717 170.302 14.8422 170.571 15.7855C170.881 16.8713 169.912 17.5005 167.927 17.5005C165.943 17.5005 164.971 16.8713 165.281 15.7855C165.55 14.8422 166.743 14.0717 167.927 14.0717ZM154.481 18.8733C155.089 18.8733 155.589 19.4903 155.589 20.2448C155.589 20.9991 154.763 21.6162 153.756 21.6162C152.748 21.6162 152.251 20.9991 152.65 20.2448C153.05 19.4903 153.873 18.8733 154.481 18.8733ZM143.91 25.5941C144.31 25.5791 144.577 25.7356 144.577 26.1353C144.928 26.5445 144.111 27.5677 142.763 28.41C141.064 29.4715 140.31 29.4923 140.31 28.4779C140.31 27.2308 142.711 25.6375 143.91 25.593V25.5941ZM319.315 25.6206C319.093 25.6294 318.861 25.6593 318.617 25.7068C315.974 26.2189 315.745 29.4657 316.604 31.958C317.005 33.1204 318.061 33.6817 319.442 33.4635C321.142 33.1948 321.713 32.2941 321.954 29.5003C321.874 26.5112 320.873 25.5585 319.315 25.6206ZM303.611 27.2587C303.41 27.2519 303.202 27.2722 302.984 27.3184C300.817 27.7783 300.007 32.0178 301.663 34.2382C302.513 35.3776 303.304 35.4954 304.667 34.6839C307.683 32.8873 306.628 27.3358 303.611 27.2587ZM171.067 29.3995C173.369 29.4402 175.6 29.8091 177.445 30.5096C181.103 31.8989 183.511 35.8739 185.906 38.3831C187.215 39.7521 188.353 41.6042 189.963 44.9965C191.991 49.2675 192.49 50.6947 191.954 50.6947C187.823 42.3124 181.776 41.3752 176.462 44.8811C176.112 45.1456 175.6 45.4906 175.327 45.6477C173.693 47.3985 172.233 51.2814 171.777 53.7347C171.716 54.0794 171.537 54.4468 171.377 54.5505C170.993 54.7996 170.963 54.7956 170.545 54.4696C169.947 52.0748 169.293 48.7152 168.02 47.2262C163.058 39.9924 154.465 39.1011 149.009 48.1653C147.987 49.1365 147.393 52.2472 147.393 53.2109C147.393 54.5353 146.373 54.9255 143.81 54.5823C143.514 54.5314 143.182 54.4997 142.842 54.4722C144.676 43.8635 145.438 41.1362 153.058 34.1479C154.453 32.868 159.024 32.8563 160.465 31.905C163.203 30.1742 167.231 29.3319 171.067 29.3995ZM62.954 36.6787C61.6052 36.6651 60.2505 36.8449 58.851 37.2053C53.9043 38.4783 47.8182 42.5618 44.9863 46.5059C43.9194 47.9917 41.9071 52.5264 40.5137 56.5825C36.7773 67.4631 35.9344 68.4706 30.063 69.0891C21.743 69.9655 16.5283 76.0612 17.4749 83.8027C18.2928 90.4928 19.3978 92.4187 24.4818 96.0188C29.5134 99.5812 29.6596 99.8072 30.5684 105.432C31.6298 112.001 35.6196 118.663 39.845 120.922C42.8197 122.512 43.0033 123.007 41.552 125.544C38.6212 130.669 45.0313 137.434 50.0286 134.489C52.3027 133.149 53.2094 133.371 58.5351 136.572C68.528 142.578 78.6721 143.424 86.7486 138.924C91.1167 136.49 93.9911 133.686 95.9893 129.915C96.9079 128.181 98.5257 126.55 99.5822 126.288C102.084 125.67 103.304 123.441 102.727 120.55C102.372 118.772 102.769 118.112 104.46 117.695C107.872 116.851 109.204 113.671 107.741 109.862C106.522 106.692 106.555 106.623 109.746 105.834C112.031 105.269 113.527 104.092 114.807 101.854C116.462 98.9604 116.476 98.1767 114.96 93.11C114.043 90.0489 112.828 86.607 112.258 85.462C111.458 83.8546 111.798 82.4368 113.748 79.2373C120.803 67.6648 116.11 50.539 104.21 44.4195C96.3792 40.3927 86.3377 40.3786 83.0389 44.3903C81.4685 46.2995 81.1172 46.1958 76.0368 42.3277C71.0016 38.4939 67.0011 36.7186 62.954 36.6787ZM63.8779 42.9751C64.4858 42.9982 65.1238 43.0886 65.8519 43.2337C71.0788 44.2744 80.0541 50.9782 81.4988 54.9205C83.9541 61.6181 83.8881 61.6947 73.0114 64.6987C61.6031 67.8495 57.3746 70.5094 52.4449 77.635C47.992 84.0713 47.622 84.41 43.3699 85.9501C41.0439 86.7927 39.0867 88.3391 38.0497 90.1521C36.5666 92.7457 36.5884 93.9647 38.2858 102.889L40.1644 112.759L37.6635 109.406C35.7721 106.871 35.0919 104.952 34.8777 101.538C34.6067 97.2234 34.3609 96.845 29.3525 93.0318C24.9649 89.6911 23.9605 88.3725 23.1896 84.9407C21.8518 78.9862 23.5152 77.2608 31.7247 76.0871C37.5131 75.2596 38.452 74.8432 40.8177 72.0496C42.269 70.3361 44.622 65.5598 46.0484 61.4344C49.639 51.0446 51.9574 47.7198 57.5767 44.9023C60.4971 43.438 62.0536 42.9051 63.8779 42.9751ZM158.586 45.7539C161.245 45.796 164.187 47.7036 165.803 51.6603C166.328 52.6111 166.393 52.8982 166.454 54.402C166.551 56.8663 165.751 59.3174 164.458 60.5193C163.037 61.9944 160.499 63.4694 158.679 63.3856C157.961 63.3285 157.063 63.1332 156.681 62.9532C155.502 62.3974 153.248 60.6342 152.454 59.6478C149.694 55.6993 151.561 51.9004 153.84 48.5672C154.853 46.6847 156.645 45.7229 158.586 45.7539ZM309.86 45.9727C310.981 46.0777 312.219 47.09 315.398 48.5061C320.276 50.9605 325.378 52.2121 327.927 56.5016C329.44 59.7734 329.541 62.201 328.031 64.1562C327.849 64.1718 327.662 64.1813 327.471 64.1813C325.834 64.1813 324.407 64.911 323.695 66.1151C323.065 67.179 321.851 68.0491 320.994 68.0491C320.364 68.0491 319.641 68.3445 319.141 68.764C314.389 70.0899 310.53 70.082 306.122 68.7999C301.382 67.4213 295.782 62.7329 295.782 60.1439C295.782 58.07 300.44 52.3916 305.018 48.8869C307.734 46.6701 308.739 45.8677 309.86 45.9727ZM89.2471 46.9635C93.3577 46.8678 100.248 48.3651 103.225 50.2463C107.601 53.0115 110.4 58.1204 111.386 65.1404C112.295 71.6139 112.236 71.8752 108.709 77.1748C105.429 82.1014 105.184 82.9823 105.972 86.921C106.565 89.8911 107.74 92.1556 109.71 94.1287C112.707 97.2726 113.306 95.9913 110.888 99.3785C108.901 101.034 104.684 104.17 104.946 100.954C105.521 96.7727 104.782 87.314 103.602 83.7377C102.915 81.6565 100.459 77.9909 98.1422 75.591C90.8408 68.0283 86.6431 61.1116 85.268 54.374L84.0355 48.3456L86.9298 47.2991C87.4998 47.0925 88.2986 46.9856 89.2471 46.9635ZM181.648 47.2633C182.266 47.2633 182.894 47.419 183.538 47.7634C184.955 48.5166 187.434 50.7207 188.521 52.0953C190.409 54.4834 190.605 58.972 190.025 60.9304C189.328 63.0509 189.195 63.2589 187.939 64.1708C182.974 67.471 178.285 65.7147 175.625 59.8242C174.421 55.9143 174.784 52.7309 177.132 49.6959C178.566 48.2658 180.068 47.2599 181.648 47.2633ZM161.116 51.4215C160.124 51.4283 158.465 51.9791 158.214 53.2718C157.883 55.3522 157.986 58.2484 158.701 59.1371C159.765 59.9182 161.231 60.9326 162.027 59.7592C162.989 58.3233 163.25 57.0826 163.085 54.7296C163.019 53.7924 162.819 51.5127 161.116 51.4215ZM179.371 52.4481C178.076 52.5305 176.733 53.6502 176.56 56.0997C176.603 58.3888 177.154 59.8636 178.527 60.0922C179.046 60.1786 180.314 59.7362 180.985 58.9302C181.886 57.8461 181.856 56.6315 181.886 55.024C181.91 53.3214 180.665 52.3658 179.371 52.4481ZM322.555 55.3583C321.044 55.3264 319.102 55.7065 317.005 56.3624C312.632 57.7472 306.922 57.5586 301.88 55.8623C299.154 54.945 298.874 57.3788 301.425 59.8097C306.955 65.0787 314.895 66.0155 321.609 62.1905C324.383 60.6099 325.623 59.3212 325.69 57.8161C325.733 56.1217 324.498 55.3992 322.555 55.3583ZM170.409 58.1769C170.517 58.1769 170.638 58.1857 170.776 58.2115C171.915 58.5521 172.195 63.864 174.081 65.3687C178.903 70.9434 184.911 72.6497 191.325 66.8967C192.191 66.0225 193.287 62.2078 193.828 60.3643C194.029 59.6804 194.285 59.0858 194.4 59.0432C194.657 58.9479 195.075 60.0127 195.48 61.8007C195.859 63.4715 196.279 66.6664 196.126 67.3464L196.012 67.8504L194.24 67.7947C190.664 67.0097 190.062 72.468 193.389 72.701C194.231 72.7289 195.084 72.9848 195.907 73.2276L195.876 74.7569C195.845 76.2491 195.729 76.8699 194.846 80.2456C194.358 82.11 190.726 86.9209 189.763 88.123C180.49 99.5557 167.034 99.5207 155.079 90.4322C145.44 82.9095 141.487 70.521 141.623 58.9663C143.473 59.0158 145.47 58.6772 146.787 59.4663C147.025 59.6395 147.219 59.8634 147.219 59.9637C149.283 63.9795 154.853 69.0799 159.528 68.2006C161.642 67.8641 163.511 67.0249 165.231 65.7414C166.683 64.6435 168.752 60.8998 169.308 59.518C169.712 58.5138 169.94 58.1896 170.409 58.1769ZM250.562 59.1239C253.285 59.1334 255.84 59.6437 258.049 60.689C270.309 66.4902 279.367 81.9825 278.099 94.9789C277.808 97.9552 275.948 99.4822 275.607 97.0242C275.133 93.5981 268.573 84.9029 263 80.3156C253.878 72.8062 242.591 69.3969 230.376 70.4592L225.751 70.8611L232.088 65.9256C237.775 61.4986 244.573 59.1022 250.562 59.1239ZM363.354 62.2462C364.224 62.2462 365.67 63.4442 366.57 64.9069C368.674 68.3268 371.126 70.2087 375.182 71.5177C378.24 72.5049 378.451 72.838 378.715 77.1204C378.974 81.3233 379.255 81.7976 382.379 83.2947C386.401 85.2237 387.037 84.0744 383.977 88.8656C381.459 92.7817 380.988 96.9541 382.732 99.9011C383.667 101.481 383.404 102.158 380.899 104.628C379.137 106.366 379.564 110.569 379.564 112.01C379.564 114.602 373.518 120.575 366.854 125.229C354.458 133.855 336.587 129.319 337.425 107.745C337.21 104.632 336.439 103.273 341.883 104.139C345.644 104.737 347.998 102.648 347.998 100.747C347.998 97.5827 346.807 97.4698 342.861 96.9631C340.277 96.6315 337.446 95.1517 338.047 91.521C338.898 86.3824 343.368 76.9966 347.238 72.226C350.451 68.2649 360.171 62.2462 363.354 62.2462ZM84.2906 67.4205C84.6244 67.4028 84.9114 67.4721 85.0749 67.6592C85.4747 68.1155 84.9636 68.6954 83.9401 68.9485C82.9166 69.2016 82.0428 69.2309 81.9994 69.0137C81.8566 68.2982 83.2896 67.4726 84.2906 67.4205ZM85.5279 70.1436C86.1016 70.2335 87.0223 70.8991 87.8786 71.8983C89.0199 73.2306 91.5573 76.0188 93.5146 78.0939C96.62 81.3875 96.9103 82.026 95.8105 83.1183C94.0577 84.8603 94.576 86.3691 96.7427 85.8334C99.1816 85.2302 99.3575 86.8694 97.0169 88.3934C95.4178 89.4347 95.3833 89.6344 96.8023 89.7012C97.7239 89.7447 98.64 90.5914 98.8383 91.5833C99.348 94.1365 97.5698 104.625 96.5854 104.868C96.1349 104.98 93.9893 104.56 91.8195 103.936C87.1328 102.587 83.3143 103.309 83.0079 105.601C82.696 107.936 84.9357 109.549 89.0707 109.966C91.0243 110.163 93.0669 110.61 93.6076 110.959C94.9851 111.849 90.3496 124.236 87.4829 127.327C84.4837 130.561 75.8871 132.808 71.1339 131.601C65.6135 130.199 57.3786 124.452 53.7514 119.472C51.9052 116.937 50.5291 114.627 50.6926 114.34C50.858 114.053 52.6137 114.653 54.5954 115.672C56.5784 116.691 58.6701 117.41 59.2444 117.268C61.4794 116.715 59.6718 115.009 54.202 112.51C49.1619 110.207 48.3225 109.411 47.039 105.717C45.3661 100.903 44.8452 94.6237 45.9578 92.6789C46.3783 91.9444 49.4307 90.7094 52.7406 89.9346C58.1224 90.2007 58.4379 86.9196 53.5583 87.3946C53.3514 87.302 54.7269 84.4767 56.6159 81.1155C60.8199 73.6355 63.3272 72.0688 69.6581 72.9647C74.1392 73.599 83.522 71.95 85.0868 70.2537C85.1857 70.1466 85.3363 70.1136 85.5279 70.1436ZM151.784 72.7671C149.342 72.8221 148.16 77.5334 150.025 80.3488C151.292 82.7201 154.172 85.856 155.363 86.165C160.297 89.2618 164.092 92.1251 169.002 91.6337C171.497 91.3776 172.69 91.0637 174.82 90.1017C177.053 89.0923 178.241 88.2266 179.726 86.5232C181.075 84.9778 181.753 83.4189 181.955 81.4112C182.343 77.6235 180.335 77.7575 177.943 77.0978C169.477 74.7818 155.362 72.6869 151.784 72.7671ZM85.5208 75.0976C84.0126 75.0766 81.9548 75.1649 79.7131 75.3682C75.2302 75.7745 70.5965 76.0842 69.4173 76.0566C66.3785 75.9854 67.1577 78.7547 70.3912 79.5172C73.2946 80.2017 88.2935 76.773 88.036 75.4836C87.9872 75.2489 87.0289 75.1183 85.5208 75.0976ZM232.651 76.1905C243.212 76.2571 255.715 80.7501 263.062 87.5206C265.13 89.4249 268.88 94.4076 271.395 98.5933C275.398 105.256 275.863 106.685 275.121 110.075C273.951 115.424 269.454 121.188 264.631 124.526C248.086 132.673 237.877 132.474 227.015 120.447C225.425 118.687 224.095 116.716 223.162 114.497C224.627 113.228 228.872 114.527 228.262 109.303C227.91 106.766 225.678 106.906 222.075 107.524C217.358 108.333 215.785 97.0198 219.059 85.7923C220.57 78.6421 220.944 77.6663 227.029 76.623C228.807 76.3182 230.695 76.1782 232.651 76.1905ZM155.351 76.8949C155.709 76.8949 156.78 77.1282 157.735 77.4108C164.355 79.1596 170.577 79.0481 176.212 81.1168C176.807 81.3351 177.473 81.1453 177.769 81.7986C177.621 84.7049 173.298 86.7826 170.914 87.254C164.895 87.7461 161.99 85.7607 157.807 82.2641C156.41 81.0934 155.317 80.0267 154.7 77.3339C154.7 76.9528 154.788 76.8949 155.351 76.8949ZM134.214 79.6299C135.807 79.5776 137.818 81.4326 137.818 83.2244C137.818 83.8278 136.5 84.3214 134.884 84.3214C131.739 84.3214 130.783 81.0211 133.565 79.7745C133.768 79.6835 133.986 79.6367 134.214 79.6299ZM370.24 82.3251C369.804 82.3502 369.332 82.4621 368.826 82.6739C366.907 83.4767 365.794 87.0113 366.795 89.7662C367.534 91.7977 371.217 91.3405 372.55 89.2343C374.484 86.1777 373.284 82.1491 370.24 82.3251ZM357.897 82.4418C354.163 82.4418 352.24 86.4113 354.71 89.0181C357.471 91.9328 361.558 89.0398 360.567 84.8718C360.161 83.1647 359.365 82.4418 357.897 82.4418ZM81.947 84.007C78.9857 84.0307 78.4497 86.1022 79.2816 89.4943C79.9804 92.3429 82.7378 93.8231 84.3692 91.0501C84.5938 90.6685 85.0367 89.859 85.0916 88.7607C85.1899 86.7781 84.6214 83.9852 81.947 84.007ZM65.3596 86.2725C65.1619 86.2854 64.9586 86.318 64.7505 86.3693C61.9686 87.0573 61.2076 91.0731 63.3975 93.5052C65.4635 95.7992 66.7383 95.7795 68.0811 93.4323C69.9944 90.0858 68.3197 86.0803 65.3596 86.2725ZM240.559 90.4267C237.873 90.3595 235.727 94.5724 237.543 96.9061C239.241 99.0886 242.101 99.6592 243.172 98.0296C244.436 96.1043 243.022 90.9644 241.102 90.4984C240.919 90.4542 240.738 90.4311 240.559 90.4267ZM255.307 90.9095C254.639 90.9204 254.063 91.4517 253.314 92.5927C251.457 95.421 251.505 96.399 253.6 98.1132C255.353 99.5474 257.434 99.4911 258.423 97.9832C259.522 96.3097 258.548 92.6945 256.661 91.4321C256.14 91.0837 255.708 90.9028 255.307 90.9095ZM55.2534 91.4082C53.7978 91.3654 52.1336 91.6295 51.558 92.2532C51.1119 92.7368 51.0656 93.4961 51.4543 93.9403C52.3674 94.9835 56.6553 94.8674 57.2131 93.553L57.6995 92.4084C57.9564 91.802 56.709 91.4515 55.2534 91.4082ZM195.621 93.0556C195.709 93.0468 195.793 93.0481 195.874 93.0624C196.456 93.1479 196.822 93.8025 196.708 95.4738C196.336 96.6054 195.03 97.531 193.807 97.531C192.775 97.531 191.902 96.8725 191.654 95.987C192.216 95.4741 194.305 93.1872 195.621 93.0584V93.0556ZM88.0026 93.305C87.6858 93.2825 87.2282 93.4788 86.5984 94.0146C84.8827 95.4738 81.1878 94.1489 80.0898 94.4205C78.7092 94.7619 79.0963 96.3397 81.3295 96.8664C84.3451 97.5775 87.8556 96.7122 88.3793 95.3437C88.7168 94.4626 88.7008 93.3545 88.0026 93.305ZM129.195 94.008C129.813 93.972 130.737 94.9232 131.741 96.8C132.588 98.3825 133.109 99.8794 132.898 100.127C132.025 101.145 128.42 97.7527 128.42 95.9127C128.42 94.6611 128.714 94.0358 129.195 94.008ZM68.6878 96.8571C68.3314 96.8462 67.7833 97.0875 67.0094 97.7152C65.6935 98.7817 62.7058 97.6019 61.5999 97.2006C60.6728 96.8641 60.1608 98.137 60.2731 98.6981C60.7541 101.106 65.1662 101.888 67.7199 100.143C69.1102 99.1925 69.7571 96.8899 68.6878 96.8571ZM50.0394 105.355C49.7891 105.33 49.6217 105.362 49.5661 105.457C49.0474 106.365 55.4472 110.82 56.7923 110.487C57.4448 110.326 57.9031 109.814 57.8103 109.349C57.6187 108.394 51.7922 105.534 50.0394 105.355ZM126.167 106.269C126.759 106.269 127.243 107.812 127.243 109.698C127.243 113.275 125.541 114.382 124.606 111.413C123.904 109.188 124.79 106.269 126.167 106.269ZM263.124 107.857C262.425 107.841 261.553 108.386 260.604 109.755C257.568 114.136 251.654 117.084 242.44 118.174C233.987 119.173 241.883 123.09 245.773 123.211C253.683 123.458 262.494 117.068 264.192 113.254C265.36 110.632 264.662 107.891 263.124 107.857ZM364.816 108.635C364.436 108.661 364.075 108.907 363.764 109.466C360.545 115.248 350.918 114.856 350.459 116.461C350.202 117.356 349.906 119.219 351.274 120.558C354.303 123.521 356.832 123.583 361.962 120.962C367.18 118.296 369.256 115.088 367.855 111.844C367.261 110.467 365.955 108.56 364.816 108.635ZM312.952 110.455C312.621 110.92 312.295 111.405 311.977 111.935C310.499 114.395 308.683 116.407 307.945 116.407C305.969 116.407 303.749 120.268 303.749 123.707C303.749 127.176 307.429 131.487 309.631 130.595C310.398 130.285 311.288 128.924 311.61 127.571C312.087 125.562 312.745 125.112 315.2 125.112C317.602 125.112 319.253 124.042 323.421 119.782C328.376 114.717 330.325 113.902 330.325 116.898C330.325 118.701 326.316 123.177 324.701 123.177C323.992 123.177 321.873 124.515 319.995 126.149C317.003 128.752 316.578 129.645 316.578 133.339C316.578 141.893 319.688 145.587 323.404 141.449C327.413 136.986 335.142 130.915 336.817 130.915C339.446 132.792 342.173 134.205 344.951 135.183C340.86 136.122 336.413 140.001 335.539 143.628C335.115 145.386 335.176 148.411 335.677 150.349C336.566 153.791 336.543 153.851 334.635 152.92C325.95 148.68 321.234 147.429 315.377 147.813C312.068 148.03 308.554 148.237 307.569 148.273C306.142 148.326 305.738 147.561 305.58 144.517C305.109 135.437 296.732 130.033 288.291 133.159C287.765 128.436 287.53 122.359 287.025 115.757C293.922 112.375 305.486 110.721 312.952 110.455ZM81.4821 116.021C80.4586 115.958 79.0031 116.178 77 116.793C69.1737 119.195 65.9159 117.294 65.3978 118.951C64.6623 121.303 66.1824 122.882 70.315 124.073C75.2116 125.482 79.878 124.347 82.1234 121.199C83.731 118.945 84.552 116.21 81.4821 116.021ZM141.33 127.343C142.571 127.381 143.725 127.655 144.732 128.192C148.168 130.144 154.085 130.665 157.661 131.656C164.042 133.425 164.227 133.57 167.591 139.386C171.534 146.205 172.857 154.263 171.289 161.906L170.273 166.855L164.582 166.364C159.734 165.946 158.798 166.185 158.295 167.978C157.581 170.526 160.688 173.147 165.436 174.003C168.176 174.496 168.618 174.946 168.325 176.958C168.135 178.263 166.062 182.401 163.719 186.151C155.772 198.875 145.231 201.828 137.02 193.632C128.409 185.038 120.026 168.424 119.087 158.089C118.708 153.926 119.148 151.795 122.112 143.35C125.33 133.825 134.63 127.137 141.33 127.343ZM282.045 131.74C282.467 131.74 282.851 132.309 282.993 133.26C283.089 133.904 283.304 134.8 283.597 135.84C282.349 136.831 281.218 137.972 280.23 139.225C280.672 137.064 280.922 135.398 280.845 134.844C280.699 133.788 281.045 132.482 281.615 131.94C281.758 131.805 281.904 131.74 282.045 131.74ZM273.343 133.321C273.379 133.321 273.404 133.332 273.416 133.343C273.659 133.543 272.683 137.91 271.249 143.049C268.476 152.978 259.335 168.532 253.464 173.31C246.876 178.671 254.464 179.604 261.551 174.304C266.031 170.952 271.549 162.885 275.298 154.796C275.81 159.026 278.221 162.116 282.889 161.993C284.292 161.957 285.467 162.011 286.078 162.115C286.06 162.181 286.049 162.219 286.031 162.286C285.479 164.196 284.889 166.054 284.276 167.863C283.942 168.658 283.688 169.281 283.315 170.155C282.519 172.043 281.802 173.995 281.205 176.025C278.693 182.081 276.066 187.119 273.891 190.572C268.773 198.695 258.855 202.621 250.496 199.831C240.801 196.596 228.257 183.396 223.083 168.164C219.888 158.757 218.34 157.106 223.114 149.065C226.34 143.635 227.5 138.005 228.316 139.949C228.839 141.199 231.145 145.133 233.435 148.692C239.467 158.06 251.385 164.71 252.224 159.176C252.338 158.43 251.215 157.445 249.733 156.989C247.224 156.218 235.012 139.808 235.919 138.427C236.144 138.086 239.163 138.482 242.626 139.308C250.046 141.079 258.645 139.863 266.975 135.863C270.064 134.379 272.806 133.289 273.34 133.321L273.343 133.321ZM139.716 141.567C137.729 141.449 136.016 144.362 136.922 148.629C137.583 151.737 140.576 153.576 142.482 152.046C143.757 151.022 143.881 147.146 142.725 144.486C141.87 142.522 140.757 141.629 139.716 141.567ZM155.108 142.096C155.016 142.089 154.923 142.089 154.829 142.096C151.03 142.379 151.653 148.568 152.938 150.963C154.24 153.389 157.107 153.625 158.105 151.344C159.345 148.509 157.932 142.278 155.108 142.095V142.096ZM286.648 143.185C287.137 143.193 287.57 144.2 287.9 146.123C288.64 150.452 288.284 150.676 286.581 146.95C285.77 145.173 285.671 143.903 286.303 143.34C286.42 143.235 286.535 143.183 286.648 143.185ZM343.118 143.229C343.251 143.242 343.361 143.307 343.44 143.434C343.587 143.671 342.821 145.125 341.738 146.665C340.016 149.112 339.793 149.197 339.971 147.334C340.136 145.633 342.183 143.141 343.118 143.229ZM92.983 146.184C85.5217 146.197 75.5522 146.651 70.4175 148.164C60.4209 151.111 54.56 154.109 50.2706 159.262C27.9442 176.493 12.5472 194.774 5.291 201.042C-2.07934 207.408 -1.68625 215.353 6.07776 224.367C13.8418 233.381 35.1091 247.973 37.6969 251.522C40.2853 255.071 35.334 254.395 35.4463 258.676C35.5586 262.958 37.9785 265.775 37.0782 268.986C36.178 272.198 31.7889 274.451 26.8385 275.296C21.8875 276.141 19.2428 282.057 22.956 282.508C26.6692 282.958 40.2848 276.198 40.2848 276.198C40.2848 276.198 33.1956 282.395 29.8198 283.691C26.4447 284.987 32.3519 288.254 35.7276 286.564C37.2589 285.797 38.5764 284.653 39.5779 283.626C38.729 284.914 38.0788 286.524 38.8222 287.86C40.8033 291.417 45.6045 286.385 48.0665 281.23C52.3803 272.2 51.5397 261.807 50.8202 253.453C50.7103 252.177 50.145 250.831 49.2479 249.438C49.2173 247.173 49.1707 244.933 49.1036 242.826C49.3581 239.545 49.0317 230.423 47.9533 200.663C47.5608 189.829 47.7283 185.817 48.7818 180.84C51.264 169.111 57.4745 164 63.233 159.553C71.3186 153.308 99.4876 153.282 101.208 153.777C108.393 155.845 108.801 147.576 102.116 146.5C101.034 146.325 97.4591 146.176 92.983 146.184ZM354.826 148.107C355.156 148.077 355.363 148.305 355.322 148.719C355.267 149.27 354.79 149.95 354.261 150.229C353.732 150.509 353.343 150.287 353.398 149.736C353.453 149.185 353.93 148.505 354.459 148.225C354.592 148.155 354.716 148.117 354.826 148.107ZM312.082 153.183C314.154 153.009 310.434 155.787 306.195 157.221C303.855 158.013 300.512 159.617 298.767 160.786C294.893 163.381 294.709 162.721 298.43 159.579C301.161 157.273 306.188 154.788 310.823 153.451C311.371 153.293 311.786 153.208 312.082 153.183ZM358.636 154.315C359.138 154.376 358.975 155.029 358.267 155.791C357.568 156.542 356.593 157.107 356.097 157.046C355.595 156.984 355.758 156.331 356.467 155.569C357.165 154.819 358.141 154.254 358.636 154.315ZM320.393 154.465C321.107 154.479 322 154.57 323.058 154.755C328.393 155.686 335.444 160.372 338.769 165.196C341.601 169.304 340.726 169.024 332.452 163.179C328.692 160.523 323.902 157.803 321.807 157.136C317.517 155.769 317.295 154.401 320.393 154.465ZM313.989 163.562C316.839 163.606 318.449 164.299 322.71 166.557C328.735 169.75 343.601 181.619 345.421 184.69C346.007 185.678 345.934 189.003 345.221 193.971C343.134 207.188 329.026 223.173 314.192 220.626C303.386 219.194 296.522 214.848 292.005 207.121C288.807 201.654 289.37 199.957 291.981 199.375C294.303 198.858 296.394 195.755 295.15 194.673C294.67 194.256 292.665 194.018 290.696 194.145C287.15 194.372 287.114 194.34 286.86 190.615C286.719 188.547 287.1 184.14 287.704 180.82C288.702 175.354 289.163 174.512 292.582 171.893C300.099 166.136 304.518 164.125 310.58 163.702C311.949 163.606 313.036 163.548 313.987 163.562H313.989ZM133.904 167.957C132.927 167.871 132.304 168.762 132.032 170.629C131.633 173.373 135.379 179.418 139.58 182.806C142.192 184.911 147.39 186.283 151.246 185.883C153.318 185.668 153.558 182.358 151.551 181.69C144.719 179.416 143.179 178.328 139.416 173.128C137 169.791 135.16 168.067 133.904 167.957ZM349.944 169.634C350.46 169.6 350.943 169.742 351.143 170.019C351.409 170.389 350.853 170.56 349.908 170.4C348.864 170.223 348.674 169.959 349.424 169.727C349.594 169.675 349.772 169.645 349.944 169.633V169.634ZM42.2052 175.561C38.9979 185.828 38.8309 196.596 40.7223 222.113C41.6055 234.036 42.1018 239.545 42.6999 242.42C33.7024 234.649 19.6824 226.236 13.6151 219.381C9.46607 214.689 4.67239 213.718 11.5362 204.985C16.1112 199.165 32.0115 184.671 42.2052 175.561ZM312.852 177.093C312.488 177.119 312.107 177.265 311.724 177.546C310.247 178.63 309.145 184.408 310.148 185.802C311.831 188.137 315.006 185.816 315.386 181.973C315.672 179.089 314.426 176.978 312.852 177.093ZM325.95 177.598C325.483 177.605 324.956 177.872 324.384 178.532C322.781 180.38 321.879 185.038 322.887 186.393C323.367 187.04 324.703 188.312 326.916 186.599C328.644 185.261 329.263 182.413 327.772 179.208C327.358 178.32 326.733 177.591 325.95 177.598ZM327.831 197.708C326.669 197.597 324.523 198.743 320.669 201.233C317.105 203.536 313.112 205.585 311.796 205.785C309.042 206.206 309.039 208.056 311.796 210.047H311.789C316.918 213.752 329.307 206.706 329.095 200.202C329.046 198.639 328.734 197.793 327.831 197.708ZM150.955 209.406C147.061 209.484 144.81 210.1 139.518 211.989C117.867 219.716 109.229 235.038 109.302 265.592C109.327 275.154 109.632 278.61 110.661 280.905C111.392 282.536 111.898 283.952 111.784 284.052C111.67 284.151 109.049 285.13 105.96 286.226C102.871 287.321 98.1629 289.441 95.5006 290.937C92.8377 292.432 90.556 293.528 90.4272 293.371C90.2985 293.214 89.5707 289.825 88.8108 285.841C83.1799 256.327 81.7599 247.706 81.3247 240.405C81.2637 233.829 78.859 233.448 83.5896 230.2C87.6959 227.383 100.332 223.209 109.767 221.553C120.982 219.586 121.747 219.384 121.747 218.406C121.747 215.437 103.364 216.248 92.859 219.681C81.9848 223.234 77.0571 226.133 75.6863 229.784C73.3829 235.917 74.5271 249.514 79.9443 280.408C81.5166 289.372 83.296 297.556 83.8972 298.594C84.8822 300.294 84.6356 301.05 81.4082 306.21C78.0605 311.563 74.5491 320.106 74.5491 322.903C74.5491 323.578 75.0648 324.349 75.6935 324.618C76.446 324.939 78.0359 323.037 80.3473 319.055C82.2796 315.727 86.6189 309.949 89.9886 306.214C96.2273 299.299 98.9715 297.628 109.541 294.313C114.491 292.76 133.141 292.781 138.836 294.347C152.362 298.065 161.948 308.313 168.599 326.17C170.285 330.693 172.415 334.981 173.334 335.697C174.254 336.414 175.474 337 176.045 337C177.643 337 180.339 333.593 180.339 331.574C180.339 327.253 174.447 313.619 169.248 305.909C157.792 288.925 147.431 283.626 125.614 283.593L115.239 283.579L115.107 280.637C114.383 264.23 116.654 245.908 120.438 237.599C128.197 220.562 151.438 212.239 166.428 221.128C176.932 227.358 181.323 234.828 187.699 257.32C189.604 264.043 192.06 271.545 193.156 273.99C197.266 283.165 207.365 291.193 216.274 292.367C220.207 292.885 219.28 290.734 218.534 289.758C217.513 288.025 214.386 284.805 211.58 282.602C208.775 280.4 205.196 276.84 203.629 274.689C200.578 270.504 200.123 269.281 195.168 251.887C193.395 245.662 190.749 237.766 189.289 234.342C185.576 225.63 178.556 217.895 170.216 213.324C164.208 210.031 163.176 209.76 155.568 209.482C153.732 209.415 152.252 209.382 150.955 209.408V209.406ZM122.772 299.824C122.259 299.752 121.635 301.164 121.006 304.429C119.4 312.76 118.982 321.439 120.114 322.956C122.052 325.555 123.161 322.805 123.759 313.93C124.327 305.511 123.754 299.961 122.772 299.824ZM106.06 302.945C105.992 302.936 105.925 302.937 105.862 302.945C105.692 302.97 105.539 303.06 105.399 303.214C104.487 304.229 110.389 321.826 112.535 324.485C114.128 326.46 116.052 325.611 116.052 322.935C116.052 320.622 110.406 307.923 107.845 304.481C107.128 303.515 106.538 303.005 106.06 302.943V302.945ZM139.68 303.498C139.249 303.498 138.454 304.415 137.919 305.535C137.382 306.656 134.99 310.913 132.602 314.995C128.529 321.955 127.516 325.006 128.802 326.436C130.705 328.554 133.539 324.766 138.131 313.966C140.446 308.522 141.189 303.498 139.68 303.498ZM91.7528 309.788C91.137 309.807 90.8254 310.38 90.8254 311.509C90.8254 313.244 100.498 326.492 102.374 327.328C104.08 328.088 104.407 328.017 105.414 326.667C106.183 325.636 105.16 323.886 100.131 317.613C95.9284 312.373 93.1065 309.744 91.7528 309.788ZM153.515 312.407C152.663 312.318 150.595 313.927 146.966 317.481C140.458 323.853 139.279 325.553 139.966 327.548C140.771 329.881 142.924 328.935 147.3 324.33C152.268 319.102 155.096 313.982 153.809 312.549C153.735 312.468 153.637 312.42 153.515 312.407ZM160.606 323.438C158.9 323.471 153.147 326.662 151.992 328.215C151.394 329.019 151.141 330.103 151.429 330.623C152.349 332.279 154.77 331.647 158.245 328.845C161.492 326.228 162.728 323.396 160.606 323.438Z" fill="#3C738C"/>
</g>
<defs>
<clipPath id="clip0_189_649">
<rect width="432" height="337" fill="white"/>
</clipPath>
</defs>
</svg>
