<svg width="156" height="132" viewBox="0 0 156 132" fill="none" xmlns="http://www.w3.org/2000/svg">
<g id="link_icon_142996 1">
<path id="Vector" d="M73.406 38.7745L87.1924 27.1091C97.346 18.5176 113.808 18.5176 123.962 27.1091C134.116 35.7007 134.116 49.6303 123.962 58.2218L96.3848 81.5564C86.2311 90.1479 69.7689 90.1479 59.6152 81.5564C57.0768 79.4085 57.0768 75.9261 59.6152 73.7782C62.1536 71.6303 66.2692 71.6303 68.8076 73.7782C73.8844 78.074 82.1156 78.074 87.1924 73.7782L114.77 50.4437C119.846 46.1479 119.846 39.1831 114.77 34.8873C109.693 30.5915 101.462 30.5915 96.3848 34.8873L89.8764 40.3944C84.6176 38.6507 78.9303 38.1108 73.406 38.7745ZM82.5939 93.2255L68.8076 104.891C58.654 113.482 42.1917 113.482 32.0381 104.891C21.8844 96.2993 21.8844 82.3697 32.0381 73.7782L59.6152 50.4437C69.7689 41.8521 86.2311 41.8521 96.3848 50.4437C98.9232 52.5915 98.9232 56.074 96.3848 58.2218C93.8464 60.3697 89.7308 60.3697 87.1924 58.2218C82.1156 53.9261 73.8844 53.9261 68.8076 58.2218L41.2304 81.5564C36.1536 85.8521 36.1536 92.8169 41.2304 97.1127C46.3073 101.408 54.5384 101.408 59.6152 97.1127L66.1236 91.6056C71.3824 93.3493 77.0697 93.8893 82.5939 93.2255Z" fill="#67C797"/>
</g>
</svg>
