<svg version="1.1" id="Layer_1" xmlns="http://www.w3.org/2000/svg" xmlns:xlink="http://www.w3.org/1999/xlink" x="0px" y="0px"
	 width="100%" viewBox="0 0 200 84" enable-background="new 0 0 200 84" xml:space="preserve">
<path fill="#000000" opacity="1.000000" stroke="none" 
	d="
M201.000000,61.000000 
	C201.000000,68.955994 201.000000,76.911987 201.000000,85.000000 
	C182.645950,85.000000 164.291641,85.000000 145.393021,84.650009 
	C144.364838,82.981369 143.880951,81.662720 142.927567,79.064667 
	C140.886002,85.459511 138.195374,81.400833 135.487305,81.145454 
	C127.549393,80.396881 119.542938,80.405968 111.571396,79.970688 
	C107.484390,79.747520 106.589195,81.476517 108.000000,85.000000 
	C106.933327,85.000000 105.866661,85.000000 104.401573,84.629471 
	C104.278992,82.915512 104.554825,81.572067 104.895241,79.914062 
	C101.731781,80.306877 98.628426,80.692223 95.000000,81.142761 
	C95.000000,82.073685 95.000000,83.536842 95.000000,85.000000 
	C63.767044,85.000000 32.534092,85.000000 1.000000,85.000000 
	C1.000000,70.980545 1.000000,56.958931 1.290919,42.183876 
	C5.047215,45.939407 8.692623,50.324875 11.904951,55.007442 
	C13.609865,57.492672 14.650062,57.506683 16.374126,54.952530 
	C17.450935,53.921558 18.247274,53.014896 19.314964,51.998932 
	C20.070591,51.297249 20.554865,50.704868 21.401688,50.063725 
	C22.493662,50.049934 23.223085,50.084908 23.979797,50.468018 
	C25.000212,51.490097 25.993340,52.164036 27.243942,52.900173 
	C27.671997,52.916710 27.842579,52.871048 28.335346,52.896759 
	C29.745462,52.349854 30.833389,51.731575 31.957588,51.476093 
	C32.715080,52.890675 33.436298,53.942459 34.080399,55.318970 
	C33.633415,56.414902 33.263542,57.186111 32.548584,57.976372 
	C31.030899,57.715275 29.246489,57.817493 28.791225,57.089035 
	C26.781071,53.872623 24.989687,54.043674 22.612534,56.938236 
	C21.169571,57.949711 20.056597,58.918415 18.619423,60.048462 
	C15.839186,63.429043 17.941576,65.719124 20.027735,68.361633 
	C23.428411,73.162560 26.692699,77.642174 30.173325,82.418663 
	C32.336216,80.097084 34.218803,78.076385 36.472038,76.016953 
	C37.931477,76.159111 39.255882,76.007172 40.066471,76.581024 
	C42.911545,78.595169 45.474216,79.306816 47.985157,75.669815 
	C47.366787,73.557716 46.600128,71.771149 45.972343,69.682777 
	C47.111656,68.604187 48.112099,67.827385 49.434669,66.910950 
	C50.721947,65.102989 55.781628,66.223579 53.354527,61.960846 
	C55.170456,60.022243 56.634933,58.128105 58.308884,56.117516 
	C58.518360,56.001064 58.997715,55.999607 59.104126,56.326805 
	C63.297455,60.984440 67.836182,63.765476 74.307724,60.934834 
	C75.153305,60.298351 75.693008,59.694191 76.459686,58.947788 
	C77.144218,58.268425 77.601776,57.731308 78.361526,57.035767 
	C80.846817,57.144932 80.846817,57.144932 80.819450,61.579403 
	C85.495987,62.852039 84.960884,59.558479 84.985039,56.806568 
	C85.008606,54.122047 84.990158,51.437164 84.990158,48.752438 
	C88.844650,52.468571 91.534836,56.484467 94.633682,60.155380 
	C95.411827,61.077175 97.501251,60.892033 99.249084,61.138985 
	C99.955986,61.332405 100.401863,61.602451 101.219177,61.883766 
	C102.414352,61.209858 103.655113,60.684631 103.989861,59.811890 
	C105.462494,55.972473 107.982079,54.165356 112.187691,54.900932 
	C114.624207,57.117134 113.095764,64.414413 120.275436,61.396442 
	C125.717079,61.780746 130.858414,61.887886 136.441544,61.985073 
	C139.924545,61.616741 142.965759,61.258362 146.302719,60.862144 
	C147.121246,60.236423 147.644012,59.648544 148.408051,58.927238 
	C149.109650,58.235542 149.569977,57.677269 150.335785,56.971870 
	C152.735138,57.200516 152.735138,57.200516 152.929916,61.945522 
	C158.931381,61.945522 164.963791,61.945522 171.393707,61.929169 
	C172.922394,59.117821 174.053604,56.322823 175.295822,53.253521 
	C177.489868,51.779907 183.250336,55.619526 183.072922,48.581528 
	C180.108688,48.277969 177.266907,47.986950 174.054169,47.657940 
	C174.156723,45.990631 174.240952,44.621101 174.327576,43.212811 
	C178.876099,42.870251 182.944153,42.563877 187.012192,42.257504 
	C186.965652,41.606426 186.919098,40.955353 186.872543,40.304276 
	C181.688721,38.358864 176.382706,38.330318 170.600906,39.686539 
	C167.324097,39.324680 164.411499,39.258015 161.524155,38.952553 
	C156.645813,38.436462 152.494553,38.877304 151.696365,44.931278 
	C148.976776,43.165897 146.559174,41.557117 143.973480,39.627243 
	C141.837845,39.149525 139.870300,38.992901 137.586151,38.878586 
	C136.845322,38.958717 136.421127,38.996540 135.635712,39.260910 
	C135.163055,44.185215 135.210510,48.895267 134.848480,53.573635 
	C134.731720,55.082489 133.537872,56.507992 132.650436,57.595451 
	C129.404114,57.078739 126.344101,56.938206 123.461700,56.805828 
	C123.013977,50.701931 122.589539,44.915611 121.857552,39.031254 
	C121.015312,39.219807 120.480629,39.506397 119.610374,40.075306 
	C119.025185,45.354530 118.775558,50.351437 118.495384,55.959988 
	C113.157677,50.711071 115.101257,41.898331 108.028023,38.635170 
	C105.470810,44.891823 103.185234,50.483875 100.528847,55.846073 
	C99.766266,50.323376 99.374512,45.030537 99.017540,39.365929 
	C96.259735,38.705624 96.141869,38.701427 96.038811,41.596497 
	C95.912521,45.144306 96.008705,48.700039 96.008705,52.252346 
	C95.554588,52.350071 95.100471,52.447792 94.646355,52.545517 
	C92.393913,49.626690 90.141472,46.707863 87.926605,43.430698 
	C86.606316,39.952206 85.248444,36.832047 83.582336,33.003632 
	C81.815674,35.037094 80.906387,36.083706 79.676773,37.064594 
	C78.922478,36.957012 78.488510,36.915146 77.883652,36.560452 
	C78.396683,34.452755 79.080605,32.657883 79.764526,30.863012 
	C80.319016,30.762674 80.873512,30.662336 81.428001,30.561998 
	C79.639320,28.998667 77.850632,27.435333 75.914597,25.598810 
	C75.171486,25.271994 74.575706,25.218367 73.661789,25.102169 
	C72.553413,25.658424 71.763184,26.277250 70.593384,26.948299 
	C65.830124,27.648378 63.993484,29.585285 66.389046,34.029182 
	C66.759537,34.716465 66.122726,35.946747 65.635208,37.061005 
	C63.900452,37.126530 62.482239,37.056965 61.020489,36.578568 
	C60.275688,35.437279 59.574425,34.704830 58.890766,33.558052 
	C59.976933,32.442627 61.045490,31.741528 62.418793,30.922539 
	C63.089600,29.875134 63.455658,28.945618 63.898026,27.674648 
	C63.017406,26.234596 62.060471,25.135994 61.338543,23.976896 
	C61.872940,23.729790 62.032509,23.460375 62.354820,23.058990 
	C63.123032,22.708372 63.588684,22.406919 64.351883,21.983257 
	C65.463615,21.256477 66.277786,20.651905 67.401352,20.022400 
	C68.175392,19.680058 68.640045,19.362644 69.482422,19.010445 
	C69.788895,17.616756 70.156174,16.015404 69.564064,14.944493 
	C67.799133,11.752353 64.824776,12.468431 61.767818,13.102085 
	C61.553978,13.030475 61.108734,12.958476 60.965607,12.634937 
	C60.579121,11.223031 60.335758,10.134665 60.460342,9.017155 
	C64.285881,7.942755 65.164940,6.331499 62.176743,3.592608 
	C61.533108,3.002674 61.379391,1.878230 61.000000,1.000000 
	C107.561745,1.000000 154.123489,1.000000 201.000000,1.000000 
	C201.000000,19.019672 201.000000,37.041180 200.633881,55.536491 
	C198.582016,52.736000 196.875336,49.472237 195.217300,46.183956 
	C193.965286,43.700882 192.775452,41.186447 191.557938,38.685970 
	C190.933838,38.743732 190.309753,38.801491 189.685669,38.859249 
	C186.818863,46.223011 183.952072,53.586773 181.023087,61.110264 
	C185.433090,63.009865 185.663712,59.796486 187.104507,57.780308 
	C188.096558,56.392109 190.155121,55.129021 191.798920,55.046738 
	C193.096054,54.981804 194.732056,56.600147 195.761810,57.847218 
	C196.625198,58.892841 196.830109,60.482220 197.305420,61.773392 
	C198.796188,61.461330 199.898087,61.230667 201.000000,61.000000 
M152.420227,75.583557 
	C152.154297,74.682716 151.888351,73.781876 151.603119,72.815666 
	C150.928391,74.016426 150.337997,75.067093 149.411987,76.714996 
	C147.568298,73.934402 147.017426,68.931770 143.311127,73.961739 
	C143.196808,74.116867 142.362518,73.726814 141.859039,73.612289 
	C139.159134,72.998207 136.457703,72.390915 133.295471,71.677147 
	C133.295471,74.076523 133.295471,75.610283 133.295471,76.833427 
	C138.059860,77.232300 142.640244,77.846695 147.226105,77.890739 
	C149.172928,77.909439 151.131241,76.732239 153.731903,76.175842 
	C156.001099,76.692566 158.270294,77.209282 161.046021,77.841347 
	C160.309860,75.387711 159.817291,73.745995 159.223648,71.767410 
	C157.849960,72.551292 156.437958,73.827583 155.975967,73.545883 
	C152.418015,71.376366 153.266251,74.326523 152.420227,75.583557 
M159.949158,64.119881 
	C150.738663,64.119881 141.528168,64.119881 132.200623,64.119881 
	C132.200623,66.274071 132.200623,67.701820 132.200623,68.483864 
	C134.098648,68.669861 135.569626,68.807892 137.039215,68.959450 
	C139.288544,69.191437 141.683548,70.011841 143.740311,69.490959 
	C145.455002,69.056709 146.772491,67.054085 148.399597,65.628967 
	C148.731018,66.664513 149.242676,68.263245 149.629120,69.470718 
	C156.211609,69.470718 162.389740,69.408722 168.565872,69.493385 
	C172.425125,69.546288 176.289093,70.022942 180.134430,69.876335 
	C181.348755,69.830055 182.509644,68.381592 183.694977,67.574844 
	C182.433853,66.385422 180.970566,64.062447 179.953903,64.243767 
	C177.870361,64.615364 176.026413,66.330368 174.230835,67.404327 
	C173.237656,66.629929 171.756714,64.689926 170.885742,64.933250 
	C167.283401,65.939629 164.087326,64.540413 159.949158,64.119881 
M119.893211,73.397987 
	C114.091805,73.311539 108.290504,73.208427 102.488785,73.170593 
	C102.029465,73.167603 101.518654,73.887733 101.113838,73.815018 
	C97.260780,73.122849 93.425468,72.331940 89.301071,71.513008 
	C89.301071,74.298538 89.301071,75.886612 89.301071,78.131767 
	C94.387505,77.730080 99.148781,77.025917 103.906158,77.051346 
	C112.093086,77.095116 120.277031,77.695427 128.463989,77.740311 
	C129.266296,77.744720 130.080917,75.507225 130.889816,74.310341 
	C129.778244,73.564301 128.556107,72.102516 127.583015,72.252861 
	C126.358849,72.441994 125.338387,73.949638 124.199142,74.914505 
	C124.099724,74.486206 124.049316,73.986969 123.862083,73.545799 
	C123.691727,73.144371 123.372726,72.806030 123.075104,72.376122 
	C121.559708,75.173820 121.559708,75.173820 119.893211,73.397987 
M57.188572,64.514717 
	C54.737358,67.675285 56.913445,69.634552 59.482533,69.770767 
	C67.127518,70.176117 74.811104,70.024612 82.470680,69.793976 
	C83.586563,69.760376 84.968155,68.278610 85.603065,67.123978 
	C85.895538,66.592079 84.931427,64.822021 84.107101,64.321350 
	C81.115944,62.504650 70.725510,64.718193 69.480667,66.291000 
	C67.240318,65.412445 65.536125,64.428078 63.716984,64.117912 
	C61.823597,63.795082 59.819225,64.123207 57.188572,64.514717 
M95.268692,65.238487 
	C92.646980,65.238487 90.025269,65.238487 87.177361,65.238487 
	C87.177361,66.214775 87.177361,67.671089 87.177361,69.187874 
	C98.023552,69.187874 108.768326,69.187874 119.531708,69.187874 
	C118.752106,67.541695 118.010574,65.975906 117.269035,64.410118 
	C115.152130,61.211304 114.347710,66.107918 111.512115,65.250206 
	C106.746803,63.808784 101.125618,65.196815 95.268692,65.238487 
M82.847374,72.010910 
	C81.582733,72.671066 79.895157,73.048080 79.198593,74.088554 
	C78.715073,74.810791 79.248772,76.764336 79.984230,77.564880 
	C80.501114,78.127495 83.014557,77.954742 83.114571,77.634727 
	C84.378174,73.591537 86.270798,78.280678 87.677200,77.326134 
	C87.677200,75.663155 87.677200,74.104088 87.677200,73.130981 
	C86.009743,72.693169 84.795731,72.374413 82.847374,72.010910 
M129.875076,66.990822 
	C129.710236,66.113564 129.545395,65.236313 129.388885,64.403442 
	C127.396561,64.403442 124.868950,64.403442 122.317719,64.403442 
	C122.317719,66.394066 122.317719,67.979065 122.317719,69.571022 
	C124.550705,69.723869 126.499275,70.051567 128.400574,69.873787 
	C129.002808,69.817474 129.478882,68.411957 129.875076,66.990822 
z"/>
<path fill="#000000" opacity="1.000000" stroke="none" 
	d="
M1.000000,37.000000 
	C1.000000,25.059298 1.000000,13.118595 1.000000,1.000000 
	C18.353823,1.000000 35.708252,1.000000 53.811188,1.273039 
	C53.336327,2.676745 52.112957,3.807412 50.618309,5.048244 
	C49.863255,5.752254 49.379478,6.346099 48.596611,6.968521 
	C47.849792,7.296207 47.402065,7.595318 46.657288,8.018242 
	C45.536854,8.743893 44.713467,9.345730 43.646591,10.021152 
	C43.233150,10.378362 43.063202,10.661986 42.597870,11.063592 
	C41.495106,11.768684 40.687733,12.355796 39.647812,13.009586 
	C39.114727,13.263734 38.961189,13.534544 38.651329,13.943312 
	C37.886509,14.299897 37.425007,14.601865 36.684631,15.001678 
	C35.923546,15.699727 35.441334,16.299931 34.574699,16.957628 
	C34.330982,18.719301 33.948132,20.727676 34.723907,22.062866 
	C36.231270,24.657204 38.632675,24.683781 41.205982,22.919062 
	C41.421535,23.000912 41.881126,23.038721 42.013863,23.345955 
	C42.396179,25.082035 42.645763,26.510880 42.520538,27.972475 
	C41.037479,28.419695 39.929226,28.834164 38.820972,29.248634 
	C38.377110,29.948744 37.933247,30.648853 37.489380,31.348963 
	C39.797421,33.553478 42.105461,35.757996 44.613235,38.153286 
	C46.910809,35.546436 47.986282,34.326195 49.374008,32.982994 
	C51.163185,31.587919 52.640102,30.315802 54.494019,29.030247 
	C56.299141,30.671671 57.727264,32.326534 58.748837,34.056870 
	C56.871620,35.754665 55.400963,37.376991 53.543640,38.963573 
	C47.278984,37.732304 43.073021,40.152481 39.723518,45.030792 
	C39.269291,45.347775 39.087528,45.647900 38.951309,45.974136 
	C38.996857,46.000244 38.914841,45.934963 38.561588,45.955185 
	C36.435406,47.301895 34.662472,48.628380 32.675453,49.959396 
	C32.461369,49.963928 32.041153,49.881275 32.027218,49.520866 
	C31.268576,47.817455 30.523869,46.474453 29.679173,44.951134 
	C29.966824,44.571850 30.540098,43.815952 31.424334,43.034378 
	C32.192936,42.691776 32.650578,42.374851 33.451973,41.900146 
	C36.746845,40.398697 36.694061,38.126724 35.256313,35.864876 
	C34.197823,34.199665 32.551144,33.131046 34.804073,30.952492 
	C35.323830,30.449892 33.696423,27.726828 33.057098,26.025578 
	C32.354771,26.645336 31.652443,27.265093 30.645805,27.934616 
	C29.931040,27.968910 29.520586,27.953440 29.050072,27.582489 
	C27.657940,25.222422 26.325865,23.217840 24.730705,21.187584 
	C24.275021,21.448595 24.082420,21.735285 23.599770,22.127491 
	C23.227081,22.421453 23.144447,22.609896 23.044495,22.812496 
	C23.027180,22.826656 22.987005,22.845869 22.690006,22.970448 
	C21.579000,23.693962 20.764994,24.292898 19.674271,24.993923 
	C18.940697,25.455120 18.483841,25.814224 17.712013,26.170309 
	C16.564091,27.095194 15.731142,28.023100 14.579901,28.974447 
	C13.483606,29.632051 12.705604,30.266214 11.573488,30.942364 
	C7.812918,32.989567 4.406459,34.994785 1.000000,37.000000 
z"/>
<path fill="#474445" opacity="1.000000" stroke="none" 
	d="
M201.000000,60.583336 
	C199.898087,61.230667 198.796188,61.461330 197.305420,61.773392 
	C196.830109,60.482220 196.625198,58.892841 195.761810,57.847218 
	C194.732056,56.600147 193.096054,54.981804 191.798920,55.046738 
	C190.155121,55.129021 188.096558,56.392109 187.104507,57.780308 
	C185.663712,59.796486 185.433090,63.009865 181.023087,61.110264 
	C183.952072,53.586773 186.818863,46.223011 189.685669,38.859249 
	C190.309753,38.801491 190.933838,38.743732 191.557938,38.685970 
	C192.775452,41.186447 193.965286,43.700882 195.217300,46.183956 
	C196.875336,49.472237 198.582016,52.736000 200.633881,56.005150 
	C201.000000,57.388889 201.000000,58.777779 201.000000,60.583336 
z"/>
<path fill="#EE3E43" opacity="1.000000" stroke="none" 
	d="
M1.000000,37.416664 
	C4.406459,34.994785 7.812918,32.989567 11.591171,31.391624 
	C12.371567,36.232632 12.533035,40.707859 13.268375,45.086716 
	C13.838080,48.479237 15.125359,51.751251 16.093655,55.076836 
	C14.650062,57.506683 13.609865,57.492672 11.904951,55.007442 
	C8.692623,50.324875 5.047215,45.939407 1.290919,41.715218 
	C1.000000,40.611111 1.000000,39.222221 1.000000,37.416664 
z"/>
<path fill="#363334" opacity="1.000000" stroke="none" 
	d="
M108.468658,85.000000 
	C106.589195,81.476517 107.484390,79.747520 111.571396,79.970688 
	C119.542938,80.405968 127.549393,80.396881 135.487305,81.145454 
	C138.195374,81.400833 140.886002,85.459511 142.927567,79.064667 
	C143.880951,81.662720 144.364838,82.981369 144.924362,84.650009 
	C132.979111,85.000000 120.958214,85.000000 108.468658,85.000000 
z"/>
<path fill="#138FCD" opacity="1.000000" stroke="none" 
	d="
M50.889591,4.938081 
	C52.112957,3.807412 53.336327,2.676745 54.279846,1.273039 
	C56.041668,1.000000 58.083332,1.000000 60.562500,1.000000 
	C61.379391,1.878230 61.533108,3.002674 62.176743,3.592608 
	C65.164940,6.331499 64.285881,7.942755 60.099022,8.971464 
	C56.543034,7.615974 53.716312,6.277029 50.889591,4.938081 
z"/>
<path fill="#363434" opacity="1.000000" stroke="none" 
	d="
M95.449982,85.000000 
	C95.000000,83.536842 95.000000,82.073685 95.000000,81.142761 
	C98.628426,80.692223 101.731781,80.306877 104.895241,79.914062 
	C104.554825,81.572067 104.278992,82.915512 104.001579,84.629471 
	C101.299988,85.000000 98.599968,85.000000 95.449982,85.000000 
z"/>
<path fill="#373335" opacity="1.000000" stroke="none" 
	d="
M160.345459,64.074036 
	C164.087326,64.540413 167.283401,65.939629 170.885742,64.933250 
	C171.756714,64.689926 173.237656,66.629929 174.230835,67.404327 
	C176.026413,66.330368 177.870361,64.615364 179.953903,64.243767 
	C180.970566,64.062447 182.433853,66.385422 183.694977,67.574844 
	C182.509644,68.381592 181.348755,69.830055 180.134430,69.876335 
	C176.289093,70.022942 172.425125,69.546288 168.565872,69.493385 
	C162.389740,69.408722 156.211609,69.470718 149.629120,69.470718 
	C149.242676,68.263245 148.731018,66.664513 148.399597,65.628967 
	C146.772491,67.054085 145.455002,69.056709 143.740311,69.490959 
	C141.683548,70.011841 139.288544,69.191437 137.039215,68.959450 
	C135.569626,68.807892 134.098648,68.669861 132.200623,68.483864 
	C132.200623,67.701820 132.200623,66.274071 132.200623,64.119881 
	C141.528168,64.119881 150.738663,64.119881 160.345459,64.074036 
z"/>
<path fill="#484546" opacity="1.000000" stroke="none" 
	d="
M151.998352,45.087883 
	C152.494553,38.877304 156.645813,38.436462 161.524155,38.952553 
	C164.411499,39.258015 167.324097,39.324680 170.608063,40.167137 
	C170.992584,47.872208 170.994400,54.908863 170.996216,61.945522 
	C164.963791,61.945522 158.931381,61.945522 152.929916,61.945522 
	C152.735138,57.200516 152.735138,57.200516 150.358368,56.654480 
	C152.925323,53.058136 151.653976,48.936703 151.998352,45.087883 
M165.618134,49.357136 
	C166.021500,56.676270 159.464157,50.859764 157.436996,54.101276 
	C157.024094,58.393024 160.306213,59.375587 170.363144,57.076000 
	C169.890457,52.461330 169.403030,47.702667 168.664551,42.107792 
	C164.568817,42.107792 160.473068,42.107792 156.307373,42.107792 
	C156.307373,44.574120 156.307373,46.627392 156.307373,48.991718 
	C159.362839,48.991718 162.152420,48.991718 165.618134,49.357136 
z"/>
<path fill="#4A4849" opacity="1.000000" stroke="none" 
	d="
M87.889023,43.789040 
	C90.141472,46.707863 92.393913,49.626690 94.646355,52.545517 
	C95.100471,52.447792 95.554588,52.350071 96.008705,52.252346 
	C96.008705,48.700039 95.912521,45.144306 96.038811,41.596497 
	C96.141869,38.701427 96.259735,38.705624 99.015686,39.852440 
	C98.982048,47.545677 98.985046,54.380642 98.988052,61.215607 
	C97.501251,60.892033 95.411827,61.077175 94.633682,60.155380 
	C91.534836,56.484467 88.844650,52.468571 84.990158,48.752438 
	C84.990158,51.437164 85.008606,54.122047 84.985039,56.806568 
	C84.960884,59.558479 85.495987,62.852039 80.819450,61.579403 
	C80.846817,57.144932 80.846817,57.144932 78.349121,56.613815 
	C78.390877,54.159840 78.747253,51.969395 79.480652,49.814152 
	C80.525429,47.921238 81.111794,45.959579 81.888123,44.076221 
	C82.450333,42.712288 83.264481,41.452202 84.097061,40.436657 
	C85.448235,41.748020 86.668625,42.768528 87.889023,43.789040 
z"/>
<path fill="#4A4848" opacity="1.000000" stroke="none" 
	d="
M119.975113,61.119274 
	C113.095764,64.414413 114.624207,57.117134 112.187691,54.900932 
	C107.982079,54.165356 105.462494,55.972473 103.989861,59.811890 
	C103.655113,60.684631 102.414352,61.209858 101.186569,61.459774 
	C100.821571,59.374981 100.860619,57.725456 100.899666,56.075928 
	C103.185234,50.483875 105.470810,44.891823 108.028023,38.635170 
	C115.101257,41.898331 113.157677,50.711071 118.495384,55.959988 
	C118.775558,50.351437 119.025185,45.354530 119.627998,40.562668 
	C119.979172,47.551567 119.977142,54.335423 119.975113,61.119274 
z"/>
<path fill="#363334" opacity="1.000000" stroke="none" 
	d="
M119.947815,73.763428 
	C121.559708,75.173820 121.559708,75.173820 123.075104,72.376122 
	C123.372726,72.806030 123.691727,73.144371 123.862083,73.545799 
	C124.049316,73.986969 124.099724,74.486206 124.199142,74.914505 
	C125.338387,73.949638 126.358849,72.441994 127.583015,72.252861 
	C128.556107,72.102516 129.778244,73.564301 130.889816,74.310341 
	C130.080917,75.507225 129.266296,77.744720 128.463989,77.740311 
	C120.277031,77.695427 112.093086,77.095116 103.906158,77.051346 
	C99.148781,77.025917 94.387505,77.730080 89.301071,78.131767 
	C89.301071,75.886612 89.301071,74.298538 89.301071,71.513008 
	C93.425468,72.331940 97.260780,73.122849 101.113838,73.815018 
	C101.518654,73.887733 102.029465,73.167603 102.488785,73.170593 
	C108.290504,73.208427 114.091805,73.311539 119.947815,73.763428 
z"/>
<path fill="#464445" opacity="1.000000" stroke="none" 
	d="
M151.696365,44.931278 
	C151.653976,48.936703 152.925323,53.058136 150.052902,56.801605 
	C149.569977,57.677269 149.109650,58.235542 148.077850,58.940514 
	C147.006561,59.691471 146.506760,60.295727 146.006958,60.899986 
	C142.965759,61.258362 139.924545,61.616741 136.444366,61.516899 
	C136.002548,53.717236 135.999725,46.375801 135.996918,39.034367 
	C136.421127,38.996540 136.845322,38.958717 137.848755,39.189178 
	C140.332520,39.621090 142.237045,39.784714 144.141571,39.948341 
	C146.559174,41.557117 148.976776,43.165897 151.696365,44.931278 
M148.521652,51.796787 
	C147.774521,49.437073 147.552200,46.653522 146.103821,44.860153 
	C145.062363,43.570633 142.378220,43.246101 140.441376,43.281647 
	C139.921051,43.291195 139.160721,46.166473 139.026993,47.769314 
	C138.793961,50.562435 138.962143,53.389023 138.962143,56.162098 
	C143.886566,58.826447 146.175812,56.052635 148.521652,51.796787 
z"/>
<path fill="#484848" opacity="1.000000" stroke="none" 
	d="
M79.103622,49.778950 
	C78.747253,51.969395 78.390877,54.159840 78.046921,56.772236 
	C77.601776,57.731308 77.144218,58.268425 76.118210,58.952469 
	C75.033791,59.721981 74.517822,60.344570 74.001854,60.967155 
	C67.836182,63.765476 63.297455,60.984440 59.023109,55.937767 
	C59.199608,51.379311 59.563538,47.537086 60.221947,43.569729 
	C62.326054,42.219227 64.135681,40.993866 66.343628,39.788628 
	C67.799347,39.711178 68.856735,39.613605 70.284302,39.646698 
	C71.433846,39.866203 72.213211,39.955048 73.174156,40.270630 
	C73.897835,40.696121 74.439934,40.894886 75.123993,41.366688 
	C76.159843,42.484703 77.053726,43.329685 78.011810,44.528473 
	C78.418541,46.514507 78.761078,48.146729 79.103622,49.778950 
M64.530952,43.028645 
	C64.232269,43.115391 64.015442,43.298836 63.242306,43.910706 
	C60.129807,46.930786 59.221458,50.310646 61.846134,54.838074 
	C62.863098,55.705818 63.880058,56.573563 65.333725,57.810760 
	C65.893486,57.897404 66.453239,57.984047 67.814964,58.213539 
	C69.345024,57.829704 70.875084,57.445873 72.945999,56.607872 
	C77.280495,52.473030 76.927376,45.635403 71.742081,42.411549 
	C70.817261,42.302483 69.892441,42.193413 68.254555,41.981319 
	C67.157951,42.310135 66.061348,42.638950 64.530952,43.028645 
z"/>
<path fill="#444142" opacity="1.000000" stroke="none" 
	d="
M171.393707,61.929169 
	C170.994400,54.908863 170.992584,47.872208 170.983627,40.354950 
	C176.382706,38.330318 181.688721,38.358864 186.872543,40.304276 
	C186.919098,40.955353 186.965652,41.606426 187.012192,42.257504 
	C182.944153,42.563877 178.876099,42.870251 174.327576,43.212811 
	C174.240952,44.621101 174.156723,45.990631 174.054169,47.657940 
	C177.266907,47.986950 180.108688,48.277969 183.072922,48.581528 
	C183.250336,55.619526 177.489868,51.779907 175.295822,53.253521 
	C174.053604,56.322823 172.922394,59.117821 171.393707,61.929169 
z"/>
<path fill="#373335" opacity="1.000000" stroke="none" 
	d="
M57.525978,64.340714 
	C59.819225,64.123207 61.823597,63.795082 63.716984,64.117912 
	C65.536125,64.428078 67.240318,65.412445 69.480667,66.291000 
	C70.725510,64.718193 81.115944,62.504650 84.107101,64.321350 
	C84.931427,64.822021 85.895538,66.592079 85.603065,67.123978 
	C84.968155,68.278610 83.586563,69.760376 82.470680,69.793976 
	C74.811104,70.024612 67.127518,70.176117 59.482533,69.770767 
	C56.913445,69.634552 54.737358,67.675285 57.525978,64.340714 
z"/>
<path fill="#363334" opacity="1.000000" stroke="none" 
	d="
M95.566605,65.316483 
	C101.125618,65.196815 106.746803,63.808784 111.512115,65.250206 
	C114.347710,66.107918 115.152130,61.211304 117.269035,64.410118 
	C118.010574,65.975906 118.752106,67.541695 119.531708,69.187874 
	C108.768326,69.187874 98.023552,69.187874 87.177361,69.187874 
	C87.177361,67.671089 87.177361,66.214775 87.177361,65.238487 
	C90.025269,65.238487 92.646980,65.238487 95.566605,65.316483 
z"/>
<path fill="#F8B17C" opacity="1.000000" stroke="none" 
	d="
M45.833473,69.984573 
	C46.600128,71.771149 47.366787,73.557716 47.620975,75.665436 
	C43.574680,74.245476 39.926250,72.700745 36.532345,70.719894 
	C30.587137,67.249985 24.798090,63.512508 18.943623,59.887123 
	C20.056597,58.918415 21.169571,57.949711 22.770088,57.251389 
	C30.782909,61.676041 38.308193,65.830307 45.833473,69.984573 
z"/>
<path fill="#F79F5F" opacity="1.000000" stroke="none" 
	d="
M18.619423,60.048462 
	C24.798090,63.512508 30.587137,67.249985 36.532345,70.719894 
	C39.926250,72.700745 43.574680,74.245476 47.472691,75.990967 
	C45.474216,79.306816 42.911545,78.595169 40.066471,76.581024 
	C39.255882,76.007172 37.931477,76.159111 36.158073,75.862610 
	C30.279421,73.178093 25.085382,70.609200 19.891344,68.040314 
	C17.941576,65.719124 15.839186,63.429043 18.619423,60.048462 
z"/>
<path fill="#514D4D" opacity="1.000000" stroke="none" 
	d="
M39.995987,45.013935 
	C43.073021,40.152481 47.278984,37.732304 53.852005,39.079086 
	C55.030792,40.816921 55.514553,42.403503 55.648338,43.858124 
	C52.144669,41.798714 49.007820,40.325687 45.736515,43.985851 
	C44.883457,44.245186 44.358150,44.587044 43.519264,45.081745 
	C39.962841,51.191013 41.610336,56.100151 47.164196,57.296921 
	C49.851128,57.235912 52.492168,56.771252 55.505417,56.307728 
	C56.618221,56.283897 57.358814,56.258934 58.099411,56.233967 
	C56.634933,58.128105 55.170456,60.022243 52.955944,61.880356 
	C47.219574,62.026653 43.737701,59.286682 40.470909,55.545898 
	C39.893608,54.148884 39.448986,53.077187 39.049339,51.550331 
	C39.034492,49.375103 38.974667,47.655033 38.914841,45.934963 
	C38.914841,45.934963 38.996857,46.000244 39.260406,46.140854 
	C39.681297,45.858952 39.838642,45.436443 39.995987,45.013935 
z"/>
<path fill="#F9C49D" opacity="1.000000" stroke="none" 
	d="
M45.972343,69.682777 
	C38.308193,65.830307 30.782909,61.676041 23.100075,57.208618 
	C24.989687,54.043674 26.781071,53.872623 28.791225,57.089035 
	C29.246489,57.817493 31.030899,57.715275 32.911011,58.021973 
	C38.783195,61.049210 43.947868,64.049896 49.112541,67.050591 
	C48.112099,67.827385 47.111656,68.604187 45.972343,69.682777 
z"/>
<path fill="#494647" opacity="1.000000" stroke="none" 
	d="
M135.635712,39.260910 
	C135.999725,46.375801 136.002548,53.717236 136.002563,61.526848 
	C130.858414,61.887886 125.717079,61.780746 120.275436,61.396442 
	C119.977142,54.335423 119.979172,47.551567 119.963570,40.280350 
	C120.480629,39.506397 121.015312,39.219807 121.812439,39.489346 
	C122.074890,45.925636 122.074890,51.805798 122.074890,57.971622 
	C125.987442,57.971622 129.412094,57.971622 132.836746,57.971622 
	C133.537872,56.507992 134.731720,55.082489 134.848480,53.573635 
	C135.210510,48.895267 135.163055,44.185215 135.635712,39.260910 
z"/>
<path fill="#F16266" opacity="1.000000" stroke="none" 
	d="
M16.374126,54.952530 
	C15.125359,51.751251 13.838080,48.479237 13.268375,45.086716 
	C12.533035,40.707859 12.371567,36.232632 11.945284,31.349640 
	C12.705604,30.266214 13.483606,29.632051 14.878918,29.240273 
	C16.678688,37.024517 17.861151,44.566376 19.043613,52.108234 
	C18.247274,53.014896 17.450935,53.921558 16.374126,54.952530 
z"/>
<path fill="#F58C3E" opacity="1.000000" stroke="none" 
	d="
M20.027735,68.361633 
	C25.085382,70.609200 30.279421,73.178093 35.787426,75.901329 
	C34.218803,78.076385 32.336216,80.097084 30.173325,82.418663 
	C26.692699,77.642174 23.428411,73.162560 20.027735,68.361633 
z"/>
<path fill="#F8B6B8" opacity="1.000000" stroke="none" 
	d="
M23.061811,22.798338 
	C23.144447,22.609896 23.227081,22.421453 23.826580,22.057493 
	C24.634203,21.731005 24.850985,21.508099 24.993790,21.213259 
	C26.325865,23.217840 27.657940,25.222422 28.758442,27.826424 
	C29.389038,33.303913 30.251205,38.181984 31.113371,43.060055 
	C30.540098,43.815952 29.966824,44.571850 29.679173,44.951134 
	C30.523869,46.474453 31.268576,47.817455 31.995779,49.828712 
	C31.959290,50.702404 31.940304,50.907848 31.921316,51.113293 
	C30.833389,51.731575 29.745462,52.349854 28.332970,52.454262 
	C27.259628,44.210014 26.655334,36.461079 25.666008,28.761618 
	C25.400644,26.696415 23.961899,24.781982 23.061811,22.798338 
z"/>
<path fill="#B3DAEE" opacity="1.000000" stroke="none" 
	d="
M41.881126,23.038719 
	C41.881126,23.038721 41.421535,23.000912 41.147644,22.594093 
	C38.902206,20.424896 36.930660,18.662516 34.959118,16.900135 
	C35.441334,16.299931 35.923546,15.699727 36.833542,15.316489 
	C38.552933,16.545731 39.757023,17.702707 41.150940,18.545853 
	C48.111263,22.755976 55.121418,26.883711 62.114044,31.040428 
	C61.045490,31.741528 59.976933,32.442627 58.937668,33.551117 
	C58.966965,33.958511 59.155392,33.981400 59.155392,33.981400 
	C57.727264,32.326534 56.299141,30.671671 54.137192,28.983154 
	C49.562626,26.979240 45.721874,25.008980 41.881126,23.038719 
z"/>
<path fill="#363334" opacity="1.000000" stroke="none" 
	d="
M153.084335,76.098541 
	C151.131241,76.732239 149.172928,77.909439 147.226105,77.890739 
	C142.640244,77.846695 138.059860,77.232300 133.295471,76.833427 
	C133.295471,75.610283 133.295471,74.076523 133.295471,71.677147 
	C136.457703,72.390915 139.159134,72.998207 141.859039,73.612289 
	C142.362518,73.726814 143.196808,74.116867 143.311127,73.961739 
	C147.017426,68.931770 147.568298,73.934402 149.411987,76.714996 
	C150.337997,75.067093 150.928391,74.016426 151.603119,72.815666 
	C151.888351,73.781876 152.154297,74.682716 152.721344,75.804863 
	C153.022446,76.026169 153.084335,76.098541 153.084335,76.098541 
z"/>
<path fill="#F9D6BD" opacity="1.000000" stroke="none" 
	d="
M49.434669,66.910950 
	C43.947868,64.049896 38.783195,61.049210 33.256096,58.002918 
	C33.263542,57.186111 33.633415,56.414902 34.477047,55.382301 
	C36.835068,55.371006 38.719326,55.621113 40.603588,55.871216 
	C43.737701,59.286682 47.219574,62.026653 52.604488,61.924820 
	C55.781628,66.223579 50.721947,65.102989 49.434669,66.910950 
z"/>
<path fill="#D6ECE2" opacity="1.000000" stroke="none" 
	d="
M58.748837,34.056870 
	C59.155392,33.981400 58.966965,33.958511 58.920059,33.965446 
	C59.574425,34.704830 60.275688,35.437279 60.737862,36.835796 
	C60.308338,39.566196 60.117901,41.630531 59.927467,43.694866 
	C59.563538,47.537086 59.199608,51.379311 58.916698,55.610569 
	C58.997715,55.999607 58.518360,56.001064 58.308884,56.117516 
	C57.358814,56.258934 56.618221,56.283897 55.472557,55.847404 
	C55.028393,53.547016 54.989300,51.708088 54.977444,49.516415 
	C54.953869,48.461628 54.903053,47.759586 55.138641,46.859138 
	C55.616131,45.770523 55.807224,44.880306 55.998314,43.990089 
	C55.514553,42.403503 55.030792,40.816921 54.238667,39.114822 
	C55.400963,37.376991 56.871620,35.754665 58.748837,34.056870 
z"/>
<path fill="#A0D1EA" opacity="1.000000" stroke="none" 
	d="
M62.418793,30.922539 
	C55.121418,26.883711 48.111263,22.755976 41.150940,18.545853 
	C39.757023,17.702707 38.552933,16.545731 37.112411,15.218645 
	C37.425007,14.601865 37.886509,14.299897 38.842243,14.229173 
	C45.130035,17.933126 50.880592,21.480829 56.739071,24.840340 
	C58.972538,26.121109 61.453529,26.970249 63.821712,28.016100 
	C63.455658,28.945618 63.089600,29.875134 62.418793,30.922539 
z"/>
<path fill="#8DC8E6" opacity="1.000000" stroke="none" 
	d="
M63.898026,27.674648 
	C61.453529,26.970249 58.972538,26.121109 56.739071,24.840340 
	C50.880592,21.480829 45.130035,17.933126 39.145561,14.174555 
	C38.961189,13.534544 39.114727,13.263734 40.013023,13.057479 
	C47.441704,16.704926 54.272617,20.371159 61.103531,24.037392 
	C62.060471,25.135994 63.017406,26.234596 63.898026,27.674648 
z"/>
<path fill="#F3777A" opacity="1.000000" stroke="none" 
	d="
M19.314966,51.998932 
	C17.861151,44.566376 16.678688,37.024517 15.197209,29.216831 
	C15.731142,28.023100 16.564091,27.095194 17.704704,26.545033 
	C18.346716,28.280554 18.681063,29.638329 19.012684,31.328213 
	C19.012344,32.102943 19.014729,32.545563 19.011276,33.427246 
	C19.683340,39.281704 20.361238,44.697094 21.039135,50.112488 
	C20.554865,50.704868 20.070591,51.297249 19.314966,51.998932 
z"/>
<path fill="#47A7D9" opacity="1.000000" stroke="none" 
	d="
M46.954334,7.894429 
	C47.402065,7.595318 47.849792,7.296207 48.911285,7.122717 
	C53.386276,9.151716 57.247505,11.055097 61.108734,12.958477 
	C61.108734,12.958476 61.553978,13.030475 61.820129,13.437653 
	C64.425751,15.578298 66.765228,17.311766 69.104698,19.045233 
	C68.640045,19.362644 68.175392,19.680058 67.076271,19.880470 
	C59.945980,15.807123 53.450157,11.850776 46.954334,7.894429 
z"/>
<path fill="#F69C9E" opacity="1.000000" stroke="none" 
	d="
M19.950987,24.891832 
	C20.764994,24.292898 21.579000,23.693962 22.695477,23.405754 
	C23.332783,26.313061 23.647654,28.912399 24.006289,31.505686 
	C24.989849,38.617809 25.991796,45.727386 26.986467,52.837975 
	C25.993340,52.164036 25.000212,51.490097 23.998783,50.188210 
	C23.993572,49.373341 23.996664,49.186420 24.000523,48.581146 
	C23.662222,46.108643 23.323158,44.054489 22.985092,41.669067 
	C22.984953,40.896107 22.983812,40.454418 22.989323,39.573940 
	C22.976660,37.978786 23.181868,36.763309 22.895927,35.677132 
	C22.038561,32.420326 20.989330,29.214025 20.004997,25.713619 
	C19.980339,25.256760 19.965664,25.074295 19.950987,24.891832 
z"/>
<path fill="#F6A9AB" opacity="1.000000" stroke="none" 
	d="
M27.243942,52.900173 
	C25.991796,45.727386 24.989849,38.617809 24.006289,31.505686 
	C23.647654,28.912399 23.332783,26.313061 22.992477,23.281176 
	C22.987005,22.845869 23.027180,22.826656 23.044495,22.812496 
	C23.961899,24.781982 25.400644,26.696415 25.666008,28.761618 
	C26.655334,36.461079 27.259628,44.210014 28.010784,52.382889 
	C27.842579,52.871048 27.671997,52.916710 27.243942,52.900173 
z"/>
<path fill="#7BC0E3" opacity="1.000000" stroke="none" 
	d="
M61.338543,23.976896 
	C54.272617,20.371159 47.441704,16.704926 40.245575,12.990799 
	C40.687733,12.355796 41.495106,11.768684 42.912037,11.216118 
	C49.698483,15.203160 55.875374,19.155659 62.052265,23.108154 
	C62.032509,23.460375 61.872940,23.729790 61.338543,23.976896 
z"/>
<path fill="#59B0DC" opacity="1.000000" stroke="none" 
	d="
M46.657288,8.018242 
	C53.450157,11.850776 59.945980,15.807123 66.766884,19.905399 
	C66.277786,20.651905 65.463615,21.256477 64.196571,21.672215 
	C57.125828,17.638109 50.507957,13.792839 43.890083,9.947569 
	C44.713467,9.345730 45.536854,8.743893 46.657288,8.018242 
z"/>
<path fill="#2FB777" opacity="1.000000" stroke="none" 
	d="
M77.947609,44.174664 
	C77.053726,43.329685 76.159843,42.484703 75.133018,40.910019 
	C75.354034,35.410877 75.707985,30.641439 76.061943,25.872000 
	C77.850632,27.435333 79.639320,28.998667 81.428001,30.561998 
	C80.873512,30.662336 80.319016,30.762674 79.764526,30.863012 
	C79.080605,32.657883 78.396683,34.452755 77.870819,37.014519 
	C78.001793,39.912498 77.974701,42.043583 77.947609,44.174664 
z"/>
<path fill="#84D4AF" opacity="1.000000" stroke="none" 
	d="
M69.914139,39.516037 
	C68.856735,39.613605 67.799347,39.711178 66.351479,39.433128 
	C65.957924,38.346981 65.954842,37.636448 65.951752,36.925919 
	C66.122726,35.946747 66.759537,34.716465 66.389046,34.029182 
	C63.993484,29.585285 65.830124,27.648378 70.448219,27.339268 
	C70.426460,31.624020 70.170296,35.570026 69.914139,39.516037 
z"/>
<path fill="#69B8E0" opacity="1.000000" stroke="none" 
	d="
M43.646591,10.021152 
	C50.507957,13.792839 57.125828,17.638109 63.899017,21.794422 
	C63.588684,22.406919 63.123032,22.708372 62.354820,23.058990 
	C55.875374,19.155659 49.698483,15.203160 43.207428,11.098137 
	C43.063202,10.661986 43.233150,10.378362 43.646591,10.021152 
z"/>
<path fill="#373334" opacity="1.000000" stroke="none" 
	d="
M83.214546,72.033287 
	C84.795731,72.374413 86.009743,72.693169 87.677200,73.130981 
	C87.677200,74.104088 87.677200,75.663155 87.677200,77.326134 
	C86.270798,78.280678 84.378174,73.591537 83.114571,77.634727 
	C83.014557,77.954742 80.501114,78.127495 79.984230,77.564880 
	C79.248772,76.764336 78.715073,74.810791 79.198593,74.088554 
	C79.895157,73.048080 81.582733,72.671066 83.214546,72.033287 
z"/>
<path fill="#363334" opacity="1.000000" stroke="none" 
	d="
M129.943878,67.307350 
	C129.478882,68.411957 129.002808,69.817474 128.400574,69.873787 
	C126.499275,70.051567 124.550705,69.723869 122.317719,69.571022 
	C122.317719,67.979065 122.317719,66.394066 122.317719,64.403442 
	C124.868950,64.403442 127.396561,64.403442 129.388885,64.403442 
	C129.545395,65.236313 129.710236,66.113564 129.943878,67.307350 
z"/>
<path fill="#1D9F62" opacity="1.000000" stroke="none" 
	d="
M78.011810,44.528473 
	C77.974701,42.043583 78.001793,39.912498 78.041718,37.327347 
	C78.488510,36.915146 78.922478,36.957012 79.745529,37.398109 
	C81.411835,38.580162 82.689056,39.362984 83.966278,40.145805 
	C83.264481,41.452202 82.450333,42.712288 81.888123,44.076221 
	C81.111794,45.959579 80.525429,47.921238 79.480652,49.814152 
	C78.761078,48.146729 78.418541,46.514507 78.011810,44.528473 
z"/>
<path fill="#61C496" opacity="1.000000" stroke="none" 
	d="
M70.284309,39.646698 
	C70.170296,35.570026 70.426460,31.624020 70.827789,27.287045 
	C71.763184,26.277250 72.553413,25.658424 73.665207,25.518173 
	C73.655380,30.679129 73.323975,35.361511 72.992577,40.043892 
	C72.213211,39.955048 71.433846,39.866203 70.284309,39.646698 
z"/>
<path fill="#329DD4" opacity="1.000000" stroke="none" 
	d="
M60.965607,12.634937 
	C57.247505,11.055097 53.386276,9.151716 49.210373,7.094141 
	C49.379478,6.346099 49.863255,5.752254 50.618309,5.048244 
	C53.716312,6.277029 56.543034,7.615974 59.731075,9.000610 
	C60.335758,10.134665 60.579121,11.223031 60.965607,12.634937 
z"/>
<path fill="#F48487" opacity="1.000000" stroke="none" 
	d="
M23.999758,48.999496 
	C23.996664,49.186420 23.993572,49.373341 23.971497,49.840073 
	C23.223085,50.084908 22.493662,50.049934 21.401688,50.063725 
	C20.361238,44.697094 19.683340,39.281704 19.383282,33.512131 
	C20.174532,34.315994 20.501888,35.514713 21.024832,36.620972 
	C21.580856,37.797215 22.322231,38.885841 22.982672,40.012726 
	C22.983812,40.454418 22.984953,40.896107 22.715452,41.920601 
	C22.963127,44.668770 23.481441,46.834133 23.999758,48.999496 
z"/>
<path fill="#07A65B" opacity="1.000000" stroke="none" 
	d="
M84.097061,40.436653 
	C82.689056,39.362984 81.411835,38.580162 80.065849,37.463829 
	C80.906387,36.083706 81.815674,35.037094 83.582336,33.003632 
	C85.248444,36.832047 86.606316,39.952206 87.926605,43.430702 
	C86.668625,42.768528 85.448235,41.748020 84.097061,40.436653 
z"/>
<path fill="#4BC089" opacity="1.000000" stroke="none" 
	d="
M73.174156,40.270626 
	C73.323975,35.361511 73.655380,30.679129 73.983360,25.580742 
	C74.575706,25.218367 75.171486,25.271994 75.914597,25.598810 
	C75.707985,30.641439 75.354034,35.410877 74.991058,40.636986 
	C74.439934,40.894886 73.897835,40.696121 73.174156,40.270626 
z"/>
<path fill="#329DD4" opacity="1.000000" stroke="none" 
	d="
M69.482422,19.010445 
	C66.765228,17.311766 64.425751,15.578298 62.033974,13.509263 
	C64.824776,12.468431 67.799133,11.752353 69.564064,14.944493 
	C70.156174,16.015404 69.788895,17.616756 69.482422,19.010445 
z"/>
<path fill="#363334" opacity="1.000000" stroke="none" 
	d="
M152.989639,75.991653 
	C153.266251,74.326523 152.418015,71.376366 155.975967,73.545883 
	C156.437958,73.827583 157.849960,72.551292 159.223648,71.767410 
	C159.817291,73.745995 160.309860,75.387711 161.046021,77.841347 
	C158.270294,77.209282 156.001099,76.692566 153.408112,76.137192 
	C153.084335,76.098541 153.022446,76.026169 152.989639,75.991653 
z"/>
<path fill="#F8E1CF" opacity="1.000000" stroke="none" 
	d="
M40.470909,55.545898 
	C38.719326,55.621113 36.835068,55.371006 34.554161,55.057571 
	C33.436298,53.942459 32.715080,52.890675 31.957588,51.476093 
	C31.940304,50.907848 31.959290,50.702404 32.009712,50.189117 
	C32.041153,49.881275 32.461369,49.963928 33.038429,50.007668 
	C35.411785,50.702766 37.208073,51.354130 39.004364,52.005493 
	C39.448986,53.077187 39.893608,54.148884 40.470909,55.545898 
z"/>
<path fill="#F9F9F9" opacity="1.000000" stroke="none" 
	d="
M132.650436,57.595451 
	C129.412094,57.971622 125.987442,57.971622 122.074890,57.971622 
	C122.074890,51.805798 122.074890,45.925636 122.119995,39.587383 
	C122.589539,44.915611 123.013977,50.701931 123.461700,56.805828 
	C126.344101,56.938206 129.404114,57.078739 132.650436,57.595451 
z"/>
<path fill="#D9D9D9" opacity="1.000000" stroke="none" 
	d="
M100.528847,55.846073 
	C100.860619,57.725456 100.821571,59.374981 100.815132,61.448502 
	C100.401863,61.602451 99.955986,61.332405 99.249077,61.138985 
	C98.985046,54.380642 98.982048,47.545677 98.980904,40.224205 
	C99.374512,45.030537 99.766266,50.323376 100.528847,55.846073 
z"/>
<path fill="#B1DAC7" opacity="1.000000" stroke="none" 
	d="
M65.635208,37.061005 
	C65.954842,37.636448 65.957924,38.346981 65.953156,39.413006 
	C64.135681,40.993866 62.326054,42.219227 60.221947,43.569729 
	C60.117901,41.630531 60.308338,39.566196 60.781399,37.244633 
	C62.482239,37.056965 63.900452,37.126530 65.635208,37.061005 
z"/>
<path fill="#494647" opacity="1.000000" stroke="none" 
	d="
M143.973480,39.627243 
	C142.237045,39.784714 140.332520,39.621090 138.165375,39.146870 
	C139.870300,38.992901 141.837845,39.149525 143.973480,39.627243 
z"/>
<path fill="#484546" opacity="1.000000" stroke="none" 
	d="
M146.302719,60.862144 
	C146.506760,60.295727 147.006561,59.691471 147.836578,59.073936 
	C147.644012,59.648544 147.121246,60.236423 146.302719,60.862144 
z"/>
<path fill="#4A4849" opacity="1.000000" stroke="none" 
	d="
M74.307724,60.934834 
	C74.517822,60.344570 75.033791,59.721981 75.891235,59.094711 
	C75.693008,59.694191 75.153305,60.298351 74.307724,60.934834 
z"/>
<path fill="#FAD9DA" opacity="1.000000" stroke="none" 
	d="
M30.950113,27.884850 
	C31.652443,27.265093 32.354771,26.645336 33.057098,26.025578 
	C33.696423,27.726828 35.323830,30.449892 34.804073,30.952492 
	C32.551144,33.131046 34.197823,34.199665 35.256313,35.864876 
	C36.694061,38.126724 36.746845,40.398697 33.150688,41.629616 
	C31.987141,36.972855 31.468626,32.428852 30.950113,27.884850 
z"/>
<path fill="#F6FBFD" opacity="1.000000" stroke="none" 
	d="
M49.061756,33.105957 
	C47.986282,34.326195 46.910809,35.546436 44.613235,38.153286 
	C42.105461,35.757996 39.797421,33.553478 37.489380,31.348963 
	C37.933247,30.648853 38.377110,29.948744 38.820972,29.248634 
	C39.929226,28.834164 41.037479,28.419695 42.834927,28.124638 
	C45.369999,29.864687 47.215878,31.485321 49.061756,33.105957 
z"/>
<path fill="#CDE7F4" opacity="1.000000" stroke="none" 
	d="
M49.374008,32.982994 
	C47.215878,31.485321 45.369999,29.864687 43.209736,28.091888 
	C42.645763,26.510880 42.396179,25.082035 42.013863,23.345955 
	C45.721874,25.008980 49.562626,26.979240 53.760197,28.996593 
	C52.640102,30.315802 51.163185,31.587919 49.374008,32.982994 
z"/>
<path fill="#F9C7C8" opacity="1.000000" stroke="none" 
	d="
M30.645805,27.934614 
	C31.468626,32.428852 31.987141,36.972855 32.806938,41.787392 
	C32.650578,42.374851 32.192936,42.691776 31.424334,43.034378 
	C30.251205,38.181984 29.389038,33.303913 28.818501,28.181908 
	C29.520586,27.953440 29.931040,27.968910 30.645805,27.934614 
z"/>
<path fill="#CDE7F4" opacity="1.000000" stroke="none" 
	d="
M34.574699,16.957628 
	C36.930660,18.662516 38.902206,20.424896 40.932091,22.512245 
	C38.632675,24.683781 36.231270,24.657204 34.723907,22.062866 
	C33.948132,20.727676 34.330982,18.719301 34.574699,16.957628 
z"/>
<path fill="#F9F0E8" opacity="1.000000" stroke="none" 
	d="
M39.049339,51.550331 
	C37.208073,51.354130 35.411785,50.702766 33.252518,50.003136 
	C34.662472,48.628380 36.435406,47.301895 38.561588,45.955185 
	C38.974667,47.655033 39.034492,49.375103 39.049339,51.550331 
z"/>
<path fill="#F48487" opacity="1.000000" stroke="none" 
	d="
M19.674271,24.993923 
	C19.965664,25.074295 19.980339,25.256760 19.999020,26.101345 
	C19.673819,28.174349 19.344614,29.585226 19.015411,30.996103 
	C18.681063,29.638329 18.346716,28.280554 18.019676,26.548054 
	C18.483841,25.814224 18.940697,25.455120 19.674271,24.993923 
z"/>
<path fill="#F9F0E8" opacity="1.000000" stroke="none" 
	d="
M39.723518,45.030792 
	C39.838642,45.436443 39.681297,45.858952 39.214859,46.114742 
	C39.087528,45.647900 39.269291,45.347775 39.723518,45.030792 
z"/>
<path fill="#F6A9AB" opacity="1.000000" stroke="none" 
	d="
M24.730705,21.187584 
	C24.850985,21.508099 24.634203,21.731005 24.116632,21.951975 
	C24.082420,21.735285 24.275021,21.448595 24.730705,21.187584 
z"/>
<path fill="#000000" opacity="1.000000" stroke="none" 
	d="
M168.915588,42.944000 
	C169.403030,47.702667 169.890457,52.461330 170.363144,57.076000 
	C160.306213,59.375587 157.024094,58.393024 157.436996,54.101276 
	C159.464157,50.859764 166.021500,56.676270 165.138641,48.771225 
	C162.241165,48.069374 159.823166,47.953438 157.323303,47.833576 
	C157.323303,46.135658 157.323303,44.647240 157.323303,42.944000 
	C161.405838,42.944000 165.160721,42.944000 168.915588,42.944000 
z"/>
<path fill="#E7E7E7" opacity="1.000000" stroke="none" 
	d="
M168.790070,42.525894 
	C165.160721,42.944000 161.405838,42.944000 157.323303,42.944000 
	C157.323303,44.647240 157.323303,46.135658 157.323303,47.833576 
	C159.823166,47.953438 162.241165,48.069374 164.800583,48.588516 
	C162.152420,48.991718 159.362839,48.991718 156.307373,48.991718 
	C156.307373,46.627392 156.307373,44.574120 156.307373,42.107792 
	C160.473068,42.107792 164.568817,42.107792 168.790070,42.525894 
z"/>
<path fill="#000000" opacity="1.000000" stroke="none" 
	d="
M148.306305,52.102722 
	C146.175812,56.052635 143.886566,58.826447 138.962143,56.162098 
	C138.962143,53.389023 138.793961,50.562435 139.026993,47.769314 
	C139.160721,46.166473 139.921051,43.291195 140.441376,43.281647 
	C142.378220,43.246101 145.062363,43.570633 146.103821,44.860153 
	C147.552200,46.653522 147.774521,49.437073 148.306305,52.102722 
z"/>
<path fill="#58BF8A" opacity="1.000000" stroke="none" 
	d="
M72.239250,42.922886 
	C76.927376,45.635403 77.280495,52.473030 72.236275,56.800621 
	C67.940987,54.891090 68.393089,45.965561 72.239250,42.922886 
z"/>
<path fill="#72CBA1" opacity="1.000000" stroke="none" 
	d="
M71.990662,42.667217 
	C68.393089,45.965561 67.940987,54.891090 71.965851,57.027702 
	C70.875084,57.445873 69.345024,57.829704 67.410645,57.707275 
	C66.685272,54.799782 66.364220,52.398552 66.033813,49.668564 
	C66.028580,48.901596 66.032684,48.463394 66.387772,47.951687 
	C67.481705,45.946903 68.224663,44.015625 68.967621,42.084343 
	C69.892441,42.193413 70.817261,42.302483 71.990662,42.667217 
z"/>
<path fill="#A1D3BB" opacity="1.000000" stroke="none" 
	d="
M61.559486,54.220398 
	C59.221458,50.310646 60.129807,46.930786 63.595882,44.211193 
	C63.977585,46.354668 64.005707,48.197655 64.030563,50.409378 
	C64.028419,51.515594 64.029564,52.253075 63.715622,53.131119 
	C62.786854,53.587921 62.173172,53.904160 61.559486,54.220398 
z"/>
<path fill="#82CFAB" opacity="1.000000" stroke="none" 
	d="
M64.030701,52.990559 
	C64.029564,52.253075 64.028419,51.515594 64.364632,50.398277 
	C65.149040,50.011406 65.596107,50.004364 66.043167,49.997322 
	C66.364220,52.398552 66.685272,54.799782 67.009666,57.635849 
	C66.453239,57.984047 65.893486,57.897404 65.142647,57.219746 
	C64.644615,55.416008 64.337662,54.203281 64.030701,52.990559 
z"/>
<path fill="#82CFAB" opacity="1.000000" stroke="none" 
	d="
M68.611084,42.032829 
	C68.224663,44.015625 67.481705,45.946903 66.374649,47.558937 
	C65.661949,45.815712 65.313347,44.391739 64.964745,42.967766 
	C66.061348,42.638950 67.157951,42.310135 68.611084,42.032829 
z"/>
<path fill="#93D7B7" opacity="1.000000" stroke="none" 
	d="
M64.747849,42.998207 
	C65.313347,44.391739 65.661949,45.815712 66.023666,47.632439 
	C66.032684,48.463394 66.028580,48.901596 66.033813,49.668564 
	C65.596107,50.004364 65.149040,50.011406 64.367905,50.029545 
	C64.005707,48.197655 63.977585,46.354668 63.914955,44.045334 
	C64.015442,43.298836 64.232269,43.115391 64.747849,42.998207 
z"/>
<path fill="#93D7B7" opacity="1.000000" stroke="none" 
	d="
M63.715622,53.131119 
	C64.337662,54.203281 64.644615,55.416008 64.924294,57.035019 
	C63.880058,56.573563 62.863098,55.705818 61.702812,54.529236 
	C62.173172,53.904160 62.786854,53.587921 63.715622,53.131119 
z"/>
<path fill="#F8F5F2" opacity="1.000000" stroke="none" 
	d="
M47.118309,56.893272 
	C41.610336,56.100151 39.962841,51.191013 43.818802,45.107937 
	C44.632076,44.991016 44.832226,45.000744 45.106895,45.346680 
	C47.018780,47.727207 48.856144,49.771530 50.908524,52.055077 
	C48.086205,53.474632 44.277180,53.129360 47.048512,56.969589 
	C47.081764,56.955540 47.118309,56.893272 47.118309,56.893272 
z"/>
<path fill="#F0F1EE" opacity="1.000000" stroke="none" 
	d="
M54.950203,49.869156 
	C54.989300,51.708088 55.028393,53.547016 55.100349,55.846268 
	C52.492168,56.771252 49.851128,57.235912 47.164196,57.296921 
	C47.118309,56.893272 47.081764,56.955540 47.457123,56.978004 
	C50.857368,57.588009 51.359440,55.586349 52.079128,53.309616 
	C52.495655,51.991943 53.958336,51.004963 54.950203,49.869156 
z"/>
<path fill="#EDF0EF" opacity="1.000000" stroke="none" 
	d="
M55.648338,43.858124 
	C55.807224,44.880306 55.616131,45.770523 54.827564,46.728916 
	C52.232204,43.652905 49.277412,43.288727 45.991734,43.982704 
	C46.014973,44.012043 46.064266,44.068378 46.064266,44.068378 
	C49.007820,40.325687 52.144669,41.798714 55.648338,43.858124 
z"/>
<path fill="#EDF0EF" opacity="1.000000" stroke="none" 
	d="
M45.032375,45.010475 
	C44.832226,45.000744 44.632076,44.991016 44.132385,44.955093 
	C44.358150,44.587044 44.883457,44.245186 45.736515,43.985851 
	C46.064266,44.068378 46.014973,44.012043 45.911896,44.217506 
	C45.626419,44.719795 45.367607,44.915630 45.032375,45.010475 
z"/>
<path fill="#000000" opacity="1.000000" stroke="none" 
	d="
M45.106895,45.346680 
	C45.367607,44.915630 45.626419,44.719795 45.888657,44.188164 
	C49.277412,43.288727 52.232204,43.652905 54.541161,46.927315 
	C54.903053,47.759586 54.953869,48.461628 54.977440,49.516411 
	C53.958336,51.004963 52.495655,51.991943 52.079128,53.309616 
	C51.359440,55.586349 50.857368,57.588009 47.423874,56.992058 
	C44.277180,53.129360 48.086205,53.474632 50.908524,52.055077 
	C48.856144,49.771530 47.018780,47.727207 45.106895,45.346680 
z"/>
<path fill="#F59093" opacity="1.000000" stroke="none" 
	d="
M19.012684,31.328213 
	C19.344614,29.585226 19.673819,28.174349 20.009003,26.375744 
	C20.989330,29.214025 22.038561,32.420326 22.895927,35.677132 
	C23.181868,36.763309 22.976660,37.978786 22.989323,39.573940 
	C22.322231,38.885841 21.580856,37.797215 21.024832,36.620972 
	C20.501888,35.514713 20.174532,34.315994 19.389118,33.073067 
	C19.014729,32.545563 19.012344,32.102943 19.012684,31.328213 
z"/>
<path fill="#F59093" opacity="1.000000" stroke="none" 
	d="
M24.000523,48.581146 
	C23.481441,46.834133 22.963127,44.668770 22.714451,42.251869 
	C23.323158,44.054489 23.662222,46.108643 24.000523,48.581146 
z"/>
</svg>