<svg width="166" height="140" viewBox="0 0 166 140" fill="none" xmlns="http://www.w3.org/2000/svg">
<g clip-path="url(#clip0_189_652)">
<path d="M156.136 117.296C165.117 125.618 161.775 140.328 148.686 135.871C135.597 131.414 89.3313 86.5974 89.3313 86.5974C89.3313 86.5974 58.1377 120.756 23.5711 96.072C-6.01922 74.9413 1.67425 34.5498 12.849 20.5873C24.0237 6.62482 62.2474 -6.99481 85.85 13.7619C109.453 34.5186 98.2432 71.513 98.2432 71.513L156.136 117.296Z" fill="white"/>
<path d="M54.0788 0.00377148C26.0363 0.317348 -3.23612 20.185 0.289806 60.2328C10.093 114.51 59.18 116.439 91.1209 90.888C95.0477 95.1145 101.189 100.356 104.421 103.081C115.743 112.81 138.033 134.761 145.707 137.508C151.775 142.373 158.354 139.669 161.864 133.246C172.622 122.423 159.715 114.228 153.423 110.266C139.393 101.045 119.151 82.0369 103.108 70.8095C101.246 69.1856 101.246 69.1856 102.122 65.1793C103.471 59.0053 102.969 40.9335 101.268 34.4646C96.9561 11.3447 75.8896 -0.240108 54.0788 0.00377148ZM52.0449 6.27899C71.1586 5.98493 90.5345 17.2435 96.3283 42.4498C98.3894 56.5009 98.6954 74.9406 82.5936 86.9275C54.8348 111.574 8.98397 100.631 7.19952 55.8554C7.05284 45.6239 7.83368 40.6298 10.348 35.7063C16.366 17.0264 34.0895 6.55531 52.0449 6.27899ZM51.0481 13.1124C42.9205 13.1619 34.592 16.0006 27.0369 22.7003C21.7081 27.4374 19.7163 30.6691 16.1699 40.3339C13.0773 48.7735 11.2782 60.2632 15.2598 71.5783C20.3598 84.3627 32.1191 91.6659 47.7973 91.787C76.0641 90.5106 90.1463 76.3799 92.6547 52.2925C92.6547 48.4984 90.977 39.5913 90.0911 38.6835C83.4917 24.6029 67.6904 13.0109 51.0481 13.1124ZM51.7012 19.9659C64.8494 19.8531 78.1695 27.5387 82.8783 42.119C88.713 59.3219 79.573 78.6241 56.8101 83.295C42.265 85.8295 25.4191 81.2928 20.691 63.7947C19.1812 52.9648 21.1387 43.058 26.6058 33.0223C32.6037 24.2835 42.1067 20.0482 51.7012 19.9659ZM27.0083 52.3905C26.5605 52.4047 26.1477 53.2301 25.692 55.2111C24.9032 58.6399 24.6514 61.2008 26.8471 65.9317C29.5708 71.8001 37.9835 80.5694 50.5028 77.1865C53.8813 76.2736 54.1804 69.6311 44.7243 70.2597C32.1429 71.0961 29.166 52.3227 27.0083 52.3905ZM98.5649 78.2339C99.0017 78.1903 99.5776 78.6092 100.729 79.4462C108.015 84.8988 140.031 107.845 153.44 118.746C159.116 123.361 162.585 127.344 153.287 131.984C136.461 126.959 119.973 107.296 99.7514 88.598C94.8399 83.7992 94.8504 83.8379 97.2338 79.7945C97.83 78.7832 98.1281 78.2775 98.5649 78.2339Z" fill="#3C738C"/>
</g>
<defs>
<clipPath id="clip0_189_652">
<rect width="166" height="140" fill="white"/>
</clipPath>
</defs>
</svg>
