<svg width="117" height="109" viewBox="0 0 117 109" fill="none" xmlns="http://www.w3.org/2000/svg">
<g id="XMLID_7416_">
<g id="XMLID_6143_">
<path id="XMLID_6159_" d="M30.6383 50.1124L15.3191 39.4686L0 50.1124V0H30.6383V50.1124Z" fill="#78D0A7"/>
<g id="XMLID_6157_">
<path id="XMLID_6158_" d="M115.003 25.458H99.4376C93.3373 25.458 88.3859 21.5264 88.3859 16.6824V4.3009H92.4346V16.6606C92.4346 19.7234 95.5804 22.2214 99.4376 22.2214H115.003V25.458Z" fill="#78D0A7"/>
</g>
<g id="XMLID_6155_">
<path id="XMLID_6156_" d="M105.976 108.609H24.3465C18.2462 108.609 13.2948 104.678 13.2948 99.8337V45.1381H17.3434V99.8337C17.3434 102.897 20.4893 105.395 24.3465 105.395H105.948C109.805 105.395 112.951 102.897 112.951 99.8337V24.5023L90.547 5.93007H34.9331V2.69351H92.2978L117 23.199V99.8337C117.027 104.678 112.076 108.609 105.976 108.609Z" fill="#78D0A7"/>
</g>
<g id="XMLID_6144_">
<g id="XMLID_6153_">
<path id="XMLID_6154_" d="M104.389 61.2774H25.6595V64.4922H104.389V61.2774Z" fill="#78D0A7"/>
</g>
<g id="XMLID_6151_">
<path id="XMLID_6152_" d="M81.6838 69.5534H25.6595V72.7682H81.6838V69.5534Z" fill="#78D0A7"/>
</g>
<g id="XMLID_6149_">
<path id="XMLID_6150_" d="M62.5622 77.8077H25.6595V81.0225H62.5622V77.8077Z" fill="#78D0A7"/>
</g>
<g id="XMLID_6147_">
<path id="XMLID_6148_" d="M101.544 86.0838H25.6595V89.2986H101.544V86.0838Z" fill="#78D0A7"/>
</g>
<g id="XMLID_6145_">
<path id="XMLID_6146_" d="M95.3616 94.3598H25.6595V97.5746H95.3616V94.3598Z" fill="#78D0A7"/>
</g>
</g>
</g>
<g id="XMLID_8325_">
<path id="XMLID_8331_" d="M44.7811 45.377V51.0464H41.6352V36.0583H48.8571C50.9361 36.0583 52.5775 36.4927 53.7538 37.3399C54.93 38.187 55.5319 39.3166 55.5319 40.7068C55.5319 42.1187 54.93 43.2482 53.7538 44.0954C52.5775 44.9425 50.9361 45.3553 48.8571 45.3553H44.7811V45.377ZM44.7811 43.3786H48.8571C50.0334 43.3786 50.9088 43.1396 51.4832 42.64C52.0577 42.1404 52.3586 41.5105 52.3586 40.7502C52.3586 39.9899 52.0577 39.36 51.4832 38.8387C50.9088 38.3391 50.006 38.0784 48.8571 38.0784H44.7811V43.3786Z" fill="#78D0A7"/>
<path id="XMLID_8328_" d="M59.3069 51.0681V36.08H65.544C67.924 36.08 69.8936 36.6665 71.3708 37.8612C72.8753 39.0559 73.6139 40.5764 73.6139 42.4445V44.7253C73.6139 46.5934 72.8753 48.1139 71.3708 49.3086C69.8662 50.4816 67.924 51.0681 65.544 51.0681H59.3069ZM62.4802 38.0784V49.048H65.5714C67.0759 49.048 68.2796 48.6353 69.1823 47.8315C70.0851 47.0278 70.5227 45.9852 70.5227 44.7036V42.4011C70.5227 41.1412 70.0851 40.0986 69.1823 39.2949C68.2796 38.4911 67.1033 38.0784 65.5714 38.0784H62.4802Z" fill="#78D0A7"/>
<path id="XMLID_8326_" d="M88.6595 44.6819H81.0546V51.0681H77.9087V36.08H89.9726V38.0784H81.0546V42.6617H88.6595V44.6819Z" fill="#78D0A7"/>
</g>
</g>
</svg>
