<svg width="302" height="236" viewBox="0 0 302 236" fill="none" xmlns="http://www.w3.org/2000/svg">
<path d="M151 38.4375C164.358 38.4375 175.188 30.0009 175.188 19.5938C175.188 9.18663 164.358 0.75 151 0.75C137.642 0.75 126.812 9.18663 126.812 19.5938C126.812 30.0009 137.642 38.4375 151 38.4375Z" fill="#9AC9E4"/>
<path d="M126.888 76.125C123.543 76.1327 120.261 75.4206 117.404 74.0673C114.546 72.714 112.223 70.7721 110.692 68.4557C109.161 66.1394 108.481 63.5386 108.727 60.9402C108.973 58.3418 110.135 55.8467 112.085 53.7303C116.582 48.9855 122.446 45.1293 129.205 42.4719C135.964 39.8145 143.429 38.4302 151 38.4302C158.571 38.4302 166.036 39.8145 172.795 42.4719C179.554 45.1293 185.418 48.9855 189.915 53.7303C191.865 55.8467 193.028 58.3418 193.273 60.9402C193.519 63.5386 192.839 66.1394 191.308 68.4557C189.777 70.7721 187.454 72.714 184.596 74.0673C181.739 75.4206 178.457 76.1327 175.112 76.125H126.888Z" fill="#9AC9E4"/>
<path d="M259.091 113.812C272.45 113.812 283.279 105.376 283.279 94.9688C283.279 84.5616 272.45 76.125 259.091 76.125C245.733 76.125 234.904 84.5616 234.904 94.9688C234.904 105.376 245.733 113.812 259.091 113.812Z" fill="#67C797"/>
<path d="M234.979 151.5C231.635 151.508 228.353 150.796 225.495 149.442C222.637 148.089 220.315 146.147 218.783 143.831C217.252 141.514 216.572 138.914 216.818 136.315C217.064 133.717 218.226 131.222 220.176 129.105C224.674 124.36 230.537 120.504 237.296 117.847C244.055 115.19 251.52 113.805 259.091 113.805C266.662 113.805 274.127 115.19 280.886 117.847C287.645 120.504 293.509 124.36 298.006 129.105C299.956 131.221 301.117 133.714 301.364 136.311C301.611 138.908 300.932 141.507 299.404 143.823C297.875 146.139 295.556 148.081 292.701 149.436C289.847 150.79 286.567 151.505 283.225 151.5H234.979Z" fill="#67C797"/>
<path d="M42.9088 113.812C56.2671 113.812 67.0963 105.376 67.0963 94.9688C67.0963 84.5616 56.2671 76.125 42.9088 76.125C29.5504 76.125 18.7213 84.5616 18.7213 94.9688C18.7213 105.376 29.5504 113.812 42.9088 113.812Z" fill="#F0605D"/>
<path d="M18.775 151.5C15.4307 151.508 12.1487 150.796 9.29089 149.442C6.4331 148.089 4.11057 146.147 2.57948 143.831C1.04839 141.514 0.368217 138.914 0.61398 136.315C0.859743 133.717 2.02189 131.222 3.97226 129.105C8.46953 124.36 14.3335 120.504 21.0924 117.847C27.8513 115.19 35.3164 113.805 42.8872 113.805C50.4581 113.805 57.9232 115.19 64.6821 117.847C71.441 120.504 77.305 124.36 81.8022 129.105C83.7515 131.221 84.9135 133.714 85.1601 136.311C85.4067 138.908 84.7284 141.507 83.1999 143.823C81.6714 146.139 79.352 148.081 76.4974 149.436C73.6427 150.79 70.3635 151.505 67.021 151.5H18.775Z" fill="#F0605D"/>
<path d="M151 197.562C164.358 197.562 175.188 189.126 175.188 178.719C175.188 168.312 164.358 159.875 151 159.875C137.642 159.875 126.812 168.312 126.812 178.719C126.812 189.126 137.642 197.562 151 197.562Z" fill="#F8AF79"/>
<path d="M126.888 235.25C123.543 235.258 120.261 234.546 117.404 233.192C114.546 231.839 112.223 229.897 110.692 227.581C109.161 225.264 108.481 222.664 108.727 220.065C108.973 217.467 110.135 214.972 112.085 212.855C116.582 208.11 122.446 204.254 129.205 201.597C135.964 198.94 143.429 197.555 151 197.555C158.571 197.555 166.036 198.94 172.795 201.597C179.554 204.254 185.418 208.11 189.915 212.855C191.865 214.972 193.028 217.467 193.273 220.065C193.519 222.664 192.839 225.264 191.308 227.581C189.777 229.897 187.454 231.839 184.596 233.192C181.739 234.546 178.457 235.258 175.112 235.25H126.888Z" fill="#F8AF79"/>
<path d="M107.011 23.0443C105.818 21.0281 103.647 19.4633 100.974 18.6938C98.3012 17.9243 95.3454 18.013 92.7565 18.9406C75.1246 25.2685 59.3616 34.367 46.4563 45.6652C44.5503 47.32 43.5662 49.4968 43.7204 51.7169C43.8747 53.937 45.1546 56.0184 47.2786 57.5032C49.4027 58.9881 52.1969 59.7548 55.0465 59.6346C57.8962 59.5145 60.5678 58.5173 62.4738 56.8626C73.4235 47.278 86.7916 39.5547 101.744 34.1747C103.029 33.7147 104.185 33.0616 105.146 32.2527C106.107 31.4439 106.853 30.4953 107.343 29.4613C107.832 28.4273 108.055 27.3282 107.998 26.227C107.941 25.1259 107.606 24.0443 107.011 23.0443Z" fill="white"/>
<path d="M247.084 171.734C237.976 181.601 226.475 189.983 213.232 196.407C212.032 196.991 210.991 197.753 210.17 198.65C209.348 199.548 208.761 200.562 208.442 201.636C208.124 202.71 208.08 203.823 208.314 204.91C208.547 205.997 209.053 207.038 209.803 207.973C210.552 208.907 211.531 209.718 212.683 210.358C213.834 210.998 215.137 211.456 216.515 211.704C217.894 211.952 219.322 211.986 220.717 211.804C222.112 211.622 223.448 211.228 224.648 210.644C240.251 203.063 253.803 193.179 264.542 181.549C266.207 179.746 266.884 177.501 266.424 175.308C265.964 173.116 264.406 171.155 262.091 169.858C259.775 168.561 256.894 168.033 254.079 168.391C251.265 168.749 248.749 169.964 247.084 171.767V171.734Z" fill="white"/>
<path d="M239.526 56.8624C240.464 57.6935 241.603 58.3716 242.879 58.8577C244.155 59.3437 245.541 59.628 246.959 59.6941C248.376 59.7603 249.797 59.607 251.138 59.243C252.479 58.8791 253.714 58.3117 254.772 57.5738C255.83 56.8358 256.69 55.9418 257.302 54.9435C257.914 53.9451 258.266 52.8622 258.338 51.7573C258.41 50.6523 258.2 49.5473 257.72 48.5059C257.24 47.4645 256.501 46.5075 255.544 45.6901C242.638 34.392 226.875 25.2935 209.243 18.9655C207.955 18.4684 206.552 18.1776 205.117 18.1103C203.683 18.0431 202.245 18.2007 200.89 18.5739C199.534 18.947 198.289 19.5282 197.227 20.283C196.165 21.0377 195.308 21.9508 194.707 22.968C194.106 23.9853 193.773 25.0862 193.727 26.2056C193.682 27.3249 193.925 28.44 194.442 29.4848C194.96 30.5297 195.741 31.483 196.74 32.2886C197.738 33.0941 198.934 33.7354 200.257 34.1745C215.208 39.5545 228.576 47.2779 239.526 56.8624Z" fill="white"/>
<path d="M88.7683 196.407C75.5248 189.983 64.0244 181.601 54.9165 171.734C54.0921 170.841 53.0499 170.083 51.8496 169.504C50.6492 168.925 49.3141 168.535 47.9206 168.358C45.1063 168 42.2246 168.527 39.9095 169.825C37.5944 171.122 36.0356 173.082 35.5759 175.275C35.1163 177.467 35.7935 179.712 37.4585 181.516C48.1972 193.146 61.7487 203.029 77.3518 210.611C79.7752 211.79 82.7007 212.171 85.4848 211.67C88.269 211.169 90.6836 209.827 92.1975 207.939C93.7114 206.051 94.2006 203.772 93.5575 201.603C92.9144 199.434 91.1917 197.553 88.7683 196.373V196.407Z" fill="white"/>
</svg>
