<svg width="329" height="293" viewBox="0 0 329 293" fill="none" xmlns="http://www.w3.org/2000/svg">
<g clip-path="url(#clip0_272_57)">
<path d="M161.029 0.591858L142.601 26.4497L160.324 53.7868L177.911 25.4336L161.029 0.591858ZM205.844 84.9501C201.248 84.9503 196.839 86.8288 193.589 90.1725C190.339 93.5162 188.513 98.0511 188.513 102.78C188.513 107.508 190.339 112.043 193.589 115.387C196.839 118.73 201.248 120.609 205.844 120.609C210.441 120.609 214.849 118.73 218.1 115.387C221.35 112.043 223.176 107.508 223.176 102.78C223.176 98.0511 221.35 93.5162 218.1 90.1725C214.849 86.8289 210.441 84.9503 205.844 84.9501ZM115.66 87.0511C113.276 87.0509 110.916 87.5142 108.714 88.4147C106.512 89.3151 104.511 90.635 102.826 92.299C101.14 93.9631 99.8035 95.9386 98.8914 98.1128C97.9793 100.287 97.5103 102.617 97.5103 104.971C97.5103 107.324 97.9793 109.654 98.8914 111.829C99.8035 114.003 101.14 115.978 102.826 117.642C104.511 119.306 106.512 120.626 108.714 121.527C110.916 122.427 113.276 122.89 115.66 122.89C118.043 122.89 120.403 122.427 122.605 121.526C124.806 120.625 126.807 119.305 128.492 117.641C130.177 115.977 131.514 114.002 132.425 111.828C133.337 109.654 133.807 107.324 133.807 104.971C133.807 102.618 133.337 100.287 132.425 98.1133C131.514 95.9393 130.177 93.9639 128.492 92.2999C126.807 90.6359 124.806 89.316 122.605 88.4154C120.403 87.5148 118.043 87.0512 115.66 87.0511ZM230.216 124.711C223.888 124.785 219.966 130.3 217.856 135.983C214.801 144.215 219.644 164.1 235.073 183.285L221.165 183.259C222.895 194.853 236.463 204.14 276.694 204.34C316.925 204.541 325.186 183.449 325.186 183.449L284.607 183.375C283.365 181.566 252.7 136.971 240.39 128.476C236.465 125.767 233.092 124.677 230.216 124.711ZM97.1577 130.421C79.9941 131.073 66.2632 182.912 66.2632 182.912L66.4012 184.955L64.5436 187.733L7.85969 188.805C6.92574 194.764 14.4719 212.842 64.6892 214.851C114.906 216.859 106.931 186.932 106.931 186.932L99.9659 187.064C103.409 180.494 107.43 171.451 109.19 162.177C112.545 144.503 120.76 140.928 101.591 131.421C100.093 130.678 98.6122 130.366 97.1577 130.421ZM163.495 153.588C161.091 153.616 158.796 154.545 157.106 156.173C155.417 157.801 154.47 159.997 154.47 162.286C154.471 164.592 155.434 166.804 157.148 168.435C158.862 170.065 161.186 170.981 163.61 170.981C166.033 170.98 168.357 170.064 170.071 168.434C171.784 166.803 172.747 164.592 172.747 162.286C172.748 159.979 171.785 157.767 170.071 156.136C168.358 154.505 166.034 153.588 163.61 153.588C163.572 153.588 163.533 153.588 163.495 153.588ZM164.456 230.206L143.787 236.313L141.899 246.551L133.623 249.909L129.143 262.071L115.856 266.307L115.621 285.679L205.612 284.195L204.787 267.519L189.55 262.51L176.68 243.91L164.456 230.206Z" fill="white"/>
<path d="M162.119 292.847C115.975 292.847 112.86 292.985 110.411 285.781C109.597 283.386 109.183 279.297 109.406 275.846C109.876 268.542 116.18 264.355 120.378 264.355C123.158 264.355 123.26 264.185 123.26 259.566C123.26 252.845 125.097 249.81 129.949 248.514C132.153 247.926 134.729 247.212 135.675 246.927C136.83 246.58 137.394 245.387 137.394 243.292C137.394 241.577 138.295 238.664 139.396 236.819C141.396 233.468 142.186 233.12 150.864 231.765C154.901 231.135 154.985 231.042 154.367 227.895C154.018 226.121 153.705 216.596 153.67 206.729C153.606 188.8 153.609 188.786 156.064 186.666C159.271 183.895 162.574 183.898 164.007 186.679C165.157 188.904 165.901 224.116 164.907 229.247C164.455 231.581 164.762 231.831 168.775 232.394C172.128 232.864 173.772 233.796 175.899 236.434C177.419 238.321 178.663 240.82 178.663 241.988C178.663 244.588 180.43 246.555 182.765 246.555C184.669 246.555 187.169 250.837 189.002 257.239C189.981 260.657 190.624 261.353 193.013 261.578C199.757 262.215 202.371 263.077 205.298 265.627C209.303 269.118 210.762 272.863 211.618 281.856C213.28 295.132 174.103 292.854 162.119 292.847ZM158.61 281.603C169.469 280.792 182.818 280.128 188.276 280.128C193.734 280.128 198.454 279.701 198.765 279.18C199.719 277.58 196.275 271.359 193.535 269.736C191.687 268.64 190.101 268.449 187.998 269.067C186.377 269.544 172.227 269.919 156.555 269.9C140.882 269.882 123.29 270.064 121.939 270.237C119.616 270.534 119.497 270.853 119.751 276.131C119.899 279.2 120.195 282.225 120.409 282.853C120.837 284.109 127.004 283.966 158.61 281.603ZM141.646 261.248C144.255 260.858 153.762 260.253 162.772 259.903C178.8 259.281 179.161 259.218 179.468 256.978C179.763 254.83 179.428 254.687 174.064 254.671C170.919 254.657 164.366 254.236 159.503 253.727C154.639 253.217 146.459 252.653 141.325 252.473L131.99 252.145L131.679 256.067C131.248 261.498 132.029 263.161 134.701 262.501C135.912 262.202 139.037 261.638 141.646 261.248ZM167.671 242.592C167.84 241.468 167.5 239.623 166.916 238.492C166.035 236.787 165.427 236.605 163.351 237.422C161.975 237.964 157.55 238.407 153.519 238.407C146.555 238.407 146.141 238.537 145.231 241.018C144.704 242.453 144.272 243.957 144.272 244.359C144.272 244.762 149.468 244.989 155.818 244.864C166.538 244.654 167.385 244.491 167.671 242.592ZM36.187 219.745C24.4758 215.976 10.7973 208.557 4.9895 202.825C-0.536006 197.371 -0.977075 195.831 1.26958 189.839C2.0608 187.729 6.23434 176.158 10.5444 164.125C14.8542 152.092 20.4386 136.752 22.9543 130.036C25.47 123.32 31.2163 107.687 35.7239 95.2954C40.2314 82.904 45.496 69.3255 47.4227 65.1207C51.41 56.4194 51.4463 56.2625 49.4747 56.2625C48.6766 56.2625 47.3313 55.1684 46.4854 53.8312C44.1886 50.2014 46.1841 42.9651 50.5857 38.9628C58.353 31.9005 65.2415 38.0554 61.6553 48.8537C61.3378 49.8099 70.7511 50.2494 102.69 50.7705C125.485 51.1422 144.75 51.2026 145.499 50.9059C146.544 50.4907 145.74 47.9554 142.058 40.0534C135.104 26.9969 137.824 28.8561 145.689 16.6101C150.328 9.38703 155.251 2.55855 156.63 1.43541C160.12 -1.40725 162.877 -0.0778795 165.834 5.87246C167.176 8.57355 170.081 12.114 172.418 13.8966C177.447 17.7325 180.082 23.5157 179.149 28.6661C178.797 30.6097 176.554 36.2313 174.164 41.1588C171.775 46.0861 169.82 50.3557 169.82 50.6466C169.82 50.9376 188.547 51.1758 211.436 51.1758H253.052L252.595 46.2512C252.183 41.8167 252.406 41.1082 254.837 39.1284C258.08 36.4864 264.806 36.1773 269.094 38.4735C274.006 41.1038 276.551 49.2431 274.003 54.1729C273.269 55.5933 274.391 59.0569 278.87 69.2027C282.071 76.4539 289.295 94.2527 294.922 108.756C300.549 123.259 306.929 139.246 309.099 144.283C319.031 167.332 320.486 171.07 321.483 176.082C322.354 180.467 322.912 181.425 324.593 181.425C327.158 181.425 329 183.268 329 185.835C329 193.33 323.006 201.772 314.54 206.201C304.975 211.205 296.803 212.235 271.213 211.663C246.622 211.113 238.033 209.876 230.341 205.777C224.657 202.748 220.582 198.4 217.929 192.534C215.092 186.26 215.939 182.467 220.525 180.916L223.532 179.898L221.468 175.828C220.332 173.589 217.949 168.375 216.172 164.241L212.941 156.724L208.838 165.259C206.582 169.952 202.86 175.739 200.568 178.117C196.779 182.051 195.958 182.442 191.499 182.442C185.72 182.442 177.247 179.249 173.662 175.721L171.118 173.216L164.819 176.302C157.562 179.857 153.759 180.19 151.508 177.468C149.961 175.597 149.751 175.628 143.486 178.664C138.564 181.049 135.251 181.89 129.378 182.242C120.756 182.759 116.809 181.578 113.765 177.57C112.695 176.161 111.681 175.193 111.512 175.418C109.779 177.732 106.934 183.517 106.934 184.727C106.934 185.572 107.635 186.866 108.491 187.602C111.68 190.343 107.282 205.318 101.574 211.154C100.087 212.675 96.3801 214.884 93.3364 216.063C72.9459 221.806 54.8281 225.681 36.187 219.745ZM99.1976 197.45L101.078 193.634H79.6003C40.7695 193.634 10.6397 194.808 10.6397 196.32C24.7264 208.388 47.6362 210.82 60.2606 210.569C73.969 209.906 93.1963 209.388 99.1976 197.45ZM302.961 197.297C309.379 195.428 316.227 191.296 316.224 189.295C316.224 188.333 309.239 187.948 286.493 187.656L256.764 187.273L255.789 190.708C254.617 194.839 251.611 195.697 248.956 192.659L247.137 190.577L246.038 192.869C244.814 195.421 241.144 196.415 239.179 194.726C238.465 194.112 236.537 193.909 234.814 194.266C230.801 195.097 228.775 193.308 228.775 188.93C228.775 185.514 228.748 185.494 224.154 185.494H219.533L223.312 189.501C227.976 194.447 234.939 197.645 243.43 198.739C246.989 199.198 260.513 199.448 273.483 199.294C291.994 199.075 298.333 198.645 302.961 197.297ZM52.5771 184.476C59.1737 184.476 59.8861 184.274 60.6576 182.187C61.1231 180.927 63.6136 174.173 66.1919 167.178C68.7703 160.182 72.1626 151.788 73.7306 148.525L76.5813 142.593L74.4161 135.806C73.2254 132.073 70.806 125.584 69.0399 121.387C64.4743 110.536 62.0544 102.71 57.7564 84.897C55.6824 76.3007 53.7495 69.023 53.4614 68.7246C52.8553 68.0971 53.1286 67.2745 48.4773 83.737C43.0776 102.849 37.8987 119.331 32.4907 134.615C22.6448 162.443 15.5526 183.359 15.5526 184.568C15.5526 185.522 19.0208 185.656 30.4478 185.144C38.6403 184.777 48.5983 184.476 52.5771 184.476ZM101.331 176.335C102.888 172.138 104.37 167.788 104.626 166.669C104.882 165.549 103.295 160.171 101.1 154.717C97.043 144.64 96.3487 141.327 98.0643 140.229C99.0908 139.572 100.145 140.7 105.18 147.844L108.408 152.423L108.714 149.132C109.37 142.095 103.876 136.999 94.4136 135.868C88.9678 135.217 87.78 136.331 83.2347 146.351C79.3133 154.995 69.5952 181.016 69.5954 182.872C69.5954 183.604 74.3847 183.967 84.0486 183.967H98.5018L101.331 176.335ZM270.044 177.503C270.044 175.686 261.088 160.82 256.154 154.447C244.982 140.016 231.25 128.577 226.84 130.027C223.976 130.968 219.88 136.945 218.852 141.684C218.196 144.708 218.376 146.992 219.558 150.611C221.881 157.729 228.253 172.073 230.439 175.105L232.331 177.729L236.469 176.015C238.744 175.072 241.523 174.3 242.644 174.3C244.535 174.3 244.631 173.917 243.985 168.958C242.989 161.31 240.414 154.891 235.131 146.883C230.722 140.201 230.197 137.668 233.219 137.668C235.561 137.668 246.877 149.423 249.227 154.297C251.48 158.968 254.275 170.583 254.306 175.403C254.319 176.849 254.505 178.222 254.728 178.456C255.409 179.169 270.044 178.258 270.044 177.503ZM310.441 177.725C310.772 177.55 308.655 170.869 305.737 162.879C302.819 154.89 297.823 141.026 294.634 132.071C291.446 123.117 285.449 106.632 281.308 95.4388C277.167 84.2454 273.075 72.9124 272.216 70.254C271.355 67.5957 270.404 65.4205 270.102 65.4205C268.938 65.4205 257.3 93.9775 253.856 105.284C251.225 113.921 249.345 118.226 246.968 121.056C244.397 123.675 244.091 126.537 242.987 122.06C240.778 113.1 247.835 89.2039 257.988 71.2633C259.854 67.966 261.23 65.153 261.046 65.0122C260.861 64.8716 259.103 63.7565 257.138 62.5343C253.588 60.3249 253.309 60.3137 208.5 60.5768C164.104 60.8378 163.436 60.8719 163.614 62.8766C163.715 63.996 164.111 80.7282 164.496 100.059C165.21 135.892 165.018 138.573 161.566 140.96C159.587 142.328 156.389 141.762 154.612 139.729C153.176 138.085 152.967 136.65 153.463 131.843C153.796 128.61 154.123 111.313 154.19 93.4037C153.587 60.5518 153.862 60.5709 149.239 60.5095L122.024 60.1486C104.264 59.913 82.8838 59.0336 74.5071 58.5176C66.1305 58.0017 59.1111 57.7222 58.9086 57.8963C58.4122 58.3224 71.1412 98.698 74.594 107.65C77.7763 115.9 83.5491 129.492 84.6072 131.226C85.1441 132.105 86.1629 131.978 88.5179 130.737C90.4852 129.7 93.9764 129.078 97.651 129.11L103.6 129.162L99.904 125.704C97.8712 123.802 95.9384 121.366 95.6087 120.29C95.2194 119.02 94.1117 118.334 92.4506 118.334C89.424 118.334 86.2983 115.704 86.2983 113.157C86.2983 112.162 85.4166 111.058 84.3388 110.704C77.0231 108.299 78.5025 95.4624 88.4486 91.5439C95.9309 88.5959 100.952 87.5177 107.915 83.4411C115.504 79.8 124.271 77.9755 131.498 82.2733C134.577 84.1522 134.946 84.8438 135.021 88.8876C135.068 91.3714 135.841 95.106 136.74 97.1867C137.64 99.2676 138.376 102.129 138.376 103.546C138.376 105.69 138.838 106.123 141.127 106.123C144.457 106.123 146.237 107.776 146.237 110.87C146.237 113.505 143.642 115.281 139.793 115.281C137.891 115.281 136.055 116.569 133.244 119.876C127.721 126.788 119.428 130.015 113.126 130.036C106.507 130.036 106.224 130.125 108.705 131.429C113.088 133.733 116.713 137.845 117.742 141.68C119.049 146.551 118.978 155.379 117.594 160.164C116.567 163.712 116.695 164.434 118.99 168.025C122.345 173.274 125.259 173.774 136.1 170.955L144.757 168.704L145.398 163.994C146.286 157.47 147.628 155.311 152.338 152.822C155.321 151.247 157.552 150.805 160.686 151.171C164.171 151.578 165.145 151.316 165.951 149.757C167.388 146.977 169.235 147.395 172.491 151.236C175.076 154.285 176.409 157.868 178.128 166.389C178.6 168.727 179.546 169.422 184.147 170.807C187.15 171.711 190.653 172.178 191.931 171.846C196.218 170.732 211.081 149.383 211.097 144.317C211.121 137.087 218.816 125.993 225.69 123.28C229.444 121.798 232.687 122.778 241.799 128.145C256.525 136.82 275.297 159.058 280.059 173.471C280.672 175.326 281.654 177.199 282.241 177.632C283.226 178.36 309.083 178.445 310.441 177.725ZM200.59 126.062C194.869 124.601 191.667 122.683 187.611 118.287C185.717 116.234 183.881 115.281 181.82 115.281C178.393 115.281 175.333 112.694 176.15 110.488C176.578 108.124 177.838 108.166 179.677 108.159C183.05 108.159 183.225 107.814 183.911 99.8072C184.347 94.7167 184.175 93.9233 182.517 93.3784C176.804 91.5007 178.335 84.0505 185.135 80.6417C188.977 78.7155 190.806 78.5222 202.341 78.8221C219.58 78.379 227.152 90.4499 227.302 105.18C227.302 111.868 226.947 113.44 224.622 117.08C219.543 125.028 210.204 128.518 200.59 126.062ZM213.776 112.932C216.582 110.316 217.501 105.231 216.011 100.557C214.607 96.1514 211.996 94.2305 204.747 92.27C198.395 90.5523 196.213 91.3016 193.863 96.0077C192.347 99.0448 192.352 99.0568 194.811 98.4173C196.815 97.8968 197.498 98.264 198.42 100.358C199.044 101.778 199.291 103.657 198.966 104.532C198.264 106.427 193.793 106.668 193.034 104.852C192.742 104.152 192.595 105.626 192.707 108.126C192.875 111.883 193.366 112.936 195.534 114.191C197.997 115.616 198.283 115.556 200.224 113.206C201.36 111.829 203.158 109.016 204.219 106.956C206.608 102.314 207.797 101.508 209.762 103.198C211.336 104.55 211.23 110.434 209.556 114.685C208.669 116.94 210.125 116.335 213.776 112.932ZM165.609 162.801C165.053 161.301 156.397 158.353 155.445 159.338C155.135 159.659 156.644 160.412 158.798 161.012C160.951 161.613 163.269 162.799 163.95 163.648C165.367 165.417 166.386 164.897 165.609 162.801ZM107.916 118.995C107.916 118.798 107.446 117.24 106.871 115.531C104.917 109.728 109.19 100.136 111.25 105.698C111.578 106.583 111.847 108.147 111.847 109.174C111.847 110.2 113.674 112.539 115.907 114.371C119.861 118.109 120.88 119.058 124.283 115.212C127.166 111.954 127.78 109.22 127.78 104.536C127.78 100.458 126.885 97.9113 124.995 95.0306C122.149 90.6939 120.52 91.1466 116.912 93.7821C115.477 94.8297 111.871 96.9503 108.899 98.4944C105.927 100.039 103.17 101.815 102.773 102.441C101.175 104.961 101.986 113.943 104.057 116.671C105.784 118.943 107.916 120.228 107.916 118.995ZM116.956 106.937C114.257 104.142 116.465 97.9827 120.167 97.9827C123.152 97.9827 124.236 101.154 122.625 105.181C121.384 108.284 118.977 109.03 116.956 106.937ZM162.441 36.9491C164.878 31.9232 166.852 27.2297 166.828 26.519C166.803 25.8082 164.674 22.8305 162.097 19.9017L157.411 14.5764L151.807 21.6304C144.668 29.7646 146.048 28.4237 151.379 37.3768C154.226 42.1574 156.882 46.0728 157.282 46.0779C157.682 46.0915 160.003 41.9748 162.441 36.9491Z" fill="#BA882F"/>
</g>
<defs>
<clipPath id="clip0_272_57">
<rect width="329" height="293" fill="white"/>
</clipPath>
</defs>
</svg>
