<svg width="414" height="245" viewBox="0 0 414 245" fill="none" xmlns="http://www.w3.org/2000/svg">
<g clip-path="url(#clip0_189_701)">
<path d="M207.134 4.55249L192.834 17.3449L206.48 39.1265C196.684 43.6621 202.5 134.757 200.51 181.561C186.362 184.503 184.544 192.818 181.001 200.381C168.448 203.085 167.85 211.647 166.082 219.636C155.621 221.661 142.357 237.417 155.136 241.637L262.39 243.244C276.685 241.434 267.995 223.351 248.398 216.823C252.927 202.463 240.636 198.919 225.535 197.233C229.082 190.614 238.829 179.925 213.578 182.827L213.975 37.4038L222.927 13.8108C209.807 19.0292 210.594 9.5458 207.134 4.55249ZM74.4031 17.3982C73.7206 17.3871 73.0011 17.4179 72.2418 17.4948C53.8564 19.3572 59.9709 38.9603 75.9927 40.0988C86.4678 35.3112 88.2817 17.625 74.4031 17.3982ZM334.643 20.3791C334.14 20.3842 333.613 20.4104 333.059 20.462C315.36 22.1028 326.542 40.0459 335.354 37.7411C342.324 41.7962 350.246 20.2386 334.643 20.3791ZM138.708 144.172C90.9168 150.157 45.8872 151.159 4.83951 144.976C8.72362 155.792 15.2565 174.645 73.8268 173.808C132.397 172.971 138.708 144.172 138.708 144.172ZM271.469 144.593C279.105 174.363 286.335 173.009 340.985 174.631C395.636 176.254 410.859 144.627 410.859 144.627L271.469 144.593Z" fill="#96F2C7"/>
<path d="M140.025 243.314C138.373 242.158 139.86 238.311 142.119 236.655C149.453 229.19 151.074 217.678 160.488 217.462C161.978 217.86 165.012 217.233 164.483 216.168C163.254 213.689 163.118 211.947 163.983 209.745C167.274 200.221 174.988 200.064 180.898 195.636C179.069 189.137 183.976 182.691 191.91 180.336C194.166 179.666 196.182 178.974 196.39 178.799C196.599 178.623 196.93 165.018 197.126 148.564C197.322 132.111 197.683 117.135 197.928 115.283C200.453 94.3668 196.911 70.5969 198.924 48.8082C199.191 45.9388 198.552 41.7373 198.836 39.5984C176.547 37.6491 109.097 38.1645 85.2613 38.3077C82.6898 38.6985 80.997 40.7228 84.449 45.3847C105.426 73.5874 122.135 109.2 138.078 131.763C140.594 135.324 144.943 141.472 142.763 147.259C139.927 153.752 135.558 157.622 132.407 161.732C117.523 175.516 86.6124 179.347 63.4539 177.974C57.1713 177.576 53.4849 177.238 39.8287 175.807C38.2534 175.642 34.4805 174.897 31.4444 174.151C14.9121 169.729 7.17125 162.89 0.712786 150.465C-1.14309 147.535 0.872312 142.547 3.91248 142.547C5.83196 142.547 6.11643 142.202 11.9699 132.786C31.6562 103.022 47.3088 68.7572 66.7045 42.7352C70.1698 40.1704 62.2942 35.267 61.3368 33.3185C55.1915 28.308 62.2944 18.4771 66.8016 15.9875C71.2987 13.5033 79.012 15.145 83.6167 19.5662C86.6468 22.4756 88.6373 29.8504 83.7208 34.0328C97.4924 32.1155 196.212 36.3209 201.39 33.5585C201.256 33.1273 200.67 31.6329 197.816 27.1004C193.371 20.0437 192.348 18.8589 190.692 18.8542C187.842 18.8461 187.495 15.965 188.502 14.3803C193.756 10.8438 198.165 8.31551 201.968 3.25081C203.294 1.43452 204.937 0 205.692 0C208.205 0 210.438 1.95262 210.972 4.61826C211.895 9.22464 214.831 11.337 222.69 13.0495C225.598 14.2422 226.008 17.7868 223.969 18.6169C221.105 19.0029 220.908 19.2009 219.474 23.142C217.47 28.6487 216.974 33.2373 217.629 33.2373C283.145 34.3801 302.631 33.4284 318.256 34.3167L322.725 32.6525L323.179 28.9517C323.907 23.0038 329.257 15.6547 332.86 15.6547C343.728 14.0122 344.566 24.2556 346.819 29.3413C348.294 32.69 348.421 33.6795 347.679 36.073C347.201 37.6162 346.36 39.1818 345.809 39.5521C345.259 39.9223 344.165 41.0583 343.379 42.0765C341.413 44.6233 337.999 44.6233 336.534 42.0765C335.949 41.0583 335.547 39.8466 335.643 39.3838C336.173 36.8076 332.602 39.9235 331.423 43.0655C314.35 78.4327 305.794 92.7815 292.139 120.931L281.566 141.537L286.497 141.596C324.014 141.784 369.757 141.984 402.022 141.376C386.073 111.713 358.399 80.0738 341.776 50.615C338.825 45.3061 341.923 41.5625 345.143 47.0256C361.09 72.8463 390.801 107.752 405.253 135.478C408.839 138.674 414 144.284 414 144.284C414 147.86 413.699 148.8 412.142 150.092C405.249 159.888 398.528 170.282 388.147 173.753C369.727 179.912 309.328 179.959 289.476 172.666C280.962 168.182 272.479 159.13 271.449 151.391C267.511 142.754 272.733 143.63 276.545 139.65C277.484 138.537 278.253 137.315 278.253 136.935C278.253 136.555 279.304 134.481 280.588 132.327C297.839 99.783 308.813 80.4656 326.224 41.167L328.378 38.0697L325.946 38.0114C301.057 39.3501 246.364 36.3209 218.556 37.7009C218.568 38.5339 218.147 41.0296 218.245 44.9892C217.035 92.789 214.501 129.189 216.402 179.616C216.572 179.848 217.78 180.063 219.085 180.095C226.071 180.262 236.546 187.03 232.959 195.047C246.861 197.553 253.998 206.342 251.397 213.29C250.863 214.701 251.04 214.772 254.75 214.636C258.98 214.481 256.572 214.539 263.41 220.405C266.49 223.226 283.539 239.235 279.741 243.576L272.951 244.316C241.424 244.132 197.769 246.522 140.025 243.314ZM268.809 236.119C268.465 234.818 262.308 227.678 258.846 224.564C256.557 222.506 255.382 222.023 251.717 221.637C249.293 221.382 244.69 221.521 241.431 221.95C227.76 223.745 219.105 224.1 190.068 224.057C173.43 224.032 163.471 223.767 162.959 223.336C161.044 221.721 159.517 222.773 156.861 227.534C156.847 230.292 150.561 234.131 151.432 236.833C198.278 241.093 232.649 238.697 258.631 237.343C262.124 238.131 269.119 237.289 268.809 236.119ZM218.764 216.992C237.429 216.195 242.2 215.554 242.411 214.18C244.091 210.078 243.546 208.723 238.779 205.188C229.788 202.167 203.889 206.552 184.146 203.4C180.889 203.007 171.123 204.034 170.603 212.701C168.95 219.981 207.842 217.431 218.764 216.992ZM88.6069 170.378C100.832 168.365 114.779 166.646 122.994 159.858C128.626 155.038 133.192 148.605 130.982 148.605C128.373 148.862 124.116 149.431 120.781 149.852C96.1714 151.914 76.7772 151.905 43.8905 151.696C39.6977 151.189 28.7672 151.033 28.2465 151.472C27.9959 151.683 28.2064 152.511 28.7155 153.312C30.2459 155.723 26.4553 161.237 23.0498 161.554C21.3187 161.715 21.1086 161.447 20.883 158.798C20.739 157.107 21.162 154.926 21.8813 153.648C23.3899 150.968 23.4278 150.522 22.131 150.713C21.582 150.793 18.321 150.618 14.8842 150.322C11.1044 149.996 8.33703 150.035 7.87978 150.421C9.85807 155.63 16.7464 162.172 22.131 164.374C23.7399 165.092 33.9218 169.266 34.3087 167.65C34.3087 167.354 33.117 166.046 32.6369 165.641C32.0054 165.109 32.0231 163.853 32.7009 161.102C33.55 157.654 33.7989 157.341 35.3702 157.74C37.7349 158.341 38.2161 158.798 39.0413 161.223C39.6173 162.917 38.231 165.985 37.013 166.914C35.2464 169.359 34.7877 168.338 38.138 168.9C39.5653 169.119 41.0606 168.936 41.9936 169.167C43.5367 169.548 43.7393 169.253 44.2359 165.903C44.5361 163.877 45.2991 161.655 45.9313 160.966C47.0337 159.764 47.1634 159.79 49.0793 161.601C50.1783 162.64 51.0774 164.131 51.0774 164.914C51.0774 166.558 48.9329 168.8 47.3604 168.8C46.7697 168.8 46.2863 169.077 46.2863 169.416C57.2504 171.759 77.9157 172.216 88.6069 170.378ZM225.393 189.76C225.081 188.332 218.066 185.405 214.957 185.405C213.631 185.405 212.112 185.909 211.576 186.527C210.334 187.959 202.933 188.053 199.803 186.677C196.49 185.219 192.441 186.051 189.608 188.771C186.936 191.337 186.517 193.488 188.62 193.847C189.851 193.605 230.839 199.915 225.393 189.76ZM207.335 163.174C207.418 153.495 207.54 144.516 207.607 143.22C207.674 141.924 207.982 132.382 208.291 122.015C212.107 95.2846 210.038 66.9883 210.379 41.235C210.379 39.27 209.217 39.0879 206.242 40.385L205.002 41.5138L204.902 52.3936C203.823 93.7573 203.05 137.429 204.733 181.064C204.764 181.33 205.329 181.374 205.988 181.161C207.005 180.832 207.208 178.117 207.335 163.174ZM130.594 142.416C134.115 142.006 134.894 142.007 136.373 141.461C138.199 140.787 134.962 138.294 132.941 134.585C112.697 108.287 94.2242 68.4552 76.9086 42.9321C76.5974 42.6602 76.2207 42.4888 74.3247 42.7616C57.3921 62.9532 34.244 105.974 20.2583 128.073C15.7872 135.227 14.7396 136.775 12.5264 139.505C11.3311 140.98 10.3531 142.379 10.3531 142.614C10.3531 142.85 13.3176 143.086 16.9408 143.14C34.6679 143.402 53.9017 144.033 54.2645 144.364C81.3805 146.729 118.704 143.79 130.594 142.416ZM384.94 167.087C391.924 163.619 402.797 154.578 405.496 148.073C385.785 145.851 321.371 148.753 291.239 147.994L278.272 147.632L277.762 149.346C277.079 151.64 280.739 157.733 285.271 161.847C291.162 167.195 299.823 169.063 326.962 170.842C344.262 170.385 371.087 173.5 384.94 167.087ZM313.451 165.684C311.921 161.378 314.937 158.474 318.029 161.276C320.212 163.253 319.532 166.112 316.585 167.351C314.405 168.268 314.361 168.244 313.451 165.684ZM304.763 164.29C303.378 163.122 303.586 159.357 305.094 158.302C306.198 157.53 306.59 157.615 307.815 158.89C309.252 160.386 309.159 162.56 307.585 164.256C306.608 165.308 305.98 165.315 304.763 164.29ZM293.008 159.207C294.229 153.698 298.111 153.499 298.547 158.924C298.684 160.624 296.964 161.732 294.187 161.732C292.611 161.732 292.501 161.496 293.008 159.207ZM284.031 159.043C282.025 156.335 283.529 151.634 286.402 151.634C287.054 151.634 288.215 152.219 288.981 152.933C290.214 154.081 290.254 154.529 289.332 156.803C288.758 158.218 288.276 159.414 288.261 159.46C288.246 159.507 287.511 159.732 286.626 159.96C285.523 160.245 284.708 159.955 284.031 159.043ZM74.6104 28.2403C74.224 27.3912 73.8395 27.2747 73.2006 27.8133C72.7175 28.2205 72.5615 29.0791 72.8538 29.7213C73.2403 30.5704 73.6248 30.6869 74.2636 30.1484C74.7467 29.7411 74.9028 28.8825 74.6104 28.2403ZM80.5194 23.9476C80.5194 22.343 77.6253 20.6333 73.62 19.8718C70.9598 19.366 69.4018 19.1124 67.3539 20.9605C65.1293 22.9682 60.5461 29.1886 67.8104 33.8186C71.2808 36.0306 65.2988 30.8829 68.3564 25.1412C70.0262 21.7185 74.1397 21.4623 76.6001 23.5244C78.9889 25.5268 80.5194 25.692 80.5194 23.9476ZM214.909 17.2607C214.909 17.2607 210.214 13.8367 207.244 9.48847C203.293 12.5162 200.274 15.6931 198.147 17.3864C199.444 20.8595 207.218 31.8029 209.017 32.9852C212.014 29.2671 212.893 21.7009 214.909 17.2607ZM331.753 28.7548C331.753 27.5724 334.307 26.9374 336.876 27.4809C341.544 27.8953 335.186 19.5996 331.578 23.9009C330.074 25.8685 328.574 29.5792 329.101 30.0242C329.81 30.6214 331.753 29.6911 331.753 28.7548Z" fill="#67C797"/>
</g>
<defs>
<clipPath id="clip0_189_701">
<rect width="414" height="245" fill="white"/>
</clipPath>
</defs>
</svg>
