<svg width="1436" height="223" viewBox="0 0 1436 223" fill="none" xmlns="http://www.w3.org/2000/svg">
<path id="Vector" d="M856.807 212.096C823.317 217.828 780.491 211.179 744.927 199.944C709.955 188.709 639.864 146.061 596.001 118.088C483.676 44.2568 397.877 16.0543 310.596 4.13129C275.624 -0.683777 238.43 -3.89383 157.373 9.86349C76.3153 23.6208 0 68.5614 0 68.5614V227H1482V157.525C1482 157.525 1375.31 82.7773 1247.27 87.5924C1189.19 89.1974 1109.76 102.955 1048.71 138.953C1017.29 157.525 971.354 180.684 930.603 194.441C890.297 208.886 872.07 209.803 856.807 212.096Z" fill="#A2C7EB"/>
</svg>
